<svg viewBox="200 550 1200 400" width="1200" height="400" xmlns="http://www.w3.org/2000/svg" style="background-color: transparent;"><path d="M 282.5 295.0 C 347.7 358.4, 276.2 415.2, 351.4 497.0" stroke="rgb(200,200,200)" fill="none"/><path d="M 351.4 497.0 C 408.7 559.2, 522.9 330.2, 550.3 429.7" stroke="rgb(200,200,200)" fill="none"/><path d="M 550.3 429.7 C 568.6 496.2, 509.2 369.2, 443.8 366.9" stroke="rgb(200,200,200)" fill="none"/><path d="M 443.8 366.9 C 376.6 364.6, 445.5 547.3, 413.6 498.5" stroke="rgb(200,200,200)" fill="none"/><path d="M 413.6 498.5 C 391.1 464.2, 411.0 445.7, 410.1 408.1" stroke="rgb(200,200,200)" fill="none"/><path d="M 410.1 408.1 C 408.6 349.1, 463.8 460.7, 521.1 425.6" stroke="rgb(200,200,200)" fill="none"/><path d="M 521.1 425.6 C 608.6 371.9, 368.8 391.8, 350.7 308.5" stroke="rgb(200,200,200)" fill="none"/><path d="M 350.7 308.5 C 334.0 231.9, 193.6 456.2, 282.8 459.7" stroke="rgb(200,200,200)" fill="none"/><path d="M 282.8 459.7 C 327.4 461.4, 294.0 407.3, 318.4 369.0" stroke="rgb(200,200,200)" fill="none"/><path d="M 318.4 369.0 C 348.9 321.2, 426.3 362.0, 431.0 414.6" stroke="rgb(200,200,200)" fill="none"/><path d="M 431.0 414.6 C 438.8 501.9, 275.1 553.4, 277.7 463.3" stroke="rgb(200,200,200)" fill="none"/><path d="M 277.7 463.3 C 279.7 393.7, 411.3 370.1, 388.7 423.6" stroke="rgb(200,200,200)" fill="none"/><path d="M 388.7 423.6 C 359.2 493.2, 484.2 432.5, 545.2 398.8" stroke="rgb(200,200,200)" fill="none"/><path d="M 545.2 398.8 C 758.5 280.9, 759.6 944.5, 824.9 708.8" stroke="rgb(200,200,200)" fill="none"/><path d="M 824.9 708.8 C 855.7 597.3, 907.4 815.9, 972.8 930.6" stroke="rgb(200,200,200)" fill="none"/><path d="M 972.8 930.6 C 1010.7 997.2, 1014.7 1142.3, 913.0 1105.9" stroke="rgb(200,200,200)" fill="none"/><path d="M 913.0 1105.9 C 846.1 1082.0, 939.0 928.3, 1003.3 979.0" stroke="rgb(200,200,200)" fill="none"/><path d="M 1003.3 979.0 C 1088.1 1046.0, 1157.4 796.7, 1196.2 886.7" stroke="rgb(200,200,200)" fill="none"/><path d="M 1196.2 886.7 C 1239.3 986.9, 1000.9 1063.8, 980.4 941.8" stroke="rgb(200,200,200)" fill="none"/><path d="M 980.4 941.8 C 941.4 709.7, 464.6 604.2, 550.9 786.5" stroke="rgb(200,200,200)" fill="none"/><path d="M 550.9 786.5 C 601.7 893.9, 328.8 770.6, 351.3 897.1" stroke="rgb(200,200,200)" fill="none"/><path d="M 351.3 897.1 C 399.1 1165.0, 708.7 927.8, 789.8 1236.3" stroke="rgb(200,200,200)" fill="none"/><path d="M 789.8 1236.3 C 807.7 1304.6, 901.4 1074.8, 905.0 1144.7" stroke="rgb(200,200,200)" fill="none"/><path d="M 905.0 1144.7 C 907.9 1200.3, 779.6 1174.1, 784.0 1097.1" stroke="rgb(200,200,200)" fill="none"/><path d="M 784.0 1097.1 C 790.9 976.7, 606.2 1163.0, 510.2 1067.3" stroke="rgb(200,200,200)" fill="none"/><path d="M 510.2 1067.3 C 469.6 1026.7, 439.3 1054.6, 393.4 1020.9" stroke="rgb(200,200,200)" fill="none"/><path d="M 393.4 1020.9 C 320.7 967.4, 446.7 724.0, 360.4 813.1" stroke="rgb(200,200,200)" fill="none"/><path d="M 360.4 813.1 C 322.9 851.8, 443.6 889.8, 401.2 913.2" stroke="rgb(200,200,200)" fill="none"/><path d="M 401.2 913.2 C 355.6 938.4, 427.7 1030.3, 471.7 992.5" stroke="rgb(200,200,200)" fill="none"/><path d="M 471.7 992.5 C 503.6 965.2, 460.4 1039.5, 489.1 1093.0" stroke="rgb(200,200,200)" fill="none"/><path d="M 489.1 1093.0 C 520.8 1152.3, 646.2 969.5, 566.0 979.7" stroke="rgb(200,200,200)" fill="none"/><path d="M 566.0 979.7 C 504.5 987.6, 593.4 919.6, 638.3 843.9" stroke="rgb(200,200,200)" fill="none"/><path d="M 638.3 843.9 C 780.0 604.6, 959.7 738.3, 1195.8 889.1" stroke="rgb(200,200,200)" fill="none"/><path d="M 1195.8 889.1 C 1262.2 931.5, 1271.4 851.7, 1331.7 882.3" stroke="rgb(200,200,200)" fill="none"/><path d="M 1331.7 882.3 C 1380.5 907.1, 1332.5 809.7, 1316.3 754.6" stroke="rgb(200,200,200)" fill="none"/><path d="M 1316.3 754.6 C 1298.8 695.4, 1218.5 891.5, 1224.3 833.8" stroke="rgb(200,200,200)" fill="none"/><path d="M 1224.3 833.8 C 1229.8 779.6, 1248.7 785.2, 1268.2 746.8" stroke="rgb(200,200,200)" fill="none"/><path d="M 1268.2 746.8 C 1291.7 700.6, 1170.4 777.4, 1172.9 735.8" stroke="rgb(200,200,200)" fill="none"/><path d="M 1172.9 735.8 C 1177.5 657.3, 1063.1 731.3, 1031.9 670.0" stroke="rgb(200,200,200)" fill="none"/><path d="M 1031.9 670.0 C 921.8 453.5, 865.7 794.1, 663.4 994.4" stroke="rgb(200,200,200)" fill="none"/><path d="M 663.4 994.4 C 565.0 1091.9, 883.1 1232.2, 890.6 1086.5" stroke="rgb(200,200,200)" fill="none"/><path d="M 890.6 1086.5 C 893.8 1025.4, 946.5 970.2, 996.6 1019.9" stroke="rgb(200,200,200)" fill="none"/><path d="M 996.6 1019.9 C 1026.2 1049.2, 974.7 1061.5, 940.3 1096.5" stroke="rgb(200,200,200)" fill="none"/><path d="M 940.3 1096.5 C 890.4 1147.4, 859.5 1157.5, 776.0 1130.7" stroke="rgb(200,200,200)" fill="none"/><path d="M 776.0 1130.7 C 554.2 1059.4, 978.0 595.0, 772.8 706.1" stroke="rgb(200,200,200)" fill="none"/><path d="M 772.8 706.1 C 713.0 738.4, 676.0 695.6, 609.0 730.7" stroke="rgb(200,200,200)" fill="none"/><path d="M 609.0 730.7 C 569.0 751.6, 553.8 683.8, 508.1 707.8" stroke="rgb(200,200,200)" fill="none"/><path d="M 508.1 707.8 C 439.7 743.6, 648.1 668.4, 691.9 748.4" stroke="rgb(200,200,200)" fill="none"/><path d="M 691.9 748.4 C 748.7 852.1, 940.1 728.3, 884.6 633.0" stroke="rgb(200,200,200)" fill="none"/><path d="M 884.6 633.0 C 857.8 587.0, 913.8 723.5, 874.4 729.9" stroke="rgb(200,200,200)" fill="none"/><path d="M 874.4 729.9 C 796.1 742.8, 795.6 880.2, 764.5 815.3" stroke="rgb(200,200,200)" fill="none"/><path d="M 764.5 815.3 C 741.3 767.0, 921.9 800.7, 871.8 754.3" stroke="rgb(200,200,200)" fill="none"/><path d="M 871.8 754.3 C 736.0 628.5, 699.5 754.5, 503.6 719.5" stroke="rgb(200,200,200)" fill="none"/><path d="M 503.6 719.5 C 455.8 711.0, 456.8 741.9, 414.9 739.0" stroke="rgb(200,200,200)" fill="none"/><path d="M 414.9 739.0 C 305.4 731.4, 396.9 436.1, 482.0 515.9" stroke="rgb(200,200,200)" fill="none"/><path d="M 482.0 515.9 C 510.9 543.1, 446.6 423.0, 487.9 426.0" stroke="rgb(200,200,200)" fill="none"/><path d="M 487.9 426.0 C 538.4 429.7, 396.9 407.0, 394.7 343.9" stroke="rgb(200,200,200)" fill="none"/><path d="M 394.7 343.9 C 392.4 278.0, 270.0 405.7, 267.8 348.2" stroke="rgb(200,200,200)" fill="none"/><path d="M 267.8 348.2 C 263.8 245.6, 598.8 403.6, 492.7 433.3" stroke="rgb(200,200,200)" fill="none"/><path d="M 492.7 433.3 C 437.7 448.7, 363.5 597.3, 434.1 561.6" stroke="rgb(200,200,200)" fill="none"/><path d="M 434.1 561.6 C 643.4 455.9, 918.4 853.8, 717.1 833.6" stroke="rgb(200,200,200)" fill="none"/><path d="M 717.1 833.6 C 616.6 823.5, 624.0 885.3, 542.0 973.6" stroke="rgb(200,200,200)" fill="none"/><path d="M 542.0 973.6 C 453.8 1068.5, 397.1 938.7, 365.7 793.3" stroke="rgb(200,200,200)" fill="none"/><path d="M 365.7 793.3 C 354.2 740.0, 464.9 682.1, 467.3 736.8" stroke="rgb(200,200,200)" fill="none"/><path d="M 467.3 736.8 C 469.5 787.8, 381.8 736.8, 364.5 806.3" stroke="rgb(200,200,200)" fill="none"/><path d="M 364.5 806.3 C 352.0 856.2, 434.2 893.9, 376.2 918.7" stroke="rgb(200,200,200)" fill="none"/><path d="M 376.2 918.7 C 330.9 938.1, 444.0 945.2, 463.9 992.5" stroke="rgb(200,200,200)" fill="none"/><path d="M 463.9 992.5 C 513.7 1110.9, 695.0 998.9, 665.2 1116.9" stroke="rgb(200,200,200)" fill="none"/><path d="M 665.2 1116.9 C 626.3 1271.0, 893.1 1054.4, 948.0 1157.4" stroke="rgb(200,200,200)" fill="none"/><path d="M 948.0 1157.4 C 1005.1 1264.5, 882.8 966.9, 998.6 924.2" stroke="rgb(200,200,200)" fill="none"/><path d="M 998.6 924.2 C 1112.1 882.4, 864.6 646.4, 945.1 700.5" stroke="rgb(200,200,200)" fill="none"/><path d="M 945.1 700.5 C 987.3 728.9, 849.8 675.3, 829.0 724.8" stroke="rgb(200,200,200)" fill="none"/><path d="M 829.0 724.8 C 799.5 795.1, 680.3 646.0, 643.4 724.7" stroke="rgb(200,200,200)" fill="none"/><path d="M 643.4 724.7 C 613.2 789.3, 819.8 646.9, 812.1 721.7" stroke="rgb(200,200,200)" fill="none"/><path d="M 812.1 721.7 C 807.0 771.6, 839.1 772.0, 892.8 763.7" stroke="rgb(200,200,200)" fill="none"/><path d="M 892.8 763.7 C 950.4 754.8, 788.6 648.2, 801.4 696.4" stroke="rgb(200,200,200)" fill="none"/><path d="M 801.4 696.4 C 815.8 750.1, 786.8 765.1, 792.1 816.4" stroke="rgb(200,200,200)" fill="none"/><path d="M 792.1 816.4 C 798.5 877.9, 852.2 761.4, 902.1 777.3" stroke="rgb(200,200,200)" fill="none"/><path d="M 902.1 777.3 C 956.8 794.8, 932.2 936.1, 953.3 890.5" stroke="rgb(200,200,200)" fill="none"/><path d="M 953.3 890.5 C 970.9 852.3, 862.0 798.5, 906.2 805.6" stroke="rgb(200,200,200)" fill="none"/><path d="M 906.2 805.6 C 977.2 817.1, 920.4 926.0, 988.8 902.3" stroke="rgb(200,200,200)" fill="none"/><path d="M 988.8 902.3 C 1115.6 858.4, 890.3 744.0, 1006.0 669.4" stroke="rgb(200,200,200)" fill="none"/><path d="M 1006.0 669.4 C 1103.0 606.8, 1068.9 1035.8, 1152.3 915.2" stroke="rgb(200,200,200)" fill="none"/><path d="M 1152.3 915.2 C 1349.2 630.6, 848.2 672.9, 420.2 757.7" stroke="rgb(200,200,200)" fill="none"/><path d="M 420.2 757.7 C 299.3 781.6, 388.3 863.4, 439.4 973.9" stroke="rgb(200,200,200)" fill="none"/><path d="M 439.4 973.9 C 478.4 1058.2, 610.7 1027.7, 574.1 1111.3" stroke="rgb(200,200,200)" fill="none"/><path d="M 574.1 1111.3 C 550.7 1164.9, 486.6 1015.8, 453.1 1064.9" stroke="rgb(200,200,200)" fill="none"/><path d="M 453.1 1064.9 C 421.9 1110.6, 569.1 1035.6, 580.5 1109.0" stroke="rgb(200,200,200)" fill="none"/><path d="M 580.5 1109.0 C 587.2 1152.8, 474.8 1007.2, 488.9 1065.7" stroke="rgb(200,200,200)" fill="none"/><path d="M 488.9 1065.7 C 499.8 1110.9, 501.9 964.9, 544.3 994.6" stroke="rgb(200,200,200)" fill="none"/><path d="M 544.3 994.6 C 749.1 1138.1, 816.9 650.5, 971.7 796.1" stroke="rgb(200,200,200)" fill="none"/><path d="M 971.7 796.1 C 1042.8 863.0, 770.4 705.8, 784.2 795.2" stroke="rgb(200,200,200)" fill="none"/><path d="M 784.2 795.2 C 794.2 860.1, 739.1 829.4, 726.9 892.3" stroke="rgb(200,200,200)" fill="none"/><path d="M 726.9 892.3 C 711.1 972.8, 768.2 836.4, 841.4 800.3" stroke="rgb(200,200,200)" fill="none"/><path d="M 841.4 800.3 C 917.4 762.8, 737.8 620.6, 810.9 631.6" stroke="rgb(200,200,200)" fill="none"/><path d="M 810.9 631.6 C 984.2 657.8, 671.9 804.0, 720.6 952.2" stroke="rgb(200,200,200)" fill="none"/><path d="M 720.6 952.2 C 733.7 992.0, 739.1 895.5, 779.8 882.0" stroke="rgb(200,200,200)" fill="none"/><path d="M 779.8 882.0 C 886.8 846.3, 755.4 718.3, 864.1 678.9" stroke="rgb(200,200,200)" fill="none"/><path d="M 864.1 678.9 C 936.3 652.6, 856.3 747.6, 903.7 821.7" stroke="rgb(200,200,200)" fill="none"/><path d="M 903.7 821.7 C 976.7 935.8, 1006.6 993.6, 941.3 1113.6" stroke="rgb(200,200,200)" fill="none"/><path d="M 941.3 1113.6 C 900.4 1188.6, 840.8 1090.4, 788.4 1172.0" stroke="rgb(200,200,200)" fill="none"/><path d="M 788.4 1172.0 C 748.3 1234.5, 867.2 1096.8, 925.5 1126.4" stroke="rgb(200,200,200)" fill="none"/><path d="M 925.5 1126.4 C 983.9 1156.1, 840.7 1134.0, 800.5 1194.0" stroke="rgb(200,200,200)" fill="none"/><path d="M 800.5 1194.0 C 776.6 1229.9, 744.5 1109.5, 787.2 1087.7" stroke="rgb(200,200,200)" fill="none"/><path d="M 787.2 1087.7 C 1144.7 905.3, 796.6 636.4, 441.0 338.6" stroke="rgb(200,200,200)" fill="none"/><path d="M 441.0 338.6 C 408.3 311.2, 438.1 438.2, 403.2 424.1" stroke="rgb(200,200,200)" fill="none"/><path d="M 403.2 424.1 C 358.3 406.0, 510.4 362.1, 459.0 343.9" stroke="rgb(200,200,200)" fill="none"/><path d="M 459.0 343.9 C 417.6 329.3, 390.7 430.0, 367.3 392.8" stroke="rgb(200,200,200)" fill="none"/><path d="M 367.3 392.8 C 330.8 334.5, 265.6 513.7, 264.3 461.6" stroke="rgb(200,200,200)" fill="none"/><path d="M 264.3 461.6 C 261.7 352.3, 295.2 632.4, 392.0 621.5" stroke="rgb(200,200,200)" fill="none"/><path d="M 392.0 621.5 C 431.7 617.0, 422.9 677.4, 399.7 716.6" stroke="rgb(200,200,200)" fill="none"/><path d="M 399.7 716.6 C 374.2 759.7, 468.6 700.5, 515.8 717.7" stroke="rgb(200,200,200)" fill="none"/><path d="M 515.8 717.7 C 608.1 751.4, 420.9 746.1, 353.8 785.6" stroke="rgb(200,200,200)" fill="none"/><path d="M 353.8 785.6 C 265.6 837.6, 491.8 1080.0, 404.1 1022.6" stroke="rgb(200,200,200)" fill="none"/><path d="M 404.1 1022.6 C 369.5 1000.1, 487.6 1029.0, 484.8 981.3" stroke="rgb(200,200,200)" fill="none"/><path d="M 484.8 981.3 C 481.8 929.0, 545.5 870.0, 508.2 892.7" stroke="rgb(200,200,200)" fill="none"/><path d="M 508.2 892.7 C 283.8 1029.1, 692.7 1020.0, 806.1 1254.6" stroke="rgb(200,200,200)" fill="none"/><path d="M 806.1 1254.6 C 847.6 1340.3, 905.6 1059.5, 923.7 1129.9" stroke="rgb(200,200,200)" fill="none"/><path d="M 923.7 1129.9 C 939.2 1190.1, 825.0 1109.8, 777.0 1158.9" stroke="rgb(200,200,200)" fill="none"/><path d="M 777.0 1158.9 C 740.8 1196.0, 697.3 1136.1, 688.5 1178.1" stroke="rgb(200,200,200)" fill="none"/><path d="M 688.5 1178.1 C 676.5 1235.4, 788.1 1101.3, 815.4 1146.9" stroke="rgb(200,200,200)" fill="none"/><path d="M 815.4 1146.9 C 842.7 1192.6, 692.1 1189.7, 732.2 1214.3" stroke="rgb(200,200,200)" fill="none"/><path d="M 732.2 1214.3 C 934.5 1338.5, 772.5 506.8, 868.0 752.9" stroke="rgb(200,200,200)" fill="none"/><path d="M 868.0 752.9 C 883.0 791.4, 858.6 677.5, 898.0 665.9" stroke="rgb(200,200,200)" fill="none"/><path d="M 898.0 665.9 C 946.2 651.8, 871.3 770.6, 919.1 761.8" stroke="rgb(200,200,200)" fill="none"/><path d="M 919.1 761.8 C 983.5 750.1, 826.3 702.5, 874.2 655.7" stroke="rgb(200,200,200)" fill="none"/><path d="M 874.2 655.7 C 924.0 607.1, 873.5 720.3, 875.2 774.7" stroke="rgb(200,200,200)" fill="none"/><path d="M 875.2 774.7 C 876.9 828.0, 993.8 643.1, 973.1 708.5" stroke="rgb(200,200,200)" fill="none"/><path d="M 973.1 708.5 C 933.3 834.3, 549.9 611.0, 663.3 726.9" stroke="rgb(200,200,200)" fill="none"/><path d="M 663.3 726.9 C 693.3 757.5, 703.6 732.2, 753.6 715.0" stroke="rgb(200,200,200)" fill="none"/><path d="M 753.6 715.0 C 838.3 685.7, 790.7 789.8, 794.6 863.0" stroke="rgb(200,200,200)" fill="none"/><path d="M 794.6 863.0 C 797.3 912.4, 673.6 892.7, 711.6 923.9" stroke="rgb(200,200,200)" fill="none"/><path d="M 711.6 923.9 C 747.5 953.4, 743.6 785.6, 770.9 824.7" stroke="rgb(200,200,200)" fill="none"/><path d="M 770.9 824.7 C 822.8 899.3, 837.0 708.9, 774.8 666.9" stroke="rgb(200,200,200)" fill="none"/><path d="M 774.8 666.9 C 619.2 561.7, 301.3 621.6, 423.4 780.8" stroke="rgb(200,200,200)" fill="none"/><path d="M 423.4 780.8 C 454.0 820.7, 334.0 861.0, 379.0 862.2" stroke="rgb(200,200,200)" fill="none"/><path d="M 379.0 862.2 C 453.1 864.2, 356.9 971.6, 445.0 1011.7" stroke="rgb(200,200,200)" fill="none"/><path d="M 445.0 1011.7 C 509.9 1041.1, 597.4 969.7, 551.1 920.2" stroke="rgb(200,200,200)" fill="none"/><path d="M 551.1 920.2 C 512.7 879.2, 463.9 835.2, 513.6 831.6" stroke="rgb(200,200,200)" fill="none"/><path d="M 513.6 831.6 C 591.8 825.8, 391.8 887.8, 438.1 964.6" stroke="rgb(200,200,200)" fill="none"/><path d="M 438.1 964.6 C 481.4 1036.3, 512.7 1033.7, 573.1 1063.3" stroke="rgb(200,200,200)" fill="none"/><path d="M 573.1 1063.3 C 678.3 1114.8, 750.2 819.0, 760.0 931.1" stroke="rgb(200,200,200)" fill="none"/><path d="M 760.0 931.1 C 764.1 979.3, 672.2 927.5, 679.5 972.8" stroke="rgb(200,200,200)" fill="none"/><path d="M 679.5 972.8 C 694.4 1065.6, 748.8 775.9, 803.1 851.2" stroke="rgb(200,200,200)" fill="none"/><path d="M 803.1 851.2 C 837.9 899.5, 684.6 910.0, 730.6 964.7" stroke="rgb(200,200,200)" fill="none"/><path d="M 730.6 964.7 C 871.5 1132.4, 1322.5 910.1, 1105.8 812.6" stroke="rgb(200,200,200)" fill="none"/><path d="M 1105.8 812.6 C 1046.5 786.0, 1128.0 884.2, 1117.8 937.3" stroke="rgb(200,200,200)" fill="none"/><path d="M 1117.8 937.3 C 1084.1 1111.8, 853.1 875.6, 922.5 712.6" stroke="rgb(200,200,200)" fill="none"/><path d="M 922.5 712.6 C 939.8 672.1, 870.3 782.4, 823.0 742.8" stroke="rgb(200,200,200)" fill="none"/><path d="M 823.0 742.8 C 741.0 673.9, 809.2 883.5, 691.7 910.6" stroke="rgb(200,200,200)" fill="none"/><path d="M 691.7 910.6 C 596.6 932.6, 604.0 1124.9, 519.5 1041.9" stroke="rgb(200,200,200)" fill="none"/><path d="M 519.5 1041.9 C 259.0 785.8, 545.4 636.8, 272.4 447.1" stroke="rgb(200,200,200)" fill="none"/><path d="M 272.4 447.1 C 179.5 382.5, 401.9 414.8, 530.1 380.2" stroke="rgb(200,200,200)" fill="none"/><path d="M 530.1 380.2 C 629.2 353.5, 348.3 561.4, 433.8 549.1" stroke="rgb(200,200,200)" fill="none"/><path d="M 433.8 549.1 C 506.6 538.6, 328.5 363.6, 425.3 376.2" stroke="rgb(200,200,200)" fill="none"/><path d="M 425.3 376.2 C 503.1 386.3, 450.4 496.2, 391.9 504.6" stroke="rgb(200,200,200)" fill="none"/><path d="M 391.9 504.6 C 314.6 515.7, 302.3 344.5, 260.3 402.8" stroke="rgb(200,200,200)" fill="none"/><path d="M 260.3 402.8 C 214.4 466.5, 388.6 328.0, 405.3 411.1" stroke="rgb(200,200,200)" fill="none"/><path d="M 405.3 411.1 C 422.3 495.2, 353.8 544.4, 279.1 503.8" stroke="rgb(200,200,200)" fill="none"/><path d="M 279.1 503.8 C 218.6 470.9, 447.1 415.6, 415.4 484.6" stroke="rgb(200,200,200)" fill="none"/><path d="M 415.4 484.6 C 362.8 598.7, 405.0 731.0, 574.9 741.6" stroke="rgb(200,200,200)" fill="none"/><path d="M 574.9 741.6 C 616.8 744.2, 631.3 681.0, 666.2 701.3" stroke="rgb(200,200,200)" fill="none"/><path d="M 666.2 701.3 C 710.9 727.3, 551.7 671.6, 563.5 722.8" stroke="rgb(200,200,200)" fill="none"/><path d="M 563.5 722.8 C 583.0 807.8, 835.4 643.2, 757.4 711.3" stroke="rgb(200,200,200)" fill="none"/><path d="M 757.4 711.3 C 670.7 786.9, 638.5 657.1, 543.7 734.3" stroke="rgb(200,200,200)" fill="none"/><path d="M 543.7 734.3 C 491.3 777.0, 413.4 644.7, 418.3 713.8" stroke="rgb(200,200,200)" fill="none"/><path d="M 418.3 713.8 C 421.9 764.6, 532.5 661.6, 543.3 719.2" stroke="rgb(200,200,200)" fill="none"/><path d="M 543.3 719.2 C 555.1 781.9, 474.5 712.9, 438.9 767.3" stroke="rgb(200,200,200)" fill="none"/><path d="M 438.9 767.3 C 411.3 809.4, 422.5 652.6, 382.1 681.6" stroke="rgb(200,200,200)" fill="none"/><path d="M 382.1 681.6 C 335.9 714.7, 394.4 548.0, 370.8 582.4" stroke="rgb(200,200,200)" fill="none"/><path d="M 370.8 582.4 C 345.0 619.9, 420.9 628.6, 468.8 635.0" stroke="rgb(200,200,200)" fill="none"/><path d="M 468.8 635.0 C 603.5 652.9, 336.3 384.9, 448.1 400.9" stroke="rgb(200,200,200)" fill="none"/><path d="M 448.1 400.9 C 720.0 439.7, 858.7 681.1, 736.5 875.7" stroke="rgb(200,200,200)" fill="none"/><path d="M 736.5 875.7 C 692.7 945.5, 830.2 780.5, 868.3 835.1" stroke="rgb(200,200,200)" fill="none"/><path d="M 868.3 835.1 C 903.2 885.3, 935.0 702.4, 883.1 732.2" stroke="rgb(200,200,200)" fill="none"/><path d="M 883.1 732.2 C 762.0 801.7, 816.9 597.3, 702.3 540.2" stroke="rgb(200,200,200)" fill="none"/><path d="M 702.3 540.2 C 463.9 421.5, 1153.8 861.9, 921.7 967.3" stroke="rgb(200,200,200)" fill="none"/><path d="M 921.7 967.3 C 836.9 1005.9, 956.6 1191.8, 862.3 1171.4" stroke="rgb(200,200,200)" fill="none"/><path d="M 862.3 1171.4 C 823.2 1163.0, 821.6 1190.0, 769.6 1191.6" stroke="rgb(200,200,200)" fill="none"/><path d="M 769.6 1191.6 C 684.2 1194.3, 727.1 1102.6, 653.3 1066.7" stroke="rgb(200,200,200)" fill="none"/><path d="M 653.3 1066.7 C 575.8 1029.0, 452.5 1109.7, 491.9 1050.5" stroke="rgb(200,200,200)" fill="none"/><path d="M 491.9 1050.5 C 518.1 1011.1, 592.2 1062.1, 591.7 1113.4" stroke="rgb(200,200,200)" fill="none"/><path d="M 591.7 1113.4 C 591.0 1209.9, 398.0 932.6, 412.7 1043.7" stroke="rgb(200,200,200)" fill="none"/><path d="M 412.7 1043.7 C 420.5 1102.9, 411.1 962.7, 461.5 954.3" stroke="rgb(200,200,200)" fill="none"/><path d="M 461.5 954.3 C 507.7 946.6, 551.4 851.3, 504.7 866.1" stroke="rgb(200,200,200)" fill="none"/><path d="M 504.7 866.1 C 445.4 885.0, 532.6 716.8, 491.3 754.9" stroke="rgb(200,200,200)" fill="none"/><path d="M 491.3 754.9 C 457.0 786.5, 464.0 722.3, 431.6 679.6" stroke="rgb(200,200,200)" fill="none"/><path d="M 431.6 679.6 C 393.0 628.6, 307.4 653.1, 337.2 615.6" stroke="rgb(200,200,200)" fill="none"/><path d="M 337.2 615.6 C 419.0 512.2, 208.5 301.8, 352.0 351.2" stroke="rgb(200,200,200)" fill="none"/><path d="M 352.0 351.2 C 645.3 452.1, 783.1 490.8, 912.8 862.3" stroke="rgb(200,200,200)" fill="none"/><path d="M 912.8 862.3 C 967.6 1019.2, 971.6 1220.0, 845.9 1134.5" stroke="rgb(200,200,200)" fill="none"/><path d="M 845.9 1134.5 C 800.9 1103.9, 803.5 1211.1, 747.6 1204.7" stroke="rgb(200,200,200)" fill="none"/><path d="M 747.6 1204.7 C 692.6 1198.3, 780.0 1132.7, 828.0 1147.3" stroke="rgb(200,200,200)" fill="none"/><path d="M 828.0 1147.3 C 1148.4 1244.6, 745.0 280.6, 513.2 523.8" stroke="rgb(200,200,200)" fill="none"/><path d="M 513.2 523.8 C 469.5 569.6, 332.7 542.9, 396.9 567.4" stroke="rgb(200,200,200)" fill="none"/><path d="M 396.9 567.4 C 492.0 603.6, 350.1 412.1, 426.9 370.2" stroke="rgb(200,200,200)" fill="none"/><path d="M 426.9 370.2 C 478.6 342.0, 500.9 364.1, 529.9 422.9" stroke="rgb(200,200,200)" fill="none"/><path d="M 529.9 422.9 C 567.9 499.7, 282.9 397.1, 345.2 466.7" stroke="rgb(200,200,200)" fill="none"/><path d="M 345.2 466.7 C 378.2 503.4, 264.7 590.2, 311.0 575.0" stroke="rgb(200,200,200)" fill="none"/><path d="M 311.0 575.0 C 361.3 558.5, 250.0 473.9, 313.1 459.5" stroke="rgb(200,200,200)" fill="none"/><path d="M 313.1 459.5 C 376.1 445.1, 291.7 557.7, 357.2 581.3" stroke="rgb(200,200,200)" fill="none"/><path d="M 357.2 581.3 C 405.1 598.6, 371.4 630.8, 425.4 654.0" stroke="rgb(200,200,200)" fill="none"/><path d="M 425.4 654.0 C 607.8 732.5, 878.3 758.0, 777.6 598.9" stroke="rgb(200,200,200)" fill="none"/><path d="M 777.6 598.9 C 750.6 556.4, 798.0 744.5, 753.1 722.0" stroke="rgb(200,200,200)" fill="none"/><path d="M 753.1 722.0 C 624.5 657.8, 604.1 759.2, 504.2 732.6" stroke="rgb(200,200,200)" fill="none"/><path d="M 504.2 732.6 C 439.7 715.5, 416.8 707.4, 417.1 659.1" stroke="rgb(200,200,200)" fill="none"/><path d="M 417.1 659.1 C 417.5 590.6, 306.6 554.1, 357.0 550.4" stroke="rgb(200,200,200)" fill="none"/><path d="M 357.0 550.4 C 428.9 545.1, 357.2 628.5, 377.8 714.1" stroke="rgb(200,200,200)" fill="none"/><path d="M 377.8 714.1 C 400.5 808.5, 468.8 703.5, 559.2 687.6" stroke="rgb(200,200,200)" fill="none"/><path d="M 559.2 687.6 C 601.3 680.2, 639.3 795.2, 633.8 743.9" stroke="rgb(200,200,200)" fill="none"/><path d="M 633.8 743.9 C 627.1 680.7, 481.6 697.6, 498.9 772.8" stroke="rgb(200,200,200)" fill="none"/><path d="M 498.9 772.8 C 517.8 854.8, 411.6 589.1, 354.3 664.8" stroke="rgb(200,200,200)" fill="none"/><path d="M 354.3 664.8 C 325.0 703.5, 363.8 545.1, 330.5 576.7" stroke="rgb(200,200,200)" fill="none"/><path d="M 330.5 576.7 C 298.3 607.4, 388.1 672.1, 414.8 627.6" stroke="rgb(200,200,200)" fill="none"/><path d="M 414.8 627.6 C 434.6 594.8, 369.9 677.9, 325.7 660.4" stroke="rgb(200,200,200)" fill="none"/><path d="M 325.7 660.4 C 267.1 637.2, 410.4 615.0, 383.0 572.0" stroke="rgb(200,200,200)" fill="none"/><path d="M 383.0 572.0 C 349.8 519.8, 311.5 463.4, 288.5 521.5" stroke="rgb(200,200,200)" fill="none"/><path d="M 288.5 521.5 C 207.0 727.4, 843.6 830.9, 731.0 633.6" stroke="rgb(200,200,200)" fill="none"/><path d="M 731.0 633.6 C 662.2 513.0, 567.2 361.4, 421.9 476.3" stroke="rgb(200,200,200)" fill="none"/><path d="M 421.9 476.3 C 378.9 510.4, 490.4 325.5, 434.6 345.6" stroke="rgb(200,200,200)" fill="none"/><path d="M 434.6 345.6 C 390.6 361.4, 512.6 438.7, 454.5 442.7" stroke="rgb(200,200,200)" fill="none"/><path d="M 454.5 442.7 C 323.7 451.8, 311.7 533.4, 325.7 640.8" stroke="rgb(200,200,200)" fill="none"/><path d="M 325.7 640.8 C 332.6 694.5, 374.0 583.7, 445.8 590.0" stroke="rgb(200,200,200)" fill="none"/><path d="M 445.8 590.0 C 622.1 605.7, 245.6 960.7, 392.2 912.6" stroke="rgb(200,200,200)" fill="none"/><path d="M 392.2 912.6 C 511.0 873.7, 512.2 804.8, 465.3 686.3" stroke="rgb(200,200,200)" fill="none"/><path d="M 465.3 686.3 C 433.2 605.0, 329.1 792.9, 410.4 825.1" stroke="rgb(200,200,200)" fill="none"/><path d="M 410.4 825.1 C 503.8 862.1, 349.9 622.5, 419.4 655.1" stroke="rgb(200,200,200)" fill="none"/><path d="M 419.4 655.1 C 476.2 681.6, 334.0 806.6, 405.3 786.5" stroke="rgb(200,200,200)" fill="none"/><path d="M 405.3 786.5 C 451.7 773.4, 361.3 720.4, 397.6 696.6" stroke="rgb(200,200,200)" fill="none"/><path d="M 397.6 696.6 C 487.2 637.9, 381.4 796.5, 364.8 914.1" stroke="rgb(200,200,200)" fill="none"/><path d="M 364.8 914.1 C 356.6 972.1, 457.8 992.6, 427.3 1043.2" stroke="rgb(200,200,200)" fill="none"/><path d="M 427.3 1043.2 C 379.2 1123.0, 434.3 780.6, 351.7 852.3" stroke="rgb(200,200,200)" fill="none"/><path d="M 351.7 852.3 C 314.6 884.5, 382.7 969.1, 433.1 930.5" stroke="rgb(200,200,200)" fill="none"/><path d="M 433.1 930.5 C 699.6 726.5, 186.0 631.2, 314.6 324.1" stroke="rgb(200,200,200)" fill="none"/><path d="M 314.6 324.1 C 354.3 229.2, 491.3 554.8, 382.7 526.5" stroke="rgb(200,200,200)" fill="none"/><path d="M 382.7 526.5 C 331.6 513.2, 327.5 662.6, 373.0 624.8" stroke="rgb(200,200,200)" fill="none"/><path d="M 373.0 624.8 C 430.3 577.1, 263.2 418.1, 334.4 457.5" stroke="rgb(200,200,200)" fill="none"/><path d="M 334.4 457.5 C 389.6 488.2, 342.0 589.0, 390.7 571.1" stroke="rgb(200,200,200)" fill="none"/><path d="M 390.7 571.1 C 448.8 549.6, 388.3 492.8, 429.6 464.8" stroke="rgb(200,200,200)" fill="none"/><path d="M 429.6 464.8 C 478.5 431.6, 481.4 473.4, 534.0 470.1" stroke="rgb(200,200,200)" fill="none"/><path d="M 534.0 470.1 C 766.8 455.2, 962.8 771.4, 737.4 878.3" stroke="rgb(200,200,200)" fill="none"/><path d="M 737.4 878.3 C 660.6 914.8, 658.2 1029.8, 738.4 1073.5" stroke="rgb(200,200,200)" fill="none"/><path d="M 738.4 1073.5 C 805.7 1110.2, 622.0 912.8, 719.6 900.3" stroke="rgb(200,200,200)" fill="none"/><path d="M 719.6 900.3 C 805.9 889.3, 807.0 737.9, 845.7 814.5" stroke="rgb(200,200,200)" fill="none"/><path d="M 845.7 814.5 C 967.5 1056.1, 1425.9 684.2, 1324.3 885.9" stroke="rgb(200,200,200)" fill="none"/><path d="M 1324.3 885.9 C 1287.7 958.6, 1255.8 752.5, 1207.6 806.3" stroke="rgb(200,200,200)" fill="none"/><path d="M 1207.6 806.3 C 982.1 1058.4, 825.8 1298.1, 625.1 1080.7" stroke="rgb(200,200,200)" fill="none"/><path d="M 625.1 1080.7 C 561.8 1012.1, 853.8 1105.4, 810.6 1032.1" stroke="rgb(200,200,200)" fill="none"/><path d="M 810.6 1032.1 C 750.9 930.9, 734.7 760.4, 833.8 782.1" stroke="rgb(200,200,200)" fill="none"/><path d="M 833.8 782.1 C 890.4 794.5, 946.6 646.1, 938.8 712.3" stroke="rgb(200,200,200)" fill="none"/><path d="M 938.8 712.3 C 924.1 837.5, 620.2 616.1, 653.8 751.1" stroke="rgb(200,200,200)" fill="none"/><path d="M 653.8 751.1 C 663.7 790.8, 609.4 676.5, 562.8 706.8" stroke="rgb(200,200,200)" fill="none"/><path d="M 562.8 706.8 C 505.9 743.8, 483.2 730.5, 415.2 673.2" stroke="rgb(200,200,200)" fill="none"/><path d="M 415.2 673.2 C 321.0 593.9, 716.0 661.9, 640.4 569.3" stroke="rgb(200,200,200)" fill="none"/><path d="M 640.4 569.3 C 526.2 429.3, 431.1 449.1, 265.5 437.0" stroke="rgb(200,200,200)" fill="none"/><path d="M 265.5 437.0 C 200.5 432.2, 344.3 407.4, 328.6 343.2" stroke="rgb(200,200,200)" fill="none"/><path d="M 328.6 343.2 C 318.6 301.9, 288.0 429.2, 257.7 401.0" stroke="rgb(200,200,200)" fill="none"/><path d="M 257.7 401.0 C 213.7 360.0, 395.4 315.1, 333.0 323.6" stroke="rgb(200,200,200)" fill="none"/><path d="M 333.0 323.6 C 200.9 341.7, 515.4 330.1, 521.9 446.8" stroke="rgb(200,200,200)" fill="none"/><path d="M 521.9 446.8 C 525.3 507.8, 398.3 385.1, 384.1 453.7" stroke="rgb(200,200,200)" fill="none"/><path d="M 384.1 453.7 C 282.4 946.0, 798.1 497.7, 1163.6 837.3" stroke="rgb(200,200,200)" fill="none"/><path d="M 1163.6 837.3 C 1199.8 871.0, 1278.5 747.2, 1228.4 732.7" stroke="rgb(200,200,200)" fill="none"/><path d="M 1228.4 732.7 C 1142.7 707.9, 1236.7 864.6, 1318.4 874.9" stroke="rgb(200,200,200)" fill="none"/><path d="M 1318.4 874.9 C 1396.5 884.7, 1263.5 792.4, 1211.0 742.9" stroke="rgb(200,200,200)" fill="none"/><path d="M 1211.0 742.9 C 1165.9 700.5, 1206.5 893.4, 1182.4 842.6" stroke="rgb(200,200,200)" fill="none"/><path d="M 1182.4 842.6 C 1159.9 795.2, 1333.7 898.1, 1302.7 850.7" stroke="rgb(200,200,200)" fill="none"/><path d="M 1302.7 850.7 C 1253.3 775.2, 1149.7 904.6, 1131.8 831.9" stroke="rgb(200,200,200)" fill="none"/><path d="M 1131.8 831.9 C 1107.0 731.1, 1378.8 850.2, 1312.5 781.9" stroke="rgb(200,200,200)" fill="none"/><path d="M 1312.5 781.9 C 1266.9 734.8, 1215.5 791.0, 1206.4 847.7" stroke="rgb(200,200,200)" fill="none"/><path d="M 1206.4 847.7 C 1198.8 894.4, 1293.6 926.2, 1238.6 946.6" stroke="rgb(200,200,200)" fill="none"/><path d="M 1238.6 946.6 C 1188.9 965.0, 1129.3 859.9, 1189.7 839.5" stroke="rgb(200,200,200)" fill="none"/><path d="M 1189.7 839.5 C 1252.8 818.1, 1195.1 753.4, 1152.0 723.8" stroke="rgb(200,200,200)" fill="none"/><path d="M 1152.0 723.8 C 1117.9 700.4, 1036.3 664.0, 1060.0 706.8" stroke="rgb(200,200,200)" fill="none"/><path d="M 1060.0 706.8 C 1078.4 740.1, 936.9 659.0, 965.2 702.3" stroke="rgb(200,200,200)" fill="none"/><path d="M 965.2 702.3 C 989.5 739.4, 887.3 676.0, 859.5 711.0" stroke="rgb(200,200,200)" fill="none"/><path d="M 859.5 711.0 C 814.0 768.4, 1036.6 653.9, 990.6 702.7" stroke="rgb(200,200,200)" fill="none"/><path d="M 990.6 702.7 C 848.3 853.6, 1115.1 1074.2, 913.5 1145.4" stroke="rgb(200,200,200)" fill="none"/><path d="M 913.5 1145.4 C 852.2 1167.1, 805.2 1194.7, 797.7 1125.5" stroke="rgb(200,200,200)" fill="none"/><path d="M 797.7 1125.5 C 778.0 942.8, 554.6 1171.0, 474.1 1050.4" stroke="rgb(200,200,200)" fill="none"/><path d="M 474.1 1050.4 C 447.2 1010.1, 557.8 1131.8, 587.8 1078.1" stroke="rgb(200,200,200)" fill="none"/><path d="M 587.8 1078.1 C 634.9 993.6, 503.8 943.7, 572.6 902.2" stroke="rgb(200,200,200)" fill="none"/><path d="M 572.6 902.2 C 871.2 722.6, 10.3 436.1, 315.6 354.7" stroke="rgb(200,200,200)" fill="none"/><path d="M 315.6 354.7 C 523.3 299.3, 352.6 548.4, 401.3 730.0" stroke="rgb(200,200,200)" fill="none"/><path d="M 401.3 730.0 C 412.6 772.1, 350.7 767.9, 358.2 810.1" stroke="rgb(200,200,200)" fill="none"/><path d="M 358.2 810.1 C 365.5 850.6, 368.4 873.0, 409.4 890.9" stroke="rgb(200,200,200)" fill="none"/><path d="M 409.4 890.9 C 497.6 929.5, 383.9 1092.9, 479.0 1054.1" stroke="rgb(200,200,200)" fill="none"/><path d="M 479.0 1054.1 C 547.3 1026.3, 515.6 983.8, 567.6 925.7" stroke="rgb(200,200,200)" fill="none"/><path d="M 567.6 925.7 C 674.9 805.7, 935.1 655.3, 883.3 790.5" stroke="rgb(200,200,200)" fill="none"/><path d="M 883.3 790.5 C 827.1 937.3, 774.1 468.9, 708.6 564.8" stroke="rgb(200,200,200)" fill="none"/><path d="M 708.6 564.8 C 651.2 648.9, 880.1 734.0, 902.0 640.5" stroke="rgb(200,200,200)" fill="none"/><path d="M 902.0 640.5 C 927.9 530.3, 673.5 786.4, 711.2 705.5" stroke="rgb(200,200,200)" fill="none"/><path d="M 711.2 705.5 C 746.0 630.8, 839.9 869.3, 752.2 873.5" stroke="rgb(200,200,200)" fill="none"/><path d="M 752.2 873.5 C 691.8 876.4, 806.7 810.5, 783.2 746.2" stroke="rgb(200,200,200)" fill="none"/><path d="M 783.2 746.2 C 752.6 662.1, 560.8 733.3, 629.8 695.3" stroke="rgb(200,200,200)" fill="none"/><path d="M 629.8 695.3 C 672.9 671.6, 532.4 732.0, 536.6 677.7" stroke="rgb(200,200,200)" fill="none"/><path d="M 536.6 677.7 C 549.0 518.1, 276.6 341.1, 434.8 365.3" stroke="rgb(200,200,200)" fill="none"/><path d="M 434.8 365.3 C 495.0 374.5, 557.1 429.4, 507.6 436.5" stroke="rgb(200,200,200)" fill="none"/><path d="M 507.6 436.5 C 465.5 442.6, 433.6 373.2, 405.4 409.4" stroke="rgb(200,200,200)" fill="none"/><path d="M 405.4 409.4 C 376.7 446.2, 424.6 468.4, 435.2 509.3" stroke="rgb(200,200,200)" fill="none"/><path d="M 435.2 509.3 C 451.7 573.6, 294.6 650.8, 379.9 645.4" stroke="rgb(200,200,200)" fill="none"/><path d="M 379.9 645.4 C 428.6 642.2, 315.2 536.8, 369.0 542.5" stroke="rgb(200,200,200)" fill="none"/><path d="M 369.0 542.5 C 460.6 552.0, 397.5 292.8, 458.4 358.8" stroke="rgb(200,200,200)" fill="none"/><path d="M 458.4 358.8 C 516.4 421.8, 284.9 363.9, 318.0 424.1" stroke="rgb(200,200,200)" fill="none"/><path d="M 318.0 424.1 C 378.7 534.3, 484.6 477.7, 567.6 557.1" stroke="rgb(200,200,200)" fill="none"/><path d="M 567.6 557.1 C 600.4 588.4, 691.6 516.4, 649.1 492.8" stroke="rgb(200,200,200)" fill="none"/><path d="M 649.1 492.8 C 536.3 430.1, 364.1 487.4, 436.6 555.9" stroke="rgb(200,200,200)" fill="none"/><path d="M 436.6 555.9 C 478.2 595.2, 617.0 518.6, 568.0 556.5" stroke="rgb(200,200,200)" fill="none"/><path d="M 568.0 556.5 C 379.2 702.3, 467.6 845.4, 671.8 1083.8" stroke="rgb(200,200,200)" fill="none"/><path d="M 671.8 1083.8 C 713.8 1132.8, 745.5 1015.0, 798.4 1064.1" stroke="rgb(200,200,200)" fill="none"/><path d="M 798.4 1064.1 C 997.9 1249.1, 1105.3 760.9, 1261.7 954.4" stroke="rgb(200,200,200)" fill="none"/><path d="M 1261.7 954.4 C 1303.3 1006.0, 1254.1 786.4, 1311.5 826.4" stroke="rgb(200,200,200)" fill="none"/><path d="M 1311.5 826.4 C 1351.7 854.3, 1193.9 917.6, 1251.4 924.2" stroke="rgb(200,200,200)" fill="none"/><path d="M 1251.4 924.2 C 1371.6 937.8, 1163.7 672.9, 1116.8 764.2" stroke="rgb(200,200,200)" fill="none"/><path d="M 1116.8 764.2 C 1086.9 822.3, 1273.8 702.3, 1244.7 750.7" stroke="rgb(200,200,200)" fill="none"/><path d="M 1244.7 750.7 C 1212.2 804.6, 1238.5 840.5, 1288.4 885.3" stroke="rgb(200,200,200)" fill="none"/><path d="M 1288.4 885.3 C 1354.0 944.2, 1229.3 921.8, 1186.1 997.7" stroke="rgb(200,200,200)" fill="none"/><path d="M 1186.1 997.7 C 1048.7 1238.7, 737.2 330.6, 671.9 613.7" stroke="rgb(200,200,200)" fill="none"/><path d="M 671.9 613.7 C 636.9 765.3, 537.8 713.4, 428.2 742.3" stroke="rgb(200,200,200)" fill="none"/><path d="M 428.2 742.3 C 354.8 761.5, 443.4 845.0, 361.4 880.2" stroke="rgb(200,200,200)" fill="none"/><path d="M 361.4 880.2 C 320.3 897.8, 383.9 823.1, 387.8 779.1" stroke="rgb(200,200,200)" fill="none"/><path d="M 387.8 779.1 C 398.8 655.1, 332.4 673.6, 323.2 578.6" stroke="rgb(200,200,200)" fill="none"/><path d="M 323.2 578.6 C 314.6 489.8, 405.1 678.1, 479.7 622.5" stroke="rgb(200,200,200)" fill="none"/><path d="M 479.7 622.5 C 664.7 484.5, 687.2 702.6, 890.3 695.4" stroke="rgb(200,200,200)" fill="none"/><path d="M 890.3 695.4 C 951.1 693.2, 749.8 820.7, 818.0 802.0" stroke="rgb(200,200,200)" fill="none"/><path d="M 818.0 802.0 C 882.7 784.2, 702.0 856.3, 752.1 893.0" stroke="rgb(200,200,200)" fill="none"/><path d="M 752.1 893.0 C 807.7 933.7, 785.2 734.1, 859.9 769.3" stroke="rgb(200,200,200)" fill="none"/><path d="M 859.9 769.3 C 922.1 798.6, 897.9 714.9, 892.9 659.0" stroke="rgb(200,200,200)" fill="none"/><path d="M 892.9 659.0 C 885.2 573.7, 835.5 750.0, 773.5 759.7" stroke="rgb(200,200,200)" fill="none"/><path d="M 773.5 759.7 C 719.3 768.3, 869.1 721.4, 840.8 691.0" stroke="rgb(200,200,200)" fill="none"/><path d="M 840.8 691.0 C 788.9 635.4, 841.5 859.5, 734.9 840.1" stroke="rgb(200,200,200)" fill="none"/><path d="M 734.9 840.1 C 536.8 804.1, 374.3 1102.4, 361.1 924.2" stroke="rgb(200,200,200)" fill="none"/><path d="M 361.1 924.2 C 351.4 792.5, 382.4 693.0, 486.0 701.9" stroke="rgb(200,200,200)" fill="none"/><path d="M 486.0 701.9 C 596.7 711.5, 463.6 820.9, 362.2 856.7" stroke="rgb(200,200,200)" fill="none"/><path d="M 362.2 856.7 C 320.5 871.4, 416.0 990.9, 420.6 935.5" stroke="rgb(200,200,200)" fill="none"/><path d="M 420.6 935.5 C 424.0 894.6, 373.9 802.8, 366.1 853.4" stroke="rgb(200,200,200)" fill="none"/><path d="M 366.1 853.4 C 359.4 896.6, 345.1 932.5, 384.8 948.6" stroke="rgb(200,200,200)" fill="none"/><path d="M 384.8 948.6 C 434.3 968.7, 438.9 1107.3, 468.4 1041.8" stroke="rgb(200,200,200)" fill="none"/><path d="M 468.4 1041.8 C 496.9 978.5, 535.1 1094.0, 593.9 1074.2" stroke="rgb(200,200,200)" fill="none"/><path d="M 593.9 1074.2 C 665.6 1050.1, 685.5 1041.0, 686.1 950.9" stroke="rgb(200,200,200)" fill="none"/><path d="M 686.1 950.9 C 686.5 887.0, 754.6 923.4, 760.1 873.0" stroke="rgb(200,200,200)" fill="none"/><path d="M 760.1 873.0 C 768.4 795.5, 867.9 822.8, 861.6 757.4" stroke="rgb(200,200,200)" fill="none"/><path d="M 861.6 757.4 C 849.8 637.0, 683.3 792.5, 626.9 715.1" stroke="rgb(200,200,200)" fill="none"/><path d="M 626.9 715.1 C 583.1 655.1, 443.8 758.6, 494.4 701.6" stroke="rgb(200,200,200)" fill="none"/><path d="M 494.4 701.6 C 533.4 657.7, 476.7 756.5, 500.4 802.5" stroke="rgb(200,200,200)" fill="none"/><path d="M 500.4 802.5 C 526.5 853.4, 384.7 911.2, 441.0 896.1" stroke="rgb(200,200,200)" fill="none"/><path d="M 441.0 896.1 C 561.8 863.8, 477.7 636.3, 348.6 683.2" stroke="rgb(200,200,200)" fill="none"/><path d="M 348.6 683.2 C 288.7 705.0, 379.1 539.7, 310.7 551.8" stroke="rgb(200,200,200)" fill="none"/><path d="M 310.7 551.8 C 259.6 560.9, 442.3 626.0, 382.5 653.8" stroke="rgb(200,200,200)" fill="none"/><path d="M 382.5 653.8 C 344.1 671.6, 416.1 520.2, 426.5 569.0" stroke="rgb(200,200,200)" fill="none"/><path d="M 426.5 569.0 C 471.6 779.7, 307.2 758.2, 352.9 921.8" stroke="rgb(200,200,200)" fill="none"/><path d="M 352.9 921.8 C 384.6 1035.3, 502.1 1071.7, 612.0 1026.1" stroke="rgb(200,200,200)" fill="none"/><path d="M 612.0 1026.1 C 653.9 1008.7, 537.3 976.1, 556.7 929.2" stroke="rgb(200,200,200)" fill="none"/><path d="M 556.7 929.2 C 580.0 872.9, 455.9 850.6, 507.7 838.6" stroke="rgb(200,200,200)" fill="none"/><path d="M 507.7 838.6 C 614.8 813.9, 562.7 1116.6, 609.9 1016.9" stroke="rgb(200,200,200)" fill="none"/><path d="M 609.9 1016.9 C 650.7 930.7, 355.0 1038.5, 385.3 941.5" stroke="rgb(200,200,200)" fill="none"/><path d="M 385.3 941.5 C 400.7 892.1, 439.9 985.2, 441.0 1028.5" stroke="rgb(200,200,200)" fill="none"/><path d="M 441.0 1028.5 C 443.3 1123.4, 555.6 1028.3, 619.2 1114.7" stroke="rgb(200,200,200)" fill="none"/><path d="M 619.2 1114.7 C 664.7 1176.6, 690.4 881.5, 731.5 965.8" stroke="rgb(200,200,200)" fill="none"/><path d="M 731.5 965.8 C 753.4 1010.5, 733.8 818.4, 762.5 867.2" stroke="rgb(200,200,200)" fill="none"/><path d="M 762.5 867.2 C 789.6 913.1, 780.5 825.4, 805.1 766.8" stroke="rgb(200,200,200)" fill="none"/><path d="M 805.1 766.8 C 856.2 644.7, 1071.2 1038.7, 960.0 999.5" stroke="rgb(200,200,200)" fill="none"/><path d="M 960.0 999.5 C 909.7 981.7, 978.9 874.6, 928.7 879.3" stroke="rgb(200,200,200)" fill="none"/><path d="M 928.7 879.3 C 887.2 883.2, 944.1 759.8, 901.9 790.7" stroke="rgb(200,200,200)" fill="none"/><path d="M 901.9 790.7 C 846.3 831.5, 726.7 653.8, 750.4 729.9" stroke="rgb(200,200,200)" fill="none"/><path d="M 750.4 729.9 C 819.7 952.2, 956.1 586.1, 1144.0 703.8" stroke="rgb(200,200,200)" fill="none"/><path d="M 1144.0 703.8 C 1191.6 733.6, 1197.7 900.6, 1146.6 843.0" stroke="rgb(200,200,200)" fill="none"/><path d="M 1146.6 843.0 C 1101.6 792.4, 1110.4 1061.9, 1068.2 980.1" stroke="rgb(200,200,200)" fill="none"/><path d="M 1068.2 980.1 C 1049.8 944.4, 1010.4 1052.6, 985.7 1022.0" stroke="rgb(200,200,200)" fill="none"/><path d="M 985.7 1022.0 C 946.2 973.0, 947.9 938.3, 963.7 871.3" stroke="rgb(200,200,200)" fill="none"/><path d="M 963.7 871.3 C 1009.9 675.5, 790.7 703.7, 640.2 586.5" stroke="rgb(200,200,200)" fill="none"/><path d="M 640.2 586.5 C 528.6 499.5, 294.0 592.6, 396.7 672.5" stroke="rgb(200,200,200)" fill="none"/><path d="M 396.7 672.5 C 445.9 710.7, 431.4 788.8, 386.0 783.5" stroke="rgb(200,200,200)" fill="none"/><path d="M 386.0 783.5 C 329.7 776.9, 386.7 842.5, 386.0 887.7" stroke="rgb(200,200,200)" fill="none"/><path d="M 386.0 887.7 C 384.8 959.5, 463.1 931.3, 485.5 1033.3" stroke="rgb(200,200,200)" fill="none"/><path d="M 485.5 1033.3 C 496.1 1081.7, 526.3 1093.3, 566.1 1076.5" stroke="rgb(200,200,200)" fill="none"/><path d="M 566.1 1076.5 C 665.2 1034.6, 738.7 1010.2, 700.0 939.4" stroke="rgb(200,200,200)" fill="none"/><path d="M 700.0 939.4 C 673.1 890.3, 724.5 876.7, 798.4 857.7" stroke="rgb(200,200,200)" fill="none"/><path d="M 798.4 857.7 C 917.7 827.1, 644.6 602.2, 599.9 726.9" stroke="rgb(200,200,200)" fill="none"/><path d="M 599.9 726.9 C 543.7 883.4, 259.4 953.8, 409.0 951.8" stroke="rgb(200,200,200)" fill="none"/><path d="M 409.0 951.8 C 493.6 950.6, 304.5 872.8, 363.9 806.1" stroke="rgb(200,200,200)" fill="none"/><path d="M 363.9 806.1 C 411.2 753.0, 383.8 884.1, 393.2 939.3" stroke="rgb(200,200,200)" fill="none"/><path d="M 393.2 939.3 C 406.2 1015.5, 550.4 1043.9, 486.9 1035.6" stroke="rgb(200,200,200)" fill="none"/><path d="M 486.9 1035.6 C 259.6 1006.1, 553.1 537.6, 278.2 555.3" stroke="rgb(200,200,200)" fill="none"/><path d="M 278.2 555.3 C 195.9 560.7, 485.3 654.8, 396.5 664.7" stroke="rgb(200,200,200)" fill="none"/><path d="M 396.5 664.7 C 316.2 673.7, 335.9 485.2, 301.0 548.0" stroke="rgb(200,200,200)" fill="none"/><path d="M 301.0 548.0 C 276.4 592.1, 430.1 565.2, 396.7 600.7" stroke="rgb(200,200,200)" fill="none"/><path d="M 396.7 600.7 C 356.0 644.1, 432.3 736.8, 486.0 691.7" stroke="rgb(200,200,200)" fill="none"/><path d="M 486.0 691.7 C 552.8 635.6, 456.6 899.6, 501.7 851.9" stroke="rgb(200,200,200)" fill="none"/><path d="M 501.7 851.9 C 546.4 804.7, 528.6 992.2, 592.5 958.8" stroke="rgb(200,200,200)" fill="none"/><path d="M 592.5 958.8 C 648.7 929.3, 604.2 1036.5, 551.9 1078.0" stroke="rgb(200,200,200)" fill="none"/><path d="M 551.9 1078.0 C 484.4 1131.7, 477.7 1040.0, 398.1 1035.6" stroke="rgb(200,200,200)" fill="none"/><path d="M 398.1 1035.6 C 143.1 1021.6, 765.7 358.9, 758.9 603.7" stroke="rgb(200,200,200)" fill="none"/><path d="M 758.9 603.7 C 757.5 656.1, 846.7 655.7, 806.6 689.5" stroke="rgb(200,200,200)" fill="none"/><path d="M 806.6 689.5 C 748.1 738.6, 740.7 693.3, 676.1 691.2" stroke="rgb(200,200,200)" fill="none"/><path d="M 676.1 691.2 C 620.4 689.5, 543.1 699.2, 586.7 736.7" stroke="rgb(200,200,200)" fill="none"/><path d="M 586.7 736.7 C 681.1 817.8, 782.6 604.7, 834.5 722.9" stroke="rgb(200,200,200)" fill="none"/><path d="M 834.5 722.9 C 855.8 771.6, 711.1 851.4, 766.9 835.4" stroke="rgb(200,200,200)" fill="none"/><path d="M 766.9 835.4 C 821.9 819.7, 856.1 708.7, 846.7 764.7" stroke="rgb(200,200,200)" fill="none"/><path d="M 846.7 764.7 C 839.7 806.5, 895.6 753.9, 916.7 704.2" stroke="rgb(200,200,200)" fill="none"/><path d="M 916.7 704.2 C 937.6 655.1, 1060.5 722.6, 1016.6 691.1" stroke="rgb(200,200,200)" fill="none"/><path d="M 1016.6 691.1 C 967.2 655.7, 887.7 781.3, 881.1 709.7" stroke="rgb(200,200,200)" fill="none"/><path d="M 881.1 709.7 C 876.0 654.6, 990.9 815.4, 989.9 752.7" stroke="rgb(200,200,200)" fill="none"/><path d="M 989.9 752.7 C 987.9 619.2, 831.9 725.9, 764.7 827.0" stroke="rgb(200,200,200)" fill="none"/><path d="M 764.7 827.0 C 730.7 878.1, 828.9 740.6, 862.8 792.8" stroke="rgb(200,200,200)" fill="none"/><path d="M 862.8 792.8 C 932.8 900.5, 1042.8 1066.5, 1061.5 936.3" stroke="rgb(200,200,200)" fill="none"/><path d="M 1061.5 936.3 C 1098.2 681.2, 822.4 822.2, 773.8 595.3" stroke="rgb(200,200,200)" fill="none"/><path d="M 773.8 595.3 C 766.2 559.7, 713.1 568.3, 714.5 526.9" stroke="rgb(200,200,200)" fill="none"/><path d="M 714.5 526.9 C 716.2 479.2, 591.5 489.3, 640.4 469.5" stroke="rgb(200,200,200)" fill="none"/><path d="M 640.4 469.5 C 736.2 430.7, 328.1 430.0, 437.6 361.7" stroke="rgb(200,200,200)" fill="none"/><path d="M 437.6 361.7 C 478.7 336.0, 377.1 338.9, 356.9 301.1" stroke="rgb(200,200,200)" fill="none"/><path d="M 356.9 301.1 C 310.4 213.8, 331.9 493.0, 240.8 481.8" stroke="rgb(200,200,200)" fill="none"/><path d="M 240.8 481.8 C 120.6 467.0, 447.8 290.0, 341.0 305.4" stroke="rgb(200,200,200)" fill="none"/><path d="M 341.0 305.4 C 136.7 334.7, 413.3 564.1, 330.1 721.4" stroke="rgb(200,200,200)" fill="none"/><path d="M 330.1 721.4 C 270.6 833.8, 697.4 637.5, 592.4 727.2" stroke="rgb(200,200,200)" fill="none"/><path d="M 592.4 727.2 C 504.4 802.5, 294.2 614.8, 416.0 562.2" stroke="rgb(200,200,200)" fill="none"/><path d="M 416.0 562.2 C 462.2 542.2, 382.1 477.6, 424.8 445.6" stroke="rgb(200,200,200)" fill="none"/><path d="M 424.8 445.6 C 465.7 415.0, 375.3 533.6, 416.7 554.8" stroke="rgb(200,200,200)" fill="none"/><path d="M 416.7 554.8 C 458.7 576.2, 371.1 448.8, 427.5 455.8" stroke="rgb(200,200,200)" fill="none"/><path d="M 427.5 455.8 C 479.5 462.2, 405.7 581.6, 364.6 556.2" stroke="rgb(200,200,200)" fill="none"/><path d="M 364.6 556.2 C 306.6 520.4, 405.6 628.5, 418.8 688.4" stroke="rgb(200,200,200)" fill="none"/><path d="M 418.8 688.4 C 437.9 774.8, 400.2 766.3, 348.4 819.0" stroke="rgb(200,200,200)" fill="none"/><path d="M 348.4 819.0 C 294.1 874.2, 444.1 968.3, 369.4 964.2" stroke="rgb(200,200,200)" fill="none"/><path d="M 369.4 964.2 C 316.0 961.3, 458.0 938.5, 448.5 885.6" stroke="rgb(200,200,200)" fill="none"/><path d="M 448.5 885.6 C 438.8 831.8, 570.2 927.5, 548.7 875.5" stroke="rgb(200,200,200)" fill="none"/><path d="M 548.7 875.5 C 401.2 517.7, 861.7 784.2, 1181.6 709.0" stroke="rgb(200,200,200)" fill="none"/><path d="M 1181.6 709.0 C 1247.4 693.5, 1208.6 870.1, 1255.2 824.5" stroke="rgb(200,200,200)" fill="none"/><path d="M 1255.2 824.5 C 1326.6 754.8, 1147.9 740.8, 1068.9 673.3" stroke="rgb(200,200,200)" fill="none"/><path d="M 1068.9 673.3 C 936.2 559.9, 727.8 1068.3, 694.6 878.0" stroke="rgb(200,200,200)" fill="none"/><path d="M 694.6 878.0 C 669.7 734.7, 561.8 986.2, 449.1 1053.9" stroke="rgb(200,200,200)" fill="none"/><path d="M 449.1 1053.9 C 391.0 1088.8, 456.7 871.7, 410.5 931.0" stroke="rgb(200,200,200)" fill="none"/><path d="M 410.5 931.0 C 342.8 1017.8, 465.1 1096.4, 605.4 1094.1" stroke="rgb(200,200,200)" fill="none"/><path d="M 605.4 1094.1 C 660.1 1093.3, 653.1 1108.3, 688.3 1133.5" stroke="rgb(200,200,200)" fill="none"/><path d="M 688.3 1133.5 C 734.3 1166.5, 805.1 1220.5, 797.9 1158.0" stroke="rgb(200,200,200)" fill="none"/><path d="M 797.9 1158.0 C 792.2 1108.3, 709.0 1124.7, 688.9 1169.9" stroke="rgb(200,200,200)" fill="none"/><path d="M 688.9 1169.9 C 668.3 1216.1, 680.0 1042.0, 653.6 1081.7" stroke="rgb(200,200,200)" fill="none"/><path d="M 653.6 1081.7 C 620.5 1131.6, 599.2 1060.1, 526.4 1055.6" stroke="rgb(200,200,200)" fill="none"/><path d="M 526.4 1055.6 C 447.6 1050.7, 475.3 950.4, 416.3 958.6" stroke="rgb(200,200,200)" fill="none"/><path d="M 416.3 958.6 C 341.1 968.9, 324.9 842.0, 398.1 789.1" stroke="rgb(200,200,200)" fill="none"/><path d="M 398.1 789.1 C 432.9 763.9, 362.5 864.4, 403.8 888.0" stroke="rgb(200,200,200)" fill="none"/><path d="M 403.8 888.0 C 466.7 924.1, 392.4 1090.9, 458.6 1035.8" stroke="rgb(200,200,200)" fill="none"/><path d="M 458.6 1035.8 C 535.9 971.4, 313.8 930.4, 385.1 861.6" stroke="rgb(200,200,200)" fill="none"/><path d="M 385.1 861.6 C 440.9 807.9, 356.6 783.9, 394.9 729.3" stroke="rgb(200,200,200)" fill="none"/><path d="M 394.9 729.3 C 425.4 685.8, 366.8 612.7, 339.3 646.4" stroke="rgb(200,200,200)" fill="none"/><path d="M 339.3 646.4 C 305.3 688.0, 334.3 543.5, 297.7 563.9" stroke="rgb(200,200,200)" fill="none"/><path d="M 297.7 563.9 C 167.6 636.3, 527.1 702.9, 436.4 772.8" stroke="rgb(200,200,200)" fill="none"/><path d="M 436.4 772.8 C 392.1 806.9, 405.0 739.4, 360.7 699.9" stroke="rgb(200,200,200)" fill="none"/><path d="M 360.7 699.9 C 311.9 656.5, 427.8 596.8, 476.4 636.3" stroke="rgb(200,200,200)" fill="none"/><path d="M 476.4 636.3 C 732.1 844.2, 1258.1 596.4, 1094.6 815.4" stroke="rgb(200,200,200)" fill="none"/><path d="M 1094.6 815.4 C 1069.5 849.2, 1054.0 780.3, 999.7 780.0" stroke="rgb(200,200,200)" fill="none"/><path d="M 999.7 780.0 C 955.7 779.8, 953.5 684.1, 1003.0 679.0" stroke="rgb(200,200,200)" fill="none"/><path d="M 1003.0 679.0 C 1059.9 673.1, 1173.5 721.8, 1105.7 746.4" stroke="rgb(200,200,200)" fill="none"/><path d="M 1105.7 746.4 C 1038.3 770.8, 1072.5 679.5, 1008.1 675.3" stroke="rgb(200,200,200)" fill="none"/><path d="M 1008.1 675.3 C 965.1 672.4, 1109.0 725.0, 1067.9 744.0" stroke="rgb(200,200,200)" fill="none"/><path d="M 1067.9 744.0 C 876.8 832.5, 810.6 546.6, 711.5 676.1" stroke="rgb(200,200,200)" fill="none"/><path d="M 711.5 676.1 C 616.9 799.7, 551.2 649.9, 397.3 733.3" stroke="rgb(200,200,200)" fill="none"/><path d="M 397.3 733.3 C 334.4 767.5, 423.2 821.1, 378.7 852.6" stroke="rgb(200,200,200)" fill="none"/><path d="M 378.7 852.6 C 347.4 874.8, 348.1 941.0, 397.3 945.5" stroke="rgb(200,200,200)" fill="none"/><path d="M 397.3 945.5 C 461.9 951.3, 512.2 1061.5, 454.4 1055.7" stroke="rgb(200,200,200)" fill="none"/><path d="M 454.4 1055.7 C 386.4 1048.9, 402.6 876.7, 380.9 946.9" stroke="rgb(200,200,200)" fill="none"/><path d="M 380.9 946.9 C 360.0 1014.4, 445.5 857.1, 521.2 846.7" stroke="rgb(200,200,200)" fill="none"/><path d="M 521.2 846.7 C 584.5 838.0, 464.4 775.8, 497.0 734.4" stroke="rgb(200,200,200)" fill="none"/><path d="M 497.0 734.4 C 546.5 671.6, 473.5 799.5, 503.5 881.9" stroke="rgb(200,200,200)" fill="none"/><path d="M 503.5 881.9 C 583.5 1101.6, 831.3 894.4, 907.3 643.0" stroke="rgb(200,200,200)" fill="none"/><path d="M 907.3 643.0 C 918.5 606.0, 863.4 698.9, 827.7 687.8" stroke="rgb(200,200,200)" fill="none"/><path d="M 827.7 687.8 C 786.5 675.1, 814.4 625.3, 753.1 613.4" stroke="rgb(200,200,200)" fill="none"/><path d="M 753.1 613.4 C 509.9 565.9, 1071.9 790.4, 974.7 1031.9" stroke="rgb(200,200,200)" fill="none"/><path d="M 974.7 1031.9 C 935.5 1129.2, 1120.8 883.2, 1175.0 980.1" stroke="rgb(200,200,200)" fill="none"/><path d="M 1175.0 980.1 C 1202.5 1029.3, 1214.5 860.3, 1237.7 908.8" stroke="rgb(200,200,200)" fill="none"/><path d="M 1237.7 908.8 C 1261.6 958.9, 1261.7 856.1, 1307.7 844.7" stroke="rgb(200,200,200)" fill="none"/><path d="M 1307.7 844.7 C 1357.8 832.2, 1273.7 720.6, 1255.2 758.4" stroke="rgb(200,200,200)" fill="none"/><path d="M 1255.2 758.4 C 1222.1 825.9, 1199.6 847.7, 1242.1 929.0" stroke="rgb(200,200,200)" fill="none"/><path d="M 1242.1 929.0 C 1267.2 977.0, 1239.5 791.1, 1268.7 839.1" stroke="rgb(200,200,200)" fill="none"/><path d="M 1268.7 839.1 C 1338.9 954.4, 871.2 985.5, 1014.1 1003.0" stroke="rgb(200,200,200)" fill="none"/><path d="M 1014.1 1003.0 C 1146.8 1019.3, 928.8 701.3, 1009.1 773.4" stroke="rgb(200,200,200)" fill="none"/><path d="M 1009.1 773.4 C 1090.3 846.2, 1215.7 640.8, 1249.2 763.7" stroke="rgb(200,200,200)" fill="none"/><path d="M 1249.2 763.7 C 1266.2 825.8, 1208.9 814.4, 1136.2 850.0" stroke="rgb(200,200,200)" fill="none"/><path d="M 1136.2 850.0 C 1076.7 879.1, 1170.9 1027.1, 1098.5 1002.7" stroke="rgb(200,200,200)" fill="none"/><path d="M 1098.5 1002.7 C 1007.9 972.2, 1019.8 1034.1, 957.6 1078.6" stroke="rgb(200,200,200)" fill="none"/><path d="M 957.6 1078.6 C 911.2 1111.9, 1001.1 1000.4, 970.9 966.5" stroke="rgb(200,200,200)" fill="none"/><path d="M 970.9 966.5 C 933.7 924.7, 969.9 796.8, 920.5 837.9" stroke="rgb(200,200,200)" fill="none"/><path d="M 920.5 837.9 C 887.3 865.6, 893.9 792.2, 901.3 749.4" stroke="rgb(200,200,200)" fill="none"/><path d="M 901.3 749.4 C 909.1 704.4, 832.3 694.7, 864.4 664.4" stroke="rgb(200,200,200)" fill="none"/><path d="M 864.4 664.4 C 897.0 633.5, 870.5 786.4, 896.7 752.7" stroke="rgb(200,200,200)" fill="none"/><path d="M 896.7 752.7 C 927.8 712.8, 884.1 880.3, 928.8 860.7" stroke="rgb(200,200,200)" fill="none"/><path d="M 928.8 860.7 C 976.8 839.5, 987.3 991.2, 941.0 968.3" stroke="rgb(200,200,200)" fill="none"/><path d="M 941.0 968.3 C 672.8 835.8, 358.2 1164.8, 391.9 920.4" stroke="rgb(200,200,200)" fill="none"/><path d="M 391.9 920.4 C 400.0 861.6, 338.6 847.1, 358.5 792.2" stroke="rgb(200,200,200)" fill="none"/><path d="M 358.5 792.2 C 383.9 722.0, 501.0 774.5, 476.7 709.5" stroke="rgb(200,200,200)" fill="none"/><path d="M 476.7 709.5 C 459.1 662.3, 416.2 754.1, 381.4 723.6" stroke="rgb(200,200,200)" fill="none"/><path d="M 381.4 723.6 C 311.8 662.7, 338.2 456.7, 436.0 500.8" stroke="rgb(200,200,200)" fill="none"/><path d="M 436.0 500.8 C 493.5 526.7, 379.7 388.3, 431.2 369.6" stroke="rgb(200,200,200)" fill="none"/><path d="M 431.2 369.6 C 485.9 349.8, 554.5 395.8, 519.7 420.8" stroke="rgb(200,200,200)" fill="none"/><path d="M 519.7 420.8 C 476.8 451.7, 612.4 423.9, 602.1 468.0" stroke="rgb(200,200,200)" fill="none"/><path d="M 602.1 468.0 C 591.7 512.7, 555.5 379.6, 529.3 407.6" stroke="rgb(200,200,200)" fill="none"/><path d="M 529.3 407.6 C 449.5 492.7, 210.9 477.7, 284.1 380.4" stroke="rgb(200,200,200)" fill="none"/><path d="M 284.1 380.4 C 325.9 324.7, 379.9 280.2, 408.0 350.9" stroke="rgb(200,200,200)" fill="none"/><path d="M 408.0 350.9 C 438.9 428.5, 344.0 361.8, 273.2 397.8" stroke="rgb(200,200,200)" fill="none"/><path d="M 273.2 397.8 C 221.0 424.3, 341.3 494.6, 288.0 504.2" stroke="rgb(200,200,200)" fill="none"/><path d="M 288.0 504.2 C 195.1 520.8, 489.8 431.8, 422.3 356.3" stroke="rgb(200,200,200)" fill="none"/><path d="M 422.3 356.3 C 232.2 143.8, 528.2 1102.7, 330.6 891.0" stroke="rgb(200,200,200)" fill="none"/><path d="M 330.6 891.0 C 241.5 795.5, 602.0 611.5, 582.7 750.3" stroke="rgb(200,200,200)" fill="none"/><path d="M 582.7 750.3 C 571.1 832.9, 365.5 711.3, 431.7 774.7" stroke="rgb(200,200,200)" fill="none"/><path d="M 431.7 774.7 C 587.9 924.2, 563.5 945.5, 474.4 1132.6" stroke="rgb(200,200,200)" fill="none"/><path d="M 474.4 1132.6 C 411.7 1264.1, 470.2 789.7, 365.4 895.4" stroke="rgb(200,200,200)" fill="none"/><path d="M 365.4 895.4 C 328.2 932.9, 425.4 793.9, 375.2 786.9" stroke="rgb(200,200,200)" fill="none"/><path d="M 375.2 786.9 C 307.1 777.4, 456.6 927.0, 387.7 937.8" stroke="rgb(200,200,200)" fill="none"/><path d="M 387.7 937.8 C 280.9 954.5, 551.0 1006.3, 556.1 1108.0" stroke="rgb(200,200,200)" fill="none"/><path d="M 556.1 1108.0 C 558.3 1151.5, 587.8 1070.4, 607.9 1032.9" stroke="rgb(200,200,200)" fill="none"/><path d="M 607.9 1032.9 C 640.4 972.3, 554.6 1118.7, 480.9 1089.3" stroke="rgb(200,200,200)" fill="none"/><path d="M 480.9 1089.3 C 437.8 1072.1, 468.4 1036.5, 411.0 1010.6" stroke="rgb(200,200,200)" fill="none"/><path d="M 411.0 1010.6 C 325.6 972.1, 496.3 822.2, 507.8 885.7" stroke="rgb(200,200,200)" fill="none"/><path d="M 507.8 885.7 C 521.1 958.8, 587.4 1023.5, 622.0 967.7" stroke="rgb(200,200,200)" fill="none"/><path d="M 622.0 967.7 C 650.8 921.1, 588.2 1042.2, 631.4 1065.7" stroke="rgb(200,200,200)" fill="none"/><path d="M 631.4 1065.7 C 704.7 1105.7, 729.1 836.8, 749.8 934.7" stroke="rgb(200,200,200)" fill="none"/><path d="M 749.8 934.7 C 775.4 1055.2, 446.1 936.9, 548.0 995.4" stroke="rgb(200,200,200)" fill="none"/><path d="M 548.0 995.4 C 863.0 1176.0, 966.2 882.9, 1231.7 975.9" stroke="rgb(200,200,200)" fill="none"/><path d="M 1231.7 975.9 C 1316.3 1005.5, 1171.9 828.7, 1243.7 816.1" stroke="rgb(200,200,200)" fill="none"/><path d="M 1243.7 816.1 C 1316.7 803.3, 1169.9 658.6, 1117.1 715.9" stroke="rgb(200,200,200)" fill="none"/><path d="M 1117.1 715.9 C 1083.9 751.9, 1188.9 705.7, 1212.3 740.9" stroke="rgb(200,200,200)" fill="none"/><path d="M 1212.3 740.9 C 1243.6 788.1, 1215.9 898.9, 1186.0 846.3" stroke="rgb(200,200,200)" fill="none"/><path d="M 1186.0 846.3 C 1153.2 788.8, 1219.8 786.5, 1272.4 770.1" stroke="rgb(200,200,200)" fill="none"/><path d="M 1272.4 770.1 C 1376.6 737.7, 1295.6 1007.4, 1204.9 956.5" stroke="rgb(200,200,200)" fill="none"/><path d="M 1204.9 956.5 C 1130.5 914.8, 1251.0 766.9, 1157.3 771.0" stroke="rgb(200,200,200)" fill="none"/><path d="M 1157.3 771.0 C 1095.6 773.7, 1111.6 672.3, 1070.8 708.4" stroke="rgb(200,200,200)" fill="none"/><path d="M 1070.8 708.4 C 891.8 866.8, 645.2 365.7, 661.6 557.6" stroke="rgb(200,200,200)" fill="none"/><path d="M 661.6 557.6 C 673.5 695.6, 891.6 653.0, 838.5 751.9" stroke="rgb(200,200,200)" fill="none"/><path d="M 838.5 751.9 C 808.0 808.9, 783.9 695.1, 735.6 708.7" stroke="rgb(200,200,200)" fill="none"/><path d="M 735.6 708.7 C 614.4 742.9, 427.4 748.6, 520.4 689.8" stroke="rgb(200,200,200)" fill="none"/><path d="M 520.4 689.8 C 806.4 509.2, 814.7 730.6, 1031.2 1011.1" stroke="rgb(200,200,200)" fill="none"/><path d="M 1031.2 1011.1 C 1083.3 1078.5, 934.6 972.1, 880.9 1041.0" stroke="rgb(200,200,200)" fill="none"/><path d="M 880.9 1041.0 C 825.3 1112.4, 663.6 1034.1, 733.1 1086.2" stroke="rgb(200,200,200)" fill="none"/><path d="M 733.1 1086.2 C 967.7 1262.4, 1332.7 558.1, 1248.5 846.9" stroke="rgb(200,200,200)" fill="none"/><path d="M 1248.5 846.9 C 1235.3 892.1, 1177.3 840.3, 1161.6 785.2" stroke="rgb(200,200,200)" fill="none"/><path d="M 1161.6 785.2 C 1104.1 584.1, 700.0 717.7, 763.3 931.1" stroke="rgb(200,200,200)" fill="none"/><path d="M 763.3 931.1 C 782.5 995.6, 606.3 1015.3, 669.3 1049.9" stroke="rgb(200,200,200)" fill="none"/><path d="M 669.3 1049.9 C 711.4 1073.0, 666.0 1205.5, 693.1 1156.3" stroke="rgb(200,200,200)" fill="none"/><path d="M 693.1 1156.3 C 729.1 1091.1, 587.0 1023.5, 585.4 1094.7" stroke="rgb(200,200,200)" fill="none"/><path d="M 585.4 1094.7 C 584.1 1152.6, 537.6 1005.4, 502.7 1029.6" stroke="rgb(200,200,200)" fill="none"/><path d="M 502.7 1029.6 C 399.5 1101.3, 708.8 1029.5, 696.0 1173.0" stroke="rgb(200,200,200)" fill="none"/><path d="M 696.0 1173.0 C 691.8 1219.9, 664.6 1064.9, 639.5 1097.6" stroke="rgb(200,200,200)" fill="none"/><path d="M 639.5 1097.6 C 613.2 1131.6, 589.4 1057.8, 591.2 1020.7" stroke="rgb(200,200,200)" fill="none"/><path d="M 591.2 1020.7 C 593.6 973.3, 671.8 1057.0, 652.5 1099.2" stroke="rgb(200,200,200)" fill="none"/><path d="M 652.5 1099.2 C 635.1 1137.2, 554.9 1012.3, 605.4 1016.3" stroke="rgb(200,200,200)" fill="none"/><path d="M 605.4 1016.3 C 689.4 1023.0, 665.9 1112.2, 728.1 1160.1" stroke="rgb(200,200,200)" fill="none"/><path d="M 728.1 1160.1 C 815.5 1227.4, 622.2 932.5, 703.6 977.2" stroke="rgb(200,200,200)" fill="none"/><path d="M 703.6 977.2 C 759.7 1008.0, 567.5 1084.4, 633.3 1098.6" stroke="rgb(200,200,200)" fill="none"/><path d="M 633.3 1098.6 C 681.2 1109.0, 672.1 1166.8, 720.4 1155.3" stroke="rgb(200,200,200)" fill="none"/><path d="M 720.4 1155.3 C 872.5 1119.0, 372.3 1093.8, 452.4 984.7" stroke="rgb(200,200,200)" fill="none"/><path d="M 452.4 984.7 C 489.2 934.5, 379.7 935.5, 340.8 878.8" stroke="rgb(200,200,200)" fill="none"/><path d="M 340.8 878.8 C 282.5 793.5, 543.3 737.1, 460.3 695.1" stroke="rgb(200,200,200)" fill="none"/><path d="M 460.3 695.1 C 407.6 668.5, 329.3 815.5, 400.4 800.6" stroke="rgb(200,200,200)" fill="none"/><path d="M 400.4 800.6 C 444.8 791.3, 373.7 740.5, 389.2 690.3" stroke="rgb(200,200,200)" fill="none"/><path d="M 389.2 690.3 C 402.2 648.1, 412.5 617.4, 469.1 623.8" stroke="rgb(200,200,200)" fill="none"/><path d="M 469.1 623.8 C 580.3 636.2, 319.0 367.0, 452.5 378.8" stroke="rgb(200,200,200)" fill="none"/><path d="M 452.5 378.8 C 495.3 382.5, 395.4 382.1, 368.2 434.1" stroke="rgb(200,200,200)" fill="none"/><path d="M 368.2 434.1 C 348.4 471.8, 272.4 414.9, 278.6 460.5" stroke="rgb(200,200,200)" fill="none"/><path d="M 278.6 460.5 C 289.3 538.3, 358.2 607.6, 440.7 547.8" stroke="rgb(200,200,200)" fill="none"/><path d="M 440.7 547.8 C 738.1 332.2, 759.4 671.2, 1007.4 892.1" stroke="rgb(200,200,200)" fill="none"/><path d="M 1007.4 892.1 C 1277.1 1132.4, 492.8 1194.0, 366.3 909.1" stroke="rgb(200,200,200)" fill="none"/><path d="M 366.3 909.1 C 329.0 825.0, 403.4 824.0, 383.9 701.7" stroke="rgb(200,200,200)" fill="none"/><path d="M 383.9 701.7 C 374.9 645.2, 299.8 622.3, 338.5 616.8" stroke="rgb(200,200,200)" fill="none"/><path d="M 338.5 616.8 C 429.0 604.0, 389.9 730.8, 488.0 704.8" stroke="rgb(200,200,200)" fill="none"/><path d="M 488.0 704.8 C 638.6 665.0, 750.1 702.4, 785.5 885.4" stroke="rgb(200,200,200)" fill="none"/><path d="M 785.5 885.4 C 795.8 938.7, 729.2 942.8, 690.6 908.6" stroke="rgb(200,200,200)" fill="none"/><path d="M 690.6 908.6 C 524.9 762.0, 1335.2 587.4, 1169.0 799.6" stroke="rgb(200,200,200)" fill="none"/><path d="M 1169.0 799.6 C 1117.6 865.2, 1064.7 787.6, 983.1 768.6" stroke="rgb(200,200,200)" fill="none"/><path d="M 983.1 768.6 C 808.9 728.2, 619.4 887.6, 737.1 969.6" stroke="rgb(200,200,200)" fill="none"/><path d="M 737.1 969.6 C 826.6 1031.9, 689.4 1083.3, 575.6 1081.6" stroke="rgb(200,200,200)" fill="none"/><path d="M 575.6 1081.6 C 523.2 1080.9, 615.7 1059.4, 645.7 1021.4" stroke="rgb(200,200,200)" fill="none"/><path d="M 645.7 1021.4 C 768.1 866.5, 841.9 568.2, 694.2 651.9" stroke="rgb(200,200,200)" fill="none"/><path d="M 694.2 651.9 C 471.9 778.0, 1058.4 585.1, 1216.2 751.3" stroke="rgb(200,200,200)" fill="none"/><path d="M 1216.2 751.3 C 1246.8 783.5, 1223.0 805.9, 1206.2 851.1" stroke="rgb(200,200,200)" fill="none"/><path d="M 1206.2 851.1 C 1176.8 930.4, 1228.6 696.9, 1153.3 720.0" stroke="rgb(200,200,200)" fill="none"/><path d="M 1153.3 720.0 C 1091.2 739.0, 1243.9 710.9, 1258.6 762.1" stroke="rgb(200,200,200)" fill="none"/><path d="M 1258.6 762.1 C 1277.3 827.5, 1096.7 878.6, 1160.3 876.5" stroke="rgb(200,200,200)" fill="none"/><path d="M 1160.3 876.5 C 1223.6 874.4, 1151.5 730.4, 1207.2 752.1" stroke="rgb(200,200,200)" fill="none"/><path d="M 1207.2 752.1 C 1313.1 793.2, 1179.0 827.9, 1170.8 945.4" stroke="rgb(200,200,200)" fill="none"/><path d="M 1170.8 945.4 C 1164.5 1035.8, 873.9 1001.3, 953.7 916.7" stroke="rgb(200,200,200)" fill="none"/><path d="M 953.7 916.7 C 994.7 873.3, 977.7 1088.0, 1012.2 1039.4" stroke="rgb(200,200,200)" fill="none"/><path d="M 1012.2 1039.4 C 1044.8 993.4, 884.0 934.7, 941.6 926.4" stroke="rgb(200,200,200)" fill="none"/><path d="M 941.6 926.4 C 994.8 918.8, 954.4 1050.0, 1026.9 1024.8" stroke="rgb(200,200,200)" fill="none"/><path d="M 1026.9 1024.8 C 1161.7 977.9, 1111.0 877.6, 1071.6 781.4" stroke="rgb(200,200,200)" fill="none"/><path d="M 1071.6 781.4 C 1038.4 700.2, 1285.2 711.3, 1225.7 773.3" stroke="rgb(200,200,200)" fill="none"/><path d="M 1225.7 773.3 C 1147.5 854.7, 1076.6 1024.7, 1157.3 985.2" stroke="rgb(200,200,200)" fill="none"/><path d="M 1157.3 985.2 C 1208.7 960.0, 1173.8 819.7, 1125.8 856.2" stroke="rgb(200,200,200)" fill="none"/><path d="M 1125.8 856.2 C 1077.2 893.2, 1143.3 979.2, 1069.5 970.2" stroke="rgb(200,200,200)" fill="none"/><path d="M 1069.5 970.2 C 1016.0 963.7, 1012.0 1047.3, 986.3 1009.1" stroke="rgb(200,200,200)" fill="none"/><path d="M 986.3 1009.1 C 961.7 972.7, 1083.9 994.5, 1064.1 962.5" stroke="rgb(200,200,200)" fill="none"/><path d="M 1064.1 962.5 C 1036.2 917.7, 1117.5 973.8, 1156.7 964.3" stroke="rgb(200,200,200)" fill="none"/><path d="M 1156.7 964.3 C 1256.7 940.1, 1378.0 919.4, 1329.8 825.9" stroke="rgb(200,200,200)" fill="none"/><path d="M 1329.8 825.9 C 1291.5 751.4, 1263.0 995.4, 1198.0 946.3" stroke="rgb(200,200,200)" fill="none"/><path d="M 1198.0 946.3 C 1131.1 895.6, 1223.4 778.2, 1147.0 797.0" stroke="rgb(200,200,200)" fill="none"/><path d="M 1147.0 797.0 C 1036.5 824.3, 1180.9 990.3, 1085.1 1018.8" stroke="rgb(200,200,200)" fill="none"/><path d="M 1085.1 1018.8 C 1020.0 1038.2, 948.6 927.0, 924.8 1013.5" stroke="rgb(200,200,200)" fill="none"/><path d="M 924.8 1013.5 C 912.1 1059.7, 860.5 1013.8, 828.9 1054.5" stroke="rgb(200,200,200)" fill="none"/><path d="M 828.9 1054.5 C 585.2 1368.4, 567.5 602.2, 284.9 660.3" stroke="rgb(200,200,200)" fill="none"/><path d="M 284.9 660.3 C 161.7 685.7, 568.4 405.0, 398.9 401.0" stroke="rgb(200,200,200)" fill="none"/><path d="M 398.9 401.0 C 348.7 399.9, 504.2 414.3, 476.5 469.3" stroke="rgb(200,200,200)" fill="none"/><path d="M 476.5 469.3 C 437.9 546.1, 332.6 441.4, 331.2 524.0" stroke="rgb(200,200,200)" fill="none"/><path d="M 331.2 524.0 C 329.5 625.4, 331.0 674.5, 421.0 725.7" stroke="rgb(200,200,200)" fill="none"/></svg>