<svg width="1500" height="2250" xmlns="http://www.w3.org/2000/svg" style="background-color: transparent;"><path d="M 1497.5 342.5 C 1434.0 408.9, 1383.4 374.9, 1301.7 396.0" stroke="black" fill="none"/><path d="M 1301.7 396.0 C 1199.4 422.5, 1070.3 424.9, 1099.6 551.5" stroke="black" fill="none"/><path d="M 1099.6 551.5 C 1142.9 738.5, 794.8 935.0, 973.4 891.4" stroke="black" fill="none"/><path d="M 973.4 891.4 C 1083.1 864.7, 919.9 973.6, 873.9 1074.3" stroke="black" fill="none"/><path d="M 873.9 1074.3 C 815.2 1203.1, 822.6 909.5, 685.9 867.4" stroke="black" fill="none"/><path d="M 685.9 867.4 C 502.3 810.9, 396.7 1334.7, 576.2 1227.8" stroke="black" fill="none"/><path d="M 576.2 1227.8 C 829.2 1077.1, 769.2 1886.9, 891.4 1634.2" stroke="black" fill="none"/><path d="M 891.4 1634.2 C 1103.6 1195.5, 1238.9 1019.6, 947.7 672.1" stroke="black" fill="none"/><path d="M 947.7 672.1 C 873.6 583.7, 782.1 504.2, 871.0 475.0" stroke="black" fill="none"/><path d="M 871.0 475.0 C 1145.3 384.8, 1163.2 417.1, 1389.0 566.8" stroke="black" fill="none"/><path d="M 1389.0 566.8 C 1478.5 626.1, 1397.1 455.0, 1385.4 336.9" stroke="black" fill="none"/><path d="M 1385.4 336.9 C 1369.6 177.2, 1377.5 508.4, 1242.5 570.8" stroke="black" fill="none"/><path d="M 1242.5 570.8 C 963.8 699.8, 954.4 1363.0, 936.8 1037.4" stroke="black" fill="none"/><path d="M 936.8 1037.4 C 930.4 919.3, 935.6 742.6, 847.6 809.0" stroke="black" fill="none"/><path d="M 847.6 809.0 C 728.7 898.7, 881.9 1058.9, 1030.6 1011.8" stroke="black" fill="none"/><path d="M 1030.6 1011.8 C 1188.8 961.6, 1023.4 1183.6, 1016.8 1317.9" stroke="black" fill="none"/><path d="M 1016.8 1317.9 C 1010.1 1452.6, 1257.9 1435.3, 1147.8 1536.3" stroke="black" fill="none"/><path d="M 1147.8 1536.3 C 1015.6 1657.7, 1260.5 1193.7, 1061.3 1178.2" stroke="black" fill="none"/><path d="M 1061.3 1178.2 C 949.6 1169.5, 1173.3 918.3, 1096.8 964.5" stroke="black" fill="none"/><path d="M 1096.8 964.5 C 1021.4 1010.0, 1094.5 1062.0, 1075.4 1173.4" stroke="black" fill="none"/><path d="M 1075.4 1173.4 C 1043.6 1359.3, 1072.2 1398.6, 1143.4 1535.9" stroke="black" fill="none"/><path d="M 1143.4 1535.9 C 1249.3 1740.1, 1014.4 1008.8, 1231.4 1099.6" stroke="black" fill="none"/><path d="M 1231.4 1099.6 C 1429.2 1182.4, 810.3 1371.7, 980.3 1394.9" stroke="black" fill="none"/><path d="M 980.3 1394.9 C 1173.1 1421.1, 676.3 1049.6, 858.5 1075.9" stroke="black" fill="none"/><path d="M 858.5 1075.9 C 1206.4 1126.2, 1049.5 245.8, 1109.7 529.5" stroke="black" fill="none"/><path d="M 1109.7 529.5 C 1154.3 739.7, 789.2 916.3, 649.5 720.2" stroke="black" fill="none"/><path d="M 649.5 720.2 C 578.1 619.9, 849.9 876.8, 852.3 761.2" stroke="black" fill="none"/><path d="M 852.3 761.2 C 855.3 622.1, 849.8 394.0, 765.7 504.0" stroke="black" fill="none"/><path d="M 765.7 504.0 C 661.4 640.4, 709.1 915.8, 795.6 803.4" stroke="black" fill="none"/><path d="M 795.6 803.4 C 905.3 660.9, 1030.8 1238.7, 1055.0 1075.5" stroke="black" fill="none"/><path d="M 1055.0 1075.5 C 1070.3 972.8, 1109.4 777.4, 1004.8 821.7" stroke="black" fill="none"/><path d="M 1004.8 821.7 C 877.6 875.6, 1080.3 950.3, 996.4 1057.1" stroke="black" fill="none"/><path d="M 996.4 1057.1 C 943.2 1124.9, 806.5 896.2, 913.9 863.4" stroke="black" fill="none"/><path d="M 913.9 863.4 C 1030.5 827.8, 878.3 1102.0, 960.6 1073.7" stroke="black" fill="none"/><path d="M 960.6 1073.7 C 1098.7 1026.3, 823.0 744.1, 945.4 778.9" stroke="black" fill="none"/><path d="M 945.4 778.9 C 1201.9 851.9, 827.4 1103.4, 951.9 1353.0" stroke="black" fill="none"/><path d="M 951.9 1353.0 C 1058.3 1566.4, 976.3 1050.0, 1125.3 870.2" stroke="black" fill="none"/><path d="M 1125.3 870.2 C 1210.4 767.5, 841.7 782.9, 938.8 722.3" stroke="black" fill="none"/><path d="M 938.8 722.3 C 1043.2 657.1, 1062.1 933.4, 948.1 940.2" stroke="black" fill="none"/><path d="M 948.1 940.2 C 843.5 946.4, 1100.1 719.8, 982.9 731.8" stroke="black" fill="none"/><path d="M 982.9 731.8 C 852.6 745.0, 936.0 872.8, 1006.3 956.2" stroke="black" fill="none"/><path d="M 1006.3 956.2 C 1073.3 1035.6, 1011.3 1117.7, 927.5 1149.2" stroke="black" fill="none"/><path d="M 927.5 1149.2 C 690.1 1238.4, 1143.1 760.5, 952.9 695.4" stroke="black" fill="none"/><path d="M 952.9 695.4 C 617.1 580.3, 1167.4 1050.1, 985.3 1483.7" stroke="black" fill="none"/><path d="M 985.3 1483.7 C 902.5 1681.0, 1008.8 1157.6, 832.0 985.1" stroke="black" fill="none"/><path d="M 832.0 985.1 C 709.1 865.1, 707.6 864.0, 700.9 698.6" stroke="black" fill="none"/><path d="M 700.9 698.6 C 686.9 351.5, 349.4 458.6, 120.9 556.6" stroke="black" fill="none"/><path d="M 120.9 556.6 C -20.3 617.1, 138.0 886.1, 253.8 792.1" stroke="black" fill="none"/><path d="M 253.8 792.1 C 403.6 670.5, 691.9 1251.2, 646.6 1018.6" stroke="black" fill="none"/><path d="M 646.6 1018.6 C 606.3 811.9, 899.2 723.2, 958.2 853.0" stroke="black" fill="none"/><path d="M 958.2 853.0 C 1009.3 965.5, 1143.4 700.7, 1084.2 589.3" stroke="black" fill="none"/><path d="M 1084.2 589.3 C 842.0 133.7, 461.0 871.2, 469.9 1362.1" stroke="black" fill="none"/><path d="M 469.9 1362.1 C 472.3 1491.4, 487.6 1569.7, 587.0 1543.9" stroke="black" fill="none"/><path d="M 587.0 1543.9 C 944.3 1450.9, 666.4 1193.6, 520.2 765.4" stroke="black" fill="none"/><path d="M 520.2 765.4 C 485.1 662.8, 852.2 853.7, 757.6 770.1" stroke="black" fill="none"/><path d="M 757.6 770.1 C 598.3 629.2, 408.2 796.5, 334.1 1012.3" stroke="black" fill="none"/><path d="M 334.1 1012.3 C 276.1 1181.3, 782.5 1148.9, 711.7 997.5" stroke="black" fill="none"/><path d="M 711.7 997.5 C 660.5 888.1, 442.8 1120.6, 507.1 1016.4" stroke="black" fill="none"/><path d="M 507.1 1016.4 C 584.7 890.8, 389.0 1237.3, 545.2 1288.4" stroke="black" fill="none"/><path d="M 545.2 1288.4 C 818.5 1378.0, 597.1 688.1, 939.7 767.2" stroke="black" fill="none"/><path d="M 939.7 767.2 C 1066.1 796.4, 871.7 1003.7, 999.0 985.3" stroke="black" fill="none"/><path d="M 999.0 985.3 C 1117.8 968.2, 856.3 1177.8, 946.1 1184.2" stroke="black" fill="none"/><path d="M 946.1 1184.2 C 1095.5 1194.8, 1169.0 1048.4, 1053.6 955.0" stroke="black" fill="none"/><path d="M 1053.6 955.0 C 956.1 876.2, 878.9 835.3, 936.4 749.9" stroke="black" fill="none"/><path d="M 936.4 749.9 C 1011.0 639.1, 913.5 1072.9, 978.1 995.4" stroke="black" fill="none"/><path d="M 978.1 995.4 C 1037.2 924.5, 897.0 710.6, 857.5 811.2" stroke="black" fill="none"/><path d="M 857.5 811.2 C 760.7 1058.1, 752.5 555.1, 555.6 483.4" stroke="black" fill="none"/><path d="M 555.6 483.4 C 372.9 416.9, 326.5 497.7, 153.0 567.2" stroke="black" fill="none"/><path d="M 153.0 567.2 C 0.1 628.6, 52.2 867.9, 237.0 868.1" stroke="black" fill="none"/><path d="M 237.0 868.1 C 624.5 868.7, 1401.8 950.2, 1000.3 1277.2" stroke="black" fill="none"/><path d="M 1000.3 1277.2 C 922.0 1340.9, 941.9 1566.1, 1013.5 1488.6" stroke="black" fill="none"/><path d="M 1013.5 1488.6 C 1374.1 1097.7, 616.7 758.0, 181.6 806.9" stroke="black" fill="none"/><path d="M 181.6 806.9 C -11.1 828.5, 80.9 612.2, 197.9 475.5" stroke="black" fill="none"/><path d="M 197.9 475.5 C 276.3 383.9, 350.6 571.2, 490.7 494.7" stroke="black" fill="none"/><path d="M 490.7 494.7 C 626.8 420.4, 366.0 485.3, 197.5 452.8" stroke="black" fill="none"/><path d="M 197.5 452.8 C 4.8 415.7, 28.0 673.7, 126.5 791.3" stroke="black" fill="none"/><path d="M 126.5 791.3 C 201.0 880.4, 429.0 744.7, 400.9 857.5" stroke="black" fill="none"/><path d="M 400.9 857.5 C 371.3 976.1, 476.5 701.2, 574.8 728.9" stroke="black" fill="none"/><path d="M 574.8 728.9 C 797.2 791.6, 937.1 883.0, 995.4 686.3" stroke="black" fill="none"/><path d="M 995.4 686.3 C 1074.0 421.2, 1552.7 468.5, 1358.7 371.4" stroke="black" fill="none"/><path d="M 1358.7 371.4 C 1249.3 316.7, 1293.3 719.3, 1261.7 597.2" stroke="black" fill="none"/><path d="M 1261.7 597.2 C 1233.4 487.7, 1405.4 378.4, 1287.0 369.5" stroke="black" fill="none"/><path d="M 1287.0 369.5 C 1191.3 362.2, 1158.3 542.1, 1088.4 448.0" stroke="black" fill="none"/><path d="M 1088.4 448.0 C 1022.0 358.5, 1310.6 516.9, 1357.7 385.0" stroke="black" fill="none"/><path d="M 1357.7 385.0 C 1413.6 228.7, 992.7 593.2, 1010.3 444.4" stroke="black" fill="none"/><path d="M 1010.3 444.4 C 1022.3 342.8, 719.7 525.5, 766.7 436.1" stroke="black" fill="none"/><path d="M 766.7 436.1 C 886.8 207.7, 782.5 1263.5, 1020.2 992.9" stroke="black" fill="none"/><path d="M 1020.2 992.9 C 1100.4 901.6, 1120.4 1106.5, 1114.0 1204.6" stroke="black" fill="none"/><path d="M 1114.0 1204.6 C 1101.7 1393.4, 1077.4 869.3, 912.0 960.5" stroke="black" fill="none"/><path d="M 912.0 960.5 C 785.9 1030.0, 844.2 818.4, 724.4 771.6" stroke="black" fill="none"/><path d="M 724.4 771.6 C 523.4 693.1, 688.4 401.5, 899.0 444.3" stroke="black" fill="none"/><path d="M 899.0 444.3 C 1034.0 471.8, 1212.3 509.9, 1147.3 410.5" stroke="black" fill="none"/><path d="M 1147.3 410.5 C 1026.5 225.9, 1178.8 895.4, 1001.2 764.3" stroke="black" fill="none"/><path d="M 1001.2 764.3 C 813.3 625.6, 1035.7 968.9, 1019.2 1164.7" stroke="black" fill="none"/><path d="M 1019.2 1164.7 C 1007.9 1299.4, 935.7 1048.8, 887.0 963.8" stroke="black" fill="none"/><path d="M 887.0 963.8 C 824.9 855.4, 967.5 850.9, 1087.7 799.0" stroke="black" fill="none"/><path d="M 1087.7 799.0 C 1181.5 758.6, 890.9 1038.3, 988.8 990.1" stroke="black" fill="none"/><path d="M 988.8 990.1 C 1138.4 916.4, 802.2 1239.1, 972.4 1282.7" stroke="black" fill="none"/><path d="M 972.4 1282.7 C 1106.6 1317.1, 913.5 1493.0, 1043.6 1531.5" stroke="black" fill="none"/><path d="M 1043.6 1531.5 C 1150.4 1563.2, 1240.1 1561.4, 1215.7 1666.5" stroke="black" fill="none"/><path d="M 1215.7 1666.5 C 1180.4 1818.1, 1209.3 1230.6, 1073.6 1370.0" stroke="black" fill="none"/><path d="M 1073.6 1370.0 C 898.9 1549.5, 1189.4 961.5, 963.8 944.1" stroke="black" fill="none"/><path d="M 963.8 944.1 C 854.4 935.6, 1029.5 1035.7, 1073.6 1137.3" stroke="black" fill="none"/><path d="M 1073.6 1137.3 C 1121.9 1248.5, 1085.2 1031.5, 1123.9 925.1" stroke="black" fill="none"/><path d="M 1123.9 925.1 C 1201.7 711.3, 935.1 793.4, 749.1 814.6" stroke="black" fill="none"/><path d="M 749.1 814.6 C 628.6 828.3, 775.8 650.4, 698.8 617.1" stroke="black" fill="none"/><path d="M 698.8 617.1 C 591.9 571.0, 818.9 1007.5, 703.8 891.9" stroke="black" fill="none"/><path d="M 703.8 891.9 C 507.8 695.0, 1419.8 882.9, 1196.8 780.4" stroke="black" fill="none"/><path d="M 1196.8 780.4 C 995.4 687.9, 844.8 901.4, 949.6 1085.5" stroke="black" fill="none"/><path d="M 949.6 1085.5 C 1030.4 1227.5, 1057.8 1491.4, 955.9 1397.5" stroke="black" fill="none"/><path d="M 955.9 1397.5 C 870.7 1318.8, 1216.3 1275.6, 1121.6 1262.5" stroke="black" fill="none"/><path d="M 1121.6 1262.5 C 1022.3 1248.7, 1083.8 1400.3, 1125.4 1502.7" stroke="black" fill="none"/><path d="M 1125.4 1502.7 C 1164.1 1597.8, 1226.9 1688.8, 1112.3 1734.8" stroke="black" fill="none"/><path d="M 1112.3 1734.8 C 946.8 1801.2, 874.6 1255.5, 1025.9 1342.3" stroke="black" fill="none"/><path d="M 1025.9 1342.3 C 1158.7 1418.7, 879.3 996.9, 1061.8 1001.0" stroke="black" fill="none"/><path d="M 1061.8 1001.0 C 1234.2 1004.8, 1005.7 850.0, 1001.8 618.1" stroke="black" fill="none"/><path d="M 1001.8 618.1 C 999.3 467.3, 1081.6 370.6, 1227.6 446.4" stroke="black" fill="none"/><path d="M 1227.6 446.4 C 1788.6 737.4, -74.8 152.5, 202.9 723.6" stroke="black" fill="none"/><path d="M 202.9 723.6 C 247.7 815.8, 303.2 805.3, 420.9 811.4" stroke="black" fill="none"/><path d="M 420.9 811.4 C 564.5 818.7, 580.1 651.1, 697.2 703.3" stroke="black" fill="none"/><path d="M 697.2 703.3 C 834.2 764.3, 773.8 1010.9, 894.9 943.0" stroke="black" fill="none"/><path d="M 894.9 943.0 C 1000.7 883.6, 1193.5 914.7, 1094.5 986.1" stroke="black" fill="none"/><path d="M 1094.5 986.1 C 967.8 1077.4, 802.4 1002.4, 796.2 842.1" stroke="black" fill="none"/><path d="M 796.2 842.1 C 790.6 694.8, 1290.2 974.3, 1089.3 1049.1" stroke="black" fill="none"/><path d="M 1089.3 1049.1 C 970.6 1093.3, 973.7 778.6, 941.6 869.4" stroke="black" fill="none"/><path d="M 941.6 869.4 C 855.5 1112.8, 1014.2 1180.1, 1181.5 1400.9" stroke="black" fill="none"/><path d="M 1181.5 1400.9 C 1257.0 1500.5, 1103.4 1535.3, 1150.2 1635.8" stroke="black" fill="none"/><path d="M 1150.2 1635.8 C 1205.0 1753.7, 1125.4 1439.2, 1223.8 1389.0" stroke="black" fill="none"/><path d="M 1223.8 1389.0 C 1715.3 1138.1, 198.6 507.4, 370.1 1027.0" stroke="black" fill="none"/><path d="M 370.1 1027.0 C 408.7 1144.1, 730.1 1164.7, 651.2 1054.2" stroke="black" fill="none"/><path d="M 651.2 1054.2 C 576.6 949.7, 878.4 914.5, 774.5 802.7" stroke="black" fill="none"/><path d="M 774.5 802.7 C 581.7 595.3, 1331.3 943.3, 1271.3 747.8" stroke="black" fill="none"/><path d="M 1271.3 747.8 C 1231.9 619.4, 1391.3 428.9, 1290.1 513.0" stroke="black" fill="none"/><path d="M 1290.1 513.0 C 1204.6 584.0, 1381.4 321.5, 1270.1 304.2" stroke="black" fill="none"/><path d="M 1270.1 304.2 C 1166.0 288.0, 1314.9 616.3, 1354.7 498.3" stroke="black" fill="none"/><path d="M 1354.7 498.3 C 1447.2 223.9, 1041.8 577.1, 830.2 342.7" stroke="black" fill="none"/><path d="M 830.2 342.7 C 770.0 276.1, 872.3 442.6, 841.1 566.8" stroke="black" fill="none"/><path d="M 841.1 566.8 C 800.6 727.7, 976.7 977.0, 1008.8 828.9" stroke="black" fill="none"/><path d="M 1008.8 828.9 C 1034.0 712.8, 1181.6 1040.9, 1096.5 1019.3" stroke="black" fill="none"/><path d="M 1096.5 1019.3 C 988.8 992.1, 897.0 910.0, 980.8 826.7" stroke="black" fill="none"/><path d="M 980.8 826.7 C 1080.6 727.8, 1065.4 949.8, 1143.6 1050.0" stroke="black" fill="none"/><path d="M 1143.6 1050.0 C 1204.5 1128.0, 966.5 871.7, 926.2 993.6" stroke="black" fill="none"/><path d="M 926.2 993.6 C 871.0 1160.2, 690.1 556.6, 664.1 758.8" stroke="black" fill="none"/><path d="M 664.1 758.8 C 651.8 854.6, 767.5 806.7, 874.3 797.6" stroke="black" fill="none"/><path d="M 874.3 797.6 C 1005.1 786.6, 953.6 940.2, 921.8 1049.8" stroke="black" fill="none"/><path d="M 921.8 1049.8 C 876.6 1205.3, 773.2 654.8, 760.2 821.1" stroke="black" fill="none"/><path d="M 760.2 821.1 C 746.7 995.1, 1233.1 704.5, 1113.4 819.4" stroke="black" fill="none"/><path d="M 1113.4 819.4 C 1045.0 885.0, 1161.5 916.9, 1126.3 1026.8" stroke="black" fill="none"/><path d="M 1126.3 1026.8 C 1092.9 1131.3, 925.9 940.5, 992.3 827.3" stroke="black" fill="none"/><path d="M 992.3 827.3 C 1051.1 727.1, 1117.5 930.6, 1122.0 1066.9" stroke="black" fill="none"/><path d="M 1122.0 1066.9 C 1127.7 1238.7, 1027.0 927.0, 913.5 820.5" stroke="black" fill="none"/><path d="M 913.5 820.5 C 816.4 729.4, 661.8 914.5, 742.9 965.1" stroke="black" fill="none"/><path d="M 742.9 965.1 C 864.6 1041.1, 670.8 808.4, 691.8 650.1" stroke="black" fill="none"/><path d="M 691.8 650.1 C 716.3 464.2, 546.7 848.4, 376.8 801.0" stroke="black" fill="none"/><path d="M 376.8 801.0 C 244.3 764.0, 670.3 950.0, 546.8 1038.3" stroke="black" fill="none"/><path d="M 546.8 1038.3 C 355.8 1174.8, 688.7 1573.3, 508.3 1499.3" stroke="black" fill="none"/><path d="M 508.3 1499.3 C 349.8 1434.3, 759.0 1218.8, 594.0 1096.7" stroke="black" fill="none"/><path d="M 594.0 1096.7 C 460.2 997.6, 554.5 773.9, 393.3 804.4" stroke="black" fill="none"/><path d="M 393.3 804.4 C 299.8 822.1, 206.5 766.7, 250.4 651.3" stroke="black" fill="none"/><path d="M 250.4 651.3 C 286.9 555.2, 150.4 422.8, 102.1 503.5" stroke="black" fill="none"/><path d="M 102.1 503.5 C 40.3 606.8, 386.7 383.9, 320.3 494.8" stroke="black" fill="none"/><path d="M 320.3 494.8 C 275.3 569.9, 148.8 503.5, 147.9 615.8" stroke="black" fill="none"/><path d="M 147.9 615.8 C 147.0 748.9, 211.3 426.2, 308.7 445.7" stroke="black" fill="none"/><path d="M 308.7 445.7 C 674.0 519.1, 386.4 1326.0, 574.9 1064.8" stroke="black" fill="none"/><path d="M 574.9 1064.8 C 640.1 974.6, 819.3 1212.2, 712.4 1236.2" stroke="black" fill="none"/><path d="M 712.4 1236.2 C 420.6 1301.7, 428.6 1464.8, 542.3 1724.1" stroke="black" fill="none"/><path d="M 542.3 1724.1 C 631.0 1926.3, 461.9 1278.6, 654.8 1359.7" stroke="black" fill="none"/><path d="M 654.8 1359.7 C 877.5 1453.4, 700.0 1081.6, 637.3 896.0" stroke="black" fill="none"/><path d="M 637.3 896.0 C 571.2 700.3, 18.4 897.1, 182.6 774.2" stroke="black" fill="none"/><path d="M 182.6 774.2 C 296.8 688.8, 185.6 480.0, 269.9 544.1" stroke="black" fill="none"/><path d="M 269.9 544.1 C 764.1 919.7, 953.3 171.3, 1305.5 514.5" stroke="black" fill="none"/><path d="M 1305.5 514.5 C 1423.9 629.8, 1105.5 421.7, 907.2 491.4" stroke="black" fill="none"/><path d="M 907.2 491.4 C 745.6 548.2, 917.9 907.7, 855.0 781.8" stroke="black" fill="none"/><path d="M 855.0 781.8 C 784.2 640.0, 972.4 396.9, 814.2 450.4" stroke="black" fill="none"/><path d="M 814.2 450.4 C 732.2 478.2, 972.7 457.6, 999.0 536.9" stroke="black" fill="none"/><path d="M 999.0 536.9 C 1066.5 740.6, 985.7 1139.5, 867.1 976.8" stroke="black" fill="none"/><path d="M 867.1 976.8 C 806.0 893.0, 1127.6 840.8, 1023.6 780.6" stroke="black" fill="none"/><path d="M 1023.6 780.6 C 896.1 706.6, 913.9 1173.0, 882.5 1033.3" stroke="black" fill="none"/><path d="M 882.5 1033.3 C 837.4 832.7, 1133.2 817.9, 976.3 703.2" stroke="black" fill="none"/><path d="M 976.3 703.2 C 905.4 651.4, 959.7 1005.5, 1035.2 907.0" stroke="black" fill="none"/><path d="M 1035.2 907.0 C 1170.2 731.1, 1022.0 330.6, 1111.2 514.6" stroke="black" fill="none"/><path d="M 1111.2 514.6 C 1254.3 809.6, 851.7 1446.4, 1167.4 1297.7" stroke="black" fill="none"/><path d="M 1167.4 1297.7 C 1264.6 1251.8, 1004.2 1076.9, 1093.4 1088.1" stroke="black" fill="none"/><path d="M 1093.4 1088.1 C 1202.7 1101.8, 867.7 1183.1, 949.5 1319.2" stroke="black" fill="none"/><path d="M 949.5 1319.2 C 1044.3 1477.1, 1241.2 843.2, 1062.6 954.4" stroke="black" fill="none"/><path d="M 1062.6 954.4 C 933.8 1034.7, 912.5 861.8, 898.4 751.2" stroke="black" fill="none"/><path d="M 898.4 751.2 C 860.9 455.7, 699.0 432.1, 414.2 462.8" stroke="black" fill="none"/><path d="M 414.2 462.8 C 231.6 482.6, 251.6 529.6, 101.0 620.6" stroke="black" fill="none"/><path d="M 101.0 620.6 C 2.5 680.1, 135.2 504.2, 128.7 390.5" stroke="black" fill="none"/><path d="M 128.7 390.5 C 103.4 -51.0, 1232.1 1409.8, 1056.0 898.5" stroke="black" fill="none"/><path d="M 1056.0 898.5 C 984.6 691.2, 696.1 900.5, 712.8 702.4" stroke="black" fill="none"/><path d="M 712.8 702.4 C 725.3 555.2, 404.9 908.3, 456.1 792.1" stroke="black" fill="none"/><path d="M 456.1 792.1 C 509.9 669.9, 900.4 783.8, 759.9 858.9" stroke="black" fill="none"/><path d="M 759.9 858.9 C 677.4 902.9, 779.5 1110.2, 648.5 1062.7" stroke="black" fill="none"/><path d="M 648.5 1062.7 C 287.5 931.9, 730.9 1539.0, 475.1 1749.4" stroke="black" fill="none"/><path d="M 475.1 1749.4 C 353.9 1849.1, 674.0 1445.6, 501.4 1412.7" stroke="black" fill="none"/><path d="M 501.4 1412.7 C 416.9 1396.7, 523.9 1651.8, 438.4 1616.9" stroke="black" fill="none"/><path d="M 438.4 1616.9 C -29.0 1426.2, 1294.4 957.5, 877.4 892.5" stroke="black" fill="none"/><path d="M 877.4 892.5 C 756.5 873.7, 683.2 973.1, 722.1 1137.1" stroke="black" fill="none"/><path d="M 722.1 1137.1 C 749.3 1251.2, 442.9 1011.5, 496.2 1131.2" stroke="black" fill="none"/><path d="M 496.2 1131.2 C 536.4 1221.4, 669.0 1036.7, 718.0 1132.8" stroke="black" fill="none"/><path d="M 718.0 1132.8 C 771.5 1237.5, 801.9 1422.4, 733.5 1358.0" stroke="black" fill="none"/><path d="M 733.5 1358.0 C 647.0 1276.5, 910.9 1602.5, 764.6 1638.8" stroke="black" fill="none"/><path d="M 764.6 1638.8 C 670.2 1662.2, 829.0 1474.1, 755.8 1417.7" stroke="black" fill="none"/><path d="M 755.8 1417.7 C 636.3 1325.4, 619.1 1273.4, 602.1 1124.7" stroke="black" fill="none"/><path d="M 602.1 1124.7 C 588.5 1006.9, 797.3 947.5, 709.2 938.2" stroke="black" fill="none"/><path d="M 709.2 938.2 C 526.5 919.1, 496.7 1043.9, 484.8 1209.2" stroke="black" fill="none"/><path d="M 484.8 1209.2 C 477.7 1307.1, 478.9 1529.7, 546.3 1427.7" stroke="black" fill="none"/><path d="M 546.3 1427.7 C 610.7 1330.3, 588.2 1248.2, 472.9 1206.8" stroke="black" fill="none"/><path d="M 472.9 1206.8 C 305.3 1146.6, 874.4 930.6, 703.6 899.3" stroke="black" fill="none"/><path d="M 703.6 899.3 C 576.5 876.1, 474.8 1148.8, 505.3 1017.7" stroke="black" fill="none"/><path d="M 505.3 1017.7 C 532.3 901.4, 482.5 736.2, 416.0 823.1" stroke="black" fill="none"/><path d="M 416.0 823.1 C 340.3 921.9, 528.0 732.1, 669.3 750.0" stroke="black" fill="none"/><path d="M 669.3 750.0 C 836.0 771.1, 773.4 953.1, 905.6 1023.8" stroke="black" fill="none"/><path d="M 905.6 1023.8 C 1024.7 1087.4, 1026.9 966.4, 1172.9 972.1" stroke="black" fill="none"/><path d="M 1172.9 972.1 C 1303.1 977.2, 852.4 1115.6, 959.1 1126.6" stroke="black" fill="none"/><path d="M 959.1 1126.6 C 1080.0 1139.1, 1085.6 808.7, 1113.1 933.1" stroke="black" fill="none"/><path d="M 1113.1 933.1 C 1142.6 1066.2, 830.8 930.9, 855.8 1044.2" stroke="black" fill="none"/><path d="M 855.8 1044.2 C 885.9 1180.9, 1158.3 887.5, 1110.0 994.5" stroke="black" fill="none"/><path d="M 1110.0 994.5 C 1058.0 1109.7, 892.4 686.2, 882.2 816.4" stroke="black" fill="none"/><path d="M 882.2 816.4 C 855.8 1154.9, 1409.3 1535.5, 1042.2 1458.5" stroke="black" fill="none"/><path d="M 1042.2 1458.5 C 851.6 1418.4, 1023.0 1295.7, 943.4 1108.6" stroke="black" fill="none"/><path d="M 943.4 1108.6 C 903.7 1015.6, 1065.5 1106.2, 1145.0 1183.8" stroke="black" fill="none"/><path d="M 1145.0 1183.8 C 1205.9 1243.3, 1066.7 1226.1, 952.6 1255.2" stroke="black" fill="none"/><path d="M 952.6 1255.2 C 857.2 1279.5, 995.4 1038.0, 913.1 1055.8" stroke="black" fill="none"/><path d="M 913.1 1055.8 C 797.9 1080.7, 899.3 930.6, 775.0 857.2" stroke="black" fill="none"/><path d="M 775.0 857.2 C 646.8 781.5, 785.7 556.0, 655.0 604.7" stroke="black" fill="none"/><path d="M 655.0 604.7 C 533.7 649.9, 696.8 721.3, 624.7 833.1" stroke="black" fill="none"/><path d="M 624.7 833.1 C 530.2 979.6, 532.9 704.7, 535.5 519.8" stroke="black" fill="none"/><path d="M 535.5 519.8 C 537.9 356.0, 290.5 570.5, 252.7 449.2" stroke="black" fill="none"/><path d="M 252.7 449.2 C 216.4 333.1, 178.4 690.7, 103.9 629.1" stroke="black" fill="none"/><path d="M 103.9 629.1 C 13.7 554.6, 101.3 485.5, 203.5 452.8" stroke="black" fill="none"/><path d="M 203.5 452.8 C 327.7 413.0, 164.4 592.4, 268.1 711.9" stroke="black" fill="none"/><path d="M 268.1 711.9 C 566.2 1055.5, 1354.6 931.9, 954.4 1112.3" stroke="black" fill="none"/><path d="M 954.4 1112.3 C 856.4 1156.5, 1186.1 1363.0, 1062.8 1335.5" stroke="black" fill="none"/><path d="M 1062.8 1335.5 C 940.5 1308.4, 1040.6 1479.1, 981.3 1594.4" stroke="black" fill="none"/><path d="M 981.3 1594.4 C 911.1 1730.6, 589.8 1494.5, 725.1 1324.5" stroke="black" fill="none"/><path d="M 725.1 1324.5 C 792.6 1239.6, 739.5 1478.3, 810.8 1567.1" stroke="black" fill="none"/><path d="M 810.8 1567.1 C 1032.9 1843.7, 911.1 1207.8, 1031.7 988.4" stroke="black" fill="none"/><path d="M 1031.7 988.4 C 1087.2 887.7, 989.4 627.1, 943.9 737.9" stroke="black" fill="none"/><path d="M 943.9 737.9 C 901.1 842.1, 906.0 895.5, 981.0 947.7" stroke="black" fill="none"/><path d="M 981.0 947.7 C 1054.2 998.6, 852.7 753.2, 937.8 737.7" stroke="black" fill="none"/><path d="M 937.8 737.7 C 1060.7 715.5, 1062.2 855.2, 1064.8 970.3" stroke="black" fill="none"/><path d="M 1064.8 970.3 C 1070.3 1209.5, 435.0 656.0, 656.4 612.5" stroke="black" fill="none"/><path d="M 656.4 612.5 C 842.8 576.0, 633.7 836.1, 444.7 871.2" stroke="black" fill="none"/><path d="M 444.7 871.2 C 276.9 902.3, 544.8 741.3, 663.3 616.8" stroke="black" fill="none"/><path d="M 663.3 616.8 C 755.9 519.5, 632.8 888.2, 748.9 853.6" stroke="black" fill="none"/><path d="M 748.9 853.6 C 850.8 823.3, 641.0 671.4, 556.0 729.4" stroke="black" fill="none"/><path d="M 556.0 729.4 C 384.8 846.3, 335.4 890.7, 332.0 1140.9" stroke="black" fill="none"/><path d="M 332.0 1140.9 C 327.1 1501.0, 1074.3 586.7, 952.1 947.2" stroke="black" fill="none"/><path d="M 952.1 947.2 C 898.5 1105.3, 451.1 1191.1, 560.5 1046.9" stroke="black" fill="none"/><path d="M 560.5 1046.9 C 686.2 881.2, 866.1 1486.5, 695.6 1429.9" stroke="black" fill="none"/><path d="M 695.6 1429.9 C 262.3 1286.0, 665.9 949.2, 503.4 606.7" stroke="black" fill="none"/><path d="M 503.4 606.7 C 444.0 481.6, 196.5 495.2, 321.0 457.2" stroke="black" fill="none"/><path d="M 321.0 457.2 C 482.3 408.1, 835.0 724.5, 621.6 725.1" stroke="black" fill="none"/><path d="M 621.6 725.1 C 233.5 726.2, 723.2 1087.6, 763.3 1385.2" stroke="black" fill="none"/><path d="M 763.3 1385.2 C 792.8 1604.5, 918.6 1743.3, 683.3 1823.0" stroke="black" fill="none"/><path d="M 683.3 1823.0 C 144.9 2005.6, 1034.3 656.4, 624.3 799.8" stroke="black" fill="none"/><path d="M 624.3 799.8 C 464.9 855.4, 590.7 311.6, 492.5 473.3" stroke="black" fill="none"/><path d="M 492.5 473.3 C 436.3 565.8, 387.3 464.3, 285.2 484.9" stroke="black" fill="none"/><path d="M 285.2 484.9 C 183.6 505.3, 309.8 835.0, 215.2 723.0" stroke="black" fill="none"/><path d="M 215.2 723.0 C 126.0 617.3, 145.1 548.6, 254.7 482.7" stroke="black" fill="none"/><path d="M 254.7 482.7 C 367.3 415.0, 351.6 551.0, 482.3 513.9" stroke="black" fill="none"/><path d="M 482.3 513.9 C 593.1 482.5, 503.7 659.3, 548.4 758.6" stroke="black" fill="none"/><path d="M 548.4 758.6 C 587.1 844.7, 634.0 553.8, 698.5 614.8" stroke="black" fill="none"/><path d="M 698.5 614.8 C 831.7 740.8, 319.4 913.2, 462.7 886.4" stroke="black" fill="none"/><path d="M 462.7 886.4 C 615.8 857.9, 820.0 638.3, 657.0 581.7" stroke="black" fill="none"/><path d="M 657.0 581.7 C 533.6 539.0, 806.8 769.1, 727.0 876.0" stroke="black" fill="none"/><path d="M 727.0 876.0 C 635.4 998.6, 798.8 1303.9, 710.5 1170.0" stroke="black" fill="none"/><path d="M 710.5 1170.0 C 662.4 1097.0, 488.8 1155.3, 521.2 1061.9" stroke="black" fill="none"/><path d="M 521.2 1061.9 C 616.8 785.9, 747.0 1277.4, 826.2 1632.2" stroke="black" fill="none"/><path d="M 826.2 1632.2 C 852.9 1751.8, 748.1 1718.7, 724.6 1827.4" stroke="black" fill="none"/><path d="M 724.6 1827.4 C 671.9 2071.5, 358.7 1609.5, 502.2 1458.3" stroke="black" fill="none"/><path d="M 502.2 1458.3 C 586.1 1370.1, 638.5 1270.0, 524.3 1207.2" stroke="black" fill="none"/><path d="M 524.3 1207.2 C 439.3 1160.5, 558.9 1080.2, 494.5 1005.0" stroke="black" fill="none"/><path d="M 494.5 1005.0 C 413.8 910.8, 700.1 1067.3, 707.9 975.9" stroke="black" fill="none"/><path d="M 707.9 975.9 C 725.9 764.4, 1117.6 713.5, 1063.6 855.2" stroke="black" fill="none"/><path d="M 1063.6 855.2 C 1007.8 1001.6, 773.2 987.9, 870.8 1055.4" stroke="black" fill="none"/><path d="M 870.8 1055.4 C 949.2 1109.5, 746.9 907.8, 825.7 841.7" stroke="black" fill="none"/><path d="M 825.7 841.7 C 1132.0 584.9, 757.3 1397.6, 1058.3 1493.8" stroke="black" fill="none"/><path d="M 1058.3 1493.8 C 1380.3 1596.7, 898.1 1118.6, 1103.6 896.0" stroke="black" fill="none"/><path d="M 1103.6 896.0 C 1183.7 809.1, 890.6 927.7, 909.8 822.0" stroke="black" fill="none"/><path d="M 909.8 822.0 C 948.9 606.3, 946.4 1141.8, 1126.4 1125.9" stroke="black" fill="none"/><path d="M 1126.4 1125.9 C 1345.0 1106.5, 743.5 702.4, 985.5 710.9" stroke="black" fill="none"/><path d="M 985.5 710.9 C 1155.1 716.8, 824.6 1151.6, 964.4 1064.1" stroke="black" fill="none"/><path d="M 964.4 1064.1 C 1072.6 996.4, 1035.7 751.5, 1073.9 857.6" stroke="black" fill="none"/><path d="M 1073.9 857.6 C 1126.7 1004.8, 1005.8 990.9, 1052.2 1152.3" stroke="black" fill="none"/><path d="M 1052.2 1152.3 C 1084.9 1265.6, 880.5 1390.4, 968.9 1353.0" stroke="black" fill="none"/><path d="M 968.9 1353.0 C 1118.9 1289.4, 1156.7 906.9, 1034.4 1008.4" stroke="black" fill="none"/><path d="M 1034.4 1008.4 C 889.2 1128.9, 1135.5 824.6, 1083.6 607.5" stroke="black" fill="none"/><path d="M 1083.6 607.5 C 1053.9 483.2, 1225.4 361.5, 1257.0 459.3" stroke="black" fill="none"/><path d="M 1257.0 459.3 C 1284.7 545.5, 1360.9 524.8, 1394.6 610.9" stroke="black" fill="none"/><path d="M 1394.6 610.9 C 1579.8 1083.7, 649.7 501.7, 451.3 1040.2" stroke="black" fill="none"/><path d="M 451.3 1040.2 C 389.8 1207.0, 969.2 953.0, 857.4 1133.3" stroke="black" fill="none"/><path d="M 857.4 1133.3 C 786.0 1248.4, 850.5 959.0, 743.0 886.4" stroke="black" fill="none"/><path d="M 743.0 886.4 C 623.8 805.8, 756.6 1178.9, 648.0 1115.5" stroke="black" fill="none"/><path d="M 648.0 1115.5 C 548.8 1057.5, 411.1 1235.2, 514.1 1298.6" stroke="black" fill="none"/><path d="M 514.1 1298.6 C 624.4 1366.6, 390.8 1024.7, 544.5 1019.7" stroke="black" fill="none"/><path d="M 544.5 1019.7 C 743.5 1013.2, 721.2 760.8, 874.0 804.6" stroke="black" fill="none"/><path d="M 874.0 804.6 C 1006.3 842.4, 927.4 1121.6, 1047.9 1045.9" stroke="black" fill="none"/><path d="M 1047.9 1045.9 C 1130.6 994.0, 880.4 1012.2, 882.2 905.5" stroke="black" fill="none"/><path d="M 882.2 905.5 C 883.9 811.1, 1166.1 837.2, 1096.1 935.8" stroke="black" fill="none"/><path d="M 1096.1 935.8 C 1005.0 1064.2, 1121.4 1063.2, 1087.1 1217.7" stroke="black" fill="none"/><path d="M 1087.1 1217.7 C 1055.5 1360.3, 954.3 1140.4, 915.6 1009.3" stroke="black" fill="none"/><path d="M 915.6 1009.3 C 880.3 889.7, 993.7 753.2, 1083.4 808.7" stroke="black" fill="none"/><path d="M 1083.4 808.7 C 1158.2 854.9, 912.0 1042.4, 1011.0 999.2" stroke="black" fill="none"/><path d="M 1011.0 999.2 C 1140.0 943.0, 1072.6 839.1, 982.1 692.3" stroke="black" fill="none"/><path d="M 982.1 692.3 C 804.2 403.7, 391.8 798.3, 524.3 1132.2" stroke="black" fill="none"/><path d="M 524.3 1132.2 C 566.8 1239.4, 410.2 1294.3, 508.3 1393.2" stroke="black" fill="none"/><path d="M 508.3 1393.2 C 604.0 1489.9, 597.3 1004.8, 709.2 1152.1" stroke="black" fill="none"/><path d="M 709.2 1152.1 C 785.3 1252.2, 622.1 940.4, 771.0 843.9" stroke="black" fill="none"/><path d="M 771.0 843.9 C 857.3 788.0, 568.3 649.7, 677.7 659.8" stroke="black" fill="none"/><path d="M 677.7 659.8 C 814.3 672.4, 549.3 703.4, 422.0 830.4" stroke="black" fill="none"/><path d="M 422.0 830.4 C 268.2 983.7, 398.4 1061.2, 389.1 1318.3" stroke="black" fill="none"/><path d="M 389.1 1318.3 C 382.5 1501.5, 705.9 1716.6, 503.0 1702.7" stroke="black" fill="none"/><path d="M 503.0 1702.7 C 360.2 1693.0, 598.5 1317.1, 472.6 1371.1" stroke="black" fill="none"/><path d="M 472.6 1371.1 C 182.7 1495.6, 981.0 769.5, 679.1 831.8" stroke="black" fill="none"/><path d="M 679.1 831.8 C 566.9 855.0, 798.4 625.8, 689.7 592.4" stroke="black" fill="none"/><path d="M 689.7 592.4 C 526.6 542.3, 667.1 830.8, 811.2 890.0" stroke="black" fill="none"/><path d="M 811.2 890.0 C 920.4 934.9, 814.7 978.9, 861.8 1088.0" stroke="black" fill="none"/><path d="M 861.8 1088.0 C 932.6 1252.0, 422.9 1193.7, 500.2 1016.3" stroke="black" fill="none"/><path d="M 500.2 1016.3 C 554.4 892.2, 804.1 835.5, 780.5 974.9" stroke="black" fill="none"/><path d="M 780.5 974.9 C 755.6 1122.2, 1068.7 751.4, 1107.8 918.8" stroke="black" fill="none"/><path d="M 1107.8 918.8 C 1131.0 1018.1, 1002.0 970.0, 897.1 934.3" stroke="black" fill="none"/><path d="M 897.1 934.3 C 792.2 898.5, 931.8 1212.0, 813.2 1182.0" stroke="black" fill="none"/><path d="M 813.2 1182.0 C 594.8 1126.9, 778.9 956.5, 786.0 729.9" stroke="black" fill="none"/><path d="M 786.0 729.9 C 794.4 462.2, 271.5 358.0, 165.7 619.0" stroke="black" fill="none"/><path d="M 165.7 619.0 C -28.3 1097.6, 840.7 492.9, 1028.3 1014.3" stroke="black" fill="none"/><path d="M 1028.3 1014.3 C 1063.2 1111.2, 849.9 999.8, 819.4 1136.6" stroke="black" fill="none"/><path d="M 819.4 1136.6 C 788.6 1274.4, 1222.0 1090.6, 1140.5 1234.3" stroke="black" fill="none"/><path d="M 1140.5 1234.3 C 1090.6 1322.4, 883.8 1158.7, 925.4 1235.1" stroke="black" fill="none"/><path d="M 925.4 1235.1 C 997.3 1367.3, 989.5 967.4, 1130.0 963.9" stroke="black" fill="none"/><path d="M 1130.0 963.9 C 1283.7 960.2, 735.1 806.0, 869.0 718.5" stroke="black" fill="none"/><path d="M 869.0 718.5 C 1059.8 593.7, 743.2 1249.0, 859.3 1111.5" stroke="black" fill="none"/><path d="M 859.3 1111.5 C 920.7 1039.0, 566.9 1166.4, 641.4 1086.7" stroke="black" fill="none"/><path d="M 641.4 1086.7 C 746.8 974.2, 474.4 972.6, 502.6 850.0" stroke="black" fill="none"/><path d="M 502.6 850.0 C 538.9 691.9, 721.1 490.3, 726.5 661.0" stroke="black" fill="none"/><path d="M 726.5 661.0 C 730.5 787.4, 543.0 659.7, 551.5 782.4" stroke="black" fill="none"/><path d="M 551.5 782.4 C 559.7 900.2, 777.3 719.6, 707.4 602.9" stroke="black" fill="none"/><path d="M 707.4 602.9 C 552.5 344.2, 486.6 521.3, 216.1 449.6" stroke="black" fill="none"/><path d="M 216.1 449.6 C 90.9 416.4, 10.7 640.7, 111.2 675.3" stroke="black" fill="none"/><path d="M 111.2 675.3 C 628.8 853.7, 692.1 1059.5, 527.2 1535.7" stroke="black" fill="none"/><path d="M 527.2 1535.7 C 483.7 1661.2, 499.4 1166.9, 434.3 1291.6" stroke="black" fill="none"/><path d="M 434.3 1291.6 C 370.1 1414.5, 877.0 1294.9, 735.8 1223.2" stroke="black" fill="none"/><path d="M 735.8 1223.2 C 619.4 1164.0, 774.2 1051.6, 698.8 1001.1" stroke="black" fill="none"/><path d="M 698.8 1001.1 C 568.1 913.5, 424.3 1149.4, 485.6 1322.9" stroke="black" fill="none"/><path d="M 485.6 1322.9 C 583.5 1600.0, 585.0 1013.5, 833.2 899.9" stroke="black" fill="none"/><path d="M 833.2 899.9 C 1291.0 690.3, 1064.9 1225.8, 1187.7 1751.4" stroke="black" fill="none"/><path d="M 1187.7 1751.4 C 1283.0 2159.4, 372.9 1184.0, 475.1 1578.4" stroke="black" fill="none"/><path d="M 475.1 1578.4 C 559.5 1904.4, 516.4 825.9, 883.3 1008.8" stroke="black" fill="none"/><path d="M 883.3 1008.8 C 1028.5 1081.3, 1121.9 812.2, 974.7 691.4" stroke="black" fill="none"/><path d="M 974.7 691.4 C 703.2 468.7, 204.2 323.1, 268.9 636.6" stroke="black" fill="none"/><path d="M 268.9 636.6 C 345.2 1006.4, 836.7 706.5, 778.6 1033.5" stroke="black" fill="none"/><path d="M 778.6 1033.5 C 745.2 1222.0, 499.8 1017.5, 479.6 1151.6" stroke="black" fill="none"/><path d="M 479.6 1151.6 C 461.3 1273.9, 646.2 1046.7, 737.7 1125.1" stroke="black" fill="none"/><path d="M 737.7 1125.1 C 1156.3 1484.0, 940.1 261.5, 1356.8 402.9" stroke="black" fill="none"/><path d="M 1356.8 402.9 C 1461.8 438.5, 1207.7 390.9, 1135.7 474.6" stroke="black" fill="none"/><path d="M 1135.7 474.6 C 1006.9 624.3, 1178.0 733.8, 1044.6 854.5" stroke="black" fill="none"/><path d="M 1044.6 854.5 C 932.4 956.1, 984.2 1079.6, 1091.2 1106.5" stroke="black" fill="none"/><path d="M 1091.2 1106.5 C 1205.5 1135.4, 814.9 960.4, 926.5 899.0" stroke="black" fill="none"/><path d="M 926.5 899.0 C 1052.9 829.4, 1146.0 784.9, 1070.8 624.6" stroke="black" fill="none"/><path d="M 1070.8 624.6 C 998.7 470.9, 684.0 452.7, 818.7 447.6" stroke="black" fill="none"/><path d="M 818.7 447.6 C 943.6 443.0, 996.4 419.5, 1045.2 517.8" stroke="black" fill="none"/><path d="M 1045.2 517.8 C 1149.9 728.1, 1073.2 745.5, 1059.3 919.6" stroke="black" fill="none"/><path d="M 1059.3 919.6 C 1049.8 1038.4, 972.9 958.2, 844.6 1008.4" stroke="black" fill="none"/><path d="M 844.6 1008.4 C 670.2 1076.7, 956.3 525.2, 804.6 651.3" stroke="black" fill="none"/><path d="M 804.6 651.3 C 569.6 846.7, 858.3 1087.2, 571.3 1197.4" stroke="black" fill="none"/><path d="M 571.3 1197.4 C 387.0 1268.1, 610.3 730.7, 441.8 853.3" stroke="black" fill="none"/><path d="M 441.8 853.3 C 353.2 917.7, 463.0 1017.1, 370.0 1086.1" stroke="black" fill="none"/><path d="M 370.0 1086.1 C 293.6 1142.7, 462.9 818.7, 362.2 876.7" stroke="black" fill="none"/><path d="M 362.2 876.7 C 198.8 970.9, 797.2 961.7, 719.6 1159.5" stroke="black" fill="none"/><path d="M 719.6 1159.5 C 675.3 1272.3, 636.2 1477.1, 757.6 1419.1" stroke="black" fill="none"/><path d="M 757.6 1419.1 C 864.4 1368.1, 672.1 1671.3, 774.0 1635.5" stroke="black" fill="none"/><path d="M 774.0 1635.5 C 878.5 1598.8, 599.5 1425.8, 719.9 1397.1" stroke="black" fill="none"/><path d="M 719.9 1397.1 C 823.2 1372.5, 760.5 1560.7, 849.7 1593.1" stroke="black" fill="none"/><path d="M 849.7 1593.1 C 1073.7 1674.4, 1014.7 1265.4, 928.6 1054.7" stroke="black" fill="none"/><path d="M 928.6 1054.7 C 858.7 883.7, 1156.4 710.9, 1255.4 839.1" stroke="black" fill="none"/><path d="M 1255.4 839.1 C 1318.6 921.0, 1090.2 723.8, 1040.6 827.5" stroke="black" fill="none"/><path d="M 1040.6 827.5 C 977.9 958.6, 1173.9 1003.3, 1090.8 1072.6" stroke="black" fill="none"/><path d="M 1090.8 1072.6 C 993.2 1153.9, 778.7 982.7, 819.3 1085.1" stroke="black" fill="none"/><path d="M 819.3 1085.1 C 873.8 1222.8, 895.3 951.1, 1007.0 821.2" stroke="black" fill="none"/><path d="M 1007.0 821.2 C 1134.4 673.1, 1061.9 1283.6, 1171.6 1146.0" stroke="black" fill="none"/><path d="M 1171.6 1146.0 C 1243.5 1055.9, 867.0 1074.0, 953.8 1170.2" stroke="black" fill="none"/><path d="M 953.8 1170.2 C 1048.4 1275.0, 1021.8 1284.4, 1007.3 1406.6" stroke="black" fill="none"/><path d="M 1007.3 1406.6 C 994.7 1513.1, 1065.6 1196.4, 1176.3 1235.7" stroke="black" fill="none"/><path d="M 1176.3 1235.7 C 1374.3 1305.9, 844.8 1009.9, 924.0 836.9" stroke="black" fill="none"/><path d="M 924.0 836.9 C 980.5 713.3, 565.9 869.6, 697.1 927.3" stroke="black" fill="none"/><path d="M 697.1 927.3 C 802.6 973.7, 607.1 1032.3, 678.2 1130.2" stroke="black" fill="none"/><path d="M 678.2 1130.2 C 749.1 1227.7, 684.5 985.4, 742.1 916.8" stroke="black" fill="none"/><path d="M 742.1 916.8 C 939.6 682.0, 403.7 875.6, 125.8 786.2" stroke="black" fill="none"/><path d="M 125.8 786.2 C -79.4 720.3, 319.7 313.8, 365.5 510.7" stroke="black" fill="none"/><path d="M 365.5 510.7 C 385.8 597.8, 510.5 391.0, 567.2 470.2" stroke="black" fill="none"/><path d="M 567.2 470.2 C 631.9 560.6, 731.1 527.7, 777.3 446.9" stroke="black" fill="none"/><path d="M 777.3 446.9 C 823.4 366.4, 490.6 535.3, 555.4 440.7" stroke="black" fill="none"/><path d="M 555.4 440.7 C 615.9 352.2, 624.3 771.3, 686.5 663.9" stroke="black" fill="none"/><path d="M 686.5 663.9 C 750.3 553.8, 653.2 866.9, 751.2 869.6" stroke="black" fill="none"/><path d="M 751.2 869.6 C 881.9 873.2, 802.7 1111.7, 921.4 1066.1" stroke="black" fill="none"/><path d="M 921.4 1066.1 C 1059.9 1012.8, 952.8 901.5, 916.5 778.3" stroke="black" fill="none"/><path d="M 916.5 778.3 C 892.1 695.7, 1151.9 886.4, 1124.0 783.0" stroke="black" fill="none"/><path d="M 1124.0 783.0 C 1080.5 621.3, 1047.7 347.0, 1203.2 430.6" stroke="black" fill="none"/><path d="M 1203.2 430.6 C 1286.4 475.4, 1360.4 450.8, 1383.9 338.3" stroke="black" fill="none"/><path d="M 1383.9 338.3 C 1404.5 239.6, 1250.9 532.6, 1185.2 429.2" stroke="black" fill="none"/><path d="M 1185.2 429.2 C 1126.0 336.0, 964.0 524.6, 944.0 406.9" stroke="black" fill="none"/><path d="M 944.0 406.9 C 914.3 231.9, 1397.3 579.0, 1333.3 423.8" stroke="black" fill="none"/><path d="M 1333.3 423.8 C 1293.6 327.5, 1211.3 419.3, 1105.6 479.6" stroke="black" fill="none"/><path d="M 1105.6 479.6 C 774.4 668.8, 1145.0 1772.5, 943.1 1395.4" stroke="black" fill="none"/><path d="M 943.1 1395.4 C 787.6 1105.0, 1221.7 997.2, 999.0 725.4" stroke="black" fill="none"/><path d="M 999.0 725.4 C 907.3 613.5, 1057.4 1089.8, 969.0 999.1" stroke="black" fill="none"/><path d="M 969.0 999.1 C 910.0 938.7, 931.7 908.3, 902.1 799.9" stroke="black" fill="none"/><path d="M 902.1 799.9 C 875.5 702.4, 1088.8 1023.6, 1131.2 900.7" stroke="black" fill="none"/><path d="M 1131.2 900.7 C 1229.9 614.4, 825.2 986.6, 515.8 1075.1" stroke="black" fill="none"/><path d="M 515.8 1075.1 C 409.2 1105.6, 729.1 1111.9, 671.1 1228.8" stroke="black" fill="none"/><path d="M 671.1 1228.8 C 604.0 1364.2, 720.4 1350.9, 820.2 1503.4" stroke="black" fill="none"/><path d="M 820.2 1503.4 C 893.9 1615.9, 1119.2 1326.8, 977.6 1296.5" stroke="black" fill="none"/><path d="M 977.6 1296.5 C 856.6 1270.6, 991.2 899.3, 1051.3 1040.0" stroke="black" fill="none"/><path d="M 1051.3 1040.0 C 1097.3 1147.6, 813.1 888.5, 857.0 972.9" stroke="black" fill="none"/><path d="M 857.0 972.9 C 919.6 1093.4, 972.9 761.2, 1112.5 794.8" stroke="black" fill="none"/><path d="M 1112.5 794.8 C 1214.3 819.2, 972.6 800.7, 916.0 888.1" stroke="black" fill="none"/><path d="M 916.0 888.1 C 807.8 1055.2, 1305.5 1301.3, 1113.0 1254.1" stroke="black" fill="none"/><path d="M 1113.0 1254.1 C 829.0 1184.5, 850.9 552.6, 1048.0 757.0" stroke="black" fill="none"/><path d="M 1048.0 757.0 C 1152.2 865.0, 1357.9 710.8, 1349.7 870.7" stroke="black" fill="none"/><path d="M 1349.7 870.7 C 1327.8 1301.4, -92.9 565.1, 281.9 889.0" stroke="black" fill="none"/><path d="M 281.9 889.0 C 379.5 973.4, 505.0 661.6, 553.8 793.3" stroke="black" fill="none"/><path d="M 553.8 793.3 C 596.9 909.5, 1005.6 715.9, 861.8 821.0" stroke="black" fill="none"/><path d="M 861.8 821.0 C 622.2 996.0, 304.2 1294.2, 575.2 1444.7" stroke="black" fill="none"/><path d="M 575.2 1444.7 C 683.2 1504.6, 384.2 1687.3, 536.2 1736.1" stroke="black" fill="none"/><path d="M 536.2 1736.1 C 627.6 1765.5, 416.1 1519.8, 516.5 1511.9" stroke="black" fill="none"/><path d="M 516.5 1511.9 C 633.8 1502.6, 447.2 1731.5, 557.6 1726.6" stroke="black" fill="none"/><path d="M 557.6 1726.6 C 649.1 1722.6, 407.9 1456.6, 526.0 1503.5" stroke="black" fill="none"/><path d="M 526.0 1503.5 C 654.3 1554.5, 398.8 1321.4, 503.7 1168.5" stroke="black" fill="none"/><path d="M 503.7 1168.5 C 613.0 1009.1, 710.2 1268.5, 771.8 1405.7" stroke="black" fill="none"/><path d="M 771.8 1405.7 C 825.3 1525.0, 680.0 1746.8, 789.4 1658.5" stroke="black" fill="none"/><path d="M 789.4 1658.5 C 917.9 1554.8, 504.0 1330.1, 727.7 1260.4" stroke="black" fill="none"/><path d="M 727.7 1260.4 C 812.1 1234.1, 622.1 1086.2, 714.0 1049.5" stroke="black" fill="none"/><path d="M 714.0 1049.5 C 896.3 976.8, 475.0 545.8, 664.8 623.8" stroke="black" fill="none"/><path d="M 664.8 623.8 C 819.3 687.3, 524.4 730.9, 425.6 811.1" stroke="black" fill="none"/><path d="M 425.6 811.1 C 331.4 887.7, 806.2 938.3, 679.1 967.4" stroke="black" fill="none"/><path d="M 679.1 967.4 C 420.9 1026.4, 661.9 390.4, 416.0 463.7" stroke="black" fill="none"/><path d="M 416.0 463.7 C 234.0 517.9, 198.9 483.6, 150.1 650.0" stroke="black" fill="none"/><path d="M 150.1 650.0 C 38.1 1031.6, 782.3 583.5, 972.9 877.2" stroke="black" fill="none"/><path d="M 972.9 877.2 C 1037.3 976.3, 914.5 1223.4, 1017.2 1147.4" stroke="black" fill="none"/><path d="M 1017.2 1147.4 C 1130.0 1063.9, 1148.3 1250.4, 1144.7 1351.8" stroke="black" fill="none"/><path d="M 1144.7 1351.8 C 1140.4 1473.9, 1082.8 1532.5, 1210.7 1576.4" stroke="black" fill="none"/><path d="M 1210.7 1576.4 C 1311.7 1611.0, 894.0 1610.2, 984.8 1652.9" stroke="black" fill="none"/><path d="M 984.8 1652.9 C 1448.6 1871.2, 1036.6 1142.2, 866.2 703.5" stroke="black" fill="none"/><path d="M 866.2 703.5 C 799.8 532.9, 845.0 488.1, 952.1 298.0" stroke="black" fill="none"/><path d="M 952.1 298.0 C 1112.0 14.1, 1599.0 548.1, 1380.1 829.9" stroke="black" fill="none"/><path d="M 1380.1 829.9 C 1250.3 997.0, 1220.9 314.1, 1352.4 466.2" stroke="black" fill="none"/><path d="M 1352.4 466.2 C 1526.2 667.3, 874.2 280.6, 787.5 515.3" stroke="black" fill="none"/><path d="M 787.5 515.3 C 692.1 773.9, 296.5 872.1, 487.8 887.2" stroke="black" fill="none"/><path d="M 487.8 887.2 C 644.5 899.5, 377.7 1399.7, 503.9 1260.3" stroke="black" fill="none"/><path d="M 503.9 1260.3 C 578.7 1177.6, 378.7 1612.0, 518.8 1538.1" stroke="black" fill="none"/><path d="M 518.8 1538.1 C 630.3 1479.1, 449.2 1400.4, 475.2 1280.4" stroke="black" fill="none"/><path d="M 475.2 1280.4 C 493.0 1198.3, 536.8 1088.4, 611.7 1126.0" stroke="black" fill="none"/><path d="M 611.7 1126.0 C 721.6 1181.4, 704.6 849.6, 745.1 960.8" stroke="black" fill="none"/><path d="M 745.1 960.8 C 788.7 1080.3, 431.8 920.2, 513.1 989.6" stroke="black" fill="none"/><path d="M 513.1 989.6 C 593.5 1058.2, 406.4 746.1, 560.1 730.0" stroke="black" fill="none"/><path d="M 560.1 730.0 C 680.3 717.4, 627.7 626.9, 735.1 620.4" stroke="black" fill="none"/><path d="M 735.1 620.4 C 1120.6 596.9, 382.3 1089.8, 558.2 1329.3" stroke="black" fill="none"/><path d="M 558.2 1329.3 C 642.0 1443.5, 367.4 1578.2, 520.8 1617.9" stroke="black" fill="none"/><path d="M 520.8 1617.9 C 637.9 1648.2, 410.2 1423.0, 527.3 1359.1" stroke="black" fill="none"/><path d="M 527.3 1359.1 C 706.9 1261.0, 782.4 1099.4, 668.7 949.0" stroke="black" fill="none"/><path d="M 668.7 949.0 C 500.6 726.5, 547.3 715.3, 515.6 349.3" stroke="black" fill="none"/><path d="M 515.6 349.3 C 481.7 -42.8, 1034.9 743.2, 1235.3 370.9" stroke="black" fill="none"/><path d="M 1235.3 370.9 C 1281.4 285.4, 1397.0 615.9, 1288.6 578.4" stroke="black" fill="none"/><path d="M 1288.6 578.4 C 1164.6 535.6, 1453.2 383.1, 1356.0 370.2" stroke="black" fill="none"/><path d="M 1356.0 370.2 C 1211.2 351.0, 1325.5 676.0, 1238.8 597.8" stroke="black" fill="none"/><path d="M 1238.8 597.8 C 978.5 363.1, 902.7 460.2, 611.5 470.5" stroke="black" fill="none"/><path d="M 611.5 470.5 C 343.9 479.9, 92.9 390.7, 171.9 646.7" stroke="black" fill="none"/><path d="M 171.9 646.7 C 272.2 972.1, 609.7 761.4, 767.1 576.0" stroke="black" fill="none"/><path d="M 767.1 576.0 C 882.0 440.7, 544.0 399.9, 443.1 540.0" stroke="black" fill="none"/><path d="M 443.1 540.0 C 356.7 659.9, 78.7 346.1, 127.7 519.3" stroke="black" fill="none"/><path d="M 127.7 519.3 C 155.8 618.8, 265.1 436.2, 365.8 509.3" stroke="black" fill="none"/><path d="M 365.8 509.3 C 461.3 578.5, 494.4 402.7, 570.1 462.0" stroke="black" fill="none"/><path d="M 570.1 462.0 C 685.7 552.7, 806.4 536.7, 824.7 400.3" stroke="black" fill="none"/><path d="M 824.7 400.3 C 842.8 265.2, 1065.7 572.4, 1049.1 438.3" stroke="black" fill="none"/><path d="M 1049.1 438.3 C 1035.7 330.0, 810.3 671.9, 845.7 574.5" stroke="black" fill="none"/><path d="M 845.7 574.5 C 897.6 431.4, 692.6 454.1, 577.1 470.4" stroke="black" fill="none"/><path d="M 577.1 470.4 C 440.6 489.6, 640.0 789.6, 454.3 789.4" stroke="black" fill="none"/><path d="M 454.3 789.4 C 309.5 789.2, 709.0 1074.8, 516.8 1117.5" stroke="black" fill="none"/><path d="M 516.8 1117.5 C 383.2 1147.1, 646.4 1389.1, 503.7 1417.3" stroke="black" fill="none"/><path d="M 503.7 1417.3 C 406.3 1436.5, 591.9 1709.4, 495.8 1651.0" stroke="black" fill="none"/><path d="M 495.8 1651.0 C 381.0 1581.1, 622.4 1394.0, 502.3 1420.4" stroke="black" fill="none"/><path d="M 502.3 1420.4 C 405.6 1441.7, 597.5 1752.7, 514.1 1654.8" stroke="black" fill="none"/><path d="M 514.1 1654.8 C 419.3 1543.4, 521.1 1282.3, 466.9 1391.0" stroke="black" fill="none"/><path d="M 466.9 1391.0 C 408.3 1508.4, 893.2 1411.8, 763.0 1472.6" stroke="black" fill="none"/><path d="M 763.0 1472.6 C 633.3 1533.1, 741.2 1348.8, 649.1 1251.6" stroke="black" fill="none"/><path d="M 649.1 1251.6 C 501.0 1095.4, 899.6 1628.1, 692.5 1708.4" stroke="black" fill="none"/><path d="M 692.5 1708.4 C 307.7 1857.7, 482.6 1269.7, 713.1 922.5" stroke="black" fill="none"/><path d="M 713.1 922.5 C 799.8 791.9, 632.7 1178.5, 785.6 1183.2" stroke="black" fill="none"/><path d="M 785.6 1183.2 C 984.4 1189.2, 550.5 634.5, 732.2 773.1" stroke="black" fill="none"/><path d="M 732.2 773.1 C 841.0 856.2, 921.0 772.3, 1059.4 742.4" stroke="black" fill="none"/><path d="M 1059.4 742.4 C 1160.7 720.5, 1037.4 604.3, 1110.8 527.1" stroke="black" fill="none"/><path d="M 1110.8 527.1 C 1196.3 437.4, 1244.0 341.2, 1325.1 436.6" stroke="black" fill="none"/><path d="M 1325.1 436.6 C 1389.1 512.0, 1070.4 472.4, 1106.0 384.7" stroke="black" fill="none"/><path d="M 1106.0 384.7 C 1162.8 244.9, 1386.7 656.9, 1395.1 519.8" stroke="black" fill="none"/><path d="M 1395.1 519.8 C 1409.4 286.7, 1183.0 549.5, 999.4 463.2" stroke="black" fill="none"/><path d="M 999.4 463.2 C 855.7 395.6, 1173.3 464.0, 1273.8 382.2" stroke="black" fill="none"/><path d="M 1273.8 382.2 C 1348.9 321.1, 1270.3 639.8, 1381.7 574.1" stroke="black" fill="none"/><path d="M 1381.7 574.1 C 1483.9 513.9, 1409.9 403.0, 1372.4 297.8" stroke="black" fill="none"/><path d="M 1372.4 297.8 C 1330.9 181.6, 1391.0 497.4, 1238.7 554.3" stroke="black" fill="none"/><path d="M 1238.7 554.3 C 996.3 645.0, 745.5 1174.1, 1089.2 1138.3" stroke="black" fill="none"/><path d="M 1089.2 1138.3 C 1211.3 1125.6, 947.6 1031.5, 1017.1 905.4" stroke="black" fill="none"/><path d="M 1017.1 905.4 C 1125.0 709.5, 1047.8 1131.3, 1164.6 1274.7" stroke="black" fill="none"/><path d="M 1164.6 1274.7 C 1226.3 1350.6, 850.3 1206.7, 937.4 1287.7" stroke="black" fill="none"/><path d="M 937.4 1287.7 C 1012.4 1357.4, 892.2 1527.9, 972.7 1489.0" stroke="black" fill="none"/><path d="M 972.7 1489.0 C 1363.3 1300.2, 833.9 489.2, 1039.8 763.8" stroke="black" fill="none"/><path d="M 1039.8 763.8 C 1101.2 845.8, 955.1 852.2, 992.9 970.3" stroke="black" fill="none"/><path d="M 992.9 970.3 C 1026.6 1075.4, 1042.9 1153.2, 914.6 1216.8" stroke="black" fill="none"/><path d="M 914.6 1216.8 C 715.3 1315.6, 900.4 624.5, 1041.3 822.7" stroke="black" fill="none"/><path d="M 1041.3 822.7 C 1150.5 976.2, 1033.4 597.0, 1133.7 414.4" stroke="black" fill="none"/><path d="M 1133.7 414.4 C 1193.4 305.7, 1402.6 516.3, 1309.8 526.5" stroke="black" fill="none"/><path d="M 1309.8 526.5 C 1226.5 535.6, 1214.8 353.9, 1141.4 411.6" stroke="black" fill="none"/><path d="M 1141.4 411.6 C 1066.2 470.6, 1366.6 391.3, 1326.4 509.8" stroke="black" fill="none"/><path d="M 1326.4 509.8 C 1270.5 673.9, 1223.5 722.7, 1334.6 842.0" stroke="black" fill="none"/><path d="M 1334.6 842.0 C 1499.0 1018.5, 1428.0 93.2, 1276.0 315.3" stroke="black" fill="none"/><path d="M 1276.0 315.3 C 1137.1 518.1, 562.9 401.3, 816.1 480.5" stroke="black" fill="none"/><path d="M 816.1 480.5 C 1001.0 538.3, 1049.4 315.6, 1179.6 448.9" stroke="black" fill="none"/><path d="M 1179.6 448.9 C 1257.3 528.5, 1278.7 524.3, 1376.5 535.7" stroke="black" fill="none"/><path d="M 1376.5 535.7 C 1510.8 551.4, 1428.3 423.0, 1366.9 303.5" stroke="black" fill="none"/><path d="M 1366.9 303.5 C 1289.8 153.4, 1316.7 741.6, 1262.1 612.6" stroke="black" fill="none"/><path d="M 1262.1 612.6 C 1182.1 423.5, 753.9 388.9, 847.3 537.3" stroke="black" fill="none"/><path d="M 847.3 537.3 C 1042.6 847.8, 844.3 1776.4, 1029.0 1390.4" stroke="black" fill="none"/><path d="M 1029.0 1390.4 C 1153.7 1129.8, 1187.0 720.5, 918.2 879.2" stroke="black" fill="none"/><path d="M 918.2 879.2 C 794.9 951.9, 903.7 1039.0, 816.4 1169.1" stroke="black" fill="none"/><path d="M 816.4 1169.1 C 680.6 1371.4, 820.2 1383.3, 736.0 1666.6" stroke="black" fill="none"/><path d="M 736.0 1666.6 C 705.5 1768.9, 964.9 1528.1, 961.7 1645.8" stroke="black" fill="none"/><path d="M 961.7 1645.8 C 958.2 1771.6, 608.7 1477.4, 729.2 1458.3" stroke="black" fill="none"/><path d="M 729.2 1458.3 C 842.2 1440.5, 767.4 1681.0, 881.9 1677.2" stroke="black" fill="none"/><path d="M 881.9 1677.2 C 1139.7 1668.6, 867.7 1264.4, 1150.3 1275.8" stroke="black" fill="none"/><path d="M 1150.3 1275.8 C 1260.8 1280.3, 932.5 1087.7, 1029.6 1095.1" stroke="black" fill="none"/><path d="M 1029.6 1095.1 C 1164.7 1105.3, 1111.9 1179.8, 1180.6 1293.7" stroke="black" fill="none"/><path d="M 1180.6 1293.7 C 1241.5 1394.8, 928.2 1161.0, 924.3 1267.9" stroke="black" fill="none"/><path d="M 924.3 1267.9 C 920.5 1368.8, 1154.3 1031.9, 1118.5 1144.5" stroke="black" fill="none"/><path d="M 1118.5 1144.5 C 1070.9 1294.0, 778.0 709.4, 980.4 793.4" stroke="black" fill="none"/><path d="M 980.4 793.4 C 1103.6 844.5, 1174.9 1037.8, 1038.1 1017.2" stroke="black" fill="none"/><path d="M 1038.1 1017.2 C 921.0 999.5, 850.3 787.3, 972.5 780.0" stroke="black" fill="none"/><path d="M 972.5 780.0 C 1116.7 771.3, 1098.4 1162.8, 1138.9 1017.4" stroke="black" fill="none"/><path d="M 1138.9 1017.4 C 1173.1 894.5, 919.5 777.0, 872.0 910.5" stroke="black" fill="none"/><path d="M 872.0 910.5 C 818.7 1060.2, 785.5 738.1, 620.8 641.6" stroke="black" fill="none"/><path d="M 620.8 641.6 C 550.1 600.2, 747.0 866.4, 650.0 842.5" stroke="black" fill="none"/><path d="M 650.0 842.5 C 528.3 812.7, 814.1 621.6, 692.5 603.8" stroke="black" fill="none"/><path d="M 692.5 603.8 C 528.2 579.6, 685.3 808.9, 739.0 948.6" stroke="black" fill="none"/><path d="M 739.0 948.6 C 807.1 1126.1, 1151.4 877.8, 1049.3 1016.3" stroke="black" fill="none"/><path d="M 1049.3 1016.3 C 996.5 1087.9, 950.6 734.3, 904.5 850.4" stroke="black" fill="none"/><path d="M 904.5 850.4 C 858.4 966.7, 1201.8 977.2, 1099.0 985.3" stroke="black" fill="none"/><path d="M 1099.0 985.3 C 982.9 994.3, 913.4 951.6, 919.0 797.0" stroke="black" fill="none"/><path d="M 919.0 797.0 C 924.9 638.7, 1039.0 892.2, 1124.1 970.1" stroke="black" fill="none"/><path d="M 1124.1 970.1 C 1212.2 1050.8, 787.8 847.8, 869.1 965.3" stroke="black" fill="none"/><path d="M 869.1 965.3 C 947.5 1078.7, 899.6 819.1, 983.5 688.7" stroke="black" fill="none"/><path d="M 983.5 688.7 C 1151.9 427.2, 706.4 441.0, 453.8 486.9" stroke="black" fill="none"/><path d="M 453.8 486.9 C 253.2 523.4, 134.1 466.1, 114.0 685.4" stroke="black" fill="none"/><path d="M 114.0 685.4 C 81.7 1038.8, 833.9 532.5, 763.5 835.3" stroke="black" fill="none"/><path d="M 763.5 835.3 C 726.5 994.5, 665.7 1181.6, 523.6 1101.1" stroke="black" fill="none"/><path d="M 523.6 1101.1 C 373.7 1016.2, 873.5 905.5, 716.6 883.9" stroke="black" fill="none"/><path d="M 716.6 883.9 C 186.7 810.9, 810.3 1737.8, 429.9 1734.0" stroke="black" fill="none"/><path d="M 429.9 1734.0 C 220.7 1731.9, 708.3 1319.2, 533.1 1359.5" stroke="black" fill="none"/><path d="M 533.1 1359.5 C 411.6 1387.4, 495.3 982.3, 581.6 1066.6" stroke="black" fill="none"/><path d="M 581.6 1066.6 C 729.5 1211.2, 804.8 682.6, 647.1 696.6" stroke="black" fill="none"/><path d="M 647.1 696.6 C 483.4 711.1, 824.1 384.7, 848.6 510.4" stroke="black" fill="none"/><path d="M 848.6 510.4 C 870.8 624.8, 595.3 681.0, 693.8 731.4" stroke="black" fill="none"/><path d="M 693.8 731.4 C 804.4 788.0, 684.2 904.5, 786.2 927.8" stroke="black" fill="none"/><path d="M 786.2 927.8 C 1042.2 986.4, 1144.1 1024.1, 1138.5 1297.4" stroke="black" fill="none"/><path d="M 1138.5 1297.4 C 1135.6 1437.2, 1109.0 1738.6, 1259.9 1616.3" stroke="black" fill="none"/><path d="M 1259.9 1616.3 C 1424.7 1482.8, 746.8 1332.9, 973.5 1210.6" stroke="black" fill="none"/><path d="M 973.5 1210.6 C 1094.5 1145.2, 1010.9 1356.1, 1121.2 1452.1" stroke="black" fill="none"/><path d="M 1121.2 1452.1 C 1238.7 1554.4, 1165.7 1557.9, 1203.3 1710.2" stroke="black" fill="none"/><path d="M 1203.3 1710.2 C 1294.7 2080.8, 169.5 1208.2, 552.4 1193.6" stroke="black" fill="none"/><path d="M 552.4 1193.6 C 849.7 1182.2, 275.5 314.3, 681.4 471.9" stroke="black" fill="none"/><path d="M 681.4 471.9 C 908.2 559.9, 107.8 441.3, 252.4 654.7" stroke="black" fill="none"/><path d="M 252.4 654.7 C 573.5 1128.7, 1082.9 713.1, 1107.5 1289.3" stroke="black" fill="none"/><path d="M 1107.5 1289.3 C 1118.1 1536.4, 977.4 1017.6, 803.6 918.7" stroke="black" fill="none"/><path d="M 803.6 918.7 C 577.3 790.0, 591.2 1714.6, 504.1 1400.4" stroke="black" fill="none"/><path d="M 504.1 1400.4 C 462.2 1249.2, 453.9 1189.3, 580.4 1111.9" stroke="black" fill="none"/><path d="M 580.4 1111.9 C 695.9 1041.1, 838.9 1311.9, 698.8 1405.5" stroke="black" fill="none"/><path d="M 698.8 1405.5 C 500.3 1538.1, 576.3 1586.0, 492.8 1780.9" stroke="black" fill="none"/><path d="M 492.8 1780.9 C 422.1 1945.9, 935.2 1716.2, 790.2 1672.4" stroke="black" fill="none"/><path d="M 790.2 1672.4 C 670.6 1636.3, 816.4 1432.3, 713.7 1471.5" stroke="black" fill="none"/><path d="M 713.7 1471.5 C 397.8 1592.3, 439.5 1041.6, 610.9 838.8" stroke="black" fill="none"/><path d="M 610.9 838.8 C 692.6 742.1, 546.0 660.7, 669.8 611.5" stroke="black" fill="none"/><path d="M 669.8 611.5 C 764.2 573.9, 704.7 734.1, 663.6 829.2" stroke="black" fill="none"/><path d="M 663.6 829.2 C 606.8 960.9, 349.1 747.9, 422.1 814.6" stroke="black" fill="none"/><path d="M 422.1 814.6 C 717.7 1085.0, 680.1 1835.2, 808.6 1524.4" stroke="black" fill="none"/><path d="M 808.6 1524.4 C 951.0 1179.7, 800.7 637.5, 632.9 863.2" stroke="black" fill="none"/><path d="M 632.9 863.2 C 428.4 1138.4, 470.4 1155.3, 524.7 1494.5" stroke="black" fill="none"/><path d="M 524.7 1494.5 C 548.6 1643.9, 556.4 1765.7, 419.8 1738.5" stroke="black" fill="none"/><path d="M 419.8 1738.5 C -23.9 1650.0, 1294.3 714.0, 801.4 797.2" stroke="black" fill="none"/><path d="M 801.4 797.2 C 686.2 816.6, 536.5 590.2, 666.6 599.4" stroke="black" fill="none"/><path d="M 666.6 599.4 C 826.6 610.8, 282.3 868.7, 466.8 847.2" stroke="black" fill="none"/><path d="M 466.8 847.2 C 653.8 825.4, 400.9 394.1, 637.9 429.8" stroke="black" fill="none"/><path d="M 637.9 429.8 C 949.1 476.5, 844.7 692.0, 781.0 1008.8" stroke="black" fill="none"/><path d="M 781.0 1008.8 C 754.0 1142.7, 1226.3 985.9, 1095.8 1092.2" stroke="black" fill="none"/><path d="M 1095.8 1092.2 C 926.4 1230.1, 1176.0 822.6, 961.5 695.4" stroke="black" fill="none"/><path d="M 961.5 695.4 C 694.4 537.1, 596.1 853.2, 243.9 817.3" stroke="black" fill="none"/><path d="M 243.9 817.3 C 96.5 802.3, 139.5 443.9, 239.7 531.9" stroke="black" fill="none"/><path d="M 239.7 531.9 C 334.2 614.7, 148.6 855.1, 320.0 829.4" stroke="black" fill="none"/><path d="M 320.0 829.4 C 552.2 794.6, 754.3 668.3, 613.4 493.0" stroke="black" fill="none"/><path d="M 613.4 493.0 C 539.4 400.8, 807.2 523.7, 815.4 408.4" stroke="black" fill="none"/><path d="M 815.4 408.4 C 825.2 269.9, 1107.7 570.0, 1056.9 454.4" stroke="black" fill="none"/><path d="M 1056.9 454.4 C 997.9 320.0, 1369.2 567.3, 1365.5 400.4" stroke="black" fill="none"/></svg>