<svg width="1500" height="1509" xmlns="http://www.w3.org/2000/svg" style="background-color: transparent;"><path d="M 838.1 746.2 C 616.4 767.5, 708.1 1210.7, 581.7 1069.5" stroke="black" fill="none"/><path d="M 581.7 1069.5 C 527.3 1008.6, 686.5 1065.8, 698.3 983.7" stroke="black" fill="none"/><path d="M 698.3 983.7 C 709.1 908.1, 641.3 1108.5, 571.7 1094.8" stroke="black" fill="none"/><path d="M 571.7 1094.8 C 487.6 1078.2, 597.5 1034.4, 654.1 968.7" stroke="black" fill="none"/><path d="M 654.1 968.7 C 788.1 813.5, 624.4 421.3, 720.2 611.3" stroke="black" fill="none"/><path d="M 720.2 611.3 C 849.1 866.9, 495.3 1264.8, 428.0 1042.6" stroke="black" fill="none"/><path d="M 428.0 1042.6 C 397.2 940.8, 591.9 1057.2, 596.6 982.9" stroke="black" fill="none"/><path d="M 596.6 982.9 C 601.6 905.1, 404.5 1123.6, 419.0 1021.3" stroke="black" fill="none"/><path d="M 419.0 1021.3 C 430.2 942.5, 531.4 1002.2, 617.4 1019.4" stroke="black" fill="none"/><path d="M 617.4 1019.4 C 699.6 1035.8, 553.0 1050.6, 472.2 1113.9" stroke="black" fill="none"/><path d="M 472.2 1113.9 C 406.5 1165.3, 684.1 1052.8, 635.3 1131.1" stroke="black" fill="none"/><path d="M 635.3 1131.1 C 595.3 1195.4, 622.5 1066.6, 597.3 996.8" stroke="black" fill="none"/><path d="M 597.3 996.8 C 574.3 932.9, 461.1 1121.5, 437.4 1039.0" stroke="black" fill="none"/><path d="M 437.4 1039.0 C 414.0 957.8, 656.9 1079.7, 590.2 1029.3" stroke="black" fill="none"/><path d="M 590.2 1029.3 C 522.3 978.0, 488.0 1005.3, 424.5 1038.6" stroke="black" fill="none"/><path d="M 424.5 1038.6 C 284.4 1112.1, 909.1 979.2, 790.7 1119.2" stroke="black" fill="none"/><path d="M 790.7 1119.2 C 679.6 1250.6, 445.6 887.4, 482.1 1048.6" stroke="black" fill="none"/><path d="M 482.1 1048.6 C 504.8 1148.9, 693.5 941.8, 674.9 1038.3" stroke="black" fill="none"/><path d="M 674.9 1038.3 C 663.4 1097.7, 520.9 1052.0, 544.4 995.0" stroke="black" fill="none"/><path d="M 544.4 995.0 C 573.2 925.0, 694.6 1112.4, 607.5 1130.8" stroke="black" fill="none"/><path d="M 607.5 1130.8 C 547.6 1143.5, 669.5 1026.8, 609.3 985.7" stroke="black" fill="none"/><path d="M 609.3 985.7 C 545.8 942.3, 566.4 1036.7, 498.7 1076.5" stroke="black" fill="none"/><path d="M 498.7 1076.5 C 407.7 1130.0, 622.5 1078.3, 667.2 1136.6" stroke="black" fill="none"/><path d="M 667.2 1136.6 C 826.3 1344.1, 875.5 1027.4, 1084.2 936.8" stroke="black" fill="none"/><path d="M 1084.2 936.8 C 1158.8 904.4, 940.4 1135.8, 1025.3 1117.6" stroke="black" fill="none"/><path d="M 1025.3 1117.6 C 1090.1 1103.7, 1004.8 947.5, 949.6 995.3" stroke="black" fill="none"/><path d="M 949.6 995.3 C 888.6 1048.1, 1000.6 1029.2, 1082.5 1036.8" stroke="black" fill="none"/><path d="M 1082.5 1036.8 C 1161.3 1044.2, 894.0 1079.4, 946.9 1121.1" stroke="black" fill="none"/><path d="M 946.9 1121.1 C 999.7 1162.8, 942.8 906.3, 996.8 965.6" stroke="black" fill="none"/><path d="M 996.8 965.6 C 1037.6 1010.5, 917.4 971.6, 874.7 1043.0" stroke="black" fill="none"/><path d="M 874.7 1043.0 C 813.9 1144.6, 1116.2 914.7, 1076.0 1003.9" stroke="black" fill="none"/><path d="M 1076.0 1003.9 C 1046.5 1069.4, 862.5 966.1, 911.4 1048.1" stroke="black" fill="none"/><path d="M 911.4 1048.1 C 953.3 1118.4, 968.8 944.9, 1036.0 955.3" stroke="black" fill="none"/><path d="M 1036.0 955.3 C 1103.2 965.6, 961.2 1107.4, 906.5 1059.6" stroke="black" fill="none"/><path d="M 906.5 1059.6 C 853.0 1012.8, 960.2 1015.2, 1042.8 1004.8" stroke="black" fill="none"/><path d="M 1042.8 1004.8 C 1138.1 992.8, 873.5 1115.5, 931.2 1186.4" stroke="black" fill="none"/><path d="M 931.2 1186.4 C 985.9 1253.4, 957.0 928.9, 1039.3 1004.4" stroke="black" fill="none"/><path d="M 1039.3 1004.4 C 1089.1 1050.1, 931.7 1020.8, 906.7 1083.7" stroke="black" fill="none"/><path d="M 906.7 1083.7 C 874.8 1164.1, 996.9 947.9, 1092.5 983.9" stroke="black" fill="none"/><path d="M 1092.5 983.9 C 1164.8 1011.0, 971.7 964.8, 953.8 1032.6" stroke="black" fill="none"/><path d="M 953.8 1032.6 C 912.5 1189.0, 841.9 1108.4, 713.0 1226.7" stroke="black" fill="none"/><path d="M 713.0 1226.7 C 613.5 1318.1, 483.6 926.0, 610.5 994.0" stroke="black" fill="none"/><path d="M 610.5 994.0 C 707.3 1045.8, 508.6 1016.6, 459.1 1097.5" stroke="black" fill="none"/><path d="M 459.1 1097.5 C 413.3 1172.2, 551.4 976.1, 652.2 1019.4" stroke="black" fill="none"/><path d="M 652.2 1019.4 C 748.5 1060.7, 431.7 978.3, 427.6 1083.6" stroke="black" fill="none"/><path d="M 427.6 1083.6 C 425.3 1141.0, 588.3 962.5, 554.8 1031.0" stroke="black" fill="none"/><path d="M 554.8 1031.0 C 505.3 1132.0, 732.4 969.6, 807.5 1047.7" stroke="black" fill="none"/><path d="M 807.5 1047.7 C 879.1 1122.2, 565.3 893.7, 557.3 1039.0" stroke="black" fill="none"/><path d="M 557.3 1039.0 C 549.5 1180.2, 791.2 879.0, 795.4 1003.7" stroke="black" fill="none"/><path d="M 795.4 1003.7 C 799.7 1131.9, 636.6 955.1, 574.9 1041.5" stroke="black" fill="none"/><path d="M 574.9 1041.5 C 513.4 1127.8, 847.4 913.8, 784.1 997.3" stroke="black" fill="none"/><path d="M 784.1 997.3 C 718.6 1083.7, 496.3 938.5, 558.3 1025.2" stroke="black" fill="none"/><path d="M 558.3 1025.2 C 601.5 1085.8, 678.3 1001.3, 698.6 1059.4" stroke="black" fill="none"/><path d="M 698.6 1059.4 C 738.9 1175.0, 526.4 889.2, 460.9 1009.9" stroke="black" fill="none"/><path d="M 460.9 1009.9 C 423.9 1077.9, 636.1 954.8, 636.5 1059.9" stroke="black" fill="none"/><path d="M 636.5 1059.9 C 636.9 1138.8, 474.8 1054.1, 513.4 976.3" stroke="black" fill="none"/><path d="M 513.4 976.3 C 547.7 907.4, 576.6 1043.7, 683.6 1044.0" stroke="black" fill="none"/><path d="M 683.6 1044.0 C 751.2 1044.1, 559.7 1086.5, 573.2 1156.6" stroke="black" fill="none"/><path d="M 573.2 1156.6 C 590.6 1246.0, 506.9 978.8, 400.5 1019.4" stroke="black" fill="none"/><path d="M 400.5 1019.4 C 323.0 1049.0, 610.5 1096.8, 543.7 1153.2" stroke="black" fill="none"/><path d="M 543.7 1153.2 C 484.6 1203.0, 641.9 950.8, 549.2 968.1" stroke="black" fill="none"/><path d="M 549.2 968.1 C 467.9 983.2, 629.2 1042.3, 613.3 1110.5" stroke="black" fill="none"/><path d="M 613.3 1110.5 C 589.3 1213.6, 571.4 1018.0, 486.8 968.1" stroke="black" fill="none"/><path d="M 486.8 968.1 C 423.0 930.4, 590.9 1098.1, 536.0 1095.5" stroke="black" fill="none"/><path d="M 536.0 1095.5 C 476.4 1092.6, 574.6 1019.3, 642.7 1008.7" stroke="black" fill="none"/><path d="M 642.7 1008.7 C 706.7 998.8, 633.8 1071.9, 609.6 1157.3" stroke="black" fill="none"/><path d="M 609.6 1157.3 C 583.8 1248.4, 520.5 885.6, 502.0 982.3" stroke="black" fill="none"/><path d="M 502.0 982.3 C 488.8 1051.4, 664.8 974.9, 653.3 1046.5" stroke="black" fill="none"/><path d="M 653.3 1046.5 C 640.4 1126.4, 506.4 909.1, 510.2 979.8" stroke="black" fill="none"/><path d="M 510.2 979.8 C 514.1 1052.9, 605.6 994.1, 633.1 1043.6" stroke="black" fill="none"/><path d="M 633.1 1043.6 C 685.5 1137.6, 490.1 1064.6, 473.0 1137.5" stroke="black" fill="none"/><path d="M 473.0 1137.5 C 460.1 1192.5, 587.9 1010.6, 599.7 1083.2" stroke="black" fill="none"/><path d="M 599.7 1083.2 C 613.1 1165.9, 461.6 961.6, 441.0 1045.6" stroke="black" fill="none"/><path d="M 441.0 1045.6 C 421.0 1127.0, 522.4 939.2, 576.5 980.7" stroke="black" fill="none"/><path d="M 576.5 980.7 C 688.3 1066.4, 708.0 941.1, 852.4 971.9" stroke="black" fill="none"/><path d="M 852.4 971.9 C 944.4 991.6, 966.8 981.1, 1029.5 942.3" stroke="black" fill="none"/><path d="M 1029.5 942.3 C 1098.3 899.7, 1135.8 1082.4, 1067.9 1107.8" stroke="black" fill="none"/><path d="M 1067.9 1107.8 C 991.1 1136.6, 882.3 978.9, 968.1 987.6" stroke="black" fill="none"/><path d="M 968.1 987.6 C 1093.1 1000.2, 901.1 1086.2, 820.9 1158.0" stroke="black" fill="none"/><path d="M 820.9 1158.0 C 745.8 1225.2, 543.4 1208.1, 629.6 1149.3" stroke="black" fill="none"/><path d="M 629.6 1149.3 C 677.7 1116.5, 616.0 1001.2, 546.6 1040.2" stroke="black" fill="none"/><path d="M 546.6 1040.2 C 472.0 1082.1, 743.2 1010.7, 700.4 1078.1" stroke="black" fill="none"/><path d="M 700.4 1078.1 C 617.8 1208.2, 552.5 1099.6, 444.3 990.2" stroke="black" fill="none"/><path d="M 444.3 990.2 C 390.3 935.7, 363.1 1195.6, 435.6 1146.4" stroke="black" fill="none"/><path d="M 435.6 1146.4 C 506.2 1098.6, 462.6 953.1, 495.4 1009.7" stroke="black" fill="none"/><path d="M 495.4 1009.7 C 542.6 1091.2, 657.0 918.9, 662.4 993.2" stroke="black" fill="none"/><path d="M 662.4 993.2 C 667.9 1068.9, 438.5 927.5, 504.9 991.4" stroke="black" fill="none"/><path d="M 504.9 991.4 C 547.2 1032.1, 470.8 1078.8, 404.8 1089.3" stroke="black" fill="none"/><path d="M 404.8 1089.3 C 328.5 1101.4, 453.8 1031.7, 499.4 983.1" stroke="black" fill="none"/><path d="M 499.4 983.1 C 546.0 933.5, 690.3 1035.2, 644.4 977.1" stroke="black" fill="none"/><path d="M 644.4 977.1 C 583.9 900.7, 673.0 1238.2, 550.8 1200.0" stroke="black" fill="none"/><path d="M 550.8 1200.0 C 402.4 1153.6, 902.3 1014.5, 758.9 998.3" stroke="black" fill="none"/><path d="M 758.9 998.3 C 632.8 984.1, 552.2 954.1, 485.7 1081.1" stroke="black" fill="none"/><path d="M 485.7 1081.1 C 390.8 1262.1, 936.5 1238.7, 914.9 1063.0" stroke="black" fill="none"/><path d="M 914.9 1063.0 C 905.2 984.4, 948.0 981.9, 1019.2 973.6" stroke="black" fill="none"/><path d="M 1019.2 973.6 C 1142.6 959.3, 862.3 1103.0, 959.9 1181.0" stroke="black" fill="none"/><path d="M 959.9 1181.0 C 1053.7 1255.9, 858.5 1029.2, 960.1 965.0" stroke="black" fill="none"/><path d="M 960.1 965.0 C 1010.7 933.0, 912.0 1013.4, 910.9 1098.1" stroke="black" fill="none"/><path d="M 910.9 1098.1 C 910.1 1159.7, 939.9 988.4, 1001.0 994.4" stroke="black" fill="none"/><path d="M 1001.0 994.4 C 1116.0 1005.6, 835.6 1068.9, 832.9 1183.9" stroke="black" fill="none"/><path d="M 832.9 1183.9 C 829.4 1337.2, 965.9 869.2, 1031.8 1001.5" stroke="black" fill="none"/><path d="M 1031.8 1001.5 C 1061.0 1059.9, 937.2 1024.9, 893.0 988.6" stroke="black" fill="none"/><path d="M 893.0 988.6 C 747.9 869.2, 465.4 503.3, 709.2 589.0" stroke="black" fill="none"/><path d="M 709.2 589.0 C 779.0 613.5, 778.0 542.8, 840.3 540.6" stroke="black" fill="none"/><path d="M 840.3 540.6 C 936.2 537.3, 877.5 811.7, 916.3 712.5" stroke="black" fill="none"/><path d="M 916.3 712.5 C 973.7 566.0, 814.4 562.3, 676.1 586.1" stroke="black" fill="none"/><path d="M 676.1 586.1 C 575.2 603.5, 636.0 680.7, 588.3 736.8" stroke="black" fill="none"/><path d="M 588.3 736.8 C 542.8 790.3, 761.4 862.4, 677.4 874.7" stroke="black" fill="none"/><path d="M 677.4 874.7 C 543.1 894.4, 679.1 439.4, 814.8 571.4" stroke="black" fill="none"/><path d="M 814.8 571.4 C 876.5 631.4, 706.2 535.0, 600.8 549.2" stroke="black" fill="none"/><path d="M 600.8 549.2 C 509.3 561.5, 816.3 760.7, 693.9 749.1" stroke="black" fill="none"/><path d="M 693.9 749.1 C 598.1 740.0, 704.8 485.4, 791.6 557.0" stroke="black" fill="none"/><path d="M 791.6 557.0 C 860.6 613.9, 607.4 520.8, 626.1 585.4" stroke="black" fill="none"/><path d="M 626.1 585.4 C 648.6 662.6, 710.6 561.5, 763.3 506.5" stroke="black" fill="none"/><path d="M 763.3 506.5 C 823.1 444.1, 805.4 657.1, 891.9 628.4" stroke="black" fill="none"/><path d="M 891.9 628.4 C 974.0 601.2, 692.2 463.5, 700.3 546.5" stroke="black" fill="none"/><path d="M 700.3 546.5 C 710.1 647.0, 902.9 501.4, 894.5 588.3" stroke="black" fill="none"/><path d="M 894.5 588.3 C 886.5 671.0, 779.4 478.8, 717.2 542.4" stroke="black" fill="none"/><path d="M 717.2 542.4 C 638.3 623.1, 943.0 533.3, 898.1 597.0" stroke="black" fill="none"/><path d="M 898.1 597.0 C 851.5 663.0, 833.1 523.2, 747.3 557.8" stroke="black" fill="none"/><path d="M 747.3 557.8 C 655.3 595.0, 563.8 623.1, 625.2 685.4" stroke="black" fill="none"/><path d="M 625.2 685.4 C 819.1 882.2, 611.0 1312.6, 484.0 1125.9" stroke="black" fill="none"/><path d="M 484.0 1125.9 C 423.4 1036.8, 615.0 921.6, 669.7 1025.0" stroke="black" fill="none"/><path d="M 669.7 1025.0 C 709.4 1100.2, 744.5 999.0, 815.4 976.1" stroke="black" fill="none"/><path d="M 815.4 976.1 C 891.4 951.6, 743.6 1022.2, 731.2 1112.8" stroke="black" fill="none"/><path d="M 731.2 1112.8 C 705.2 1302.2, 1058.2 1109.2, 1073.4 936.3" stroke="black" fill="none"/><path d="M 1073.4 936.3 C 1081.0 850.6, 934.3 1161.6, 925.0 1079.6" stroke="black" fill="none"/><path d="M 925.0 1079.6 C 912.1 964.5, 1020.8 945.6, 1110.4 981.2" stroke="black" fill="none"/><path d="M 1110.4 981.2 C 1212.2 1021.6, 916.5 1019.6, 910.1 1163.2" stroke="black" fill="none"/><path d="M 910.1 1163.2 C 906.0 1255.0, 1078.4 956.8, 1094.4 1063.6" stroke="black" fill="none"/><path d="M 1094.4 1063.6 C 1108.3 1156.1, 882.6 1031.4, 900.0 1149.5" stroke="black" fill="none"/><path d="M 900.0 1149.5 C 914.9 1249.9, 963.9 923.3, 1043.5 974.8" stroke="black" fill="none"/><path d="M 1043.5 974.8 C 1116.5 1022.1, 935.1 949.9, 890.4 1005.7" stroke="black" fill="none"/><path d="M 890.4 1005.7 C 829.3 1082.2, 1098.0 963.2, 1053.8 1028.9" stroke="black" fill="none"/><path d="M 1053.8 1028.9 C 1005.0 1101.3, 859.1 967.1, 891.1 1050.6" stroke="black" fill="none"/><path d="M 891.1 1050.6 C 918.5 1122.1, 1064.7 1019.7, 1027.6 948.8" stroke="black" fill="none"/><path d="M 1027.6 948.8 C 992.0 880.6, 923.7 1143.9, 892.3 1073.0" stroke="black" fill="none"/><path d="M 892.3 1073.0 C 827.4 926.4, 506.1 1108.5, 605.4 1022.7" stroke="black" fill="none"/><path d="M 605.4 1022.7 C 655.4 979.5, 656.2 1199.2, 618.4 1159.3" stroke="black" fill="none"/><path d="M 618.4 1159.3 C 559.6 1097.0, 696.5 986.4, 618.4 1005.6" stroke="black" fill="none"/><path d="M 618.4 1005.6 C 561.6 1019.6, 777.6 1036.0, 737.0 1081.5" stroke="black" fill="none"/><path d="M 737.0 1081.5 C 683.1 1141.9, 768.4 828.2, 721.0 892.9" stroke="black" fill="none"/><path d="M 721.0 892.9 C 680.1 948.8, 746.0 735.9, 686.4 757.2" stroke="black" fill="none"/><path d="M 686.4 757.2 C 596.4 789.4, 585.1 541.5, 696.5 553.3" stroke="black" fill="none"/><path d="M 696.5 553.3 C 842.9 568.8, 942.2 590.8, 921.2 709.2" stroke="black" fill="none"/><path d="M 921.2 709.2 C 907.8 784.9, 742.6 750.7, 776.9 668.5" stroke="black" fill="none"/><path d="M 776.9 668.5 C 804.7 601.8, 615.6 537.8, 624.8 608.0" stroke="black" fill="none"/><path d="M 624.8 608.0 C 635.5 690.1, 677.9 522.0, 759.7 540.1" stroke="black" fill="none"/><path d="M 759.7 540.1 C 817.6 553.0, 945.7 614.0, 873.6 632.4" stroke="black" fill="none"/><path d="M 873.6 632.4 C 574.6 708.6, 852.2 983.4, 585.1 1135.4" stroke="black" fill="none"/><path d="M 585.1 1135.4 C 516.6 1174.4, 517.7 1086.9, 528.1 998.9" stroke="black" fill="none"/><path d="M 528.1 998.9 C 537.5 919.5, 750.6 1026.1, 696.1 1083.2" stroke="black" fill="none"/><path d="M 696.1 1083.2 C 589.4 1195.0, 463.4 920.4, 415.9 1053.1" stroke="black" fill="none"/><path d="M 415.9 1053.1 C 375.8 1165.1, 676.3 912.8, 647.8 1003.6" stroke="black" fill="none"/><path d="M 647.8 1003.6 C 604.6 1141.5, 395.9 1034.9, 443.2 1139.6" stroke="black" fill="none"/><path d="M 443.2 1139.6 C 470.8 1200.6, 634.1 1049.9, 558.5 1038.2" stroke="black" fill="none"/><path d="M 558.5 1038.2 C 487.7 1027.3, 382.4 1068.3, 436.2 1099.5" stroke="black" fill="none"/><path d="M 436.2 1099.5 C 506.4 1140.2, 580.1 992.4, 511.6 970.4" stroke="black" fill="none"/><path d="M 511.6 970.4 C 457.6 953.0, 435.5 1090.1, 515.9 1107.6" stroke="black" fill="none"/><path d="M 515.9 1107.6 C 633.7 1133.4, 822.1 871.4, 802.2 1028.0" stroke="black" fill="none"/><path d="M 802.2 1028.0 C 791.9 1108.8, 743.6 893.0, 694.4 934.8" stroke="black" fill="none"/><path d="M 694.4 934.8 C 612.0 1005.1, 945.6 959.0, 880.9 1083.9" stroke="black" fill="none"/><path d="M 880.9 1083.9 C 849.7 1144.1, 950.4 1114.2, 1023.3 1085.5" stroke="black" fill="none"/><path d="M 1023.3 1085.5 C 1081.0 1062.8, 1050.8 1031.8, 1103.6 970.8" stroke="black" fill="none"/><path d="M 1103.6 970.8 C 1159.2 906.6, 980.8 1047.4, 916.5 967.1" stroke="black" fill="none"/><path d="M 916.5 967.1 C 775.6 790.9, 698.6 484.1, 892.6 584.4" stroke="black" fill="none"/><path d="M 892.6 584.4 C 954.6 616.5, 855.7 795.2, 933.3 749.5" stroke="black" fill="none"/><path d="M 933.3 749.5 C 993.1 714.3, 809.6 568.8, 879.9 600.9" stroke="black" fill="none"/><path d="M 879.9 600.9 C 933.4 625.2, 882.3 677.4, 925.9 730.0" stroke="black" fill="none"/><path d="M 925.9 730.0 C 981.4 797.1, 715.1 650.6, 714.0 736.2" stroke="black" fill="none"/><path d="M 714.0 736.2 C 713.0 821.5, 799.0 742.1, 881.5 796.5" stroke="black" fill="none"/><path d="M 881.5 796.5 C 964.0 851.1, 869.8 500.6, 821.9 599.3" stroke="black" fill="none"/><path d="M 821.9 599.3 C 650.1 954.0, 794.9 1046.6, 1005.9 1290.8" stroke="black" fill="none"/><path d="M 1005.9 1290.8 C 1093.3 1392.0, 1093.6 933.1, 993.3 1032.7" stroke="black" fill="none"/><path d="M 993.3 1032.7 C 831.1 1193.7, 658.2 1314.2, 597.5 1147.5" stroke="black" fill="none"/><path d="M 597.5 1147.5 C 572.6 1079.0, 740.6 1256.8, 727.8 1189.2" stroke="black" fill="none"/><path d="M 727.8 1189.2 C 690.6 992.1, 797.5 1017.7, 777.4 839.4" stroke="black" fill="none"/><path d="M 777.4 839.4 C 768.3 759.0, 684.4 749.0, 646.0 798.0" stroke="black" fill="none"/><path d="M 646.0 798.0 C 553.0 917.1, 694.8 593.0, 595.9 523.1" stroke="black" fill="none"/><path d="M 595.9 523.1 C 477.9 439.5, 827.6 759.6, 684.3 845.2" stroke="black" fill="none"/><path d="M 684.3 845.2 C 591.8 900.5, 619.7 770.5, 604.5 684.2" stroke="black" fill="none"/><path d="M 604.5 684.2 C 585.0 573.4, 779.1 637.1, 769.5 511.3" stroke="black" fill="none"/><path d="M 769.5 511.3 C 761.9 412.7, 666.5 745.3, 597.0 652.7" stroke="black" fill="none"/><path d="M 597.0 652.7 C 547.4 586.5, 803.1 498.2, 718.2 501.5" stroke="black" fill="none"/><path d="M 718.2 501.5 C 516.1 509.3, 884.4 1057.4, 707.4 980.1" stroke="black" fill="none"/><path d="M 707.4 980.1 C 649.8 955.0, 594.2 1076.7, 570.0 1016.1" stroke="black" fill="none"/><path d="M 570.0 1016.1 C 525.9 905.2, 487.5 1054.2, 376.9 1076.8" stroke="black" fill="none"/><path d="M 376.9 1076.8 C 301.4 1092.3, 562.3 1111.8, 525.4 1172.0" stroke="black" fill="none"/><path d="M 525.4 1172.0 C 440.3 1310.4, 1030.0 1170.2, 910.6 1063.6" stroke="black" fill="none"/><path d="M 910.6 1063.6 C 860.9 1019.3, 993.5 928.7, 1040.2 978.0" stroke="black" fill="none"/><path d="M 1040.2 978.0 C 1087.2 1027.5, 1084.6 1064.5, 1053.1 1113.6" stroke="black" fill="none"/><path d="M 1053.1 1113.6 C 1013.2 1175.9, 1047.9 918.1, 996.3 982.3" stroke="black" fill="none"/><path d="M 996.3 982.3 C 941.3 1050.7, 1152.8 949.6, 1154.4 1020.7" stroke="black" fill="none"/><path d="M 1154.4 1020.7 C 1156.2 1103.1, 1060.9 935.3, 985.4 964.8" stroke="black" fill="none"/><path d="M 985.4 964.8 C 895.2 1000.1, 943.0 1067.0, 833.6 1138.0" stroke="black" fill="none"/><path d="M 833.6 1138.0 C 724.0 1209.1, 656.4 1274.0, 591.6 1174.8" stroke="black" fill="none"/><path d="M 591.6 1174.8 C 542.5 1099.4, 639.3 975.9, 686.5 1043.1" stroke="black" fill="none"/><path d="M 686.5 1043.1 C 746.8 1128.9, 516.8 946.1, 468.5 1019.5" stroke="black" fill="none"/><path d="M 468.5 1019.5 C 423.4 1088.1, 640.1 1023.2, 629.0 1121.4" stroke="black" fill="none"/><path d="M 629.0 1121.4 C 619.9 1201.7, 718.2 1159.2, 707.7 1240.2" stroke="black" fill="none"/><path d="M 707.7 1240.2 C 695.8 1331.9, 675.0 1127.4, 612.3 1113.9" stroke="black" fill="none"/><path d="M 612.3 1113.9 C 554.7 1101.5, 656.6 1160.4, 673.5 1236.7" stroke="black" fill="none"/><path d="M 673.5 1236.7 C 696.6 1341.1, 860.9 1051.2, 886.9 1150.2" stroke="black" fill="none"/><path d="M 886.9 1150.2 C 903.2 1212.2, 883.0 1007.4, 952.1 1028.6" stroke="black" fill="none"/><path d="M 952.1 1028.6 C 1006.3 1045.2, 817.7 1158.0, 872.6 1140.5" stroke="black" fill="none"/><path d="M 872.6 1140.5 C 1000.0 1099.8, 1118.7 1093.2, 1051.3 1006.5" stroke="black" fill="none"/><path d="M 1051.3 1006.5 C 1005.5 947.5, 946.9 1024.5, 878.0 1066.1" stroke="black" fill="none"/><path d="M 878.0 1066.1 C 787.9 1120.5, 669.8 766.1, 694.1 906.6" stroke="black" fill="none"/><path d="M 694.1 906.6 C 707.5 984.3, 742.6 1007.8, 801.0 1001.8" stroke="black" fill="none"/><path d="M 801.0 1001.8 C 935.0 988.0, 1025.0 984.2, 1060.7 1141.7" stroke="black" fill="none"/><path d="M 1060.7 1141.7 C 1080.4 1228.7, 1075.3 897.5, 1141.2 977.4" stroke="black" fill="none"/><path d="M 1141.2 977.4 C 1191.4 1038.4, 1065.2 991.8, 1002.0 1033.0" stroke="black" fill="none"/><path d="M 1002.0 1033.0 C 946.1 1069.4, 978.5 1191.0, 926.4 1147.2" stroke="black" fill="none"/><path d="M 926.4 1147.2 C 851.1 1083.8, 1036.3 903.4, 1043.5 989.8" stroke="black" fill="none"/><path d="M 1043.5 989.8 C 1052.4 1096.6, 985.0 1071.4, 936.3 1167.9" stroke="black" fill="none"/><path d="M 936.3 1167.9 C 863.1 1312.7, 402.3 1143.1, 581.0 1008.6" stroke="black" fill="none"/><path d="M 581.0 1008.6 C 662.5 947.2, 657.2 1086.3, 757.4 1061.3" stroke="black" fill="none"/><path d="M 757.4 1061.3 C 818.6 1046.0, 566.9 984.6, 641.2 969.4" stroke="black" fill="none"/><path d="M 641.2 969.4 C 873.8 921.7, 1047.2 1182.9, 1048.8 1018.5" stroke="black" fill="none"/><path d="M 1048.8 1018.5 C 1049.7 919.9, 922.7 1043.7, 877.9 1109.1" stroke="black" fill="none"/><path d="M 877.9 1109.1 C 813.3 1203.3, 749.6 1211.7, 640.7 1210.2" stroke="black" fill="none"/><path d="M 640.7 1210.2 C 575.6 1209.3, 585.5 1177.4, 521.1 1128.0" stroke="black" fill="none"/><path d="M 521.1 1128.0 C 466.2 1086.0, 438.4 1054.2, 470.0 965.8" stroke="black" fill="none"/><path d="M 470.0 965.8 C 501.7 877.0, 681.1 1186.4, 582.6 1160.1" stroke="black" fill="none"/><path d="M 582.6 1160.1 C 446.3 1123.7, 868.8 854.1, 731.0 854.4" stroke="black" fill="none"/><path d="M 731.0 854.4 C 605.3 854.7, 789.9 1025.7, 940.3 1010.5" stroke="black" fill="none"/><path d="M 940.3 1010.5 C 1053.0 999.2, 1171.0 972.9, 1134.2 1077.1" stroke="black" fill="none"/><path d="M 1134.2 1077.1 C 1108.7 1149.1, 1115.5 955.3, 1049.1 953.7" stroke="black" fill="none"/><path d="M 1049.1 953.7 C 979.7 952.0, 890.1 994.8, 938.2 1068.0" stroke="black" fill="none"/><path d="M 938.2 1068.0 C 970.6 1117.3, 1008.9 1041.4, 1059.2 995.7" stroke="black" fill="none"/><path d="M 1059.2 995.7 C 1103.6 955.3, 1029.1 1083.7, 1072.9 1134.1" stroke="black" fill="none"/><path d="M 1072.9 1134.1 C 1114.9 1182.7, 1067.1 950.5, 1139.0 991.1" stroke="black" fill="none"/><path d="M 1139.0 991.1 C 1211.1 1031.8, 984.9 1025.1, 994.8 1116.1" stroke="black" fill="none"/><path d="M 994.8 1116.1 C 1004.9 1208.6, 1070.2 952.7, 1122.4 1016.4" stroke="black" fill="none"/><path d="M 1122.4 1016.4 C 1172.4 1077.4, 991.7 1135.5, 993.3 1068.8" stroke="black" fill="none"/><path d="M 993.3 1068.8 C 995.4 973.2, 736.9 954.5, 786.9 1023.0" stroke="black" fill="none"/><path d="M 786.9 1023.0 C 886.3 1159.0, 521.7 899.8, 498.6 1015.6" stroke="black" fill="none"/><path d="M 498.6 1015.6 C 486.2 1077.9, 394.8 1057.7, 414.9 1143.2" stroke="black" fill="none"/><path d="M 414.9 1143.2 C 437.1 1237.9, 455.8 946.8, 540.9 1001.9" stroke="black" fill="none"/><path d="M 540.9 1001.9 C 685.3 1095.3, 636.0 1158.2, 701.1 1299.6" stroke="black" fill="none"/><path d="M 701.1 1299.6 C 809.0 1534.2, 1064.4 737.6, 1037.5 1002.4" stroke="black" fill="none"/><path d="M 1037.5 1002.4 C 1031.5 1061.6, 926.5 1081.3, 966.0 1131.8" stroke="black" fill="none"/><path d="M 966.0 1131.8 C 1027.4 1210.0, 1187.7 921.2, 1087.2 955.4" stroke="black" fill="none"/><path d="M 1087.2 955.4 C 976.3 993.2, 829.7 1114.7, 928.3 1150.3" stroke="black" fill="none"/><path d="M 928.3 1150.3 C 1022.9 1184.4, 1023.9 893.0, 1071.2 978.9" stroke="black" fill="none"/><path d="M 1071.2 978.9 C 1150.2 1122.7, 905.6 1029.9, 785.3 1008.2" stroke="black" fill="none"/><path d="M 785.3 1008.2 C 668.9 987.2, 734.4 664.4, 668.8 778.7" stroke="black" fill="none"/><path d="M 668.8 778.7 C 618.8 865.8, 741.7 746.9, 848.7 749.7" stroke="black" fill="none"/><path d="M 848.7 749.7 C 979.4 753.1, 851.8 491.9, 729.6 516.9" stroke="black" fill="none"/><path d="M 729.6 516.9 C 667.9 529.6, 806.1 547.8, 868.6 582.2" stroke="black" fill="none"/><path d="M 868.6 582.2 C 950.6 627.2, 765.0 732.4, 839.8 780.0" stroke="black" fill="none"/><path d="M 839.8 780.0 C 908.0 823.5, 947.5 606.8, 865.3 612.3" stroke="black" fill="none"/><path d="M 865.3 612.3 C 787.2 617.5, 761.2 482.3, 708.6 538.8" stroke="black" fill="none"/><path d="M 708.6 538.8 C 653.5 597.9, 787.0 555.9, 853.8 554.3" stroke="black" fill="none"/><path d="M 853.8 554.3 C 925.0 552.6, 789.7 587.8, 729.7 653.5" stroke="black" fill="none"/><path d="M 729.7 653.5 C 648.4 742.7, 760.9 788.1, 713.8 874.2" stroke="black" fill="none"/><path d="M 713.8 874.2 C 673.7 947.7, 772.8 739.1, 693.4 726.6" stroke="black" fill="none"/><path d="M 693.4 726.6 C 616.9 714.5, 822.0 958.2, 739.6 905.1" stroke="black" fill="none"/><path d="M 739.6 905.1 C 667.6 858.8, 701.5 992.8, 666.9 1046.9" stroke="black" fill="none"/><path d="M 666.9 1046.9 C 607.5 1139.8, 454.8 1011.8, 480.5 1091.1" stroke="black" fill="none"/><path d="M 480.5 1091.1 C 502.6 1159.4, 609.7 951.1, 604.5 1013.3" stroke="black" fill="none"/><path d="M 604.5 1013.3 C 594.1 1136.6, 744.4 1051.4, 817.6 979.5" stroke="black" fill="none"/><path d="M 817.6 979.5 C 863.9 934.1, 975.9 1116.0, 909.8 1097.9" stroke="black" fill="none"/><path d="M 909.8 1097.9 C 810.7 1070.9, 1028.0 1107.7, 1068.7 1011.5" stroke="black" fill="none"/><path d="M 1068.7 1011.5 C 1101.4 934.4, 967.9 1068.2, 870.3 1074.8" stroke="black" fill="none"/><path d="M 870.3 1074.8 C 673.6 1088.0, 851.3 853.7, 683.4 726.3" stroke="black" fill="none"/><path d="M 683.4 726.3 C 627.3 683.7, 626.8 516.9, 683.7 579.1" stroke="black" fill="none"/><path d="M 683.7 579.1 C 802.4 708.6, 636.1 1148.3, 805.3 981.9" stroke="black" fill="none"/><path d="M 805.3 981.9 C 874.3 914.1, 689.3 1071.6, 625.0 998.5" stroke="black" fill="none"/><path d="M 625.0 998.5 C 584.5 952.4, 542.7 991.6, 476.7 989.3" stroke="black" fill="none"/><path d="M 476.7 989.3 C 404.3 986.8, 407.0 1107.9, 454.4 1159.1" stroke="black" fill="none"/><path d="M 454.4 1159.1 C 519.8 1229.8, 564.3 1011.3, 489.6 974.9" stroke="black" fill="none"/><path d="M 489.6 974.9 C 432.4 947.1, 475.8 1057.1, 393.8 1088.2" stroke="black" fill="none"/><path d="M 393.8 1088.2 C 313.6 1118.7, 604.1 1129.9, 565.2 1217.0" stroke="black" fill="none"/><path d="M 565.2 1217.0 C 525.9 1305.0, 835.6 1171.4, 758.8 1229.2" stroke="black" fill="none"/><path d="M 758.8 1229.2 C 685.5 1284.4, 638.3 1072.1, 584.6 1131.4" stroke="black" fill="none"/><path d="M 584.6 1131.4 C 523.4 1199.0, 471.4 911.9, 468.4 996.3" stroke="black" fill="none"/><path d="M 468.4 996.3 C 465.5 1079.4, 562.8 1129.3, 603.6 1072.0" stroke="black" fill="none"/><path d="M 603.6 1072.0 C 651.6 1004.4, 598.1 1170.6, 644.6 1211.2" stroke="black" fill="none"/><path d="M 644.6 1211.2 C 766.5 1317.1, 901.6 1065.4, 993.8 1200.6" stroke="black" fill="none"/><path d="M 993.8 1200.6 C 1038.5 1266.1, 811.4 1107.0, 795.7 1199.0" stroke="black" fill="none"/><path d="M 795.7 1199.0 C 781.8 1280.6, 852.4 1105.7, 964.4 1087.1" stroke="black" fill="none"/><path d="M 964.4 1087.1 C 1034.2 1075.5, 833.5 1153.2, 876.8 1191.0" stroke="black" fill="none"/><path d="M 876.8 1191.0 C 960.7 1264.2, 1085.3 919.3, 975.4 964.0" stroke="black" fill="none"/><path d="M 975.4 964.0 C 894.2 997.0, 1179.0 942.8, 1160.3 1040.2" stroke="black" fill="none"/><path d="M 1160.3 1040.2 C 1147.1 1108.5, 1137.0 933.3, 1056.5 948.7" stroke="black" fill="none"/><path d="M 1056.5 948.7 C 982.2 962.9, 1121.7 975.8, 1189.3 1049.1" stroke="black" fill="none"/><path d="M 1189.3 1049.1 C 1314.9 1185.3, 609.3 926.8, 773.7 1069.2" stroke="black" fill="none"/><path d="M 773.7 1069.2 C 837.5 1124.5, 559.6 1013.6, 598.5 1081.8" stroke="black" fill="none"/><path d="M 598.5 1081.8 C 646.0 1165.2, 447.6 1061.5, 391.3 1157.2" stroke="black" fill="none"/><path d="M 391.3 1157.2 C 347.5 1231.6, 663.6 1127.5, 594.8 1207.3" stroke="black" fill="none"/><path d="M 594.8 1207.3 C 535.8 1275.7, 772.3 1136.4, 746.1 1208.1" stroke="black" fill="none"/><path d="M 746.1 1208.1 C 687.2 1369.1, 839.8 1038.2, 1019.2 1067.9" stroke="black" fill="none"/><path d="M 1019.2 1067.9 C 1120.8 1084.7, 809.0 1108.7, 883.4 1175.5" stroke="black" fill="none"/><path d="M 883.4 1175.5 C 978.4 1260.9, 888.0 979.5, 1000.4 967.9" stroke="black" fill="none"/><path d="M 1000.4 967.9 C 1077.4 960.1, 1061.4 1172.9, 1077.4 1105.8" stroke="black" fill="none"/><path d="M 1077.4 1105.8 C 1097.7 1021.0, 873.1 1029.1, 940.4 1022.9" stroke="black" fill="none"/><path d="M 940.4 1022.9 C 1050.5 1012.7, 814.8 1307.8, 762.4 1209.9" stroke="black" fill="none"/><path d="M 762.4 1209.9 C 724.4 1138.9, 695.9 1245.0, 617.4 1222.6" stroke="black" fill="none"/><path d="M 617.4 1222.6 C 502.7 1190.0, 673.8 947.5, 817.6 1021.8" stroke="black" fill="none"/><path d="M 817.6 1021.8 C 888.4 1058.4, 650.1 1096.7, 679.0 1045.3" stroke="black" fill="none"/><path d="M 679.0 1045.3 C 724.0 965.0, 424.3 925.8, 495.1 1007.3" stroke="black" fill="none"/><path d="M 495.1 1007.3 C 549.0 1069.3, 594.1 985.4, 691.2 1055.2" stroke="black" fill="none"/><path d="M 691.2 1055.2 C 907.8 1210.9, 618.8 363.0, 755.9 576.2" stroke="black" fill="none"/><path d="M 755.9 576.2 C 794.8 636.7, 869.0 549.3, 919.1 636.3" stroke="black" fill="none"/><path d="M 919.1 636.3 C 983.2 747.6, 639.4 900.5, 767.5 856.0" stroke="black" fill="none"/><path d="M 767.5 856.0 C 844.5 829.3, 670.6 959.4, 731.4 1000.4" stroke="black" fill="none"/><path d="M 731.4 1000.4 C 840.2 1073.8, 783.8 609.8, 828.8 750.4" stroke="black" fill="none"/><path d="M 828.8 750.4 C 863.6 859.0, 550.8 741.1, 609.1 656.8" stroke="black" fill="none"/><path d="M 609.1 656.8 C 678.8 555.9, 730.4 510.5, 810.7 583.0" stroke="black" fill="none"/><path d="M 810.7 583.0 C 893.0 657.2, 780.6 908.8, 854.1 822.2" stroke="black" fill="none"/><path d="M 854.1 822.2 C 957.6 700.1, 523.6 781.9, 622.8 659.4" stroke="black" fill="none"/><path d="M 622.8 659.4 C 700.8 563.0, 756.0 572.5, 852.1 524.3" stroke="black" fill="none"/><path d="M 852.1 524.3 C 926.5 487.0, 832.6 637.6, 903.5 715.4" stroke="black" fill="none"/><path d="M 903.5 715.4 C 959.2 776.4, 867.3 620.0, 909.7 573.5" stroke="black" fill="none"/><path d="M 909.7 573.5 C 965.2 512.6, 731.0 594.6, 743.5 492.1" stroke="black" fill="none"/><path d="M 743.5 492.1 C 755.2 396.4, 675.9 696.4, 577.1 626.2" stroke="black" fill="none"/><path d="M 577.1 626.2 C 461.5 544.2, 871.4 654.4, 824.3 550.5" stroke="black" fill="none"/><path d="M 824.3 550.5 C 774.2 440.3, 725.3 619.6, 592.1 608.3" stroke="black" fill="none"/><path d="M 592.1 608.3 C 503.9 600.9, 784.5 734.9, 693.9 738.8" stroke="black" fill="none"/><path d="M 693.9 738.8 C 614.2 742.3, 927.5 823.7, 836.1 876.3" stroke="black" fill="none"/><path d="M 836.1 876.3 C 693.3 958.6, 504.8 622.9, 656.5 632.4" stroke="black" fill="none"/><path d="M 656.5 632.4 C 741.1 637.7, 671.5 780.1, 746.8 757.3" stroke="black" fill="none"/><path d="M 746.8 757.3 C 816.3 736.3, 868.8 728.0, 878.8 802.4" stroke="black" fill="none"/><path d="M 878.8 802.4 C 900.7 964.3, 530.9 723.7, 608.6 615.6" stroke="black" fill="none"/><path d="M 608.6 615.6 C 653.3 553.5, 662.4 576.4, 734.4 553.9" stroke="black" fill="none"/><path d="M 734.4 553.9 C 856.4 515.6, 841.1 597.3, 934.4 676.6" stroke="black" fill="none"/><path d="M 934.4 676.6 C 1059.1 782.7, 518.0 700.9, 633.5 793.3" stroke="black" fill="none"/><path d="M 633.5 793.3 C 753.1 888.9, 895.2 1058.1, 749.8 1088.6" stroke="black" fill="none"/><path d="M 749.8 1088.6 C 659.8 1107.5, 653.8 951.2, 589.5 998.7" stroke="black" fill="none"/><path d="M 589.5 998.7 C 532.6 1040.9, 438.1 1073.7, 454.4 1015.7" stroke="black" fill="none"/><path d="M 454.4 1015.7 C 477.3 933.6, 722.1 964.3, 649.5 1049.4" stroke="black" fill="none"/><path d="M 649.5 1049.4 C 580.1 1130.8, 471.0 1024.4, 458.4 1104.2" stroke="black" fill="none"/><path d="M 458.4 1104.2 C 443.9 1196.0, 654.9 1114.1, 608.7 1059.3" stroke="black" fill="none"/><path d="M 608.7 1059.3 C 563.2 1005.4, 511.5 1037.1, 462.0 991.2" stroke="black" fill="none"/><path d="M 462.0 991.2 C 411.1 944.1, 453.2 1083.1, 408.6 1125.1" stroke="black" fill="none"/><path d="M 408.6 1125.1 C 308.5 1219.3, 789.4 1152.6, 677.7 1198.7" stroke="black" fill="none"/><path d="M 677.7 1198.7 C 584.0 1237.2, 626.6 1074.2, 530.2 1064.6" stroke="black" fill="none"/><path d="M 530.2 1064.6 C 459.3 1057.6, 687.5 1203.4, 609.7 1192.9" stroke="black" fill="none"/><path d="M 609.7 1192.9 C 493.3 1177.2, 430.1 908.5, 406.4 1047.0" stroke="black" fill="none"/><path d="M 406.4 1047.0 C 393.9 1119.6, 471.7 989.5, 543.9 1013.4" stroke="black" fill="none"/><path d="M 543.9 1013.4 C 638.3 1044.7, 625.9 1258.9, 661.9 1181.2" stroke="black" fill="none"/><path d="M 661.9 1181.2 C 689.7 1121.1, 575.8 1214.4, 518.8 1172.7" stroke="black" fill="none"/><path d="M 518.8 1172.7 C 424.8 1104.0, 409.6 1030.4, 491.6 961.7" stroke="black" fill="none"/><path d="M 491.6 961.7 C 543.1 918.5, 609.6 1070.0, 637.1 1007.0" stroke="black" fill="none"/><path d="M 637.1 1007.0 C 664.0 945.4, 482.9 1010.5, 512.4 1067.5" stroke="black" fill="none"/><path d="M 512.4 1067.5 C 578.2 1194.6, 842.0 1317.7, 830.5 1179.7" stroke="black" fill="none"/><path d="M 830.5 1179.7 C 825.1 1115.2, 756.4 1227.7, 688.9 1222.7" stroke="black" fill="none"/><path d="M 688.9 1222.7 C 600.4 1216.1, 699.7 1062.5, 622.4 1082.8" stroke="black" fill="none"/><path d="M 622.4 1082.8 C 530.5 1107.0, 510.5 985.4, 436.1 1025.0" stroke="black" fill="none"/><path d="M 436.1 1025.0 C 364.5 1063.0, 359.4 1100.5, 358.7 1167.2" stroke="black" fill="none"/><path d="M 358.7 1167.2 C 357.5 1290.4, 463.5 966.3, 570.4 1054.7" stroke="black" fill="none"/><path d="M 570.4 1054.7 C 642.6 1114.4, 432.2 981.8, 380.6 1058.8" stroke="black" fill="none"/><path d="M 380.6 1058.8 C 324.7 1142.1, 478.7 926.1, 551.6 1001.9" stroke="black" fill="none"/><path d="M 551.6 1001.9 C 634.0 1087.6, 428.8 1028.3, 382.6 1151.2" stroke="black" fill="none"/><path d="M 382.6 1151.2 C 320.4 1316.5, 879.7 1093.7, 771.2 1254.6" stroke="black" fill="none"/><path d="M 771.2 1254.6 C 725.1 1322.9, 682.0 1188.5, 631.2 1248.2" stroke="black" fill="none"/><path d="M 631.2 1248.2 C 560.1 1331.6, 566.7 975.9, 515.1 1058.3" stroke="black" fill="none"/><path d="M 515.1 1058.3 C 480.5 1113.5, 551.7 1126.4, 559.4 1200.6" stroke="black" fill="none"/><path d="M 559.4 1200.6 C 567.1 1274.5, 696.3 1121.3, 633.2 1086.2" stroke="black" fill="none"/><path d="M 633.2 1086.2 C 552.8 1041.6, 818.4 1052.1, 779.4 983.3" stroke="black" fill="none"/><path d="M 779.4 983.3 C 745.0 922.8, 679.8 1042.9, 632.6 1006.3" stroke="black" fill="none"/><path d="M 632.6 1006.3 C 563.0 952.3, 552.8 987.6, 458.7 989.9" stroke="black" fill="none"/><path d="M 458.7 989.9 C 388.8 991.6, 367.3 1069.6, 394.0 1144.0" stroke="black" fill="none"/><path d="M 394.0 1144.0 C 417.0 1207.9, 430.4 928.8, 457.6 1003.8" stroke="black" fill="none"/><path d="M 457.6 1003.8 C 495.3 1107.8, 641.1 906.7, 651.4 999.2" stroke="black" fill="none"/><path d="M 651.4 999.2 C 658.8 1065.0, 763.1 931.0, 733.9 873.0" stroke="black" fill="none"/><path d="M 733.9 873.0 C 691.3 788.6, 815.6 666.5, 852.6 755.4" stroke="black" fill="none"/><path d="M 852.6 755.4 C 877.7 815.5, 685.9 662.6, 692.0 757.6" stroke="black" fill="none"/><path d="M 692.0 757.6 C 696.4 825.5, 719.9 670.7, 767.5 643.5" stroke="black" fill="none"/><path d="M 767.5 643.5 C 831.1 607.2, 899.0 581.6, 909.6 645.0" stroke="black" fill="none"/><path d="M 909.6 645.0 C 922.1 719.3, 812.6 476.6, 752.9 557.6" stroke="black" fill="none"/><path d="M 752.9 557.6 C 641.9 708.3, 870.3 1128.4, 754.3 971.7" stroke="black" fill="none"/><path d="M 754.3 971.7 C 703.9 903.6, 708.6 1018.4, 625.6 1061.5" stroke="black" fill="none"/><path d="M 625.6 1061.5 C 529.8 1111.2, 616.8 1243.9, 710.3 1258.0" stroke="black" fill="none"/><path d="M 710.3 1258.0 C 811.7 1273.3, 883.3 1022.7, 936.9 1140.7" stroke="black" fill="none"/><path d="M 936.9 1140.7 C 976.5 1227.8, 1169.3 1040.4, 1075.8 1010.5" stroke="black" fill="none"/><path d="M 1075.8 1010.5 C 1020.6 992.9, 1158.5 1077.6, 1141.1 1130.8" stroke="black" fill="none"/><path d="M 1141.1 1130.8 C 1112.7 1218.0, 957.0 1052.6, 951.4 1152.5" stroke="black" fill="none"/><path d="M 951.4 1152.5 C 947.3 1225.6, 1008.5 1108.4, 1054.9 1064.4" stroke="black" fill="none"/><path d="M 1054.9 1064.4 C 1125.6 997.4, 923.8 1087.0, 879.5 1008.0" stroke="black" fill="none"/><path d="M 879.5 1008.0 C 843.3 943.4, 984.6 1032.9, 1012.9 975.9" stroke="black" fill="none"/><path d="M 1012.9 975.9 C 1052.5 896.3, 1108.7 1022.2, 1160.4 1138.6" stroke="black" fill="none"/><path d="M 1160.4 1138.6 C 1233.8 1303.6, 757.4 920.7, 795.7 1112.3" stroke="black" fill="none"/><path d="M 795.7 1112.3 C 811.0 1188.9, 770.9 1209.1, 713.8 1222.5" stroke="black" fill="none"/><path d="M 713.8 1222.5 C 647.6 1238.0, 577.2 1242.1, 553.5 1179.9" stroke="black" fill="none"/><path d="M 553.5 1179.9 C 520.2 1092.4, 404.4 1151.7, 398.4 1071.7" stroke="black" fill="none"/><path d="M 398.4 1071.7 C 392.2 990.2, 573.1 1006.2, 500.4 977.7" stroke="black" fill="none"/><path d="M 500.4 977.7 C 426.2 948.6, 412.8 1162.3, 482.3 1136.6" stroke="black" fill="none"/><path d="M 482.3 1136.6 C 582.4 1099.5, 628.8 1322.5, 712.7 1242.8" stroke="black" fill="none"/><path d="M 712.7 1242.8 C 770.5 1187.8, 887.2 1112.3, 905.2 1205.6" stroke="black" fill="none"/><path d="M 905.2 1205.6 C 919.9 1282.5, 733.6 1173.2, 745.0 1270.7" stroke="black" fill="none"/><path d="M 745.0 1270.7 C 753.7 1345.3, 930.0 1200.8, 858.2 1142.5" stroke="black" fill="none"/><path d="M 858.2 1142.5 C 786.1 1083.9, 1014.0 1003.7, 938.1 986.7" stroke="black" fill="none"/><path d="M 938.1 986.7 C 866.4 970.6, 852.4 1169.0, 921.9 1130.7" stroke="black" fill="none"/><path d="M 921.9 1130.7 C 998.0 1088.9, 954.0 1031.5, 931.2 967.8" stroke="black" fill="none"/><path d="M 931.2 967.8 C 826.4 675.3, 699.2 1207.6, 396.5 1121.4" stroke="black" fill="none"/><path d="M 396.5 1121.4 C 290.4 1091.3, 478.3 1005.6, 638.2 999.9" stroke="black" fill="none"/><path d="M 638.2 999.9 C 819.8 993.5, 523.4 511.8, 683.0 618.0" stroke="black" fill="none"/><path d="M 683.0 618.0 C 763.0 671.3, 741.0 514.5, 827.7 535.0" stroke="black" fill="none"/><path d="M 827.7 535.0 C 934.8 560.5, 572.5 570.7, 612.1 666.4" stroke="black" fill="none"/><path d="M 612.1 666.4 C 639.2 731.7, 661.8 837.9, 710.5 776.6" stroke="black" fill="none"/><path d="M 710.5 776.6 C 787.7 679.2, 563.9 592.5, 651.7 551.2" stroke="black" fill="none"/><path d="M 651.7 551.2 C 730.4 514.1, 743.2 544.2, 814.1 589.0" stroke="black" fill="none"/><path d="M 814.1 589.0 C 881.6 631.7, 900.9 651.1, 900.4 740.7" stroke="black" fill="none"/><path d="M 900.4 740.7 C 898.4 1082.7, 516.0 1098.3, 700.0 1292.7" stroke="black" fill="none"/><path d="M 700.0 1292.7 C 768.6 1365.2, 850.8 1094.9, 864.7 1192.8" stroke="black" fill="none"/><path d="M 864.7 1192.8 C 880.1 1302.3, 897.6 942.1, 1000.1 984.5" stroke="black" fill="none"/><path d="M 1000.1 984.5 C 1085.1 1019.7, 864.6 1197.1, 945.7 1146.8" stroke="black" fill="none"/><path d="M 945.7 1146.8 C 1015.0 1103.8, 1023.6 1104.1, 1095.0 1153.5" stroke="black" fill="none"/><path d="M 1095.0 1153.5 C 1163.3 1200.8, 1131.1 1009.6, 1072.2 1011.1" stroke="black" fill="none"/><path d="M 1072.2 1011.1 C 1003.1 1012.8, 1034.1 1155.1, 966.5 1127.0" stroke="black" fill="none"/><path d="M 966.5 1127.0 C 850.5 1078.7, 825.8 1193.5, 703.7 1199.1" stroke="black" fill="none"/><path d="M 703.7 1199.1 C 623.0 1202.8, 618.9 1107.1, 535.3 1124.1" stroke="black" fill="none"/><path d="M 535.3 1124.1 C 467.8 1137.8, 567.1 976.4, 496.3 974.6" stroke="black" fill="none"/><path d="M 496.3 974.6 C 329.2 970.5, 680.8 1030.8, 724.3 1205.1" stroke="black" fill="none"/><path d="M 724.3 1205.1 C 745.4 1289.7, 799.0 1128.6, 870.1 1151.2" stroke="black" fill="none"/><path d="M 870.1 1151.2 C 927.1 1169.4, 946.1 1153.6, 993.1 1089.2" stroke="black" fill="none"/><path d="M 993.1 1089.2 C 1076.2 975.2, 806.8 993.5, 686.3 1042.1" stroke="black" fill="none"/><path d="M 686.3 1042.1 C 614.2 1071.2, 609.0 985.3, 534.7 1020.8" stroke="black" fill="none"/><path d="M 534.7 1020.8 C 477.8 1048.1, 576.3 1146.1, 643.3 1112.9" stroke="black" fill="none"/><path d="M 643.3 1112.9 C 738.7 1065.7, 785.1 1042.3, 803.0 953.6" stroke="black" fill="none"/><path d="M 803.0 953.6 C 823.3 853.7, 621.8 731.6, 727.8 738.3" stroke="black" fill="none"/><path d="M 727.8 738.3 C 837.6 745.3, 935.0 580.7, 826.8 531.7" stroke="black" fill="none"/><path d="M 826.8 531.7 C 755.2 499.3, 681.2 664.3, 699.0 585.2" stroke="black" fill="none"/><path d="M 699.0 585.2 C 721.6 484.9, 814.8 556.1, 872.8 617.2" stroke="black" fill="none"/><path d="M 872.8 617.2 C 969.3 719.1, 544.9 846.6, 603.9 717.8" stroke="black" fill="none"/><path d="M 603.9 717.8 C 660.3 594.8, 785.9 437.9, 769.2 554.9" stroke="black" fill="none"/><path d="M 769.2 554.9 C 751.3 681.0, 484.8 787.6, 640.4 800.8" stroke="black" fill="none"/><path d="M 640.4 800.8 C 785.7 813.2, 589.0 645.9, 668.4 554.5" stroke="black" fill="none"/><path d="M 668.4 554.5 C 753.6 456.5, 502.4 826.9, 646.6 845.9" stroke="black" fill="none"/><path d="M 646.6 845.9 C 808.3 867.2, 765.7 1084.7, 604.6 1185.1" stroke="black" fill="none"/><path d="M 604.6 1185.1 C 523.9 1235.4, 455.1 1031.9, 445.9 1114.8" stroke="black" fill="none"/><path d="M 445.9 1114.8 C 434.0 1222.0, 709.2 1131.5, 626.9 1052.7" stroke="black" fill="none"/><path d="M 626.9 1052.7 C 456.6 889.6, 1155.6 1271.8, 1145.0 1043.6" stroke="black" fill="none"/><path d="M 1145.0 1043.6 C 1139.0 913.6, 955.9 906.7, 903.1 1023.3" stroke="black" fill="none"/><path d="M 903.1 1023.3 C 849.1 1142.8, 1087.4 912.8, 1152.8 1048.1" stroke="black" fill="none"/><path d="M 1152.8 1048.1 C 1181.2 1106.9, 1035.8 1028.6, 1008.8 1084.4" stroke="black" fill="none"/><path d="M 1008.8 1084.4 C 969.6 1165.6, 1106.7 987.4, 1163.8 1031.6" stroke="black" fill="none"/><path d="M 1163.8 1031.6 C 1238.4 1089.2, 944.7 1247.2, 960.3 1120.2" stroke="black" fill="none"/><path d="M 960.3 1120.2 C 971.0 1032.8, 814.3 1012.1, 785.0 1091.2" stroke="black" fill="none"/><path d="M 785.0 1091.2 C 744.9 1199.4, 1096.3 1132.1, 995.7 1057.9" stroke="black" fill="none"/><path d="M 995.7 1057.9 C 937.9 1015.3, 1065.2 933.9, 1117.3 980.6" stroke="black" fill="none"/><path d="M 1117.3 980.6 C 1163.5 1022.1, 1047.9 1109.4, 1127.5 1118.0" stroke="black" fill="none"/><path d="M 1127.5 1118.0 C 1200.8 1125.8, 1086.4 1019.6, 1098.0 939.6" stroke="black" fill="none"/><path d="M 1098.0 939.6 C 1108.3 869.0, 951.9 1054.9, 939.1 975.7" stroke="black" fill="none"/><path d="M 939.1 975.7 C 929.1 913.8, 892.5 1098.1, 831.5 1077.4" stroke="black" fill="none"/><path d="M 831.5 1077.4 C 753.7 1051.1, 812.5 827.5, 738.1 895.3" stroke="black" fill="none"/><path d="M 738.1 895.3 C 689.0 940.0, 757.7 773.5, 698.3 750.8" stroke="black" fill="none"/><path d="M 698.3 750.8 C 616.6 719.5, 571.1 693.7, 604.2 597.7" stroke="black" fill="none"/><path d="M 604.2 597.7 C 631.8 517.9, 754.9 732.7, 676.4 770.2" stroke="black" fill="none"/><path d="M 676.4 770.2 C 545.1 832.9, 672.8 644.0, 601.8 530.7" stroke="black" fill="none"/><path d="M 601.8 530.7 C 526.4 410.4, 857.4 720.0, 915.2 556.3" stroke="black" fill="none"/><path d="M 915.2 556.3 C 941.0 483.2, 741.9 706.5, 735.7 628.8" stroke="black" fill="none"/><path d="M 735.7 628.8 C 729.9 556.1, 830.8 524.9, 885.5 573.7" stroke="black" fill="none"/><path d="M 885.5 573.7 C 981.4 659.1, 707.1 489.9, 674.3 611.7" stroke="black" fill="none"/><path d="M 674.3 611.7 C 643.5 726.4, 906.4 739.2, 802.7 790.6" stroke="black" fill="none"/><path d="M 802.7 790.6 C 674.3 854.1, 636.1 471.0, 623.9 587.2" stroke="black" fill="none"/><path d="M 623.9 587.2 C 612.2 698.0, 739.0 489.4, 881.7 545.1" stroke="black" fill="none"/><path d="M 881.7 545.1 C 972.2 580.4, 731.9 756.5, 827.9 736.0" stroke="black" fill="none"/><path d="M 827.9 736.0 C 891.4 722.4, 688.6 878.2, 772.2 869.2" stroke="black" fill="none"/><path d="M 772.2 869.2 C 843.6 861.5, 781.8 1082.8, 810.1 1014.8" stroke="black" fill="none"/><path d="M 810.1 1014.8 C 843.7 934.2, 643.8 1066.1, 662.5 996.5" stroke="black" fill="none"/><path d="M 662.5 996.5 C 698.7 861.8, 1027.3 1154.5, 874.7 1219.7" stroke="black" fill="none"/><path d="M 874.7 1219.7 C 792.0 1255.1, 852.1 1052.9, 942.7 1059.6" stroke="black" fill="none"/><path d="M 942.7 1059.6 C 1012.1 1064.7, 791.9 1185.3, 869.1 1196.1" stroke="black" fill="none"/><path d="M 869.1 1196.1 C 934.8 1205.3, 1023.0 1092.6, 997.9 1149.7" stroke="black" fill="none"/><path d="M 997.9 1149.7 C 971.3 1210.4, 898.7 957.2, 895.6 1028.0" stroke="black" fill="none"/><path d="M 895.6 1028.0 C 891.3 1125.7, 980.1 924.0, 1046.1 961.4" stroke="black" fill="none"/><path d="M 1046.1 961.4 C 1128.7 1008.3, 912.7 960.5, 874.8 1074.8" stroke="black" fill="none"/><path d="M 874.8 1074.8 C 833.1 1200.4, 742.8 1167.4, 631.0 1225.7" stroke="black" fill="none"/><path d="M 631.0 1225.7 C 538.6 1273.9, 792.7 916.3, 686.5 976.2" stroke="black" fill="none"/><path d="M 686.5 976.2 C 594.6 1028.2, 549.9 1021.4, 454.6 969.7" stroke="black" fill="none"/><path d="M 454.6 969.7 C 365.0 921.3, 594.4 1143.6, 480.0 1181.8" stroke="black" fill="none"/><path d="M 480.0 1181.8 C 405.6 1206.6, 595.4 1012.6, 533.2 1036.0" stroke="black" fill="none"/><path d="M 533.2 1036.0 C 471.6 1059.2, 746.1 1024.1, 690.7 1079.7" stroke="black" fill="none"/><path d="M 690.7 1079.7 C 631.0 1139.6, 547.4 917.7, 551.3 988.3" stroke="black" fill="none"/><path d="M 551.3 988.3 C 555.1 1058.5, 729.9 1021.2, 680.4 1066.6" stroke="black" fill="none"/><path d="M 680.4 1066.6 C 555.3 1181.6, 395.4 924.9, 377.7 1072.2" stroke="black" fill="none"/><path d="M 377.7 1072.2 C 363.5 1190.7, 465.9 1033.4, 588.5 984.0" stroke="black" fill="none"/><path d="M 588.5 984.0 C 663.0 953.9, 759.4 1076.9, 777.8 972.5" stroke="black" fill="none"/><path d="M 777.8 972.5 C 793.2 884.9, 655.0 759.2, 744.9 766.5" stroke="black" fill="none"/><path d="M 744.9 766.5 C 851.2 775.1, 982.7 577.2, 867.2 604.0" stroke="black" fill="none"/><path d="M 867.2 604.0 C 600.0 666.1, 801.8 1097.3, 576.5 1039.6" stroke="black" fill="none"/><path d="M 576.5 1039.6 C 493.6 1018.4, 488.3 1062.2, 388.2 1139.0" stroke="black" fill="none"/><path d="M 388.2 1139.0 C 319.1 1192.0, 634.8 1116.0, 564.1 1167.0" stroke="black" fill="none"/><path d="M 564.1 1167.0 C 465.2 1238.2, 721.4 1219.6, 840.7 1208.2" stroke="black" fill="none"/><path d="M 840.7 1208.2 C 952.2 1197.5, 998.5 1210.6, 1055.5 1108.1" stroke="black" fill="none"/><path d="M 1055.5 1108.1 C 1143.1 950.6, 885.6 1052.9, 760.8 940.9" stroke="black" fill="none"/><path d="M 760.8 940.9 C 703.0 889.0, 817.9 868.9, 887.0 864.7" stroke="black" fill="none"/><path d="M 887.0 864.7 C 1081.4 852.9, 323.6 1167.7, 562.5 1191.5" stroke="black" fill="none"/><path d="M 562.5 1191.5 C 690.3 1204.2, 654.6 980.3, 549.7 972.1" stroke="black" fill="none"/><path d="M 549.7 972.1 C 481.1 966.7, 486.2 1022.7, 467.6 1095.6" stroke="black" fill="none"/><path d="M 467.6 1095.6 C 445.6 1181.8, 536.9 945.7, 655.8 982.3" stroke="black" fill="none"/><path d="M 655.8 982.3 C 716.0 1000.8, 769.5 952.0, 769.5 884.3" stroke="black" fill="none"/><path d="M 769.5 884.3 C 769.6 720.0, 685.7 788.6, 593.2 636.5" stroke="black" fill="none"/><path d="M 593.2 636.5 C 555.4 574.4, 826.2 589.2, 756.2 557.7" stroke="black" fill="none"/><path d="M 756.2 557.7 C 662.3 515.2, 552.6 640.9, 625.8 706.1" stroke="black" fill="none"/><path d="M 625.8 706.1 C 699.1 771.5, 854.2 700.5, 804.4 765.2" stroke="black" fill="none"/><path d="M 804.4 765.2 C 755.1 829.5, 700.8 904.3, 672.6 845.1" stroke="black" fill="none"/><path d="M 672.6 845.1 C 597.4 686.8, 560.7 621.0, 672.1 532.0" stroke="black" fill="none"/><path d="M 672.1 532.0 C 775.0 449.7, 810.2 582.2, 903.5 632.6" stroke="black" fill="none"/><path d="M 903.5 632.6 C 986.2 677.3, 758.2 751.2, 835.5 829.4" stroke="black" fill="none"/><path d="M 835.5 829.4 C 897.6 892.3, 765.4 908.9, 674.7 885.2" stroke="black" fill="none"/><path d="M 674.7 885.2 C 593.1 863.9, 646.1 696.1, 587.3 757.2" stroke="black" fill="none"/><path d="M 587.3 757.2 C 537.7 808.7, 794.0 704.9, 739.5 774.1" stroke="black" fill="none"/><path d="M 739.5 774.1 C 672.2 859.4, 538.4 604.3, 636.9 573.7" stroke="black" fill="none"/><path d="M 636.9 573.7 C 730.4 544.7, 739.6 844.1, 746.3 746.4" stroke="black" fill="none"/><path d="M 746.3 746.4 C 752.5 656.1, 771.2 458.6, 689.3 547.2" stroke="black" fill="none"/><path d="M 689.3 547.2 C 625.9 615.8, 931.9 510.3, 894.4 598.8" stroke="black" fill="none"/><path d="M 894.4 598.8 C 865.1 667.9, 806.0 519.8, 760.8 561.7" stroke="black" fill="none"/><path d="M 760.8 561.7 C 611.6 699.9, 721.4 1262.8, 870.0 1056.5" stroke="black" fill="none"/><path d="M 870.0 1056.5 C 933.0 968.9, 1165.5 887.7, 1129.6 994.9" stroke="black" fill="none"/><path d="M 1129.6 994.9 C 1104.4 1070.3, 974.4 991.9, 1002.3 1052.8" stroke="black" fill="none"/><path d="M 1002.3 1052.8 C 1037.1 1129.0, 822.6 1123.1, 861.1 1078.1" stroke="black" fill="none"/><path d="M 861.1 1078.1 C 940.2 986.0, 1059.4 888.5, 1080.9 1011.1" stroke="black" fill="none"/><path d="M 1080.9 1011.1 C 1096.7 1100.9, 999.9 1087.5, 1010.3 1157.1" stroke="black" fill="none"/><path d="M 1010.3 1157.1 C 1027.1 1269.7, 807.9 1128.9, 798.1 1220.7" stroke="black" fill="none"/><path d="M 798.1 1220.7 C 780.2 1388.6, 970.6 857.6, 1018.6 1008.5" stroke="black" fill="none"/><path d="M 1018.6 1008.5 C 1044.0 1088.4, 951.1 1101.4, 874.8 1113.0" stroke="black" fill="none"/><path d="M 874.8 1113.0 C 798.4 1124.7, 714.7 1008.1, 707.3 1078.7" stroke="black" fill="none"/><path d="M 707.3 1078.7 C 688.2 1260.6, 396.2 1238.5, 397.2 1072.9" stroke="black" fill="none"/><path d="M 397.2 1072.9 C 397.8 974.1, 569.0 1293.1, 565.2 1200.6" stroke="black" fill="none"/><path d="M 565.2 1200.6 C 561.7 1113.4, 508.2 1064.9, 407.1 1051.4" stroke="black" fill="none"/><path d="M 407.1 1051.4 C 307.8 1038.1, 582.9 1223.0, 498.5 1196.4" stroke="black" fill="none"/><path d="M 498.5 1196.4 C 419.5 1171.5, 427.8 1051.4, 389.9 1106.5" stroke="black" fill="none"/><path d="M 389.9 1106.5 C 346.9 1169.2, 536.5 1118.2, 507.7 1174.9" stroke="black" fill="none"/><path d="M 507.7 1174.9 C 446.4 1295.7, 853.8 1203.5, 745.8 1292.0" stroke="black" fill="none"/><path d="M 745.8 1292.0 C 666.5 1357.1, 705.4 1079.3, 636.3 1146.4" stroke="black" fill="none"/><path d="M 636.3 1146.4 C 586.2 1195.0, 546.0 1037.3, 490.8 1093.8" stroke="black" fill="none"/><path d="M 490.8 1093.8 C 445.6 1140.1, 566.6 1121.6, 624.3 1150.0" stroke="black" fill="none"/><path d="M 624.3 1150.0 C 707.3 1190.8, 637.7 1053.6, 580.2 991.3" stroke="black" fill="none"/><path d="M 580.2 991.3 C 528.2 934.9, 612.6 1153.2, 540.1 1137.6" stroke="black" fill="none"/><path d="M 540.1 1137.6 C 480.2 1124.8, 487.2 1102.8, 419.1 1063.2" stroke="black" fill="none"/><path d="M 419.1 1063.2 C 269.3 976.2, 700.7 1111.9, 699.9 978.6" stroke="black" fill="none"/><path d="M 699.9 978.6 C 699.4 906.7, 816.3 1024.0, 786.5 1083.4" stroke="black" fill="none"/><path d="M 786.5 1083.4 C 753.7 1148.8, 860.1 1189.4, 918.4 1130.7" stroke="black" fill="none"/><path d="M 918.4 1130.7 C 983.9 1064.7, 919.0 911.6, 971.3 981.5" stroke="black" fill="none"/><path d="M 971.3 981.5 C 1035.3 1067.2, 924.6 1151.9, 1023.4 1153.3" stroke="black" fill="none"/><path d="M 1023.4 1153.3 C 1091.1 1154.2, 1060.5 1075.3, 1142.4 1082.1" stroke="black" fill="none"/><path d="M 1142.4 1082.1 C 1206.9 1087.5, 1137.5 1017.6, 1098.0 944.0" stroke="black" fill="none"/><path d="M 1098.0 944.0 C 1062.9 878.8, 1136.5 1083.7, 1076.9 1081.5" stroke="black" fill="none"/><path d="M 1076.9 1081.5 C 1003.6 1078.7, 974.7 1223.9, 949.6 1165.6" stroke="black" fill="none"/><path d="M 949.6 1165.6 C 919.1 1094.7, 959.8 1078.7, 1013.0 1043.3" stroke="black" fill="none"/><path d="M 1013.0 1043.3 C 1073.7 1003.1, 1109.7 1196.3, 1148.6 1139.4" stroke="black" fill="none"/><path d="M 1148.6 1139.4 C 1187.5 1082.4, 1116.2 1033.2, 1164.0 999.6" stroke="black" fill="none"/><path d="M 1164.0 999.6 C 1228.3 954.2, 967.6 906.0, 1013.2 965.6" stroke="black" fill="none"/><path d="M 1013.2 965.6 C 1047.2 1010.1, 1120.2 932.6, 1149.0 980.5" stroke="black" fill="none"/><path d="M 1149.0 980.5 C 1204.7 1073.4, 1048.4 900.4, 954.1 963.5" stroke="black" fill="none"/><path d="M 954.1 963.5 C 798.3 1067.7, 859.2 1124.5, 907.4 1279.6" stroke="black" fill="none"/><path d="M 907.4 1279.6 C 954.7 1431.5, 930.7 931.4, 1107.1 948.4" stroke="black" fill="none"/><path d="M 1107.1 948.4 C 1174.3 954.9, 1059.5 1146.4, 1043.2 1074.1" stroke="black" fill="none"/><path d="M 1043.2 1074.1 C 1008.8 922.3, 914.5 988.4, 745.1 1004.3" stroke="black" fill="none"/><path d="M 745.1 1004.3 C 658.3 1012.5, 740.4 876.3, 706.7 797.1" stroke="black" fill="none"/><path d="M 706.7 797.1 C 679.5 733.3, 883.4 780.9, 838.8 742.0" stroke="black" fill="none"/><path d="M 838.8 742.0 C 750.6 665.1, 957.2 965.5, 811.6 991.1" stroke="black" fill="none"/><path d="M 811.6 991.1 C 732.9 1004.9, 880.0 1156.4, 821.5 1141.2" stroke="black" fill="none"/><path d="M 821.5 1141.2 C 746.3 1121.7, 841.5 967.4, 787.6 999.0" stroke="black" fill="none"/><path d="M 787.6 999.0 C 712.9 1042.7, 682.6 773.7, 680.3 868.9" stroke="black" fill="none"/><path d="M 680.3 868.9 C 678.1 960.9, 852.9 774.0, 833.1 834.2" stroke="black" fill="none"/><path d="M 833.1 834.2 C 800.3 933.9, 743.8 850.7, 674.9 940.0" stroke="black" fill="none"/><path d="M 674.9 940.0 C 493.3 1175.2, 1023.6 974.0, 1120.8 1162.5" stroke="black" fill="none"/><path d="M 1120.8 1162.5 C 1159.5 1237.6, 1081.2 1000.5, 1167.7 1016.1" stroke="black" fill="none"/><path d="M 1167.7 1016.1 C 1251.7 1031.3, 987.5 1055.9, 1024.8 1172.9" stroke="black" fill="none"/><path d="M 1024.8 1172.9 C 1050.2 1252.4, 1038.1 1076.5, 1113.8 1061.1" stroke="black" fill="none"/><path d="M 1113.8 1061.1 C 1223.1 1038.9, 963.4 903.1, 943.8 982.6" stroke="black" fill="none"/><path d="M 943.8 982.6 C 915.2 1098.9, 1147.7 952.8, 1134.1 1058.9" stroke="black" fill="none"/><path d="M 1134.1 1058.9 C 1121.3 1159.2, 885.5 1144.1, 975.6 1163.8" stroke="black" fill="none"/><path d="M 975.6 1163.8 C 1090.2 1189.0, 932.0 1077.8, 904.4 976.3" stroke="black" fill="none"/><path d="M 904.4 976.3 C 860.0 812.9, 461.1 857.5, 631.5 722.3" stroke="black" fill="none"/><path d="M 631.5 722.3 C 752.5 626.3, 711.4 842.7, 757.5 958.7" stroke="black" fill="none"/><path d="M 757.5 958.7 C 801.1 1068.3, 556.3 1052.2, 636.3 1114.8" stroke="black" fill="none"/><path d="M 636.3 1114.8 C 697.7 1162.8, 543.1 1204.1, 569.2 1265.4" stroke="black" fill="none"/><path d="M 569.2 1265.4 C 613.9 1370.6, 801.4 1096.9, 775.2 1208.0" stroke="black" fill="none"/><path d="M 775.2 1208.0 C 749.8 1316.0, 925.7 1158.5, 976.3 1246.8" stroke="black" fill="none"/><path d="M 976.3 1246.8 C 1005.1 1296.9, 979.8 1173.6, 1016.0 1115.3" stroke="black" fill="none"/><path d="M 1016.0 1115.3 C 1103.2 975.2, 640.6 1324.9, 673.6 1167.9" stroke="black" fill="none"/><path d="M 673.6 1167.9 C 689.9 1090.4, 474.8 1109.0, 553.2 1055.9" stroke="black" fill="none"/><path d="M 553.2 1055.9 C 634.3 1001.0, 640.0 1302.4, 534.4 1284.5" stroke="black" fill="none"/><path d="M 534.4 1284.5 C 426.0 1266.2, 414.2 952.2, 374.8 1062.5" stroke="black" fill="none"/><path d="M 374.8 1062.5 C 257.2 1392.1, 1260.7 717.1, 1053.1 1031.1" stroke="black" fill="none"/><path d="M 1053.1 1031.1 C 963.0 1167.3, 846.3 1348.8, 828.4 1208.0" stroke="black" fill="none"/><path d="M 828.4 1208.0 C 817.5 1122.7, 880.7 1122.9, 946.8 1125.7" stroke="black" fill="none"/><path d="M 946.8 1125.7 C 1059.4 1130.3, 1072.5 1137.8, 1131.9 1070.4" stroke="black" fill="none"/><path d="M 1131.9 1070.4 C 1280.3 901.9, 657.6 1074.5, 690.1 851.2" stroke="black" fill="none"/><path d="M 690.1 851.2 C 702.5 766.4, 784.7 903.2, 844.1 878.8" stroke="black" fill="none"/><path d="M 844.1 878.8 C 941.0 839.0, 619.1 764.6, 700.1 759.7" stroke="black" fill="none"/><path d="M 700.1 759.7 C 847.9 750.9, 968.9 644.5, 854.2 542.2" stroke="black" fill="none"/><path d="M 854.2 542.2 C 802.3 495.9, 655.3 530.2, 712.2 568.9" stroke="black" fill="none"/><path d="M 712.2 568.9 C 768.5 607.3, 941.9 556.1, 862.3 513.7" stroke="black" fill="none"/><path d="M 862.3 513.7 C 769.8 464.5, 982.9 765.8, 905.9 723.8" stroke="black" fill="none"/><path d="M 905.9 723.8 C 846.9 691.6, 952.8 598.0, 868.6 578.8" stroke="black" fill="none"/><path d="M 868.6 578.8 C 793.4 561.7, 645.9 535.6, 708.0 610.5" stroke="black" fill="none"/><path d="M 708.0 610.5 C 795.0 715.4, 687.0 753.8, 670.7 858.3" stroke="black" fill="none"/><path d="M 670.7 858.3 C 654.2 964.2, 809.0 986.9, 722.2 1072.4" stroke="black" fill="none"/><path d="M 722.2 1072.4 C 667.2 1126.5, 597.8 1199.2, 680.6 1215.2" stroke="black" fill="none"/><path d="M 680.6 1215.2 C 753.2 1229.3, 580.6 1109.0, 633.3 1086.5" stroke="black" fill="none"/><path d="M 633.3 1086.5 C 825.9 1004.1, 816.8 1129.4, 1058.5 1235.2" stroke="black" fill="none"/><path d="M 1058.5 1235.2 C 1193.5 1294.2, 969.6 862.7, 1109.4 945.6" stroke="black" fill="none"/><path d="M 1109.4 945.6 C 1183.0 989.3, 991.0 930.4, 969.1 992.4" stroke="black" fill="none"/><path d="M 969.1 992.4 C 936.7 1083.9, 1050.8 1070.4, 1147.1 1063.5" stroke="black" fill="none"/><path d="M 1147.1 1063.5 C 1246.4 1056.4, 1082.7 1187.2, 989.0 1206.3" stroke="black" fill="none"/><path d="M 989.0 1206.3 C 891.0 1226.3, 1180.9 1132.0, 1101.0 1076.4" stroke="black" fill="none"/><path d="M 1101.0 1076.4 C 1020.7 1020.5, 851.2 1044.8, 913.8 1110.4" stroke="black" fill="none"/><path d="M 913.8 1110.4 C 1013.1 1214.3, 769.5 1212.8, 628.3 1201.1" stroke="black" fill="none"/><path d="M 628.3 1201.1 C 511.0 1191.3, 481.6 1108.9, 467.8 963.0" stroke="black" fill="none"/><path d="M 467.8 963.0 C 450.5 780.5, 694.3 1448.3, 762.2 1251.2" stroke="black" fill="none"/><path d="M 762.2 1251.2 C 788.0 1176.4, 579.0 1169.0, 626.6 1226.4" stroke="black" fill="none"/><path d="M 626.6 1226.4 C 667.1 1275.0, 548.1 1195.6, 471.9 1204.5" stroke="black" fill="none"/><path d="M 471.9 1204.5 C 375.6 1215.7, 392.4 1004.4, 477.4 1012.7" stroke="black" fill="none"/><path d="M 477.4 1012.7 C 557.6 1020.7, 544.2 1075.7, 575.4 1135.7" stroke="black" fill="none"/><path d="M 575.4 1135.7 C 682.5 1341.9, 787.7 1162.7, 991.0 1136.4" stroke="black" fill="none"/><path d="M 991.0 1136.4 C 1073.2 1125.8, 1055.7 991.9, 1121.5 1034.0" stroke="black" fill="none"/><path d="M 1121.5 1034.0 C 1229.6 1103.0, 1004.0 1189.5, 878.6 1175.6" stroke="black" fill="none"/><path d="M 878.6 1175.6 C 801.7 1167.1, 777.8 1260.0, 723.6 1217.2" stroke="black" fill="none"/><path d="M 723.6 1217.2 C 635.6 1147.7, 444.5 1119.2, 484.8 1208.4" stroke="black" fill="none"/><path d="M 484.8 1208.4 C 537.1 1323.8, 899.3 1218.7, 766.9 1275.4" stroke="black" fill="none"/><path d="M 766.9 1275.4 C 613.6 1340.9, 1016.5 1029.5, 879.0 1006.4" stroke="black" fill="none"/><path d="M 879.0 1006.4 C 776.7 989.2, 876.8 673.3, 816.2 766.9" stroke="black" fill="none"/><path d="M 816.2 766.9 C 757.5 857.7, 580.1 590.9, 684.7 570.7" stroke="black" fill="none"/><path d="M 684.7 570.7 C 768.8 554.4, 854.4 525.4, 860.7 600.7" stroke="black" fill="none"/><path d="M 860.7 600.7 C 866.0 663.4, 775.6 504.6, 726.2 560.6" stroke="black" fill="none"/><path d="M 726.2 560.6 C 590.9 714.2, 842.7 839.2, 789.1 1064.6" stroke="black" fill="none"/><path d="M 789.1 1064.6 C 771.4 1139.1, 847.1 995.7, 944.9 969.7" stroke="black" fill="none"/><path d="M 944.9 969.7 C 1029.7 947.2, 1140.8 921.6, 1109.3 994.7" stroke="black" fill="none"/><path d="M 1109.3 994.7 C 1037.2 1162.4, 991.6 1313.0, 878.1 1215.4" stroke="black" fill="none"/><path d="M 878.1 1215.4 C 810.8 1157.5, 929.6 1108.5, 878.4 1062.2" stroke="black" fill="none"/><path d="M 878.4 1062.2 C 829.1 1017.7, 838.1 1237.8, 776.1 1178.7" stroke="black" fill="none"/><path d="M 776.1 1178.7 C 717.1 1122.4, 985.5 1116.2, 929.2 1062.5" stroke="black" fill="none"/><path d="M 929.2 1062.5 C 870.7 1006.8, 1112.3 1080.2, 1081.1 986.8" stroke="black" fill="none"/><path d="M 1081.1 986.8 C 1023.2 813.5, 700.6 1236.6, 739.5 1081.2" stroke="black" fill="none"/><path d="M 739.5 1081.2 C 758.9 1003.5, 510.3 1036.5, 592.9 1003.6" stroke="black" fill="none"/><path d="M 592.9 1003.6 C 660.1 976.8, 770.1 1085.9, 744.7 1005.8" stroke="black" fill="none"/><path d="M 744.7 1005.8 C 710.6 898.1, 916.2 885.7, 822.3 823.2" stroke="black" fill="none"/><path d="M 822.3 823.2 C 751.5 776.1, 951.0 679.7, 886.6 681.2" stroke="black" fill="none"/><path d="M 886.6 681.2 C 763.8 684.1, 656.2 900.5, 764.9 887.7" stroke="black" fill="none"/><path d="M 764.9 887.7 C 947.4 866.3, 935.2 674.3, 843.7 539.8" stroke="black" fill="none"/><path d="M 843.7 539.8 C 790.5 461.5, 707.5 695.9, 801.5 727.6" stroke="black" fill="none"/><path d="M 801.5 727.6 C 870.0 750.7, 741.7 803.8, 668.0 776.2" stroke="black" fill="none"/><path d="M 668.0 776.2 C 534.5 726.3, 661.3 585.8, 768.3 476.3" stroke="black" fill="none"/><path d="M 768.3 476.3 C 848.9 393.9, 927.1 780.8, 925.2 648.0" stroke="black" fill="none"/><path d="M 925.2 648.0 C 923.2 505.8, 489.2 583.6, 628.6 684.4" stroke="black" fill="none"/><path d="M 628.6 684.4 C 751.1 772.9, 843.8 453.5, 881.2 594.0" stroke="black" fill="none"/><path d="M 881.2 594.0 C 906.1 687.4, 707.4 467.1, 726.9 538.2" stroke="black" fill="none"/><path d="M 726.9 538.2 C 748.6 617.0, 863.6 527.5, 878.2 612.8" stroke="black" fill="none"/><path d="M 878.2 612.8 C 938.8 967.9, 353.2 1028.8, 602.9 1261.6" stroke="black" fill="none"/><path d="M 602.9 1261.6 C 667.4 1321.7, 667.3 1223.7, 754.0 1245.6" stroke="black" fill="none"/><path d="M 754.0 1245.6 C 892.7 1280.6, 886.2 1182.4, 1039.3 1156.9" stroke="black" fill="none"/><path d="M 1039.3 1156.9 C 1139.9 1140.1, 1186.4 1093.8, 1156.8 1010.1" stroke="black" fill="none"/><path d="M 1156.8 1010.1 C 1118.7 902.2, 1147.4 1155.7, 1035.8 1179.5" stroke="black" fill="none"/><path d="M 1035.8 1179.5 C 948.9 1198.1, 1069.8 1055.1, 1140.8 1003.8" stroke="black" fill="none"/><path d="M 1140.8 1003.8 C 1207.4 955.6, 1034.5 1122.3, 1080.6 1188.0" stroke="black" fill="none"/><path d="M 1080.6 1188.0 C 1138.4 1270.4, 999.8 939.4, 1113.7 955.3" stroke="black" fill="none"/><path d="M 1113.7 955.3 C 1246.7 973.9, 819.4 1153.2, 938.5 1167.9" stroke="black" fill="none"/><path d="M 938.5 1167.9 C 1048.6 1181.5, 844.7 1286.2, 753.2 1273.3" stroke="black" fill="none"/><path d="M 753.2 1273.3 C 647.0 1258.3, 848.8 1262.9, 918.1 1173.7" stroke="black" fill="none"/><path d="M 918.1 1173.7 C 993.6 1076.4, 1097.1 965.4, 1152.3 1087.7" stroke="black" fill="none"/><path d="M 1152.3 1087.7 C 1185.6 1161.6, 1000.7 1140.6, 1033.1 1221.2" stroke="black" fill="none"/><path d="M 1033.1 1221.2 C 1063.9 1297.5, 772.6 1202.9, 861.3 1256.3" stroke="black" fill="none"/><path d="M 861.3 1256.3 C 922.4 1293.1, 935.8 1126.4, 854.1 1107.6" stroke="black" fill="none"/><path d="M 854.1 1107.6 C 645.7 1059.6, 705.6 962.5, 668.9 715.3" stroke="black" fill="none"/><path d="M 668.9 715.3 C 655.9 627.2, 837.7 732.2, 800.8 788.9" stroke="black" fill="none"/><path d="M 800.8 788.9 C 725.0 904.9, 753.8 1144.7, 887.7 1095.5" stroke="black" fill="none"/><path d="M 887.7 1095.5 C 991.8 1057.3, 726.4 905.5, 659.8 1015.0" stroke="black" fill="none"/><path d="M 659.8 1015.0 C 603.6 1107.6, 503.8 1093.5, 472.4 991.6" stroke="black" fill="none"/><path d="M 472.4 991.6 C 453.6 930.4, 636.9 1019.5, 594.3 1063.5" stroke="black" fill="none"/><path d="M 594.3 1063.5 C 520.5 1139.6, 829.4 1183.5, 718.9 1257.1" stroke="black" fill="none"/><path d="M 718.9 1257.1 C 646.5 1305.4, 582.7 1249.2, 596.2 1170.2" stroke="black" fill="none"/><path d="M 596.2 1170.2 C 614.0 1065.8, 723.5 1305.5, 815.5 1256.6" stroke="black" fill="none"/><path d="M 815.5 1256.6 C 929.5 1196.0, 829.0 1134.2, 875.2 1030.3" stroke="black" fill="none"/><path d="M 875.2 1030.3 C 902.5 968.9, 1063.1 1133.5, 985.5 1147.1" stroke="black" fill="none"/><path d="M 985.5 1147.1 C 903.6 1161.3, 973.6 1058.0, 961.3 991.0" stroke="black" fill="none"/><path d="M 961.3 991.0 C 949.5 926.5, 1114.1 994.7, 1097.8 1078.0" stroke="black" fill="none"/><path d="M 1097.8 1078.0 C 1066.8 1237.2, 712.0 1305.3, 860.4 1301.9" stroke="black" fill="none"/><path d="M 860.4 1301.9 C 942.5 1300.0, 791.8 1175.6, 747.5 1222.6" stroke="black" fill="none"/><path d="M 747.5 1222.6 C 686.6 1287.2, 498.8 1185.0, 565.1 1245.2" stroke="black" fill="none"/><path d="M 565.1 1245.2 C 732.5 1397.2, 800.7 1068.6, 969.1 1170.8" stroke="black" fill="none"/><path d="M 969.1 1170.8 C 1075.4 1235.3, 996.0 918.8, 1090.5 956.7" stroke="black" fill="none"/><path d="M 1090.5 956.7 C 1219.1 1008.3, 860.7 943.0, 778.9 1050.0" stroke="black" fill="none"/><path d="M 778.9 1050.0 C 733.6 1109.1, 918.7 1178.1, 850.3 1166.8" stroke="black" fill="none"/><path d="M 850.3 1166.8 C 776.7 1154.6, 875.0 1272.4, 806.9 1298.3" stroke="black" fill="none"/><path d="M 806.9 1298.3 C 712.1 1334.4, 667.0 1129.7, 606.9 1200.7" stroke="black" fill="none"/><path d="M 606.9 1200.7 C 549.0 1269.3, 828.7 1232.7, 756.2 1183.2" stroke="black" fill="none"/><path d="M 756.2 1183.2 C 565.0 1052.8, 835.4 661.0, 696.1 764.4" stroke="black" fill="none"/><path d="M 696.1 764.4 C 638.9 806.9, 568.1 585.2, 653.9 608.3" stroke="black" fill="none"/><path d="M 653.9 608.3 C 730.6 629.1, 786.7 506.8, 832.1 572.4" stroke="black" fill="none"/><path d="M 832.1 572.4 C 937.8 725.0, 599.7 1015.4, 752.0 931.2" stroke="black" fill="none"/><path d="M 752.0 931.2 C 835.3 885.1, 708.0 833.8, 614.9 836.4" stroke="black" fill="none"/><path d="M 614.9 836.4 C 555.0 838.1, 652.5 671.1, 587.0 690.2" stroke="black" fill="none"/><path d="M 587.0 690.2 C 426.0 737.1, 1030.2 874.4, 838.6 1001.9" stroke="black" fill="none"/><path d="M 838.6 1001.9 C 783.3 1038.6, 748.6 928.5, 763.8 866.2" stroke="black" fill="none"/><path d="M 763.8 866.2 C 795.5 736.1, 526.9 589.4, 685.8 579.7" stroke="black" fill="none"/><path d="M 685.8 579.7 C 774.8 574.3, 701.3 827.4, 750.5 759.3" stroke="black" fill="none"/><path d="M 750.5 759.3 C 790.5 703.9, 541.6 747.4, 607.9 782.5" stroke="black" fill="none"/><path d="M 607.9 782.5 C 733.8 849.2, 1021.4 660.5, 873.9 560.1" stroke="black" fill="none"/><path d="M 873.9 560.1 C 789.3 502.5, 628.6 571.0, 693.5 624.4" stroke="black" fill="none"/><path d="M 693.5 624.4 C 810.4 720.7, 969.4 995.5, 823.4 926.8" stroke="black" fill="none"/><path d="M 823.4 926.8 C 752.2 893.3, 794.9 1040.4, 732.3 1040.8" stroke="black" fill="none"/><path d="M 732.3 1040.8 C 596.6 1041.7, 517.6 1080.8, 533.3 1177.3" stroke="black" fill="none"/><path d="M 533.3 1177.3 C 551.5 1288.3, 371.1 987.3, 367.1 1070.8" stroke="black" fill="none"/><path d="M 367.1 1070.8 C 363.5 1147.2, 413.6 1137.4, 432.9 1191.8" stroke="black" fill="none"/><path d="M 432.9 1191.8 C 467.3 1288.5, 626.7 1022.2, 672.6 1131.4" stroke="black" fill="none"/><path d="M 672.6 1131.4 C 710.4 1221.3, 391.8 1103.4, 465.6 1052.5" stroke="black" fill="none"/><path d="M 465.6 1052.5 C 527.8 1009.6, 617.0 916.2, 636.3 1009.5" stroke="black" fill="none"/><path d="M 636.3 1009.5 C 651.5 1083.6, 779.6 972.3, 800.5 1053.0" stroke="black" fill="none"/><path d="M 800.5 1053.0 C 821.0 1132.1, 835.0 1291.3, 724.4 1241.7" stroke="black" fill="none"/><path d="M 724.4 1241.7 C 628.2 1198.5, 821.0 1156.5, 901.8 1198.3" stroke="black" fill="none"/><path d="M 901.8 1198.3 C 990.7 1244.3, 1122.2 1155.3, 1071.1 1218.9" stroke="black" fill="none"/><path d="M 1071.1 1218.9 C 835.9 1511.5, 897.9 223.4, 796.7 599.5" stroke="black" fill="none"/><path d="M 796.7 599.5 C 769.5 700.6, 584.9 554.7, 615.5 623.5" stroke="black" fill="none"/><path d="M 615.5 623.5 C 665.6 736.1, 547.7 824.4, 636.2 835.9" stroke="black" fill="none"/><path d="M 636.2 835.9 C 782.4 854.8, 553.0 468.1, 666.7 567.6" stroke="black" fill="none"/><path d="M 666.7 567.6 C 730.2 623.2, 655.6 684.0, 737.3 694.3" stroke="black" fill="none"/><path d="M 737.3 694.3 C 865.8 710.4, 874.9 851.2, 776.8 912.7" stroke="black" fill="none"/><path d="M 776.8 912.7 C 724.4 945.6, 701.7 850.2, 693.5 791.1" stroke="black" fill="none"/><path d="M 693.5 791.1 C 683.9 721.9, 753.2 735.3, 790.7 685.0" stroke="black" fill="none"/><path d="M 790.7 685.0 C 826.8 636.5, 901.0 676.0, 926.8 728.0" stroke="black" fill="none"/><path d="M 926.8 728.0 C 986.0 847.8, 724.1 849.3, 796.0 934.0" stroke="black" fill="none"/><path d="M 796.0 934.0 C 886.5 1040.6, 1091.3 1063.3, 1071.6 951.6" stroke="black" fill="none"/><path d="M 1071.6 951.6 C 1060.2 886.8, 911.7 1014.2, 963.3 1045.8" stroke="black" fill="none"/><path d="M 963.3 1045.8 C 1071.7 1112.2, 583.2 1049.4, 667.3 1157.9" stroke="black" fill="none"/><path d="M 667.3 1157.9 C 728.6 1237.1, 582.8 1249.0, 473.2 1223.5" stroke="black" fill="none"/><path d="M 473.2 1223.5 C 416.6 1210.4, 452.2 1040.2, 514.8 1087.4" stroke="black" fill="none"/><path d="M 514.8 1087.4 C 578.3 1135.3, 451.4 1098.2, 366.4 1108.6" stroke="black" fill="none"/><path d="M 366.4 1108.6 C 304.1 1116.2, 469.8 1069.6, 467.1 1005.0" stroke="black" fill="none"/><path d="M 467.1 1005.0 C 463.3 913.6, 402.4 1099.8, 344.4 1148.0" stroke="black" fill="none"/><path d="M 344.4 1148.0 C 275.1 1205.6, 572.4 1099.2, 543.7 1218.8" stroke="black" fill="none"/><path d="M 543.7 1218.8 C 515.3 1337.1, 889.7 1151.3, 822.9 1291.0" stroke="black" fill="none"/><path d="M 822.9 1291.0 C 779.9 1381.1, 598.8 1187.4, 621.2 1267.6" stroke="black" fill="none"/><path d="M 621.2 1267.6 C 663.2 1417.7, 1012.7 1114.4, 951.3 1234.2" stroke="black" fill="none"/><path d="M 951.3 1234.2 C 911.5 1311.8, 804.7 1269.2, 748.0 1182.1" stroke="black" fill="none"/><path d="M 748.0 1182.1 C 691.4 1095.4, 828.7 1092.1, 872.2 1016.4" stroke="black" fill="none"/><path d="M 872.2 1016.4 C 976.6 834.7, 330.1 1120.2, 454.0 993.8" stroke="black" fill="none"/><path d="M 454.0 993.8 C 504.0 942.9, 559.5 1023.7, 585.8 1105.4" stroke="black" fill="none"/><path d="M 585.8 1105.4 C 606.2 1168.7, 436.2 1003.1, 453.4 1058.5" stroke="black" fill="none"/><path d="M 453.4 1058.5 C 485.5 1162.2, 569.4 1047.5, 641.5 1105.9" stroke="black" fill="none"/><path d="M 641.5 1105.9 C 711.5 1162.5, 721.1 1085.9, 782.3 1052.0" stroke="black" fill="none"/><path d="M 782.3 1052.0 C 864.4 1006.6, 624.2 933.7, 703.6 832.3" stroke="black" fill="none"/><path d="M 703.6 832.3 C 748.0 775.6, 766.3 1054.4, 795.2 970.1" stroke="black" fill="none"/><path d="M 795.2 970.1 C 823.2 888.5, 731.1 926.4, 719.7 834.6" stroke="black" fill="none"/><path d="M 719.7 834.6 C 703.9 706.3, 524.8 667.1, 618.4 625.7" stroke="black" fill="none"/><path d="M 618.4 625.7 C 759.6 563.3, 650.6 807.6, 701.1 941.6" stroke="black" fill="none"/><path d="M 701.1 941.6 C 745.6 1059.6, 471.5 926.4, 413.3 1041.8" stroke="black" fill="none"/><path d="M 413.3 1041.8 C 380.9 1105.8, 529.2 1066.2, 534.2 1128.8" stroke="black" fill="none"/><path d="M 534.2 1128.8 C 546.7 1284.6, 892.9 942.3, 817.4 1054.8" stroke="black" fill="none"/><path d="M 817.4 1054.8 C 763.7 1134.7, 575.2 946.7, 639.1 1027.0" stroke="black" fill="none"/><path d="M 639.1 1027.0 C 717.0 1124.9, 753.7 955.3, 842.4 980.5" stroke="black" fill="none"/><path d="M 842.4 980.5 C 992.4 1023.3, 912.7 1132.6, 910.5 1254.3" stroke="black" fill="none"/><path d="M 910.5 1254.3 C 909.1 1332.8, 721.5 1153.3, 768.2 1225.9" stroke="black" fill="none"/><path d="M 768.2 1225.9 C 805.6 1283.9, 852.9 1196.1, 908.4 1168.2" stroke="black" fill="none"/><path d="M 908.4 1168.2 C 972.4 1136.0, 1133.0 1215.2, 1069.9 1164.1" stroke="black" fill="none"/><path d="M 1069.9 1164.1 C 985.4 1095.6, 973.9 1281.1, 887.1 1238.6" stroke="black" fill="none"/><path d="M 887.1 1238.6 C 805.4 1198.7, 1110.5 1234.9, 1032.9 1182.6" stroke="black" fill="none"/><path d="M 1032.9 1182.6 C 877.2 1077.7, 682.3 1335.3, 651.9 1143.3" stroke="black" fill="none"/><path d="M 651.9 1143.3 C 641.4 1077.1, 467.4 1158.8, 524.3 1231.4" stroke="black" fill="none"/><path d="M 524.3 1231.4 C 600.3 1328.3, 775.6 1094.3, 672.7 1063.1" stroke="black" fill="none"/><path d="M 672.7 1063.1 C 575.2 1033.6, 651.5 1366.1, 723.2 1269.8" stroke="black" fill="none"/><path d="M 723.2 1269.8 C 799.0 1168.0, 858.2 1191.4, 933.3 1232.3" stroke="black" fill="none"/><path d="M 933.3 1232.3 C 1030.2 1285.0, 1003.5 938.4, 915.1 1017.8" stroke="black" fill="none"/><path d="M 915.1 1017.8 C 830.5 1093.8, 886.2 769.7, 823.8 845.0" stroke="black" fill="none"/><path d="M 823.8 845.0 C 782.0 895.4, 644.7 841.5, 679.0 916.7" stroke="black" fill="none"/><path d="M 679.0 916.7 C 708.7 981.7, 748.5 1068.3, 784.2 1007.5" stroke="black" fill="none"/><path d="M 784.2 1007.5 C 909.2 795.0, 781.7 430.7, 873.1 591.6" stroke="black" fill="none"/><path d="M 873.1 591.6 C 916.4 667.7, 909.0 701.2, 911.6 782.8" stroke="black" fill="none"/><path d="M 911.6 782.8 C 918.9 1019.1, 469.9 1261.0, 745.6 1323.6" stroke="black" fill="none"/><path d="M 745.6 1323.6 C 914.3 1361.9, 1211.0 1072.0, 1032.1 1079.6" stroke="black" fill="none"/><path d="M 1032.1 1079.6 C 966.8 1082.4, 970.6 1064.5, 896.6 1014.8" stroke="black" fill="none"/><path d="M 896.6 1014.8 C 758.9 922.4, 672.2 1093.2, 570.8 970.1" stroke="black" fill="none"/><path d="M 570.8 970.1 C 528.7 919.0, 423.9 1101.1, 445.5 1028.6" stroke="black" fill="none"/><path d="M 445.5 1028.6 C 468.4 951.7, 500.5 1009.9, 570.2 963.0" stroke="black" fill="none"/><path d="M 570.2 963.0 C 840.1 781.8, 1000.2 1292.6, 1117.5 1082.1" stroke="black" fill="none"/><path d="M 1117.5 1082.1 C 1152.4 1019.5, 1056.5 1025.5, 1043.5 942.3" stroke="black" fill="none"/><path d="M 1043.5 942.3 C 1025.0 824.1, 992.3 1331.2, 892.0 1198.0" stroke="black" fill="none"/><path d="M 892.0 1198.0 C 853.5 1146.9, 915.0 993.8, 948.3 1066.2" stroke="black" fill="none"/><path d="M 948.3 1066.2 C 976.4 1127.5, 1029.9 891.9, 1060.8 950.2" stroke="black" fill="none"/><path d="M 1060.8 950.2 C 1109.2 1041.8, 949.8 983.6, 808.3 989.1" stroke="black" fill="none"/><path d="M 808.3 989.1 C 704.8 993.0, 598.9 1163.4, 628.9 1058.3" stroke="black" fill="none"/><path d="M 628.9 1058.3 C 655.9 963.9, 485.3 982.6, 454.5 1050.5" stroke="black" fill="none"/><path d="M 454.5 1050.5 C 425.0 1115.5, 283.6 1104.9, 352.0 1153.5" stroke="black" fill="none"/><path d="M 352.0 1153.5 C 429.4 1208.4, 371.8 968.7, 472.0 1006.1" stroke="black" fill="none"/><path d="M 472.0 1006.1 C 568.8 1042.2, 381.6 1142.4, 481.9 1206.9" stroke="black" fill="none"/><path d="M 481.9 1206.9 C 547.9 1249.3, 476.8 963.5, 515.5 1042.2" stroke="black" fill="none"/><path d="M 515.5 1042.2 C 551.9 1116.3, 403.6 1156.5, 380.8 1078.1" stroke="black" fill="none"/><path d="M 380.8 1078.1 C 357.5 998.4, 534.7 972.6, 469.1 949.1" stroke="black" fill="none"/><path d="M 469.1 949.1 C 353.7 907.8, 472.2 1310.2, 396.9 1184.0" stroke="black" fill="none"/><path d="M 396.9 1184.0 C 334.1 1078.5, 664.0 1028.3, 544.8 985.8" stroke="black" fill="none"/><path d="M 544.8 985.8 C 449.0 951.7, 389.2 1096.9, 376.5 1022.9" stroke="black" fill="none"/><path d="M 376.5 1022.9 C 359.3 922.7, 531.9 1199.5, 546.2 1094.1" stroke="black" fill="none"/><path d="M 546.2 1094.1 C 561.4 982.6, 745.7 1309.3, 753.7 1196.3" stroke="black" fill="none"/><path d="M 753.7 1196.3 C 763.8 1052.5, 812.0 921.1, 898.5 983.7" stroke="black" fill="none"/><path d="M 898.5 983.7 C 972.2 1037.0, 854.8 1074.7, 850.6 1195.8" stroke="black" fill="none"/><path d="M 850.6 1195.8 C 846.7 1308.6, 800.8 1107.1, 697.2 1034.9" stroke="black" fill="none"/><path d="M 697.2 1034.9 C 606.4 971.4, 578.7 1117.6, 474.1 1057.4" stroke="black" fill="none"/><path d="M 474.1 1057.4 C 414.3 1023.0, 407.1 1208.0, 482.2 1193.3" stroke="black" fill="none"/><path d="M 482.2 1193.3 C 648.6 1160.8, 794.2 1038.4, 671.3 821.2" stroke="black" fill="none"/><path d="M 671.3 821.2 C 633.3 754.1, 785.8 770.2, 780.7 684.2" stroke="black" fill="none"/><path d="M 780.7 684.2 C 775.0 589.4, 806.2 568.8, 868.0 513.4" stroke="black" fill="none"/><path d="M 868.0 513.4 C 921.5 465.3, 746.6 635.3, 834.6 674.1" stroke="black" fill="none"/><path d="M 834.6 674.1 C 908.3 706.5, 788.2 479.6, 769.2 549.6" stroke="black" fill="none"/><path d="M 769.2 549.6 C 748.7 625.2, 934.0 533.4, 898.2 599.0" stroke="black" fill="none"/></svg>