<svg width="1500" height="1500" xmlns="http://www.w3.org/2000/svg" style="background-color: transparent;"><path d="M 676.9 483.8 C 703.1 579.1, 865.7 452.6, 884.0 545.1" stroke="black" fill="none"/><path d="M 884.0 545.1 C 909.8 675.3, 745.2 421.4, 655.1 523.3" stroke="black" fill="none"/><path d="M 655.1 523.3 C 596.3 589.8, 755.7 492.4, 827.7 517.0" stroke="black" fill="none"/><path d="M 827.7 517.0 C 885.7 536.7, 879.3 576.9, 915.0 620.3" stroke="black" fill="none"/><path d="M 915.0 620.3 C 963.5 679.4, 930.1 697.7, 925.0 792.5" stroke="black" fill="none"/><path d="M 925.0 792.5 C 909.6 1079.0, 244.1 1323.9, 407.8 1031.2" stroke="black" fill="none"/><path d="M 407.8 1031.2 C 451.7 952.7, 391.4 1305.2, 495.5 1233.8" stroke="black" fill="none"/><path d="M 495.5 1233.8 C 561.3 1188.7, 605.7 1174.2, 569.6 1118.9" stroke="black" fill="none"/><path d="M 569.6 1118.9 C 534.5 1065.3, 564.0 1213.7, 528.9 1267.5" stroke="black" fill="none"/><path d="M 528.9 1267.5 C 483.0 1338.0, 534.2 1052.4, 468.3 1090.5" stroke="black" fill="none"/><path d="M 468.3 1090.5 C 388.4 1136.5, 667.3 1115.7, 630.8 1186.8" stroke="black" fill="none"/><path d="M 630.8 1186.8 C 592.6 1261.3, 458.4 1116.6, 535.8 1071.7" stroke="black" fill="none"/><path d="M 535.8 1071.7 C 605.7 1031.2, 502.3 1202.4, 570.0 1207.9" stroke="black" fill="none"/><path d="M 570.0 1207.9 C 632.4 1213.0, 514.9 1145.1, 455.9 1104.1" stroke="black" fill="none"/><path d="M 455.9 1104.1 C 395.3 1061.8, 648.9 1115.9, 603.6 1067.4" stroke="black" fill="none"/><path d="M 603.6 1067.4 C 545.1 1004.8, 577.3 1303.9, 533.3 1231.4" stroke="black" fill="none"/><path d="M 533.3 1231.4 C 495.4 1169.1, 552.0 1156.1, 581.2 1087.9" stroke="black" fill="none"/><path d="M 581.2 1087.9 C 607.7 1025.7, 375.6 1206.2, 422.1 1129.6" stroke="black" fill="none"/><path d="M 422.1 1129.6 C 483.9 1027.6, 550.7 1183.0, 687.1 1134.6" stroke="black" fill="none"/><path d="M 687.1 1134.6 C 880.3 1065.9, 1107.1 1058.6, 1055.7 1228.5" stroke="black" fill="none"/><path d="M 1055.7 1228.5 C 1029.3 1315.8, 911.0 1175.9, 958.7 1111.4" stroke="black" fill="none"/><path d="M 958.7 1111.4 C 1005.5 1048.0, 1036.1 1105.6, 1110.2 1101.5" stroke="black" fill="none"/><path d="M 1110.2 1101.5 C 1233.3 1094.7, 835.6 1198.3, 936.5 1254.7" stroke="black" fill="none"/><path d="M 936.5 1254.7 C 1009.9 1295.8, 911.1 1116.6, 991.5 1066.8" stroke="black" fill="none"/><path d="M 991.5 1066.8 C 1041.8 1035.7, 885.8 1172.9, 962.6 1202.1" stroke="black" fill="none"/><path d="M 962.6 1202.1 C 1049.9 1235.3, 1006.8 1079.4, 1087.4 1065.8" stroke="black" fill="none"/><path d="M 1087.4 1065.8 C 1148.3 1055.6, 1005.6 1130.3, 1030.0 1204.0" stroke="black" fill="none"/><path d="M 1030.0 1204.0 C 1052.6 1272.3, 1031.3 1004.1, 1102.3 1052.1" stroke="black" fill="none"/><path d="M 1102.3 1052.1 C 1193.7 1113.8, 905.7 1088.3, 946.1 1173.8" stroke="black" fill="none"/><path d="M 946.1 1173.8 C 975.8 1236.6, 977.0 1031.9, 1035.6 1067.3" stroke="black" fill="none"/><path d="M 1035.6 1067.3 C 1097.4 1104.6, 972.9 1114.3, 879.2 1141.2" stroke="black" fill="none"/><path d="M 879.2 1141.2 C 639.7 1210.2, 580.0 1044.2, 359.6 1079.9" stroke="black" fill="none"/><path d="M 359.6 1079.9 C 242.4 1098.9, 493.6 1105.4, 544.2 1184.9" stroke="black" fill="none"/><path d="M 544.2 1184.9 C 595.7 1265.9, 442.8 1091.7, 378.9 1161.3" stroke="black" fill="none"/><path d="M 378.9 1161.3 C 302.4 1244.7, 499.5 1064.3, 588.0 1120.6" stroke="black" fill="none"/><path d="M 588.0 1120.6 C 675.9 1176.4, 378.3 1045.3, 357.4 1147.9" stroke="black" fill="none"/><path d="M 357.4 1147.9 C 343.1 1218.5, 489.4 1026.5, 495.9 1094.1" stroke="black" fill="none"/><path d="M 495.9 1094.1 C 504.7 1185.9, 613.7 1095.9, 645.9 1175.9" stroke="black" fill="none"/><path d="M 645.9 1175.9 C 675.4 1249.0, 541.1 1053.0, 527.6 1108.5" stroke="black" fill="none"/><path d="M 527.6 1108.5 C 510.7 1177.5, 652.9 1127.4, 636.5 1205.9" stroke="black" fill="none"/><path d="M 636.5 1205.9 C 607.4 1345.8, 405.1 964.8, 411.5 1078.9" stroke="black" fill="none"/><path d="M 411.5 1078.9 C 415.8 1155.7, 524.4 1161.9, 551.3 1105.9" stroke="black" fill="none"/><path d="M 551.3 1105.9 C 584.6 1036.6, 380.0 1169.2, 374.5 1064.9" stroke="black" fill="none"/><path d="M 374.5 1064.9 C 369.0 962.7, 612.5 1233.5, 597.8 1102.9" stroke="black" fill="none"/><path d="M 597.8 1102.9 C 589.5 1029.4, 426.9 1107.3, 466.9 1152.1" stroke="black" fill="none"/><path d="M 466.9 1152.1 C 518.1 1209.5, 571.5 1117.8, 636.1 1139.7" stroke="black" fill="none"/><path d="M 636.1 1139.7 C 721.8 1168.7, 449.9 1109.4, 432.6 1221.3" stroke="black" fill="none"/><path d="M 432.6 1221.3 C 420.5 1298.8, 623.3 1134.6, 556.2 1131.4" stroke="black" fill="none"/><path d="M 556.2 1131.4 C 483.3 1128.0, 476.0 1085.8, 409.7 1072.0" stroke="black" fill="none"/><path d="M 409.7 1072.0 C 318.9 1053.2, 521.0 1116.6, 520.9 1202.9" stroke="black" fill="none"/><path d="M 520.9 1202.9 C 520.8 1276.5, 579.8 1048.2, 605.2 1096.5" stroke="black" fill="none"/><path d="M 605.2 1096.5 C 651.5 1184.6, 439.2 1021.6, 381.8 1098.3" stroke="black" fill="none"/><path d="M 381.8 1098.3 C 334.4 1161.7, 623.7 1092.2, 546.4 1134.1" stroke="black" fill="none"/><path d="M 546.4 1134.1 C 487.4 1166.0, 490.8 1079.5, 429.4 1065.0" stroke="black" fill="none"/><path d="M 429.4 1065.0 C 299.7 1034.3, 520.9 1149.4, 570.0 1248.8" stroke="black" fill="none"/><path d="M 570.0 1248.8 C 605.8 1321.2, 522.1 1117.8, 609.7 1087.8" stroke="black" fill="none"/><path d="M 609.7 1087.8 C 669.1 1067.5, 493.6 1260.5, 571.9 1226.3" stroke="black" fill="none"/><path d="M 571.9 1226.3 C 645.9 1194.0, 388.2 1042.6, 396.7 1131.7" stroke="black" fill="none"/><path d="M 396.7 1131.7 C 404.9 1218.5, 461.9 1044.6, 535.0 1077.6" stroke="black" fill="none"/><path d="M 535.0 1077.6 C 596.1 1105.3, 369.3 1155.3, 428.9 1167.4" stroke="black" fill="none"/><path d="M 428.9 1167.4 C 488.9 1179.7, 611.6 1097.3, 541.0 1070.9" stroke="black" fill="none"/><path d="M 541.0 1070.9 C 463.1 1041.7, 610.6 1173.4, 575.1 1231.7" stroke="black" fill="none"/><path d="M 575.1 1231.7 C 532.2 1302.2, 487.7 1084.8, 550.6 1084.3" stroke="black" fill="none"/><path d="M 550.6 1084.3 C 627.0 1083.7, 588.6 1203.7, 669.5 1171.7" stroke="black" fill="none"/><path d="M 669.5 1171.7 C 732.3 1146.8, 505.0 1171.3, 540.3 1094.9" stroke="black" fill="none"/><path d="M 540.3 1094.9 C 568.5 1033.8, 441.5 1112.2, 395.7 1073.9" stroke="black" fill="none"/><path d="M 395.7 1073.9 C 347.0 1033.1, 377.2 1138.2, 347.1 1211.3" stroke="black" fill="none"/><path d="M 347.1 1211.3 C 301.6 1321.5, 506.2 1020.3, 628.2 1133.9" stroke="black" fill="none"/><path d="M 628.2 1133.9 C 700.7 1201.4, 387.0 1016.2, 434.5 1116.5" stroke="black" fill="none"/><path d="M 434.5 1116.5 C 472.0 1195.7, 559.2 1147.9, 580.2 1078.4" stroke="black" fill="none"/><path d="M 580.2 1078.4 C 603.2 1002.3, 395.2 1203.7, 418.5 1123.6" stroke="black" fill="none"/><path d="M 418.5 1123.6 C 445.0 1032.6, 517.8 1066.1, 599.0 1138.0" stroke="black" fill="none"/><path d="M 599.0 1138.0 C 645.1 1178.8, 477.0 1110.3, 470.6 1181.4" stroke="black" fill="none"/><path d="M 470.6 1181.4 C 462.7 1269.9, 602.6 1058.8, 616.0 1137.3" stroke="black" fill="none"/><path d="M 616.0 1137.3 C 626.5 1199.1, 549.0 1093.9, 475.0 1083.7" stroke="black" fill="none"/><path d="M 475.0 1083.7 C 408.1 1074.5, 337.9 1101.9, 367.7 1168.0" stroke="black" fill="none"/><path d="M 367.7 1168.0 C 397.1 1233.0, 470.4 1142.6, 537.4 1114.7" stroke="black" fill="none"/><path d="M 537.4 1114.7 C 609.3 1084.7, 550.1 1287.3, 476.9 1255.7" stroke="black" fill="none"/><path d="M 476.9 1255.7 C 386.8 1216.8, 545.1 1202.8, 576.0 1097.7" stroke="black" fill="none"/><path d="M 576.0 1097.7 C 595.0 1032.8, 623.4 1162.3, 712.2 1163.5" stroke="black" fill="none"/><path d="M 712.2 1163.5 C 891.6 1165.9, 1115.6 1164.5, 1021.8 1038.2" stroke="black" fill="none"/><path d="M 1021.8 1038.2 C 977.8 978.8, 1154.3 1137.0, 1187.5 1063.5" stroke="black" fill="none"/><path d="M 1187.5 1063.5 C 1226.9 976.0, 957.8 1138.3, 1010.6 1084.7" stroke="black" fill="none"/><path d="M 1010.6 1084.7 C 1056.7 1037.8, 1175.1 1038.3, 1145.6 1088.9" stroke="black" fill="none"/><path d="M 1145.6 1088.9 C 1110.6 1149.1, 980.4 1030.5, 1001.0 1096.6" stroke="black" fill="none"/><path d="M 1001.0 1096.6 C 1021.4 1162.1, 972.4 1183.6, 891.5 1179.7" stroke="black" fill="none"/><path d="M 891.5 1179.7 C 806.0 1175.5, 996.3 1135.4, 1065.5 1055.5" stroke="black" fill="none"/><path d="M 1065.5 1055.5 C 1103.9 1011.1, 1115.1 1161.0, 1068.0 1193.1" stroke="black" fill="none"/><path d="M 1068.0 1193.1 C 1004.1 1236.6, 1004.7 1079.2, 937.5 1097.1" stroke="black" fill="none"/><path d="M 937.5 1097.1 C 864.1 1116.6, 1000.2 1295.0, 920.0 1257.1" stroke="black" fill="none"/><path d="M 920.0 1257.1 C 822.9 1211.2, 1090.5 1139.5, 993.5 1081.8" stroke="black" fill="none"/><path d="M 993.5 1081.8 C 914.5 1034.9, 1078.8 1082.1, 1169.2 1048.9" stroke="black" fill="none"/><path d="M 1169.2 1048.9 C 1279.5 1008.3, 968.9 1256.8, 1066.1 1268.7" stroke="black" fill="none"/><path d="M 1066.1 1268.7 C 1184.6 1283.2, 939.6 1027.0, 1029.2 1065.9" stroke="black" fill="none"/><path d="M 1029.2 1065.9 C 1108.6 1100.4, 907.1 1135.4, 945.9 1184.1" stroke="black" fill="none"/><path d="M 945.9 1184.1 C 998.0 1249.6, 1007.0 1123.2, 1081.8 1080.7" stroke="black" fill="none"/><path d="M 1081.8 1080.7 C 1166.4 1032.5, 935.5 1231.3, 1028.1 1272.0" stroke="black" fill="none"/><path d="M 1028.1 1272.0 C 1101.1 1304.0, 947.6 1137.7, 1007.9 1094.4" stroke="black" fill="none"/><path d="M 1007.9 1094.4 C 1093.1 1033.3, 1102.9 1134.7, 1213.8 1083.3" stroke="black" fill="none"/><path d="M 1213.8 1083.3 C 1267.4 1058.4, 1079.6 1114.1, 1080.7 1050.3" stroke="black" fill="none"/><path d="M 1080.7 1050.3 C 1082.1 963.8, 953.5 1268.4, 914.3 1160.1" stroke="black" fill="none"/><path d="M 914.3 1160.1 C 883.0 1073.9, 1177.5 1072.3, 1066.4 1040.2" stroke="black" fill="none"/><path d="M 1066.4 1040.2 C 970.4 1012.6, 999.3 1107.7, 929.8 1194.0" stroke="black" fill="none"/><path d="M 929.8 1194.0 C 875.1 1262.0, 1132.5 1072.4, 1134.2 1180.3" stroke="black" fill="none"/><path d="M 1134.2 1180.3 C 1135.6 1268.1, 1056.4 999.9, 1039.6 1065.4" stroke="black" fill="none"/><path d="M 1039.6 1065.4 C 1024.6 1123.6, 936.6 1179.4, 912.5 1113.1" stroke="black" fill="none"/><path d="M 912.5 1113.1 C 888.3 1046.6, 1055.6 1191.3, 1057.0 1121.4" stroke="black" fill="none"/><path d="M 1057.0 1121.4 C 1058.6 1042.0, 917.9 1149.9, 914.9 1220.9" stroke="black" fill="none"/><path d="M 914.9 1220.9 C 911.5 1301.2, 1052.7 1054.3, 1064.0 1142.9" stroke="black" fill="none"/><path d="M 1064.0 1142.9 C 1072.7 1211.9, 1074.4 1045.6, 1133.2 1025.2" stroke="black" fill="none"/><path d="M 1133.2 1025.2 C 1198.3 1002.5, 1024.3 1139.5, 1085.1 1155.7" stroke="black" fill="none"/><path d="M 1085.1 1155.7 C 1158.3 1175.2, 957.0 1141.7, 950.3 1228.1" stroke="black" fill="none"/><path d="M 950.3 1228.1 C 942.8 1326.1, 1031.9 1150.2, 1107.2 1110.7" stroke="black" fill="none"/><path d="M 1107.2 1110.7 C 1170.8 1077.3, 1007.4 1202.0, 1046.7 1247.4" stroke="black" fill="none"/><path d="M 1046.7 1247.4 C 1083.3 1289.6, 1008.2 1067.6, 1061.1 1110.7" stroke="black" fill="none"/><path d="M 1061.1 1110.7 C 1128.2 1165.4, 960.2 1048.7, 910.2 1111.7" stroke="black" fill="none"/><path d="M 910.2 1111.7 C 864.3 1169.5, 1039.3 1040.6, 1062.1 1108.6" stroke="black" fill="none"/><path d="M 1062.1 1108.6 C 1085.4 1178.4, 954.6 1122.8, 931.3 1186.7" stroke="black" fill="none"/><path d="M 931.3 1186.7 C 896.1 1283.0, 1053.2 950.8, 1119.5 1061.0" stroke="black" fill="none"/><path d="M 1119.5 1061.0 C 1166.5 1139.1, 922.2 1113.0, 983.7 1135.6" stroke="black" fill="none"/><path d="M 983.7 1135.6 C 1046.0 1158.6, 1057.2 1055.7, 1114.9 1100.0" stroke="black" fill="none"/><path d="M 1114.9 1100.0 C 1208.1 1171.6, 794.6 1238.6, 913.9 1246.7" stroke="black" fill="none"/><path d="M 913.9 1246.7 C 997.6 1252.4, 939.4 1068.8, 983.7 1117.5" stroke="black" fill="none"/><path d="M 983.7 1117.5 C 1047.5 1187.5, 791.6 1287.8, 904.9 1300.0" stroke="black" fill="none"/><path d="M 904.9 1300.0 C 1000.4 1310.3, 943.1 1083.3, 1031.4 1119.7" stroke="black" fill="none"/><path d="M 1031.4 1119.7 C 1110.0 1152.1, 1070.5 1001.5, 1162.4 1018.0" stroke="black" fill="none"/><path d="M 1162.4 1018.0 C 1277.8 1038.6, 907.6 1042.6, 938.0 1143.8" stroke="black" fill="none"/><path d="M 938.0 1143.8 C 968.5 1245.1, 1014.5 1093.7, 1129.1 1092.6" stroke="black" fill="none"/><path d="M 1129.1 1092.6 C 1251.8 1091.4, 881.7 1138.2, 948.2 1275.6" stroke="black" fill="none"/><path d="M 948.2 1275.6 C 997.6 1377.8, 1043.7 951.7, 1074.1 1081.5" stroke="black" fill="none"/><path d="M 1074.1 1081.5 C 1090.7 1152.2, 957.1 1081.0, 923.6 1136.5" stroke="black" fill="none"/><path d="M 923.6 1136.5 C 881.6 1206.1, 1121.7 973.2, 1104.8 1083.8" stroke="black" fill="none"/><path d="M 1104.8 1083.8 C 1066.3 1335.0, 370.3 954.2, 534.4 1167.0" stroke="black" fill="none"/><path d="M 534.4 1167.0 C 590.0 1239.2, 419.7 1213.3, 379.5 1158.9" stroke="black" fill="none"/><path d="M 379.5 1158.9 C 345.2 1112.6, 514.8 1055.2, 459.2 1047.9" stroke="black" fill="none"/><path d="M 459.2 1047.9 C 392.8 1039.1, 497.2 1217.5, 420.8 1184.6" stroke="black" fill="none"/><path d="M 420.8 1184.6 C 342.8 1150.9, 626.2 1157.6, 571.0 1101.3" stroke="black" fill="none"/><path d="M 571.0 1101.3 C 494.9 1023.9, 479.6 1188.3, 400.1 1205.7" stroke="black" fill="none"/><path d="M 400.1 1205.7 C 308.6 1225.9, 448.3 1140.9, 505.7 1079.6" stroke="black" fill="none"/><path d="M 505.7 1079.6 C 560.7 1020.9, 617.5 1108.6, 625.6 1177.5" stroke="black" fill="none"/><path d="M 625.6 1177.5 C 633.2 1243.1, 797.9 1062.6, 769.9 1136.4" stroke="black" fill="none"/><path d="M 769.9 1136.4 C 712.5 1288.1, 514.2 988.5, 486.3 1111.6" stroke="black" fill="none"/><path d="M 486.3 1111.6 C 467.7 1193.8, 563.1 1158.0, 628.1 1130.3" stroke="black" fill="none"/><path d="M 628.1 1130.3 C 735.2 1084.7, 335.9 1142.3, 403.4 1063.4" stroke="black" fill="none"/><path d="M 403.4 1063.4 C 444.1 1015.9, 554.5 1161.0, 477.5 1188.2" stroke="black" fill="none"/><path d="M 477.5 1188.2 C 400.7 1215.3, 326.9 1088.5, 351.0 1137.5" stroke="black" fill="none"/><path d="M 351.0 1137.5 C 379.4 1195.5, 502.4 995.3, 504.2 1089.3" stroke="black" fill="none"/><path d="M 504.2 1089.3 C 505.3 1147.4, 413.4 1109.0, 364.1 1069.0" stroke="black" fill="none"/><path d="M 364.1 1069.0 C 303.5 1019.8, 376.2 1170.9, 336.3 1219.8" stroke="black" fill="none"/><path d="M 336.3 1219.8 C 224.8 1356.3, 693.6 1037.2, 625.0 1157.4" stroke="black" fill="none"/><path d="M 625.0 1157.4 C 585.9 1225.9, 385.8 1145.1, 454.7 1222.2" stroke="black" fill="none"/><path d="M 454.7 1222.2 C 526.6 1302.6, 622.2 1058.7, 614.7 1133.4" stroke="black" fill="none"/><path d="M 614.7 1133.4 C 607.8 1202.5, 709.3 1147.0, 756.3 1071.6" stroke="black" fill="none"/><path d="M 756.3 1071.6 C 803.1 996.3, 591.0 1161.6, 564.7 1076.7" stroke="black" fill="none"/><path d="M 564.7 1076.7 C 542.1 1003.9, 550.5 1258.5, 467.3 1215.8" stroke="black" fill="none"/><path d="M 467.3 1215.8 C 396.1 1179.4, 545.4 1174.6, 629.4 1160.3" stroke="black" fill="none"/><path d="M 629.4 1160.3 C 707.3 1147.1, 525.1 1135.4, 503.3 1054.7" stroke="black" fill="none"/><path d="M 503.3 1054.7 C 485.9 990.3, 468.7 1213.1, 417.0 1169.1" stroke="black" fill="none"/><path d="M 417.0 1169.1 C 244.9 1022.8, 648.7 1145.0, 800.7 1092.2" stroke="black" fill="none"/><path d="M 800.7 1092.2 C 873.3 1066.9, 642.4 1092.7, 666.6 1012.7" stroke="black" fill="none"/><path d="M 666.6 1012.7 C 703.8 889.4, 743.1 726.1, 617.7 784.7" stroke="black" fill="none"/><path d="M 617.7 784.7 C 508.4 835.8, 503.0 633.9, 592.4 554.9" stroke="black" fill="none"/><path d="M 592.4 554.9 C 674.8 482.0, 887.4 551.8, 801.0 481.0" stroke="black" fill="none"/><path d="M 801.0 481.0 C 721.8 416.2, 671.3 624.8, 584.7 548.5" stroke="black" fill="none"/><path d="M 584.7 548.5 C 535.4 505.1, 716.0 597.1, 722.5 536.5" stroke="black" fill="none"/><path d="M 722.5 536.5 C 733.0 438.2, 925.6 644.0, 897.2 544.3" stroke="black" fill="none"/><path d="M 897.2 544.3 C 868.9 445.2, 569.0 625.1, 652.0 556.1" stroke="black" fill="none"/><path d="M 652.0 556.1 C 727.2 493.6, 898.1 547.2, 828.6 516.5" stroke="black" fill="none"/><path d="M 828.6 516.5 C 671.1 446.9, 682.5 583.1, 533.2 573.7" stroke="black" fill="none"/><path d="M 533.2 573.7 C 456.0 568.8, 605.1 703.3, 542.8 709.9" stroke="black" fill="none"/><path d="M 542.8 709.9 C 453.6 719.3, 654.3 562.7, 564.0 552.2" stroke="black" fill="none"/><path d="M 564.0 552.2 C 449.8 539.0, 584.6 861.8, 694.2 796.5" stroke="black" fill="none"/><path d="M 694.2 796.5 C 762.8 755.6, 642.0 901.7, 650.2 979.4" stroke="black" fill="none"/><path d="M 650.2 979.4 C 663.6 1107.7, 536.4 1177.7, 394.7 1104.4" stroke="black" fill="none"/><path d="M 394.7 1104.4 C 287.5 1048.9, 346.4 1185.0, 256.4 1262.2" stroke="black" fill="none"/><path d="M 256.4 1262.2 C 116.5 1382.3, 579.4 1100.3, 564.1 1244.4" stroke="black" fill="none"/><path d="M 564.1 1244.4 C 551.6 1363.1, 541.1 998.9, 427.7 1068.8" stroke="black" fill="none"/><path d="M 427.7 1068.8 C 358.3 1111.6, 449.0 1178.0, 514.2 1184.1" stroke="black" fill="none"/><path d="M 514.2 1184.1 C 594.5 1191.6, 623.3 1139.5, 610.4 1074.4" stroke="black" fill="none"/><path d="M 610.4 1074.4 C 595.4 998.3, 441.3 1287.8, 461.3 1180.9" stroke="black" fill="none"/><path d="M 461.3 1180.9 C 475.0 1108.4, 695.2 1136.4, 609.5 1114.2" stroke="black" fill="none"/><path d="M 609.5 1114.2 C 548.8 1098.5, 576.1 1181.9, 517.3 1219.1" stroke="black" fill="none"/><path d="M 517.3 1219.1 C 423.8 1278.3, 417.4 1057.8, 341.6 1124.3" stroke="black" fill="none"/><path d="M 341.6 1124.3 C 284.7 1174.2, 520.1 1103.1, 492.5 1165.5" stroke="black" fill="none"/><path d="M 492.5 1165.5 C 470.1 1216.5, 456.2 1120.2, 389.6 1078.2" stroke="black" fill="none"/><path d="M 389.6 1078.2 C 331.4 1041.5, 323.5 1185.6, 371.2 1229.3" stroke="black" fill="none"/><path d="M 371.2 1229.3 C 422.2 1276.1, 491.5 1137.0, 509.5 1215.9" stroke="black" fill="none"/><path d="M 509.5 1215.9 C 522.8 1274.3, 654.1 1128.7, 586.8 1097.7" stroke="black" fill="none"/><path d="M 586.8 1097.7 C 502.0 1058.7, 462.5 1049.1, 394.2 1137.1" stroke="black" fill="none"/><path d="M 394.2 1137.1 C 337.5 1210.3, 678.1 1197.6, 598.2 1112.4" stroke="black" fill="none"/><path d="M 598.2 1112.4 C 532.0 1041.6, 402.9 1042.2, 413.1 1134.7" stroke="black" fill="none"/><path d="M 413.1 1134.7 C 422.9 1223.5, 573.5 1047.0, 611.4 1118.1" stroke="black" fill="none"/><path d="M 611.4 1118.1 C 653.1 1196.2, 736.8 1108.6, 817.2 1076.8" stroke="black" fill="none"/><path d="M 817.2 1076.8 C 930.5 1032.1, 1062.1 1143.5, 985.5 1208.4" stroke="black" fill="none"/><path d="M 985.5 1208.4 C 942.1 1245.3, 992.4 1148.1, 964.1 1073.7" stroke="black" fill="none"/><path d="M 964.1 1073.7 C 935.9 999.6, 961.2 1196.0, 899.1 1218.0" stroke="black" fill="none"/><path d="M 899.1 1218.0 C 820.7 1245.7, 1032.4 1157.1, 981.9 1095.1" stroke="black" fill="none"/><path d="M 981.9 1095.1 C 931.2 1032.8, 1058.9 1085.9, 1115.2 1069.0" stroke="black" fill="none"/><path d="M 1115.2 1069.0 C 1209.0 1040.9, 920.1 1214.4, 1008.7 1217.5" stroke="black" fill="none"/><path d="M 1008.7 1217.5 C 1080.0 1220.0, 921.7 1049.3, 978.0 1075.3" stroke="black" fill="none"/><path d="M 978.0 1075.3 C 1094.9 1129.2, 949.3 1336.6, 792.0 1296.5" stroke="black" fill="none"/><path d="M 792.0 1296.5 C 559.9 1237.4, 756.8 612.3, 658.9 822.0" stroke="black" fill="none"/><path d="M 658.9 822.0 C 620.1 904.9, 695.4 996.0, 765.8 938.6" stroke="black" fill="none"/><path d="M 765.8 938.6 C 968.1 773.4, 965.1 445.9, 749.4 479.1" stroke="black" fill="none"/><path d="M 749.4 479.1 C 671.7 491.0, 632.7 620.0, 625.7 558.4" stroke="black" fill="none"/><path d="M 625.7 558.4 C 613.0 448.7, 876.8 598.1, 835.7 510.3" stroke="black" fill="none"/><path d="M 835.7 510.3 C 803.1 440.8, 640.9 565.0, 687.0 513.0" stroke="black" fill="none"/><path d="M 687.0 513.0 C 740.5 452.9, 783.2 481.9, 839.2 544.2" stroke="black" fill="none"/><path d="M 839.2 544.2 C 905.7 618.2, 698.8 411.6, 646.0 511.6" stroke="black" fill="none"/><path d="M 646.0 511.6 C 602.3 594.4, 575.4 588.3, 498.2 620.1" stroke="black" fill="none"/><path d="M 498.2 620.1 C 235.0 728.2, 1033.7 1081.5, 720.0 1265.7" stroke="black" fill="none"/><path d="M 720.0 1265.7 C 522.8 1381.5, 790.0 615.0, 662.8 837.3" stroke="black" fill="none"/><path d="M 662.8 837.3 C 624.3 904.8, 741.4 878.7, 752.0 951.8" stroke="black" fill="none"/><path d="M 752.0 951.8 C 774.7 1107.5, 720.1 1140.7, 620.7 1183.4" stroke="black" fill="none"/><path d="M 620.7 1183.4 C 556.4 1211.1, 536.1 1084.1, 475.0 1143.5" stroke="black" fill="none"/><path d="M 475.0 1143.5 C 426.6 1190.5, 566.0 1180.8, 613.3 1148.6" stroke="black" fill="none"/><path d="M 613.3 1148.6 C 666.1 1112.7, 527.4 1130.7, 467.9 1096.1" stroke="black" fill="none"/><path d="M 467.9 1096.1 C 385.1 1047.9, 540.6 1223.1, 498.4 1296.0" stroke="black" fill="none"/><path d="M 498.4 1296.0 C 435.7 1404.2, 445.3 1021.2, 368.0 1099.8" stroke="black" fill="none"/><path d="M 368.0 1099.8 C 287.1 1181.9, 533.6 1074.9, 566.7 1205.0" stroke="black" fill="none"/><path d="M 566.7 1205.0 C 606.4 1360.9, 258.1 1053.6, 298.4 1178.2" stroke="black" fill="none"/><path d="M 298.4 1178.2 C 321.1 1248.1, 365.1 1079.6, 455.5 1083.5" stroke="black" fill="none"/><path d="M 455.5 1083.5 C 524.5 1086.5, 466.8 1339.9, 503.6 1247.1" stroke="black" fill="none"/><path d="M 503.6 1247.1 C 549.6 1131.1, 811.0 1007.2, 773.6 1154.2" stroke="black" fill="none"/><path d="M 773.6 1154.2 C 754.5 1229.4, 662.6 1165.4, 589.9 1136.5" stroke="black" fill="none"/><path d="M 589.9 1136.5 C 500.5 1101.1, 623.6 1296.7, 530.0 1294.4" stroke="black" fill="none"/><path d="M 530.0 1294.4 C 454.8 1292.6, 620.5 1110.4, 642.1 1186.3" stroke="black" fill="none"/><path d="M 642.1 1186.3 C 678.3 1313.3, 265.4 1140.2, 376.4 1101.5" stroke="black" fill="none"/><path d="M 376.4 1101.5 C 502.7 1057.5, 482.6 1200.9, 594.4 1343.1" stroke="black" fill="none"/><path d="M 594.4 1343.1 C 655.0 1420.2, 529.3 1151.8, 601.9 1174.1" stroke="black" fill="none"/><path d="M 601.9 1174.1 C 664.7 1193.3, 752.1 1138.9, 708.1 1062.5" stroke="black" fill="none"/><path d="M 708.1 1062.5 C 678.4 1010.9, 788.9 878.6, 720.6 919.2" stroke="black" fill="none"/><path d="M 720.6 919.2 C 632.6 971.7, 712.3 802.2, 638.4 768.7" stroke="black" fill="none"/><path d="M 638.4 768.7 C 524.6 717.0, 584.4 452.0, 703.5 522.7" stroke="black" fill="none"/><path d="M 703.5 522.7 C 777.5 566.6, 631.1 516.5, 554.4 561.1" stroke="black" fill="none"/><path d="M 554.4 561.1 C 470.3 610.2, 694.9 492.6, 743.1 586.8" stroke="black" fill="none"/><path d="M 743.1 586.8 C 771.6 642.5, 828.4 460.1, 880.1 514.7" stroke="black" fill="none"/><path d="M 880.1 514.7 C 989.1 629.8, 508.8 436.5, 587.0 594.1" stroke="black" fill="none"/><path d="M 587.0 594.1 C 618.2 657.0, 639.8 476.6, 717.4 518.5" stroke="black" fill="none"/><path d="M 717.4 518.5 C 792.7 559.1, 909.7 594.0, 870.5 527.0" stroke="black" fill="none"/><path d="M 870.5 527.0 C 807.6 419.3, 556.3 674.6, 619.2 549.9" stroke="black" fill="none"/><path d="M 619.2 549.9 C 654.1 480.6, 747.1 561.6, 749.2 495.6" stroke="black" fill="none"/><path d="M 749.2 495.6 C 752.0 406.3, 842.2 628.3, 905.6 570.1" stroke="black" fill="none"/><path d="M 905.6 570.1 C 956.6 523.3, 829.1 498.9, 751.3 503.5" stroke="black" fill="none"/><path d="M 751.3 503.5 C 663.3 508.7, 931.0 512.5, 893.3 610.8" stroke="black" fill="none"/><path d="M 893.3 610.8 C 866.7 680.3, 828.4 440.1, 776.7 495.5" stroke="black" fill="none"/><path d="M 776.7 495.5 C 718.9 557.3, 999.1 572.2, 916.3 630.6" stroke="black" fill="none"/><path d="M 916.3 630.6 C 835.6 687.4, 877.8 493.1, 788.2 502.2" stroke="black" fill="none"/><path d="M 788.2 502.2 C 600.9 521.1, 473.2 605.1, 551.1 748.6" stroke="black" fill="none"/><path d="M 551.1 748.6 C 596.8 832.8, 488.0 544.3, 608.4 544.1" stroke="black" fill="none"/><path d="M 608.4 544.1 C 682.4 543.9, 507.1 618.2, 547.7 679.9" stroke="black" fill="none"/><path d="M 547.7 679.9 C 582.8 733.1, 545.3 758.0, 553.0 816.2" stroke="black" fill="none"/><path d="M 553.0 816.2 C 588.2 1082.3, 1066.0 1372.9, 1138.9 1107.9" stroke="black" fill="none"/><path d="M 1138.9 1107.9 C 1165.7 1010.7, 897.1 1097.6, 961.0 1169.9" stroke="black" fill="none"/><path d="M 961.0 1169.9 C 1031.0 1249.1, 1125.0 1072.7, 1156.1 1152.7" stroke="black" fill="none"/><path d="M 1156.1 1152.7 C 1188.3 1235.6, 1064.0 1024.1, 1011.8 1077.8" stroke="black" fill="none"/><path d="M 1011.8 1077.8 C 940.2 1151.7, 1103.5 1123.3, 1174.4 1132.3" stroke="black" fill="none"/><path d="M 1174.4 1132.3 C 1239.9 1140.7, 1149.3 1024.1, 1077.6 1037.0" stroke="black" fill="none"/><path d="M 1077.6 1037.0 C 986.1 1053.6, 920.9 1123.7, 937.4 1217.0" stroke="black" fill="none"/><path d="M 937.4 1217.0 C 957.9 1333.3, 1023.2 1039.2, 1095.2 1085.6" stroke="black" fill="none"/><path d="M 1095.2 1085.6 C 1221.0 1166.7, 788.8 1206.2, 885.7 1287.3" stroke="black" fill="none"/><path d="M 885.7 1287.3 C 949.4 1340.6, 930.5 1122.7, 980.5 1164.6" stroke="black" fill="none"/><path d="M 980.5 1164.6 C 1029.8 1205.9, 827.7 1258.0, 891.9 1287.0" stroke="black" fill="none"/><path d="M 891.9 1287.0 C 1053.0 1359.6, 1126.3 888.1, 1115.0 1063.3" stroke="black" fill="none"/><path d="M 1115.0 1063.3 C 1108.8 1160.2, 945.4 1205.3, 951.7 1116.9" stroke="black" fill="none"/><path d="M 951.7 1116.9 C 958.1 1027.4, 1122.6 1096.5, 1086.3 1028.3" stroke="black" fill="none"/><path d="M 1086.3 1028.3 C 1059.7 978.4, 1053.4 1115.0, 1003.4 1141.5" stroke="black" fill="none"/><path d="M 1003.4 1141.5 C 877.5 1208.2, 878.2 1227.4, 801.9 1363.1" stroke="black" fill="none"/><path d="M 801.9 1363.1 C 709.4 1527.5, 381.7 1041.0, 450.4 1199.0" stroke="black" fill="none"/><path d="M 450.4 1199.0 C 477.6 1261.5, 628.9 1146.3, 580.7 1098.0" stroke="black" fill="none"/><path d="M 580.7 1098.0 C 479.7 996.5, 422.0 1178.0, 325.2 1110.5" stroke="black" fill="none"/><path d="M 325.2 1110.5 C 274.3 1075.0, 400.8 1053.7, 464.3 1073.0" stroke="black" fill="none"/><path d="M 464.3 1073.0 C 541.5 1096.4, 401.8 1153.4, 333.5 1138.3" stroke="black" fill="none"/><path d="M 333.5 1138.3 C 256.7 1121.3, 409.5 1128.3, 451.9 1072.8" stroke="black" fill="none"/><path d="M 451.9 1072.8 C 508.9 998.3, 511.3 1176.1, 470.3 1273.3" stroke="black" fill="none"/><path d="M 470.3 1273.3 C 436.3 1354.0, 413.6 1127.8, 340.5 1183.7" stroke="black" fill="none"/><path d="M 340.5 1183.7 C 247.8 1254.6, 510.2 1113.3, 589.9 1207.2" stroke="black" fill="none"/><path d="M 589.9 1207.2 C 660.9 1290.8, 300.7 1168.5, 384.0 1225.0" stroke="black" fill="none"/><path d="M 384.0 1225.0 C 487.9 1295.5, 512.6 1072.6, 587.3 1161.2" stroke="black" fill="none"/><path d="M 587.3 1161.2 C 654.3 1240.5, 754.4 1011.9, 818.6 1092.8" stroke="black" fill="none"/><path d="M 818.6 1092.8 C 885.4 1176.9, 1065.5 986.1, 1005.0 1075.2" stroke="black" fill="none"/><path d="M 1005.0 1075.2 C 944.7 1163.8, 1236.5 999.1, 1198.6 1098.3" stroke="black" fill="none"/><path d="M 1198.6 1098.3 C 1172.8 1166.0, 1083.0 1138.0, 1086.5 1207.6" stroke="black" fill="none"/><path d="M 1086.5 1207.6 C 1090.6 1289.7, 949.0 1075.9, 953.4 1155.9" stroke="black" fill="none"/><path d="M 953.4 1155.9 C 958.4 1246.7, 924.7 1252.8, 843.4 1267.0" stroke="black" fill="none"/><path d="M 843.4 1267.0 C 756.4 1282.3, 774.4 1011.5, 834.1 1076.0" stroke="black" fill="none"/><path d="M 834.1 1076.0 C 945.8 1196.8, 1020.7 992.2, 1156.6 1028.0" stroke="black" fill="none"/><path d="M 1156.6 1028.0 C 1234.0 1048.4, 1094.1 1087.9, 1011.0 1095.3" stroke="black" fill="none"/><path d="M 1011.0 1095.3 C 920.0 1103.5, 927.2 1268.0, 887.4 1187.1" stroke="black" fill="none"/><path d="M 887.4 1187.1 C 830.2 1070.9, 1179.3 1083.6, 1124.4 1190.8" stroke="black" fill="none"/><path d="M 1124.4 1190.8 C 1082.8 1272.2, 1085.2 977.0, 1051.7 1048.3" stroke="black" fill="none"/><path d="M 1051.7 1048.3 C 940.8 1284.9, 584.2 1522.8, 630.1 1308.6" stroke="black" fill="none"/><path d="M 630.1 1308.6 C 658.4 1176.5, 222.9 1162.0, 373.0 1099.8" stroke="black" fill="none"/><path d="M 373.0 1099.8 C 438.4 1072.7, 424.7 1177.8, 494.3 1221.2" stroke="black" fill="none"/><path d="M 494.3 1221.2 C 560.8 1262.8, 587.7 1091.7, 527.3 1082.3" stroke="black" fill="none"/><path d="M 527.3 1082.3 C 373.8 1058.4, 259.0 1068.7, 296.2 1202.0" stroke="black" fill="none"/><path d="M 296.2 1202.0 C 325.0 1305.1, 312.7 1054.5, 426.2 1059.5" stroke="black" fill="none"/><path d="M 426.2 1059.5 C 556.8 1065.3, 489.7 1257.8, 573.4 1221.3" stroke="black" fill="none"/><path d="M 573.4 1221.3 C 630.9 1196.1, 461.4 1031.7, 470.6 1115.4" stroke="black" fill="none"/><path d="M 470.6 1115.4 C 480.7 1206.3, 583.3 1091.0, 662.6 1182.9" stroke="black" fill="none"/><path d="M 662.6 1182.9 C 722.1 1251.9, 712.8 1100.2, 782.6 1063.0" stroke="black" fill="none"/><path d="M 782.6 1063.0 C 863.0 1020.1, 650.4 1234.5, 725.1 1211.7" stroke="black" fill="none"/><path d="M 725.1 1211.7 C 804.4 1187.4, 791.4 1025.3, 830.1 1088.2" stroke="black" fill="none"/><path d="M 830.1 1088.2 C 917.2 1229.7, 973.6 986.6, 1117.8 1032.6" stroke="black" fill="none"/><path d="M 1117.8 1032.6 C 1195.8 1057.4, 968.7 1018.2, 954.4 1090.2" stroke="black" fill="none"/><path d="M 954.4 1090.2 C 939.3 1165.8, 915.4 1248.7, 982.0 1249.3" stroke="black" fill="none"/><path d="M 982.0 1249.3 C 1041.6 1249.9, 985.8 1181.5, 977.0 1113.7" stroke="black" fill="none"/><path d="M 977.0 1113.7 C 966.1 1029.5, 944.0 1317.2, 837.2 1263.0" stroke="black" fill="none"/><path d="M 837.2 1263.0 C 713.7 1200.2, 825.4 1065.7, 693.1 1079.0" stroke="black" fill="none"/><path d="M 693.1 1079.0 C 622.0 1086.2, 644.2 821.3, 703.4 902.2" stroke="black" fill="none"/><path d="M 703.4 902.2 C 758.8 977.9, 814.7 1158.8, 714.0 1124.5" stroke="black" fill="none"/><path d="M 714.0 1124.5 C 604.7 1087.3, 502.6 1273.4, 585.2 1292.9" stroke="black" fill="none"/><path d="M 585.2 1292.9 C 677.8 1314.7, 399.2 1231.2, 444.8 1109.7" stroke="black" fill="none"/><path d="M 444.8 1109.7 C 474.2 1031.5, 364.6 1131.6, 299.4 1124.7" stroke="black" fill="none"/><path d="M 299.4 1124.7 C 215.8 1115.8, 508.8 1083.1, 430.1 1046.5" stroke="black" fill="none"/><path d="M 430.1 1046.5 C 370.2 1018.6, 326.2 1252.2, 318.8 1161.1" stroke="black" fill="none"/><path d="M 318.8 1161.1 C 313.8 1100.0, 382.6 1237.4, 455.7 1211.0" stroke="black" fill="none"/><path d="M 455.7 1211.0 C 529.7 1184.2, 458.2 1104.5, 393.2 1054.5" stroke="black" fill="none"/><path d="M 393.2 1054.5 C 342.9 1015.9, 349.3 1182.3, 287.5 1156.9" stroke="black" fill="none"/><path d="M 287.5 1156.9 C 177.6 1111.9, 567.5 1138.2, 480.8 1093.5" stroke="black" fill="none"/><path d="M 480.8 1093.5 C 411.8 1057.9, 391.6 1107.8, 312.0 1116.7" stroke="black" fill="none"/><path d="M 312.0 1116.7 C 240.8 1124.6, 356.4 1177.0, 422.6 1243.3" stroke="black" fill="none"/><path d="M 422.6 1243.3 C 471.7 1292.5, 516.8 1289.7, 587.2 1266.7" stroke="black" fill="none"/><path d="M 587.2 1266.7 C 668.1 1240.2, 466.1 1298.0, 425.2 1208.6" stroke="black" fill="none"/><path d="M 425.2 1208.6 C 397.2 1147.4, 470.7 1162.7, 495.0 1088.7" stroke="black" fill="none"/><path d="M 495.0 1088.7 C 523.8 1000.9, 404.5 1131.7, 339.4 1182.3" stroke="black" fill="none"/><path d="M 339.4 1182.3 C 245.2 1255.5, 595.9 1084.7, 540.2 1182.8" stroke="black" fill="none"/><path d="M 540.2 1182.8 C 476.3 1295.2, 625.9 1372.5, 763.1 1341.2" stroke="black" fill="none"/><path d="M 763.1 1341.2 C 840.1 1323.7, 834.9 1303.4, 873.7 1253.2" stroke="black" fill="none"/><path d="M 873.7 1253.2 C 941.1 1165.9, 1007.4 1046.4, 1116.9 1125.9" stroke="black" fill="none"/><path d="M 1116.9 1125.9 C 1242.7 1217.2, 777.6 1230.2, 905.9 1280.5" stroke="black" fill="none"/><path d="M 905.9 1280.5 C 1049.4 1336.7, 914.4 1035.5, 1051.8 1052.2" stroke="black" fill="none"/><path d="M 1051.8 1052.2 C 1122.0 1060.8, 1110.1 1112.8, 1179.8 1157.9" stroke="black" fill="none"/><path d="M 1179.8 1157.9 C 1233.6 1192.8, 1087.6 1124.9, 1043.9 1189.5" stroke="black" fill="none"/><path d="M 1043.9 1189.5 C 850.7 1474.8, 314.6 537.7, 624.8 576.3" stroke="black" fill="none"/><path d="M 624.8 576.3 C 696.2 585.2, 731.9 416.8, 760.2 499.3" stroke="black" fill="none"/><path d="M 760.2 499.3 C 785.7 573.6, 933.7 539.4, 879.1 606.1" stroke="black" fill="none"/><path d="M 879.1 606.1 C 765.8 744.3, 539.2 915.4, 525.9 733.7" stroke="black" fill="none"/><path d="M 525.9 733.7 C 518.7 636.2, 615.6 461.3, 639.7 574.0" stroke="black" fill="none"/><path d="M 639.7 574.0 C 652.4 633.1, 537.5 563.6, 516.5 642.1" stroke="black" fill="none"/><path d="M 516.5 642.1 C 489.3 743.9, 594.8 497.2, 719.5 512.8" stroke="black" fill="none"/><path d="M 719.5 512.8 C 801.9 523.2, 935.6 567.7, 869.9 607.1" stroke="black" fill="none"/><path d="M 869.9 607.1 C 782.8 659.5, 863.6 822.5, 784.0 771.9" stroke="black" fill="none"/><path d="M 784.0 771.9 C 686.6 710.0, 679.5 819.1, 583.2 789.4" stroke="black" fill="none"/><path d="M 583.2 789.4 C 458.1 750.8, 667.8 481.9, 562.6 548.6" stroke="black" fill="none"/><path d="M 562.6 548.6 C 477.9 602.2, 849.9 438.0, 796.1 566.8" stroke="black" fill="none"/><path d="M 796.1 566.8 C 772.4 623.5, 690.5 419.0, 687.6 480.1" stroke="black" fill="none"/><path d="M 687.6 480.1 C 682.7 582.3, 586.9 543.6, 571.5 640.3" stroke="black" fill="none"/><path d="M 571.5 640.3 C 555.0 743.3, 634.0 830.9, 721.3 763.7" stroke="black" fill="none"/><path d="M 721.3 763.7 C 804.0 700.1, 811.6 774.1, 895.0 798.4" stroke="black" fill="none"/><path d="M 895.0 798.4 C 1053.1 844.4, 798.6 384.6, 697.3 531.0" stroke="black" fill="none"/><path d="M 697.3 531.0 C 662.3 581.7, 561.7 478.7, 563.2 558.2" stroke="black" fill="none"/><path d="M 563.2 558.2 C 564.5 622.0, 624.7 535.7, 704.1 544.2" stroke="black" fill="none"/><path d="M 704.1 544.2 C 777.2 552.0, 843.5 572.3, 860.2 505.4" stroke="black" fill="none"/><path d="M 860.2 505.4 C 877.0 438.0, 674.9 579.8, 697.0 507.4" stroke="black" fill="none"/><path d="M 697.0 507.4 C 723.5 420.8, 833.8 605.8, 879.0 524.2" stroke="black" fill="none"/><path d="M 879.0 524.2 C 914.0 461.1, 668.0 592.3, 712.7 505.5" stroke="black" fill="none"/><path d="M 712.7 505.5 C 746.1 440.5, 645.7 525.8, 556.2 508.9" stroke="black" fill="none"/><path d="M 556.2 508.9 C 493.0 496.9, 565.6 611.4, 642.9 633.1" stroke="black" fill="none"/><path d="M 642.9 633.1 C 723.3 655.6, 636.7 878.7, 602.4 804.6" stroke="black" fill="none"/><path d="M 602.4 804.6 C 561.2 715.6, 803.4 891.8, 825.1 783.2" stroke="black" fill="none"/><path d="M 825.1 783.2 C 839.0 713.8, 648.4 789.5, 692.4 848.5" stroke="black" fill="none"/><path d="M 692.4 848.5 C 792.8 983.2, 682.8 1041.7, 766.4 1222.7" stroke="black" fill="none"/><path d="M 766.4 1222.7 C 840.8 1383.7, 1215.5 903.0, 1113.6 1091.8" stroke="black" fill="none"/><path d="M 1113.6 1091.8 C 1080.6 1153.1, 1064.4 1165.6, 997.0 1174.5" stroke="black" fill="none"/><path d="M 997.0 1174.5 C 865.6 1192.0, 895.4 1313.5, 790.9 1298.9" stroke="black" fill="none"/><path d="M 790.9 1298.9 C 470.1 1254.0, 829.9 644.9, 606.7 775.7" stroke="black" fill="none"/><path d="M 606.7 775.7 C 518.6 827.3, 509.6 569.0, 577.1 607.8" stroke="black" fill="none"/><path d="M 577.1 607.8 C 656.3 653.2, 698.0 382.1, 703.9 469.1" stroke="black" fill="none"/><path d="M 703.9 469.1 C 713.6 610.2, 598.3 530.9, 523.7 644.9" stroke="black" fill="none"/><path d="M 523.7 644.9 C 456.1 748.1, 839.8 882.4, 798.5 758.5" stroke="black" fill="none"/><path d="M 798.5 758.5 C 769.6 671.6, 654.4 845.0, 585.0 791.6" stroke="black" fill="none"/><path d="M 585.0 791.6 C 431.5 673.5, 671.7 435.6, 802.6 512.1" stroke="black" fill="none"/><path d="M 802.6 512.1 C 907.8 573.7, 604.7 491.7, 589.6 594.8" stroke="black" fill="none"/><path d="M 589.6 594.8 C 574.7 695.7, 734.9 814.8, 648.3 775.0" stroke="black" fill="none"/><path d="M 648.3 775.0 C 518.2 715.2, 539.2 671.0, 550.6 551.1" stroke="black" fill="none"/><path d="M 550.6 551.1 C 557.1 483.1, 707.2 572.2, 697.6 475.1" stroke="black" fill="none"/><path d="M 697.6 475.1 C 691.1 408.0, 775.8 498.0, 810.9 563.3" stroke="black" fill="none"/><path d="M 810.9 563.3 C 853.7 643.1, 690.2 432.3, 636.4 523.6" stroke="black" fill="none"/><path d="M 636.4 523.6 C 581.2 617.4, 970.8 498.1, 895.3 580.6" stroke="black" fill="none"/><path d="M 895.3 580.6 C 856.6 622.9, 854.1 516.6, 880.2 442.9" stroke="black" fill="none"/><path d="M 880.2 442.9 C 915.0 344.6, 853.8 681.6, 978.1 676.5" stroke="black" fill="none"/><path d="M 978.1 676.5 C 1104.3 671.2, 710.3 582.4, 824.1 500.5" stroke="black" fill="none"/><path d="M 824.1 500.5 C 899.2 446.5, 717.3 548.5, 663.3 488.3" stroke="black" fill="none"/><path d="M 663.3 488.3 C 571.4 386.1, 855.5 624.1, 898.7 529.9" stroke="black" fill="none"/><path d="M 898.7 529.9 C 933.7 453.6, 789.4 584.7, 730.8 526.3" stroke="black" fill="none"/><path d="M 730.8 526.3 C 661.0 456.7, 524.7 663.1, 555.5 578.0" stroke="black" fill="none"/><path d="M 555.5 578.0 C 606.0 438.2, 844.6 656.5, 886.0 503.1" stroke="black" fill="none"/><path d="M 886.0 503.1 C 913.0 403.2, 691.8 611.4, 661.3 518.3" stroke="black" fill="none"/><path d="M 661.3 518.3 C 633.4 433.0, 437.6 705.5, 552.4 701.2" stroke="black" fill="none"/><path d="M 552.4 701.2 C 788.8 692.4, 686.8 1277.9, 845.5 1094.6" stroke="black" fill="none"/><path d="M 845.5 1094.6 C 942.5 982.6, 390.4 1228.8, 494.2 1063.1" stroke="black" fill="none"/><path d="M 494.2 1063.1 C 528.7 1007.9, 559.1 1174.1, 622.9 1128.1" stroke="black" fill="none"/><path d="M 622.9 1128.1 C 752.9 1034.2, 269.9 1263.1, 332.1 1104.2" stroke="black" fill="none"/><path d="M 332.1 1104.2 C 361.5 1029.0, 400.8 1070.4, 464.2 1052.2" stroke="black" fill="none"/><path d="M 464.2 1052.2 C 555.3 1026.1, 514.0 1298.4, 417.2 1248.0" stroke="black" fill="none"/><path d="M 417.2 1248.0 C 336.4 1205.9, 406.0 1060.3, 330.3 1081.3" stroke="black" fill="none"/><path d="M 330.3 1081.3 C 218.7 1112.2, 561.2 1367.7, 542.9 1229.4" stroke="black" fill="none"/><path d="M 542.9 1229.4 C 527.5 1113.0, 550.3 1111.5, 449.8 1056.4" stroke="black" fill="none"/><path d="M 449.8 1056.4 C 387.9 1022.5, 484.8 1127.9, 494.6 1184.2" stroke="black" fill="none"/><path d="M 494.6 1184.2 C 552.4 1517.5, 885.4 1356.2, 1067.6 1075.9" stroke="black" fill="none"/><path d="M 1067.6 1075.9 C 1105.0 1018.5, 883.0 1069.6, 936.8 1114.8" stroke="black" fill="none"/><path d="M 936.8 1114.8 C 1079.5 1234.8, 769.8 1414.6, 546.7 1338.7" stroke="black" fill="none"/><path d="M 546.7 1338.7 C 408.1 1291.6, 595.7 997.7, 507.8 1091.6" stroke="black" fill="none"/><path d="M 507.8 1091.6 C 428.3 1176.7, 376.1 1071.5, 300.4 1155.0" stroke="black" fill="none"/><path d="M 300.4 1155.0 C 250.2 1210.4, 386.4 1124.8, 437.9 1160.1" stroke="black" fill="none"/><path d="M 437.9 1160.1 C 512.4 1211.1, 597.9 1087.7, 630.0 1158.5" stroke="black" fill="none"/><path d="M 630.0 1158.5 C 671.0 1248.7, 419.9 979.0, 430.0 1092.8" stroke="black" fill="none"/><path d="M 430.0 1092.8 C 437.1 1172.7, 534.7 1070.4, 584.0 1116.9" stroke="black" fill="none"/><path d="M 584.0 1116.9 C 663.0 1191.5, 762.5 1031.4, 772.2 1108.4" stroke="black" fill="none"/><path d="M 772.2 1108.4 C 780.7 1176.9, 674.2 1193.1, 615.0 1139.8" stroke="black" fill="none"/><path d="M 615.0 1139.8 C 539.0 1071.2, 514.5 1365.2, 609.8 1336.3" stroke="black" fill="none"/><path d="M 609.8 1336.3 C 662.9 1320.2, 665.0 1417.4, 733.6 1396.6" stroke="black" fill="none"/><path d="M 733.6 1396.6 C 997.2 1316.3, 874.1 962.9, 1171.3 1068.5" stroke="black" fill="none"/><path d="M 1171.3 1068.5 C 1281.7 1107.8, 935.9 1082.6, 987.1 1151.3" stroke="black" fill="none"/><path d="M 987.1 1151.3 C 1038.8 1220.7, 779.6 1328.7, 872.9 1314.4" stroke="black" fill="none"/><path d="M 872.9 1314.4 C 937.6 1304.6, 956.6 1176.7, 891.6 1170.9" stroke="black" fill="none"/><path d="M 891.6 1170.9 C 792.9 1162.1, 1201.0 1050.5, 1070.7 1023.6" stroke="black" fill="none"/><path d="M 1070.7 1023.6 C 962.6 1001.4, 973.6 1273.2, 939.3 1172.1" stroke="black" fill="none"/><path d="M 939.3 1172.1 C 909.3 1083.9, 949.7 1307.4, 855.2 1306.5" stroke="black" fill="none"/><path d="M 855.2 1306.5 C 742.5 1305.5, 812.2 1002.7, 773.4 1093.1" stroke="black" fill="none"/><path d="M 773.4 1093.1 C 741.4 1167.4, 623.7 1057.5, 612.6 1158.4" stroke="black" fill="none"/><path d="M 612.6 1158.4 C 603.3 1243.0, 823.7 1046.2, 778.5 1107.3" stroke="black" fill="none"/><path d="M 778.5 1107.3 C 731.7 1170.5, 701.7 1123.0, 624.3 1125.8" stroke="black" fill="none"/><path d="M 624.3 1125.8 C 486.3 1130.8, 305.1 1164.3, 398.0 1060.2" stroke="black" fill="none"/><path d="M 398.0 1060.2 C 453.9 997.6, 350.7 1297.7, 451.9 1249.3" stroke="black" fill="none"/><path d="M 451.9 1249.3 C 545.5 1204.5, 266.0 1248.3, 283.7 1135.9" stroke="black" fill="none"/><path d="M 283.7 1135.9 C 305.6 997.6, 618.5 1195.1, 562.5 1071.5" stroke="black" fill="none"/><path d="M 562.5 1071.5 C 530.0 999.6, 476.9 1254.7, 448.1 1179.0" stroke="black" fill="none"/><path d="M 448.1 1179.0 C 423.9 1115.5, 408.7 1070.3, 350.7 1078.6" stroke="black" fill="none"/><path d="M 350.7 1078.6 C 243.7 1093.8, 461.6 1267.7, 518.8 1185.0" stroke="black" fill="none"/><path d="M 518.8 1185.0 C 562.6 1121.6, 350.2 1026.9, 339.1 1128.0" stroke="black" fill="none"/><path d="M 339.1 1128.0 C 329.5 1214.4, 405.0 1182.4, 468.5 1230.3" stroke="black" fill="none"/><path d="M 468.5 1230.3 C 556.6 1296.9, 520.5 1162.0, 586.9 1084.3" stroke="black" fill="none"/><path d="M 586.9 1084.3 C 639.8 1022.5, 525.9 1282.8, 609.1 1251.9" stroke="black" fill="none"/><path d="M 609.1 1251.9 C 745.5 1201.1, 681.6 1110.9, 774.5 1065.5" stroke="black" fill="none"/><path d="M 774.5 1065.5 C 855.2 1026.0, 790.8 1148.6, 767.7 1238.0" stroke="black" fill="none"/><path d="M 767.7 1238.0 C 708.1 1467.9, 1051.3 1247.3, 1169.7 1118.2" stroke="black" fill="none"/><path d="M 1169.7 1118.2 C 1223.0 1060.1, 934.8 1106.9, 1014.5 1048.2" stroke="black" fill="none"/><path d="M 1014.5 1048.2 C 1091.6 991.4, 1249.8 1070.6, 1188.1 1181.4" stroke="black" fill="none"/><path d="M 1188.1 1181.4 C 1155.9 1239.3, 1161.3 964.9, 1130.4 1039.0" stroke="black" fill="none"/><path d="M 1130.4 1039.0 C 1104.2 1101.6, 1230.9 1168.0, 1151.4 1197.5" stroke="black" fill="none"/><path d="M 1151.4 1197.5 C 1081.9 1223.3, 1261.0 1058.7, 1184.3 1064.5" stroke="black" fill="none"/><path d="M 1184.3 1064.5 C 1106.2 1070.4, 1132.7 1163.9, 1155.7 1243.2" stroke="black" fill="none"/><path d="M 1155.7 1243.2 C 1176.1 1313.6, 995.9 1206.9, 1019.0 1265.9" stroke="black" fill="none"/><path d="M 1019.0 1265.9 C 1045.7 1334.2, 880.7 1296.6, 873.2 1232.9" stroke="black" fill="none"/><path d="M 873.2 1232.9 C 863.7 1152.7, 937.8 1054.4, 1001.6 1116.2" stroke="black" fill="none"/><path d="M 1001.6 1116.2 C 1054.3 1167.2, 960.7 1193.8, 977.8 1256.0" stroke="black" fill="none"/><path d="M 977.8 1256.0 C 997.5 1327.6, 1001.0 1149.6, 1065.3 1109.7" stroke="black" fill="none"/><path d="M 1065.3 1109.7 C 1116.4 1078.0, 935.7 1225.4, 1011.4 1243.6" stroke="black" fill="none"/><path d="M 1011.4 1243.6 C 1086.4 1261.7, 944.8 1178.7, 921.5 1090.6" stroke="black" fill="none"/><path d="M 921.5 1090.6 C 903.3 1021.4, 939.3 1280.4, 854.0 1247.9" stroke="black" fill="none"/><path d="M 854.0 1247.9 C 787.4 1222.6, 748.3 1083.3, 814.7 1116.6" stroke="black" fill="none"/><path d="M 814.7 1116.6 C 891.2 1155.0, 942.4 1136.1, 979.8 1072.8" stroke="black" fill="none"/><path d="M 979.8 1072.8 C 1017.7 1008.8, 1108.6 1056.8, 1137.4 1146.1" stroke="black" fill="none"/><path d="M 1137.4 1146.1 C 1170.1 1247.4, 947.3 1042.7, 956.0 1132.2" stroke="black" fill="none"/><path d="M 956.0 1132.2 C 967.2 1246.5, 750.2 1312.5, 852.7 1312.8" stroke="black" fill="none"/><path d="M 852.7 1312.8 C 944.4 1313.1, 986.0 1238.9, 935.2 1173.1" stroke="black" fill="none"/><path d="M 935.2 1173.1 C 848.2 1060.5, 1056.6 1056.7, 1183.5 1094.5" stroke="black" fill="none"/><path d="M 1183.5 1094.5 C 1319.1 1135.0, 982.2 1086.3, 966.1 1192.5" stroke="black" fill="none"/><path d="M 966.1 1192.5 C 926.1 1457.8, 423.5 1419.5, 414.1 1187.1" stroke="black" fill="none"/><path d="M 414.1 1187.1 C 409.5 1074.0, 559.2 1044.0, 653.9 1121.0" stroke="black" fill="none"/><path d="M 653.9 1121.0 C 710.8 1167.3, 820.9 1010.0, 806.3 1085.3" stroke="black" fill="none"/><path d="M 806.3 1085.3 C 787.0 1184.6, 767.6 973.4, 690.7 954.0" stroke="black" fill="none"/><path d="M 690.7 954.0 C 623.3 937.0, 638.9 745.8, 711.7 793.5" stroke="black" fill="none"/><path d="M 711.7 793.5 C 778.5 837.3, 574.1 746.0, 521.2 816.1" stroke="black" fill="none"/><path d="M 521.2 816.1 C 432.2 934.0, 928.2 675.4, 847.3 807.4" stroke="black" fill="none"/><path d="M 847.3 807.4 C 804.5 877.3, 651.1 749.2, 688.8 801.5" stroke="black" fill="none"/><path d="M 688.8 801.5 C 734.5 864.9, 595.2 753.8, 524.4 760.5" stroke="black" fill="none"/><path d="M 524.4 760.5 C 374.3 774.7, 917.4 1126.8, 725.4 1073.4" stroke="black" fill="none"/><path d="M 725.4 1073.4 C 618.2 1043.5, 501.9 1170.3, 586.5 1260.0" stroke="black" fill="none"/><path d="M 586.5 1260.0 C 632.3 1308.6, 507.2 1299.4, 451.3 1270.1" stroke="black" fill="none"/><path d="M 451.3 1270.1 C 386.8 1236.2, 469.9 1095.1, 552.3 1125.7" stroke="black" fill="none"/><path d="M 552.3 1125.7 C 623.4 1152.1, 517.0 1284.9, 605.9 1298.7" stroke="black" fill="none"/><path d="M 605.9 1298.7 C 664.8 1307.8, 433.4 1322.8, 484.9 1372.0" stroke="black" fill="none"/><path d="M 484.9 1372.0 C 553.6 1437.5, 626.9 1111.1, 525.8 1159.8" stroke="black" fill="none"/><path d="M 525.8 1159.8 C 413.8 1213.7, 172.7 1191.6, 274.0 1127.5" stroke="black" fill="none"/><path d="M 274.0 1127.5 C 339.5 1086.0, 504.5 1127.7, 439.6 1177.0" stroke="black" fill="none"/><path d="M 439.6 1177.0 C 375.4 1225.7, 485.0 1300.3, 547.3 1290.8" stroke="black" fill="none"/><path d="M 547.3 1290.8 C 613.7 1280.6, 585.6 1091.1, 506.9 1134.7" stroke="black" fill="none"/><path d="M 506.9 1134.7 C 425.3 1179.9, 372.5 1047.1, 307.3 1115.4" stroke="black" fill="none"/><path d="M 307.3 1115.4 C 257.6 1167.6, 405.3 1091.0, 458.7 1156.4" stroke="black" fill="none"/><path d="M 458.7 1156.4 C 508.7 1217.6, 563.5 1079.1, 638.5 1130.8" stroke="black" fill="none"/><path d="M 638.5 1130.8 C 694.2 1169.1, 759.5 1072.1, 734.7 1009.8" stroke="black" fill="none"/><path d="M 734.7 1009.8 C 664.0 832.3, 1093.6 594.0, 857.8 599.9" stroke="black" fill="none"/><path d="M 857.8 599.9 C 714.8 603.5, 506.2 553.5, 608.8 513.7" stroke="black" fill="none"/><path d="M 608.8 513.7 C 711.3 474.0, 470.6 629.0, 536.3 693.8" stroke="black" fill="none"/><path d="M 536.3 693.8 C 575.1 732.1, 542.6 515.6, 588.6 568.7" stroke="black" fill="none"/><path d="M 588.6 568.7 C 635.5 622.9, 729.1 479.7, 722.2 536.2" stroke="black" fill="none"/><path d="M 722.2 536.2 C 711.0 628.2, 604.3 484.4, 540.9 557.3" stroke="black" fill="none"/><path d="M 540.9 557.3 C 453.9 657.5, 838.1 404.2, 810.9 552.8" stroke="black" fill="none"/><path d="M 810.9 552.8 C 797.5 626.4, 721.8 494.5, 635.8 551.3" stroke="black" fill="none"/><path d="M 635.8 551.3 C 552.3 606.5, 494.7 692.8, 584.8 755.9" stroke="black" fill="none"/><path d="M 584.8 755.9 C 679.3 822.1, 703.3 774.1, 836.5 804.2" stroke="black" fill="none"/><path d="M 836.5 804.2 C 940.8 827.8, 883.1 510.2, 939.5 597.7" stroke="black" fill="none"/><path d="M 939.5 597.7 C 1016.1 716.4, 778.3 475.9, 677.0 533.8" stroke="black" fill="none"/><path d="M 677.0 533.8 C 565.6 597.5, 512.3 644.4, 576.5 736.0" stroke="black" fill="none"/><path d="M 576.5 736.0 C 620.2 798.3, 671.9 814.0, 711.4 758.3" stroke="black" fill="none"/><path d="M 711.4 758.3 C 773.1 671.1, 555.5 533.7, 657.3 557.1" stroke="black" fill="none"/><path d="M 657.3 557.1 C 754.4 579.3, 781.4 452.7, 870.3 535.0" stroke="black" fill="none"/><path d="M 870.3 535.0 C 922.2 583.0, 911.0 587.4, 938.5 661.0" stroke="black" fill="none"/><path d="M 938.5 661.0 C 1005.4 839.9, 756.3 371.6, 615.7 522.8" stroke="black" fill="none"/><path d="M 615.7 522.8 C 557.0 585.9, 484.5 679.6, 552.8 663.5" stroke="black" fill="none"/><path d="M 552.8 663.5 C 633.9 644.4, 545.1 499.2, 612.1 508.8" stroke="black" fill="none"/><path d="M 612.1 508.8 C 707.9 522.7, 609.5 620.0, 518.1 659.8" stroke="black" fill="none"/><path d="M 518.1 659.8 C 443.8 692.3, 711.8 723.7, 647.3 806.3" stroke="black" fill="none"/><path d="M 647.3 806.3 C 575.3 898.6, 460.3 606.1, 564.3 608.4" stroke="black" fill="none"/><path d="M 564.3 608.4 C 678.1 611.0, 635.6 525.6, 702.3 446.2" stroke="black" fill="none"/><path d="M 702.3 446.2 C 815.5 311.5, 597.4 891.6, 738.6 780.8" stroke="black" fill="none"/><path d="M 738.6 780.8 C 857.0 688.0, 994.0 602.2, 855.3 507.0" stroke="black" fill="none"/><path d="M 855.3 507.0 C 775.0 451.9, 963.4 591.2, 901.6 670.0" stroke="black" fill="none"/><path d="M 901.6 670.0 C 792.2 809.4, 476.4 881.8, 558.9 725.8" stroke="black" fill="none"/><path d="M 558.9 725.8 C 587.4 671.8, 497.7 550.4, 565.8 576.5" stroke="black" fill="none"/><path d="M 565.8 576.5 C 622.4 598.2, 501.1 673.4, 547.6 713.2" stroke="black" fill="none"/><path d="M 547.6 713.2 C 667.0 815.7, 839.7 865.2, 814.4 744.1" stroke="black" fill="none"/><path d="M 814.4 744.1 C 801.0 680.3, 686.5 873.8, 692.5 802.5" stroke="black" fill="none"/><path d="M 692.5 802.5 C 698.8 728.0, 859.0 839.7, 864.9 741.3" stroke="black" fill="none"/><path d="M 864.9 741.3 C 874.3 584.7, 465.4 533.1, 630.0 525.3" stroke="black" fill="none"/><path d="M 630.0 525.3 C 701.8 521.9, 602.3 617.5, 524.0 618.6" stroke="black" fill="none"/><path d="M 524.0 618.6 C 459.3 619.6, 572.2 573.5, 634.6 509.8" stroke="black" fill="none"/><path d="M 634.6 509.8 C 713.0 429.7, 951.6 617.9, 888.9 518.4" stroke="black" fill="none"/><path d="M 888.9 518.4 C 826.5 419.4, 827.3 894.2, 792.1 756.6" stroke="black" fill="none"/><path d="M 792.1 756.6 C 757.2 620.5, 698.9 439.2, 623.9 569.9" stroke="black" fill="none"/><path d="M 623.9 569.9 C 584.6 638.4, 719.4 468.6, 801.5 492.8" stroke="black" fill="none"/><path d="M 801.5 492.8 C 886.8 517.9, 968.9 575.2, 899.4 616.6" stroke="black" fill="none"/><path d="M 899.4 616.6 C 761.3 698.8, 470.8 508.8, 547.9 648.6" stroke="black" fill="none"/><path d="M 547.9 648.6 C 591.1 726.9, 479.7 819.2, 561.8 803.6" stroke="black" fill="none"/><path d="M 561.8 803.6 C 629.8 790.6, 746.4 777.7, 688.3 731.1" stroke="black" fill="none"/><path d="M 688.3 731.1 C 602.9 662.7, 559.0 492.6, 631.5 535.8" stroke="black" fill="none"/><path d="M 631.5 535.8 C 715.8 586.1, 790.1 479.4, 796.9 558.2" stroke="black" fill="none"/><path d="M 796.9 558.2 C 825.9 895.4, 855.6 908.5, 605.9 1130.2" stroke="black" fill="none"/><path d="M 605.9 1130.2 C 514.9 1210.9, 551.0 1250.7, 600.0 1339.5" stroke="black" fill="none"/><path d="M 600.0 1339.5 C 664.5 1456.6, 798.5 1345.3, 872.5 1232.2" stroke="black" fill="none"/><path d="M 872.5 1232.2 C 952.8 1109.5, 1158.6 1189.3, 1095.0 1074.4" stroke="black" fill="none"/><path d="M 1095.0 1074.4 C 1064.8 1019.9, 1076.2 1250.5, 1032.3 1209.0" stroke="black" fill="none"/><path d="M 1032.3 1209.0 C 976.5 1156.2, 1003.7 1000.3, 969.5 1077.3" stroke="black" fill="none"/><path d="M 969.5 1077.3 C 935.3 1154.1, 1167.2 974.3, 1126.6 1043.7" stroke="black" fill="none"/><path d="M 1126.6 1043.7 C 983.2 1289.4, 417.0 1541.7, 555.9 1236.2" stroke="black" fill="none"/><path d="M 555.9 1236.2 C 601.4 1135.9, 253.4 1251.7, 348.8 1200.9" stroke="black" fill="none"/><path d="M 348.8 1200.9 C 462.6 1140.4, 676.3 1034.8, 647.5 1210.2" stroke="black" fill="none"/><path d="M 647.5 1210.2 C 625.3 1344.7, 356.8 1076.3, 422.7 1160.5" stroke="black" fill="none"/><path d="M 422.7 1160.5 C 601.8 1389.4, 790.9 1452.0, 955.8 1195.6" stroke="black" fill="none"/><path d="M 955.8 1195.6 C 1062.4 1029.9, 492.8 1027.1, 532.1 1201.2" stroke="black" fill="none"/><path d="M 532.1 1201.2 C 562.2 1334.7, 610.8 1436.2, 775.7 1381.7" stroke="black" fill="none"/><path d="M 775.7 1381.7 C 932.7 1329.8, 904.4 1035.9, 1037.7 1143.7" stroke="black" fill="none"/><path d="M 1037.7 1143.7 C 1158.2 1241.0, 617.1 1308.2, 777.1 1361.3" stroke="black" fill="none"/><path d="M 777.1 1361.3 C 873.1 1393.2, 687.2 1086.7, 819.5 1122.0" stroke="black" fill="none"/><path d="M 819.5 1122.0 C 1026.5 1177.1, 1246.1 1182.3, 1171.5 1031.8" stroke="black" fill="none"/><path d="M 1171.5 1031.8 C 1131.1 950.2, 952.7 1138.9, 980.9 1041.4" stroke="black" fill="none"/><path d="M 980.9 1041.4 C 1004.1 961.3, 1224.0 1160.5, 1175.5 1090.2" stroke="black" fill="none"/><path d="M 1175.5 1090.2 C 1107.7 991.9, 1129.3 1246.1, 986.5 1268.7" stroke="black" fill="none"/><path d="M 986.5 1268.7 C 875.0 1286.3, 1231.2 1138.7, 1132.5 1039.0" stroke="black" fill="none"/><path d="M 1132.5 1039.0 C 1075.3 981.2, 1056.9 1159.6, 965.3 1141.0" stroke="black" fill="none"/><path d="M 965.3 1141.0 C 886.1 1125.0, 965.9 1313.9, 879.7 1275.4" stroke="black" fill="none"/><path d="M 879.7 1275.4 C 773.5 1227.9, 1193.7 1271.8, 1124.8 1157.6" stroke="black" fill="none"/><path d="M 1124.8 1157.6 C 1063.4 1056.0, 1007.9 1404.2, 892.8 1319.0" stroke="black" fill="none"/><path d="M 892.8 1319.0 C 759.7 1220.4, 534.2 990.7, 750.9 936.4" stroke="black" fill="none"/><path d="M 750.9 936.4 C 816.9 919.8, 666.0 906.9, 645.9 811.0" stroke="black" fill="none"/><path d="M 645.9 811.0 C 622.2 698.3, 828.3 840.7, 912.0 725.0" stroke="black" fill="none"/><path d="M 912.0 725.0 C 967.2 648.8, 852.6 471.3, 819.8 564.7" stroke="black" fill="none"/><path d="M 819.8 564.7 C 791.3 645.6, 639.7 492.8, 702.0 478.2" stroke="black" fill="none"/><path d="M 702.0 478.2 C 810.7 452.9, 572.1 550.1, 553.5 689.9" stroke="black" fill="none"/><path d="M 553.5 689.9 C 534.2 836.0, 667.1 774.1, 821.6 819.2" stroke="black" fill="none"/><path d="M 821.6 819.2 C 894.2 840.4, 796.0 746.8, 732.1 698.4" stroke="black" fill="none"/><path d="M 732.1 698.4 C 610.8 606.5, 624.5 1056.3, 774.9 993.5" stroke="black" fill="none"/><path d="M 774.9 993.5 C 847.2 963.4, 713.9 949.5, 669.6 883.1" stroke="black" fill="none"/><path d="M 669.6 883.1 C 585.2 756.5, 1042.9 781.0, 918.0 726.7" stroke="black" fill="none"/><path d="M 918.0 726.7 C 821.7 684.8, 765.9 905.1, 873.5 904.5" stroke="black" fill="none"/><path d="M 873.5 904.5 C 1024.6 903.8, 873.1 731.5, 944.2 645.1" stroke="black" fill="none"/><path d="M 944.2 645.1 C 986.5 593.7, 776.3 568.8, 846.5 513.3" stroke="black" fill="none"/><path d="M 846.5 513.3 C 902.6 468.9, 908.5 687.5, 964.3 632.6" stroke="black" fill="none"/><path d="M 964.3 632.6 C 1025.1 572.7, 735.0 481.0, 839.2 492.4" stroke="black" fill="none"/><path d="M 839.2 492.4 C 905.7 499.6, 853.2 582.0, 924.6 634.0" stroke="black" fill="none"/><path d="M 924.6 634.0 C 977.3 672.5, 842.8 524.4, 891.7 491.6" stroke="black" fill="none"/><path d="M 891.7 491.6 C 1126.5 334.2, 570.3 1203.1, 868.2 1182.0" stroke="black" fill="none"/><path d="M 868.2 1182.0 C 976.6 1174.3, 861.4 1293.1, 877.3 1375.6" stroke="black" fill="none"/><path d="M 877.3 1375.6 C 892.9 1457.1, 777.3 1293.0, 694.9 1351.6" stroke="black" fill="none"/><path d="M 694.9 1351.6 C 629.9 1397.8, 591.0 1314.9, 583.4 1256.7" stroke="black" fill="none"/><path d="M 583.4 1256.7 C 574.0 1183.9, 436.3 1333.5, 402.9 1257.3" stroke="black" fill="none"/><path d="M 402.9 1257.3 C 376.8 1197.8, 298.1 1235.3, 278.5 1164.6" stroke="black" fill="none"/><path d="M 278.5 1164.6 C 256.2 1084.2, 423.2 1347.2, 438.7 1250.3" stroke="black" fill="none"/><path d="M 438.7 1250.3 C 454.7 1150.7, 564.0 1013.9, 611.1 1098.4" stroke="black" fill="none"/><path d="M 611.1 1098.4 C 646.7 1162.4, 539.8 1061.3, 481.4 1051.6" stroke="black" fill="none"/><path d="M 481.4 1051.6 C 374.6 1033.9, 350.4 1125.5, 237.6 1163.2" stroke="black" fill="none"/><path d="M 237.6 1163.2 C 159.7 1189.2, 451.9 1289.8, 409.3 1225.3" stroke="black" fill="none"/><path d="M 409.3 1225.3 C 366.7 1160.7, 389.2 1150.8, 388.0 1059.4" stroke="black" fill="none"/><path d="M 388.0 1059.4 C 387.1 995.7, 442.9 1206.7, 486.4 1167.1" stroke="black" fill="none"/><path d="M 486.4 1167.1 C 539.7 1118.6, 567.7 1050.5, 613.0 1116.7" stroke="black" fill="none"/><path d="M 613.0 1116.7 C 712.3 1261.9, 403.7 1025.9, 263.8 1165.8" stroke="black" fill="none"/><path d="M 263.8 1165.8 C 219.8 1209.9, 346.4 1217.9, 407.7 1164.6" stroke="black" fill="none"/><path d="M 407.7 1164.6 C 489.9 1093.0, 589.2 1217.0, 557.6 1288.7" stroke="black" fill="none"/><path d="M 557.6 1288.7 C 519.6 1374.8, 645.2 1336.7, 705.8 1370.1" stroke="black" fill="none"/><path d="M 705.8 1370.1 C 839.0 1443.5, 878.7 1084.7, 995.4 1230.0" stroke="black" fill="none"/><path d="M 995.4 1230.0 C 1044.2 1290.7, 1139.1 1033.7, 1150.1 1138.4" stroke="black" fill="none"/><path d="M 1150.1 1138.4 C 1168.3 1311.5, 994.8 1210.8, 886.3 1368.4" stroke="black" fill="none"/><path d="M 886.3 1368.4 C 735.9 1586.8, 420.9 1113.8, 436.6 1352.7" stroke="black" fill="none"/><path d="M 436.6 1352.7 C 442.8 1447.7, 658.4 1247.0, 553.6 1172.5" stroke="black" fill="none"/><path d="M 553.6 1172.5 C 454.6 1102.1, 563.9 1473.8, 612.0 1370.8" stroke="black" fill="none"/><path d="M 612.0 1370.8 C 642.5 1305.6, 684.0 1390.3, 786.3 1380.0" stroke="black" fill="none"/><path d="M 786.3 1380.0 C 871.3 1371.3, 818.1 1292.0, 895.6 1244.9" stroke="black" fill="none"/><path d="M 895.6 1244.9 C 962.6 1204.2, 1102.8 1222.2, 1058.8 1298.0" stroke="black" fill="none"/><path d="M 1058.8 1298.0 C 1017.2 1369.6, 884.8 1221.6, 907.6 1280.0" stroke="black" fill="none"/><path d="M 907.6 1280.0 C 945.4 1376.6, 628.9 1303.1, 716.1 1369.1" stroke="black" fill="none"/><path d="M 716.1 1369.1 C 764.9 1406.0, 640.5 1437.9, 580.5 1386.9" stroke="black" fill="none"/><path d="M 580.5 1386.9 C 500.6 1319.0, 666.7 1355.8, 783.2 1339.6" stroke="black" fill="none"/><path d="M 783.2 1339.6 C 992.3 1310.4, 1258.7 1198.9, 1102.6 1016.0" stroke="black" fill="none"/><path d="M 1102.6 1016.0 C 1050.2 954.6, 1129.5 1211.2, 1018.8 1190.6" stroke="black" fill="none"/><path d="M 1018.8 1190.6 C 887.2 1166.2, 1099.6 984.0, 1224.8 1049.5" stroke="black" fill="none"/><path d="M 1224.8 1049.5 C 1304.4 1091.1, 1080.9 1277.1, 1041.0 1162.9" stroke="black" fill="none"/><path d="M 1041.0 1162.9 C 951.8 907.7, 334.0 1242.4, 549.5 1068.4" stroke="black" fill="none"/><path d="M 549.5 1068.4 C 616.3 1014.5, 599.6 1213.5, 699.5 1206.3" stroke="black" fill="none"/><path d="M 699.5 1206.3 C 921.4 1190.3, 600.5 1024.7, 645.2 816.8" stroke="black" fill="none"/><path d="M 645.2 816.8 C 663.8 730.3, 875.4 755.6, 818.9 819.4" stroke="black" fill="none"/><path d="M 818.9 819.4 C 673.0 984.2, 885.6 1297.4, 738.9 1181.6" stroke="black" fill="none"/><path d="M 738.9 1181.6 C 692.0 1144.6, 687.9 1146.5, 608.2 1146.3" stroke="black" fill="none"/><path d="M 608.2 1146.3 C 517.2 1146.1, 440.6 1279.4, 515.4 1340.2" stroke="black" fill="none"/><path d="M 515.4 1340.2 C 581.3 1393.9, 680.1 1418.7, 657.6 1357.8" stroke="black" fill="none"/><path d="M 657.6 1357.8 C 581.2 1151.8, 112.7 1292.6, 305.8 1146.2" stroke="black" fill="none"/><path d="M 305.8 1146.2 C 388.4 1083.6, 489.8 1024.9, 519.4 1107.2" stroke="black" fill="none"/><path d="M 519.4 1107.2 C 544.9 1178.1, 588.2 1111.8, 636.6 1175.2" stroke="black" fill="none"/><path d="M 636.6 1175.2 C 680.3 1232.4, 713.0 1087.2, 778.5 1109.5" stroke="black" fill="none"/><path d="M 778.5 1109.5 C 894.8 1149.1, 496.6 1175.4, 585.4 1220.8" stroke="black" fill="none"/><path d="M 585.4 1220.8 C 727.3 1293.1, 622.5 773.3, 724.5 912.4" stroke="black" fill="none"/><path d="M 724.5 912.4 C 799.4 1014.4, 621.6 1252.8, 696.2 1171.8" stroke="black" fill="none"/><path d="M 696.2 1171.8 C 742.0 1122.0, 514.7 1123.0, 564.4 1071.9" stroke="black" fill="none"/><path d="M 564.4 1071.9 C 638.1 996.2, 477.2 1325.3, 564.5 1269.1" stroke="black" fill="none"/><path d="M 564.5 1269.1 C 687.0 1190.2, 358.7 1382.2, 301.8 1241.0" stroke="black" fill="none"/><path d="M 301.8 1241.0 C 270.2 1162.7, 387.7 1108.6, 493.5 1159.8" stroke="black" fill="none"/><path d="M 493.5 1159.8 C 584.2 1203.6, 549.2 1372.9, 636.2 1335.6" stroke="black" fill="none"/><path d="M 636.2 1335.6 C 807.3 1262.1, 169.3 1235.5, 336.2 1129.6" stroke="black" fill="none"/><path d="M 336.2 1129.6 C 400.6 1088.7, 394.3 1193.4, 464.6 1266.7" stroke="black" fill="none"/><path d="M 464.6 1266.7 C 528.8 1333.6, 412.3 1087.5, 487.7 1098.6" stroke="black" fill="none"/><path d="M 487.7 1098.6 C 640.2 1121.1, 856.4 1181.6, 740.6 1229.5" stroke="black" fill="none"/><path d="M 740.6 1229.5 C 678.7 1255.1, 637.5 1114.2, 599.0 1173.9" stroke="black" fill="none"/><path d="M 599.0 1173.9 C 524.9 1288.9, 449.2 1233.5, 320.2 1244.2" stroke="black" fill="none"/><path d="M 320.2 1244.2 C 239.9 1250.9, 302.3 1064.0, 393.4 1082.7" stroke="black" fill="none"/><path d="M 393.4 1082.7 C 499.3 1104.4, 365.0 1256.1, 237.0 1275.4" stroke="black" fill="none"/><path d="M 237.0 1275.4 C 136.5 1290.6, 401.5 1008.9, 391.4 1117.3" stroke="black" fill="none"/><path d="M 391.4 1117.3 C 385.3 1184.1, 304.7 1202.2, 246.1 1150.0" stroke="black" fill="none"/><path d="M 246.1 1150.0 C 186.5 1096.9, 434.1 1214.4, 394.5 1151.1" stroke="black" fill="none"/><path d="M 394.5 1151.1 C 351.4 1082.1, 203.9 1147.2, 253.9 1187.5" stroke="black" fill="none"/><path d="M 253.9 1187.5 C 336.7 1254.4, 458.8 989.9, 461.9 1105.4" stroke="black" fill="none"/><path d="M 461.9 1105.4 C 464.9 1215.9, 614.7 1160.8, 692.8 1107.4" stroke="black" fill="none"/><path d="M 692.8 1107.4 C 789.8 1041.0, 626.2 858.1, 694.9 908.6" stroke="black" fill="none"/><path d="M 694.9 908.6 C 757.8 954.7, 791.4 859.0, 859.7 896.4" stroke="black" fill="none"/><path d="M 859.7 896.4 C 1002.8 974.9, 962.6 418.0, 816.3 551.4" stroke="black" fill="none"/><path d="M 816.3 551.4 C 756.9 605.5, 675.7 534.0, 697.0 459.2" stroke="black" fill="none"/><path d="M 697.0 459.2 C 727.3 353.0, 837.4 657.1, 913.0 559.7" stroke="black" fill="none"/><path d="M 913.0 559.7 C 962.5 495.9, 866.0 711.2, 934.8 731.9" stroke="black" fill="none"/><path d="M 934.8 731.9 C 1009.5 754.2, 816.6 719.7, 792.4 789.0" stroke="black" fill="none"/><path d="M 792.4 789.0 C 754.6 897.5, 670.7 733.4, 588.2 825.9" stroke="black" fill="none"/><path d="M 588.2 825.9 C 487.8 938.4, 706.1 904.9, 794.7 1013.1" stroke="black" fill="none"/><path d="M 794.7 1013.1 C 903.7 1146.1, 619.0 1081.6, 490.7 1115.3" stroke="black" fill="none"/><path d="M 490.7 1115.3 C 327.2 1158.1, 552.8 1333.8, 707.7 1384.9" stroke="black" fill="none"/><path d="M 707.7 1384.9 C 763.5 1403.3, 784.2 1367.6, 841.6 1342.7" stroke="black" fill="none"/><path d="M 841.6 1342.7 C 903.0 1316.1, 908.0 1324.5, 978.9 1351.8" stroke="black" fill="none"/><path d="M 978.9 1351.8 C 1119.4 1405.8, 1091.1 960.3, 1150.8 1082.7" stroke="black" fill="none"/><path d="M 1150.8 1082.7 C 1210.0 1204.3, 1123.7 1225.8, 975.4 1282.3" stroke="black" fill="none"/><path d="M 975.4 1282.3 C 683.6 1393.3, 719.9 505.9, 645.9 819.5" stroke="black" fill="none"/><path d="M 645.9 819.5 C 602.7 1002.5, 717.4 1165.2, 846.0 1106.6" stroke="black" fill="none"/><path d="M 846.0 1106.6 C 991.0 1040.6, 1115.9 1008.1, 1143.0 1139.3" stroke="black" fill="none"/><path d="M 1143.0 1139.3 C 1156.4 1204.5, 1016.0 1081.1, 991.0 1141.6" stroke="black" fill="none"/><path d="M 991.0 1141.6 C 961.6 1212.7, 965.2 1257.7, 1031.2 1282.4" stroke="black" fill="none"/><path d="M 1031.2 1282.4 C 1134.9 1321.1, 978.6 1002.3, 1041.2 1065.7" stroke="black" fill="none"/><path d="M 1041.2 1065.7 C 1101.8 1127.2, 1263.3 1186.2, 1247.3 1097.6" stroke="black" fill="none"/><path d="M 1247.3 1097.6 C 1234.4 1025.8, 1148.7 1159.8, 1106.8 1114.7" stroke="black" fill="none"/><path d="M 1106.8 1114.7 C 1033.9 1036.1, 970.0 1038.0, 907.1 1108.7" stroke="black" fill="none"/><path d="M 907.1 1108.7 C 852.2 1170.4, 1007.5 1251.5, 1031.9 1183.3" stroke="black" fill="none"/><path d="M 1031.9 1183.3 C 1051.0 1129.6, 1111.1 1176.8, 1162.4 1238.6" stroke="black" fill="none"/><path d="M 1162.4 1238.6 C 1203.4 1287.9, 1141.8 1152.6, 1181.8 1096.2" stroke="black" fill="none"/><path d="M 1181.8 1096.2 C 1234.7 1021.5, 1089.0 1042.6, 1022.5 1064.8" stroke="black" fill="none"/><path d="M 1022.5 1064.8 C 947.7 1089.9, 1128.5 1218.9, 1034.6 1258.0" stroke="black" fill="none"/><path d="M 1034.6 1258.0 C 968.6 1285.3, 913.8 1183.4, 959.6 1134.7" stroke="black" fill="none"/><path d="M 959.6 1134.7 C 1081.8 1004.7, 710.1 1281.9, 620.4 1169.8" stroke="black" fill="none"/><path d="M 620.4 1169.8 C 560.2 1094.7, 789.2 1049.8, 838.9 1141.0" stroke="black" fill="none"/><path d="M 838.9 1141.0 C 876.6 1210.1, 937.8 1059.6, 1007.3 1078.8" stroke="black" fill="none"/><path d="M 1007.3 1078.8 C 1069.4 1095.9, 1083.6 1070.4, 1147.1 1018.9" stroke="black" fill="none"/><path d="M 1147.1 1018.9 C 1191.5 982.8, 1263.8 1111.8, 1195.6 1146.6" stroke="black" fill="none"/><path d="M 1195.6 1146.6 C 1125.9 1182.1, 1105.9 1282.8, 1185.9 1286.0" stroke="black" fill="none"/><path d="M 1185.9 1286.0 C 1322.3 1291.4, 1190.5 968.4, 1056.9 1033.1" stroke="black" fill="none"/><path d="M 1056.9 1033.1 C 981.9 1069.3, 831.2 1190.4, 933.5 1194.2" stroke="black" fill="none"/><path d="M 933.5 1194.2 C 1018.3 1197.4, 957.3 1090.3, 893.7 1051.1" stroke="black" fill="none"/><path d="M 893.7 1051.1 C 727.0 948.4, 510.9 755.9, 722.0 740.6" stroke="black" fill="none"/><path d="M 722.0 740.6 C 788.5 735.8, 782.0 816.0, 837.7 813.8" stroke="black" fill="none"/><path d="M 837.7 813.8 C 1040.6 805.9, 845.9 639.5, 897.6 429.0" stroke="black" fill="none"/><path d="M 897.6 429.0 C 940.9 252.2, 529.7 758.9, 530.5 542.5" stroke="black" fill="none"/><path d="M 530.5 542.5 C 531.0 410.1, 635.1 926.4, 727.9 793.9" stroke="black" fill="none"/><path d="M 727.9 793.9 C 788.5 707.4, 586.7 862.2, 553.8 766.1" stroke="black" fill="none"/><path d="M 553.8 766.1 C 497.0 600.4, 625.6 635.6, 669.7 491.3" stroke="black" fill="none"/><path d="M 669.7 491.3 C 689.3 426.9, 766.5 581.9, 831.7 513.9" stroke="black" fill="none"/><path d="M 831.7 513.9 C 918.7 423.4, 895.3 803.1, 946.5 719.9" stroke="black" fill="none"/><path d="M 946.5 719.9 C 1000.6 632.1, 867.1 485.3, 763.6 548.2" stroke="black" fill="none"/><path d="M 763.6 548.2 C 693.4 590.9, 621.7 498.5, 585.2 581.3" stroke="black" fill="none"/><path d="M 585.2 581.3 C 536.0 692.9, 844.7 399.2, 820.9 525.0" stroke="black" fill="none"/><path d="M 820.9 525.0 C 808.9 588.3, 747.3 485.1, 693.9 459.3" stroke="black" fill="none"/><path d="M 693.9 459.3 C 603.8 415.8, 593.5 674.1, 541.6 593.3" stroke="black" fill="none"/><path d="M 541.6 593.3 C 490.7 514.1, 749.4 600.4, 715.2 522.3" stroke="black" fill="none"/><path d="M 715.2 522.3 C 676.7 434.7, 529.2 596.5, 538.4 521.9" stroke="black" fill="none"/><path d="M 538.4 521.9 C 545.7 462.8, 703.0 608.4, 646.1 610.9" stroke="black" fill="none"/><path d="M 646.1 610.9 C 543.5 615.4, 727.6 771.2, 654.2 789.2" stroke="black" fill="none"/><path d="M 654.2 789.2 C 545.5 815.8, 475.5 616.8, 583.2 573.5" stroke="black" fill="none"/><path d="M 583.2 573.5 C 739.7 510.5, 858.5 445.8, 898.6 619.5" stroke="black" fill="none"/><path d="M 898.6 619.5 C 989.2 1012.0, 332.7 1194.6, 649.6 1253.1" stroke="black" fill="none"/><path d="M 649.6 1253.1 C 895.7 1298.5, 726.6 1018.4, 693.2 836.2" stroke="black" fill="none"/><path d="M 693.2 836.2 C 673.9 730.6, 574.7 818.4, 523.3 717.2" stroke="black" fill="none"/><path d="M 523.3 717.2 C 451.1 575.0, 849.1 477.8, 698.9 494.3" stroke="black" fill="none"/><path d="M 698.9 494.3 C 596.8 505.6, 602.7 580.6, 513.9 661.2" stroke="black" fill="none"/><path d="M 513.9 661.2 C 378.6 784.3, 920.6 720.7, 809.8 825.4" stroke="black" fill="none"/><path d="M 809.8 825.4 C 652.6 974.0, 740.8 1016.7, 635.8 1162.8" stroke="black" fill="none"/><path d="M 635.8 1162.8 C 592.5 1223.0, 684.8 1002.0, 623.5 1028.0" stroke="black" fill="none"/><path d="M 623.5 1028.0 C 412.8 1117.4, 177.0 1295.9, 348.5 1309.5" stroke="black" fill="none"/><path d="M 348.5 1309.5 C 419.1 1315.1, 278.6 1093.1, 248.4 1181.7" stroke="black" fill="none"/><path d="M 248.4 1181.7 C 217.7 1271.6, 348.6 1126.7, 429.2 1061.8" stroke="black" fill="none"/><path d="M 429.2 1061.8 C 484.3 1017.4, 472.8 1173.2, 400.7 1197.4" stroke="black" fill="none"/><path d="M 400.7 1197.4 C 339.4 1218.0, 512.2 1375.3, 531.4 1289.6" stroke="black" fill="none"/><path d="M 531.4 1289.6 C 546.8 1220.6, 343.4 1289.2, 389.2 1331.0" stroke="black" fill="none"/><path d="M 389.2 1331.0 C 447.1 1383.8, 625.7 1188.2, 572.8 1282.9" stroke="black" fill="none"/><path d="M 572.8 1282.9 C 543.5 1335.6, 607.5 1363.6, 678.7 1374.7" stroke="black" fill="none"/><path d="M 678.7 1374.7 C 762.0 1387.5, 751.9 1309.9, 856.6 1312.3" stroke="black" fill="none"/><path d="M 856.6 1312.3 C 934.0 1314.1, 965.0 1094.8, 901.0 1145.0" stroke="black" fill="none"/><path d="M 901.0 1145.0 C 850.3 1184.7, 993.8 1094.7, 1043.0 1143.6" stroke="black" fill="none"/><path d="M 1043.0 1143.6 C 1123.6 1223.6, 1187.4 1243.6, 1244.0 1145.1" stroke="black" fill="none"/><path d="M 1244.0 1145.1 C 1305.4 1038.2, 962.9 964.5, 988.8 1080.7" stroke="black" fill="none"/><path d="M 988.8 1080.7 C 1001.8 1138.9, 1051.9 1244.5, 1089.8 1174.1" stroke="black" fill="none"/><path d="M 1089.8 1174.1 C 1120.9 1116.4, 969.0 1061.0, 1023.5 1054.0" stroke="black" fill="none"/><path d="M 1023.5 1054.0 C 1092.1 1045.1, 1108.3 1152.3, 1152.3 1101.9" stroke="black" fill="none"/><path d="M 1152.3 1101.9 C 1229.0 1013.9, 833.9 1206.7, 919.7 1100.9" stroke="black" fill="none"/><path d="M 919.7 1100.9 C 979.6 1027.0, 1007.7 1097.7, 1096.5 1137.1" stroke="black" fill="none"/><path d="M 1096.5 1137.1 C 1171.0 1170.2, 1194.5 1177.4, 1246.7 1132.3" stroke="black" fill="none"/><path d="M 1246.7 1132.3 C 1293.5 1091.8, 1072.1 1073.9, 1131.1 1052.0" stroke="black" fill="none"/><path d="M 1131.1 1052.0 C 1219.4 1019.1, 1200.5 1167.0, 1150.9 1263.0" stroke="black" fill="none"/><path d="M 1150.9 1263.0 C 1123.0 1316.9, 1167.1 1153.0, 1106.5 1129.1" stroke="black" fill="none"/><path d="M 1106.5 1129.1 C 1032.9 1100.0, 1032.7 1285.1, 960.7 1250.2" stroke="black" fill="none"/><path d="M 960.7 1250.2 C 829.4 1186.6, 1124.0 1266.7, 1257.9 1151.2" stroke="black" fill="none"/><path d="M 1257.9 1151.2 C 1346.1 1075.2, 937.0 1143.6, 1022.6 1071.1" stroke="black" fill="none"/><path d="M 1022.6 1071.1 C 1141.1 970.6, 794.5 1167.9, 758.8 1068.1" stroke="black" fill="none"/><path d="M 758.8 1068.1 C 735.4 1002.6, 705.2 1117.7, 692.4 1196.2" stroke="black" fill="none"/><path d="M 692.4 1196.2 C 675.4 1300.0, 770.4 996.2, 837.6 1052.7" stroke="black" fill="none"/><path d="M 837.6 1052.7 C 883.5 1091.4, 764.0 1041.2, 704.5 1099.7" stroke="black" fill="none"/><path d="M 704.5 1099.7 C 631.3 1171.6, 365.0 984.8, 462.0 1093.1" stroke="black" fill="none"/><path d="M 462.0 1093.1 C 514.8 1151.9, 442.2 1248.1, 513.2 1219.0" stroke="black" fill="none"/><path d="M 513.2 1219.0 C 591.4 1186.9, 566.9 1027.5, 596.3 1091.0" stroke="black" fill="none"/><path d="M 596.3 1091.0 C 622.9 1148.3, 657.1 1029.8, 715.0 1024.9" stroke="black" fill="none"/><path d="M 715.0 1024.9 C 796.8 1018.0, 732.7 920.4, 678.9 890.1" stroke="black" fill="none"/><path d="M 678.9 890.1 C 590.3 840.3, 773.3 991.7, 701.8 1082.7" stroke="black" fill="none"/><path d="M 701.8 1082.7 C 654.8 1142.7, 845.4 1182.4, 785.3 1206.0" stroke="black" fill="none"/><path d="M 785.3 1206.0 C 724.6 1229.7, 781.1 1030.2, 732.8 1080.3" stroke="black" fill="none"/><path d="M 732.8 1080.3 C 614.6 1202.7, 1142.6 1190.2, 1050.9 1082.5" stroke="black" fill="none"/><path d="M 1050.9 1082.5 C 945.3 958.3, 873.0 1474.1, 784.1 1293.6" stroke="black" fill="none"/><path d="M 784.1 1293.6 C 700.4 1123.7, 537.4 955.5, 726.9 837.1" stroke="black" fill="none"/><path d="M 726.9 837.1 C 834.6 769.8, 547.5 964.1, 642.6 1059.4" stroke="black" fill="none"/><path d="M 642.6 1059.4 C 708.2 1125.2, 478.2 1003.7, 469.0 1107.7" stroke="black" fill="none"/><path d="M 469.0 1107.7 C 459.1 1219.1, 366.1 1341.7, 359.9 1259.0" stroke="black" fill="none"/><path d="M 359.9 1259.0 C 352.1 1155.4, 465.4 1289.4, 533.3 1265.3" stroke="black" fill="none"/><path d="M 533.3 1265.3 C 645.0 1225.5, 428.1 1007.3, 336.1 1104.1" stroke="black" fill="none"/><path d="M 336.1 1104.1 C 275.6 1167.7, 241.5 1225.3, 308.8 1261.3" stroke="black" fill="none"/><path d="M 308.8 1261.3 C 390.8 1305.1, 611.3 1356.3, 527.2 1278.9" stroke="black" fill="none"/><path d="M 527.2 1278.9 C 471.7 1227.8, 369.0 1263.0, 397.5 1332.3" stroke="black" fill="none"/><path d="M 397.5 1332.3 C 432.6 1417.8, 649.5 1237.2, 602.8 1326.5" stroke="black" fill="none"/><path d="M 602.8 1326.5 C 557.9 1412.3, 706.0 1307.7, 759.7 1373.2" stroke="black" fill="none"/><path d="M 759.7 1373.2 C 806.1 1429.9, 634.5 1416.8, 577.8 1369.5" stroke="black" fill="none"/><path d="M 577.8 1369.5 C 533.3 1332.3, 514.7 1363.3, 435.9 1347.6" stroke="black" fill="none"/><path d="M 435.9 1347.6 C 320.4 1324.6, 431.4 946.0, 504.4 1087.9" stroke="black" fill="none"/><path d="M 504.4 1087.9 C 544.0 1164.8, 302.0 1113.0, 362.0 1143.7" stroke="black" fill="none"/><path d="M 362.0 1143.7 C 423.0 1175.0, 249.6 1124.0, 216.7 1194.8" stroke="black" fill="none"/><path d="M 216.7 1194.8 C 173.5 1287.7, 412.3 958.5, 434.6 1086.1" stroke="black" fill="none"/><path d="M 434.6 1086.1 C 445.7 1150.1, 298.8 1207.3, 293.6 1143.7" stroke="black" fill="none"/><path d="M 293.6 1143.7 C 287.7 1071.5, 444.1 1083.8, 394.1 1047.0" stroke="black" fill="none"/><path d="M 394.1 1047.0 C 307.4 983.2, 525.2 1334.2, 437.4 1259.0" stroke="black" fill="none"/><path d="M 437.4 1259.0 C 387.1 1216.1, 288.3 1333.4, 297.7 1260.0" stroke="black" fill="none"/><path d="M 297.7 1260.0 C 311.4 1153.8, 513.7 1156.2, 442.3 1041.8" stroke="black" fill="none"/><path d="M 442.3 1041.8 C 384.0 948.4, 374.8 1421.2, 336.5 1287.4" stroke="black" fill="none"/><path d="M 336.5 1287.4 C 318.9 1225.7, 408.9 1261.0, 493.2 1272.7" stroke="black" fill="none"/><path d="M 493.2 1272.7 C 589.2 1286.0, 487.9 1143.1, 578.7 1115.1" stroke="black" fill="none"/><path d="M 578.7 1115.1 C 688.1 1081.2, 652.9 803.0, 708.6 897.6" stroke="black" fill="none"/><path d="M 708.6 897.6 C 762.6 989.3, 797.9 914.8, 882.0 947.1" stroke="black" fill="none"/><path d="M 882.0 947.1 C 984.0 986.2, 741.6 688.8, 830.5 744.6" stroke="black" fill="none"/><path d="M 830.5 744.6 C 914.7 797.5, 611.8 748.8, 626.8 849.6" stroke="black" fill="none"/><path d="M 626.8 849.6 C 643.1 960.2, 846.2 991.0, 868.7 881.4" stroke="black" fill="none"/><path d="M 868.7 881.4 C 908.1 689.2, 429.3 836.3, 558.4 746.3" stroke="black" fill="none"/><path d="M 558.4 746.3 C 620.1 703.3, 702.4 743.0, 680.8 808.3" stroke="black" fill="none"/><path d="M 680.8 808.3 C 656.5 881.9, 825.2 960.5, 732.7 961.4" stroke="black" fill="none"/><path d="M 732.7 961.4 C 603.5 962.6, 621.1 751.7, 740.1 725.7" stroke="black" fill="none"/><path d="M 740.1 725.7 C 855.7 700.3, 795.0 971.3, 673.3 956.8" stroke="black" fill="none"/><path d="M 673.3 956.8 C 580.5 945.7, 748.4 761.8, 672.3 794.3" stroke="black" fill="none"/><path d="M 672.3 794.3 C 607.2 822.1, 473.9 766.6, 545.0 707.7" stroke="black" fill="none"/><path d="M 545.0 707.7 C 608.5 655.1, 510.4 631.6, 531.0 567.5" stroke="black" fill="none"/><path d="M 531.0 567.5 C 562.0 471.4, 861.0 591.9, 750.1 523.2" stroke="black" fill="none"/><path d="M 750.1 523.2 C 684.4 482.4, 898.6 562.3, 884.7 481.7" stroke="black" fill="none"/><path d="M 884.7 481.7 C 868.0 385.1, 790.2 723.5, 728.7 626.3" stroke="black" fill="none"/><path d="M 728.7 626.3 C 672.6 537.6, 533.8 560.8, 546.8 638.6" stroke="black" fill="none"/><path d="M 546.8 638.6 C 564.9 746.7, 697.3 383.0, 719.6 489.5" stroke="black" fill="none"/><path d="M 719.6 489.5 C 740.0 587.3, 629.0 542.1, 543.0 575.4" stroke="black" fill="none"/><path d="M 543.0 575.4 C 466.5 605.1, 596.0 660.5, 555.0 716.4" stroke="black" fill="none"/><path d="M 555.0 716.4 C 503.2 786.9, 577.4 808.0, 534.0 867.0" stroke="black" fill="none"/><path d="M 534.0 867.0 C 325.5 1150.3, 562.1 1484.8, 835.9 1398.1" stroke="black" fill="none"/><path d="M 835.9 1398.1 C 897.1 1378.7, 856.7 1327.2, 895.9 1268.1" stroke="black" fill="none"/><path d="M 895.9 1268.1 C 965.4 1163.5, 622.8 1130.3, 690.0 1223.5" stroke="black" fill="none"/><path d="M 690.0 1223.5 C 794.2 1368.2, 882.1 868.0, 707.3 909.1" stroke="black" fill="none"/><path d="M 707.3 909.1 C 631.7 926.8, 745.8 825.8, 726.2 751.8" stroke="black" fill="none"/><path d="M 726.2 751.8 C 702.2 661.2, 721.3 928.0, 630.5 943.5" stroke="black" fill="none"/><path d="M 630.5 943.5 C 560.1 955.5, 671.9 776.5, 621.1 805.8" stroke="black" fill="none"/><path d="M 621.1 805.8 C 516.3 866.2, 513.7 705.5, 529.1 622.3" stroke="black" fill="none"/><path d="M 529.1 622.3 C 541.2 557.1, 596.7 468.8, 630.2 521.2" stroke="black" fill="none"/><path d="M 630.2 521.2 C 688.7 612.7, 984.1 463.7, 880.2 555.9" stroke="black" fill="none"/><path d="M 880.2 555.9 C 817.6 611.6, 983.6 650.9, 930.0 711.5" stroke="black" fill="none"/><path d="M 930.0 711.5 C 865.2 784.9, 766.1 900.9, 875.5 897.9" stroke="black" fill="none"/><path d="M 875.5 897.9 C 953.0 895.8, 758.9 768.8, 828.8 765.9" stroke="black" fill="none"/><path d="M 828.8 765.9 C 944.6 761.2, 672.9 839.7, 654.6 968.0" stroke="black" fill="none"/><path d="M 654.6 968.0 C 644.6 1038.4, 781.2 1075.4, 710.1 1119.1" stroke="black" fill="none"/><path d="M 710.1 1119.1 C 598.4 1187.6, 667.5 689.9, 619.6 815.2" stroke="black" fill="none"/><path d="M 619.6 815.2 C 590.9 890.3, 675.7 981.8, 735.0 917.8" stroke="black" fill="none"/><path d="M 735.0 917.8 C 776.9 872.6, 668.8 923.1, 596.1 936.2" stroke="black" fill="none"/><path d="M 596.1 936.2 C 526.3 948.8, 683.2 745.1, 620.3 793.5" stroke="black" fill="none"/><path d="M 620.3 793.5 C 571.1 831.4, 630.4 977.6, 694.9 918.9" stroke="black" fill="none"/><path d="M 694.9 918.9 C 752.4 866.7, 675.9 710.6, 648.2 767.9" stroke="black" fill="none"/><path d="M 648.2 767.9 C 601.0 865.8, 777.4 602.5, 847.2 692.5" stroke="black" fill="none"/><path d="M 847.2 692.5 C 910.2 773.8, 597.7 788.6, 684.9 801.1" stroke="black" fill="none"/><path d="M 684.9 801.1 C 812.2 819.5, 1007.2 739.0, 899.5 694.1" stroke="black" fill="none"/><path d="M 899.5 694.1 C 722.6 620.4, 429.1 686.1, 554.2 885.2" stroke="black" fill="none"/><path d="M 554.2 885.2 C 746.6 1191.3, 1250.9 1388.9, 1150.9 1118.7" stroke="black" fill="none"/><path d="M 1150.9 1118.7 C 1053.8 856.4, 949.2 1344.3, 661.5 1371.7" stroke="black" fill="none"/><path d="M 661.5 1371.7 C 557.2 1381.7, 492.1 1354.2, 520.3 1259.8" stroke="black" fill="none"/><path d="M 520.3 1259.8 C 547.7 1168.2, 353.4 1095.9, 382.9 1178.4" stroke="black" fill="none"/><path d="M 382.9 1178.4 C 415.2 1268.7, 525.0 1013.1, 525.7 1106.2" stroke="black" fill="none"/><path d="M 525.7 1106.2 C 526.3 1187.0, 658.3 997.7, 690.8 1071.8" stroke="black" fill="none"/><path d="M 690.8 1071.8 C 736.6 1176.1, 802.2 1022.2, 882.9 1067.4" stroke="black" fill="none"/><path d="M 882.9 1067.4 C 974.4 1118.7, 1019.6 1072.0, 1113.0 1008.3" stroke="black" fill="none"/><path d="M 1113.0 1008.3 C 1202.2 947.4, 1143.3 1346.2, 1051.2 1261.2" stroke="black" fill="none"/><path d="M 1051.2 1261.2 C 1004.9 1218.4, 912.7 1315.3, 903.3 1239.6" stroke="black" fill="none"/><path d="M 903.3 1239.6 C 892.0 1147.8, 812.8 1454.5, 765.3 1365.6" stroke="black" fill="none"/><path d="M 765.3 1365.6 C 720.1 1281.1, 849.7 1337.5, 971.8 1350.9" stroke="black" fill="none"/><path d="M 971.8 1350.9 C 1079.1 1362.7, 946.0 1106.4, 1039.2 1169.4" stroke="black" fill="none"/><path d="M 1039.2 1169.4 C 1095.2 1207.1, 874.1 1328.2, 955.6 1315.6" stroke="black" fill="none"/><path d="M 955.6 1315.6 C 1034.7 1303.4, 886.5 1105.0, 956.7 1160.5" stroke="black" fill="none"/><path d="M 956.7 1160.5 C 1038.7 1225.5, 1091.9 1220.0, 1150.1 1167.9" stroke="black" fill="none"/><path d="M 1150.1 1167.9 C 1203.1 1120.4, 1214.8 1163.5, 1283.7 1147.4" stroke="black" fill="none"/><path d="M 1283.7 1147.4 C 1397.2 1120.8, 1054.7 1290.6, 1143.4 1323.7" stroke="black" fill="none"/><path d="M 1143.4 1323.7 C 1196.3 1343.4, 1059.6 1204.6, 1113.5 1186.7" stroke="black" fill="none"/><path d="M 1113.5 1186.7 C 1186.9 1162.4, 920.5 1151.5, 978.9 1125.4" stroke="black" fill="none"/><path d="M 978.9 1125.4 C 1043.6 1096.3, 1207.7 1164.1, 1130.4 1204.7" stroke="black" fill="none"/><path d="M 1130.4 1204.7 C 1057.1 1243.0, 962.8 1090.9, 991.5 1152.5" stroke="black" fill="none"/><path d="M 991.5 1152.5 C 1104.4 1395.4, 239.0 1399.2, 402.6 1196.3" stroke="black" fill="none"/><path d="M 402.6 1196.3 C 445.1 1143.5, 209.1 1186.5, 269.5 1133.8" stroke="black" fill="none"/><path d="M 269.5 1133.8 C 314.8 1094.3, 245.3 1329.0, 297.1 1274.2" stroke="black" fill="none"/><path d="M 297.1 1274.2 C 357.4 1210.4, 241.6 1058.6, 369.5 1067.3" stroke="black" fill="none"/><path d="M 369.5 1067.3 C 489.5 1075.5, 606.9 1305.0, 572.1 1192.0" stroke="black" fill="none"/><path d="M 572.1 1192.0 C 519.9 1022.5, 381.1 1030.4, 262.7 1134.8" stroke="black" fill="none"/><path d="M 262.7 1134.8 C 186.0 1202.5, 339.5 1204.0, 326.3 1300.4" stroke="black" fill="none"/><path d="M 326.3 1300.4 C 313.4 1394.1, 496.5 1241.3, 484.0 1303.3" stroke="black" fill="none"/><path d="M 484.0 1303.3 C 471.9 1363.6, 619.8 1418.9, 623.1 1357.6" stroke="black" fill="none"/><path d="M 623.1 1357.6 C 627.8 1268.5, 521.0 1167.5, 515.7 1242.3" stroke="black" fill="none"/><path d="M 515.7 1242.3 C 502.0 1435.3, 723.5 1349.0, 847.9 1294.3" stroke="black" fill="none"/><path d="M 847.9 1294.3 C 925.7 1260.1, 1095.2 1244.3, 1037.5 1306.5" stroke="black" fill="none"/><path d="M 1037.5 1306.5 C 978.2 1370.4, 884.3 1297.5, 887.0 1374.2" stroke="black" fill="none"/><path d="M 887.0 1374.2 C 890.7 1477.0, 966.2 1266.5, 1065.3 1297.8" stroke="black" fill="none"/><path d="M 1065.3 1297.8 C 1138.6 1321.0, 859.8 1276.3, 897.6 1363.0" stroke="black" fill="none"/><path d="M 897.6 1363.0 C 928.4 1433.7, 807.7 1359.0, 747.2 1329.1" stroke="black" fill="none"/><path d="M 747.2 1329.1 C 548.2 1230.9, 496.6 1299.8, 300.6 1373.8" stroke="black" fill="none"/><path d="M 300.6 1373.8 C 232.4 1399.5, 349.2 1169.6, 371.9 1230.1" stroke="black" fill="none"/><path d="M 371.9 1230.1 C 396.2 1294.9, 546.9 1167.7, 510.4 1218.7" stroke="black" fill="none"/><path d="M 510.4 1218.7 C 467.9 1278.0, 495.7 1314.6, 571.3 1378.8" stroke="black" fill="none"/><path d="M 571.3 1378.8 C 686.7 1476.8, 736.0 1294.4, 906.9 1265.6" stroke="black" fill="none"/><path d="M 906.9 1265.6 C 975.4 1254.1, 1057.5 1275.1, 1044.5 1339.1" stroke="black" fill="none"/><path d="M 1044.5 1339.1 C 1023.2 1443.2, 776.4 1327.8, 870.1 1277.1" stroke="black" fill="none"/><path d="M 870.1 1277.1 C 1087.3 1159.6, 638.2 1173.6, 463.5 1201.0" stroke="black" fill="none"/><path d="M 463.5 1201.0 C 384.6 1213.3, 399.9 1169.0, 335.8 1133.0" stroke="black" fill="none"/><path d="M 335.8 1133.0 C 236.0 1077.0, 665.9 1127.2, 575.0 1082.1" stroke="black" fill="none"/><path d="M 575.0 1082.1 C 503.7 1046.8, 541.1 1180.7, 586.4 1230.4" stroke="black" fill="none"/><path d="M 586.4 1230.4 C 637.7 1286.5, 532.0 1452.5, 586.5 1384.5" stroke="black" fill="none"/><path d="M 586.5 1384.5 C 653.5 1300.9, 672.2 1402.7, 768.9 1360.8" stroke="black" fill="none"/><path d="M 768.9 1360.8 C 852.7 1324.5, 465.3 1384.8, 553.8 1303.9" stroke="black" fill="none"/><path d="M 553.8 1303.9 C 612.7 1250.0, 366.7 1250.4, 417.4 1197.5" stroke="black" fill="none"/><path d="M 417.4 1197.5 C 473.9 1138.5, 339.0 1404.5, 442.6 1384.2" stroke="black" fill="none"/><path d="M 442.6 1384.2 C 540.3 1365.1, 408.6 1251.7, 339.0 1252.4" stroke="black" fill="none"/><path d="M 339.0 1252.4 C 202.2 1253.7, 403.1 1170.7, 492.3 1050.0" stroke="black" fill="none"/><path d="M 492.3 1050.0 C 727.4 731.7, 893.5 1385.1, 1169.4 1117.4" stroke="black" fill="none"/><path d="M 1169.4 1117.4 C 1228.5 1060.1, 1247.0 1137.7, 1276.9 1219.3" stroke="black" fill="none"/><path d="M 1276.9 1219.3 C 1310.1 1310.1, 984.1 1188.7, 1045.3 1262.4" stroke="black" fill="none"/><path d="M 1045.3 1262.4 C 1128.1 1362.0, 1286.5 1043.3, 1173.2 1055.3" stroke="black" fill="none"/><path d="M 1173.2 1055.3 C 1061.3 1067.2, 1218.9 1215.4, 1107.2 1236.8" stroke="black" fill="none"/><path d="M 1107.2 1236.8 C 1028.3 1251.9, 1091.7 1173.0, 1095.1 1101.2" stroke="black" fill="none"/><path d="M 1095.1 1101.2 C 1098.9 1020.3, 1155.2 1154.4, 1213.9 1232.4" stroke="black" fill="none"/><path d="M 1213.9 1232.4 C 1261.5 1295.7, 1033.4 1168.0, 1047.0 1248.8" stroke="black" fill="none"/><path d="M 1047.0 1248.8 C 1061.5 1334.6, 873.3 1250.4, 919.6 1176.0" stroke="black" fill="none"/><path d="M 919.6 1176.0 C 991.3 1061.0, 758.1 1068.5, 646.8 1128.2" stroke="black" fill="none"/><path d="M 646.8 1128.2 C 523.9 1194.2, 701.5 1002.3, 741.0 888.8" stroke="black" fill="none"/><path d="M 741.0 888.8 C 775.7 789.5, 442.9 778.3, 568.9 739.2" stroke="black" fill="none"/><path d="M 568.9 739.2 C 699.5 698.7, 898.7 999.9, 832.8 868.5" stroke="black" fill="none"/><path d="M 832.8 868.5 C 790.7 784.7, 1032.6 682.8, 908.4 658.3" stroke="black" fill="none"/><path d="M 908.4 658.3 C 833.9 643.6, 1003.8 762.5, 927.7 804.2" stroke="black" fill="none"/><path d="M 927.7 804.2 C 743.3 905.2, 656.2 1064.0, 803.9 1140.8" stroke="black" fill="none"/><path d="M 803.9 1140.8 C 869.4 1174.9, 971.8 1126.5, 928.6 1083.9" stroke="black" fill="none"/><path d="M 928.6 1083.9 C 836.8 993.4, 597.5 1141.2, 679.3 1062.7" stroke="black" fill="none"/><path d="M 679.3 1062.7 C 739.3 1005.2, 844.5 1217.2, 756.4 1203.7" stroke="black" fill="none"/><path d="M 756.4 1203.7 C 687.4 1193.2, 814.3 1028.5, 836.4 1091.7" stroke="black" fill="none"/><path d="M 836.4 1091.7 C 906.5 1292.6, 718.7 1477.5, 542.8 1389.6" stroke="black" fill="none"/><path d="M 542.8 1389.6 C 463.1 1349.7, 598.9 1273.0, 563.4 1181.9" stroke="black" fill="none"/><path d="M 563.4 1181.9 C 524.8 1083.0, 306.8 1136.8, 389.7 1086.8" stroke="black" fill="none"/><path d="M 389.7 1086.8 C 518.3 1009.4, 299.2 1197.3, 296.7 1329.8" stroke="black" fill="none"/></svg>